<svg width="24" height="24" viewBox="0 0 24 24" fill="none" xmlns="http://www.w3.org/2000/svg">
<path d="M17.5447 6.99474C16.5248 6.53432 15.4314 6.1951 14.2879 6.00081C14.2671 5.99707 14.2464 6.00644 14.2356 6.02518C14.095 6.27131 13.9392 6.59241 13.8301 6.8448C12.6003 6.66364 11.3768 6.66364 10.1722 6.8448C10.0631 6.5868 9.90167 6.27131 9.7604 6.02518C9.74966 6.00707 9.72887 5.9977 9.70804 6.00081C8.56528 6.19449 7.47171 6.5337 6.4513 6.99474C6.44246 6.99849 6.43489 7.00474 6.42986 7.01285C4.3556 10.0621 3.78737 13.0364 4.06612 15.9737C4.06739 15.9881 4.07558 16.0018 4.08693 16.0106C5.45548 16.9995 6.78114 17.5999 8.0822 17.9978C8.10301 18.004 8.12508 17.9966 8.13832 17.9797C8.4461 17.5662 8.72043 17.1301 8.95566 16.6715C8.96954 16.6447 8.95629 16.6129 8.92791 16.6022C8.49276 16.4398 8.07841 16.2417 7.67982 16.0169C7.6483 15.9987 7.64578 15.9543 7.67478 15.9331C7.75865 15.8713 7.84255 15.8069 7.92264 15.742C7.93713 15.7301 7.95732 15.7277 7.97436 15.7351C10.5929 16.9114 13.4277 16.9114 16.0153 15.7351C16.0324 15.7269 16.0526 15.7295 16.0677 15.7414C16.1478 15.8063 16.2316 15.8713 16.3162 15.9331C16.3452 15.9543 16.3433 15.9987 16.3118 16.0169C15.9132 16.2461 15.4988 16.4398 15.063 16.6016C15.0347 16.6123 15.022 16.6447 15.036 16.6715C15.2762 17.1295 15.5505 17.5655 15.8526 17.9791C15.8653 17.9966 15.8879 18.004 15.9087 17.9978C17.2162 17.5999 18.5417 16.9995 19.9102 16.0106C19.9223 16.0018 19.9298 15.9887 19.9311 15.9743C20.2648 12.5784 19.3723 9.62853 17.5655 7.01348C17.561 7.00474 17.5535 6.99849 17.5447 6.99474ZM9.34669 14.1852C8.55834 14.1852 7.90876 13.473 7.90876 12.5984C7.90876 11.7238 8.54574 11.0116 9.34669 11.0116C10.1539 11.0116 10.7972 11.7301 10.7846 12.5984C10.7846 13.473 10.1476 14.1852 9.34669 14.1852ZM14.6631 14.1852C13.8748 14.1852 13.2253 13.473 13.2253 12.5984C13.2253 11.7238 13.8622 11.0116 14.6631 11.0116C15.4705 11.0116 16.1137 11.7301 16.1011 12.5984C16.1011 13.473 15.4705 14.1852 14.6631 14.1852Z" fill="white"/>
</svg>
