<svg width="24" height="24" viewBox="0 0 24 24" fill="none" xmlns="http://www.w3.org/2000/svg">
<path d="M12.2625 6.3125C14.1875 6.3125 14.45 6.3125 15.2375 6.3125C15.9375 6.3125 16.2875 6.4875 16.55 6.575C16.9 6.75 17.1625 6.8375 17.425 7.1C17.6875 7.3625 17.8625 7.625 17.95 7.975C18.0375 8.2375 18.125 8.5875 18.2125 9.2875C18.2125 10.075 18.2125 10.25 18.2125 12.2625C18.2125 14.275 18.2125 14.45 18.2125 15.2375C18.2125 15.9375 18.0375 16.2875 17.95 16.55C17.775 16.9 17.6875 17.1625 17.425 17.425C17.1625 17.6875 16.9 17.8625 16.55 17.95C16.2875 18.0375 15.9375 18.125 15.2375 18.2125C14.45 18.2125 14.275 18.2125 12.2625 18.2125C10.25 18.2125 10.075 18.2125 9.2875 18.2125C8.5875 18.2125 8.2375 18.0375 7.975 17.95C7.625 17.775 7.3625 17.6875 7.1 17.425C6.8375 17.1625 6.6625 16.9 6.575 16.55C6.4875 16.2875 6.4 15.9375 6.3125 15.2375C6.3125 14.45 6.3125 14.275 6.3125 12.2625C6.3125 10.25 6.3125 10.075 6.3125 9.2875C6.3125 8.5875 6.4875 8.2375 6.575 7.975C6.75 7.625 6.8375 7.3625 7.1 7.1C7.3625 6.8375 7.625 6.6625 7.975 6.575C8.2375 6.4875 8.5875 6.4 9.2875 6.3125C10.075 6.3125 10.3375 6.3125 12.2625 6.3125ZM12.2625 5C10.25 5 10.075 5 9.2875 5C8.5 5 7.975 5.175 7.5375 5.35C7.1 5.525 6.6625 5.7875 6.225 6.225C5.7875 6.6625 5.6125 7.0125 5.35 7.5375C5.175 7.975 5.0875 8.5 5 9.2875C5 10.075 5 10.3375 5 12.2625C5 14.275 5 14.45 5 15.2375C5 16.025 5.175 16.55 5.35 16.9875C5.525 17.425 5.7875 17.8625 6.225 18.3C6.6625 18.7375 7.0125 18.9125 7.5375 19.175C7.975 19.35 8.5 19.4375 9.2875 19.525C10.075 19.525 10.3375 19.525 12.2625 19.525C14.1875 19.525 14.45 19.525 15.2375 19.525C16.025 19.525 16.55 19.35 16.9875 19.175C17.425 19 17.8625 18.7375 18.3 18.3C18.7375 17.8625 18.9125 17.5125 19.175 16.9875C19.35 16.55 19.4375 16.025 19.525 15.2375C19.525 14.45 19.525 14.1875 19.525 12.2625C19.525 10.3375 19.525 10.075 19.525 9.2875C19.525 8.5 19.35 7.975 19.175 7.5375C19 7.1 18.7375 6.6625 18.3 6.225C17.8625 5.7875 17.5125 5.6125 16.9875 5.35C16.55 5.175 16.025 5.0875 15.2375 5C14.45 5 14.275 5 12.2625 5Z" fill="white"/>
<path d="M12.2625 8.5C10.1625 8.5 8.5 10.1625 8.5 12.2625C8.5 14.3625 10.1625 16.025 12.2625 16.025C14.3625 16.025 16.025 14.3625 16.025 12.2625C16.025 10.1625 14.3625 8.5 12.2625 8.5ZM12.2625 14.7125C10.95 14.7125 9.8125 13.6625 9.8125 12.2625C9.8125 10.95 10.8625 9.8125 12.2625 9.8125C13.575 9.8125 14.7125 10.8625 14.7125 12.2625C14.7125 13.575 13.575 14.7125 12.2625 14.7125Z" fill="white"/>
<path d="M16.1125 9.2875C16.5957 9.2875 16.9875 8.89575 16.9875 8.4125C16.9875 7.92925 16.5957 7.5375 16.1125 7.5375C15.6293 7.5375 15.2375 7.92925 15.2375 8.4125C15.2375 8.89575 15.6293 9.2875 16.1125 9.2875Z" fill="white"/>
</svg>
