<svg width="24" height="24" viewBox="0 0 24 24" fill="none" xmlns="http://www.w3.org/2000/svg">
<path d="M13.1526 12.1205C13.1526 14.9484 10.8798 17.2409 8.07638 17.2409C5.27294 17.2409 3 14.9479 3 12.1205C3 9.29314 5.27277 7 8.07638 7C10.88 7 13.1526 9.29262 13.1526 12.1205Z" fill="white"/>
<path d="M18.7229 12.1207C18.7229 14.7825 17.5865 16.9412 16.1847 16.9412C14.7829 16.9412 13.6465 14.7825 13.6465 12.1207C13.6465 9.45881 14.7827 7.30011 16.1845 7.30011C17.5863 7.30011 18.7227 9.45813 18.7227 12.1207" fill="white"/>
<path d="M21.0001 12.1207C21.0001 14.5051 20.6004 16.4392 20.1074 16.4392C19.6143 16.4392 19.2148 14.5056 19.2148 12.1207C19.2148 9.73581 19.6145 7.80222 20.1074 7.80222C20.6003 7.80222 21.0001 9.73564 21.0001 12.1207Z" fill="white"/>
</svg>
