<svg width="24" height="24" viewBox="0 0 24 24" fill="none" xmlns="http://www.w3.org/2000/svg">
<path d="M18.293 7.65218C17.4277 7.65218 16.6293 7.36554 15.9882 6.88196C15.2529 6.32762 14.7247 5.51446 14.5381 4.57722C14.4919 4.34565 14.467 4.10668 14.4647 3.86179H11.9929V10.6158L11.9899 14.3153C11.9899 15.3043 11.3459 16.143 10.4531 16.4379C10.194 16.5235 9.91411 16.5641 9.62273 16.5481C9.25079 16.5276 8.90225 16.4154 8.59932 16.2342C7.95465 15.8486 7.51757 15.1492 7.50573 14.3491C7.48707 13.0985 8.49804 12.079 9.74769 12.079C9.99436 12.079 10.2313 12.1192 10.4531 12.1924V10.3463V9.68271C10.2191 9.64807 9.98104 9.63 9.74029 9.63C8.37249 9.63 7.09323 10.1986 6.17879 11.2229C5.48764 11.9969 5.07306 12.9845 5.0091 14.0201C4.9253 15.3805 5.42308 16.6736 6.38845 17.6277C6.53029 17.7678 6.67924 17.8978 6.83501 18.0177C7.66267 18.6547 8.67453 19 9.74029 19C9.98104 19 10.2191 18.9822 10.4531 18.9476C11.4486 18.8001 12.3672 18.3444 13.0921 17.6277C13.9829 16.7474 14.475 15.5786 14.4804 14.3345L14.4676 8.81003C14.8926 9.13784 15.3572 9.40909 15.8559 9.61964C16.6314 9.94686 17.4537 10.1127 18.3001 10.1124V8.31758V7.65159C18.3007 7.65218 18.2936 7.65218 18.293 7.65218V7.65218Z" fill="white"/>
</svg>
