<svg width="24" height="24" viewBox="0 0 24 24" fill="none" xmlns="http://www.w3.org/2000/svg">
<path d="M12 5C8.13414 5 5 8.13414 5 12C5 15.8661 8.13414 19 12 19C15.8659 19 19 15.8661 19 12C19 8.13414 15.8659 5 12 5ZM7.53668 8.97441C7.63922 8.78027 7.75324 8.74664 7.92223 8.83414C8.11801 8.93613 8.80953 9.47453 8.9416 9.5809C9.0693 9.68344 9.0518 9.73676 8.9848 9.86883C8.91781 10.0006 8.85547 10.0345 8.73652 9.99707C8.49863 9.92188 7.79262 9.49449 7.60859 9.3843C7.44207 9.28422 7.42102 9.19398 7.53668 8.97441ZM7.13937 11.3525C7.15934 11.0859 7.26324 11.0698 7.43168 11.0859C7.62691 11.1048 8.53117 11.2519 8.675 11.2962C8.82402 11.3427 8.8448 11.4102 8.82648 11.5404C8.80352 11.7093 8.72695 11.7413 8.62934 11.7443C8.42152 11.7501 7.55855 11.7132 7.36141 11.6938C7.18996 11.6768 7.12051 11.6011 7.13937 11.3525ZM9.26645 13.3847C9.1207 13.4749 8.3477 13.8799 8.17324 13.9441C8.04855 13.9906 7.91348 13.9791 7.83391 13.744C7.73629 13.453 7.87328 13.3841 8.06879 13.3084C8.24133 13.2414 8.95801 12.9822 9.12453 12.9373C9.24156 12.9059 9.32277 12.9453 9.3791 13.0861C9.44117 13.2409 9.39852 13.3027 9.26645 13.3847ZM16.7261 11.5417C16.7121 11.5691 16.7053 11.583 16.7053 11.5898C16.547 11.9202 16.3337 12.3339 16.3337 12.8159C16.3337 14.214 15.8166 14.9304 15.4174 15.3023C15.0105 15.6816 14.3773 16.005 13.6401 16.005C13.1167 16.005 12.5723 15.8538 12.1247 15.5577C11.5122 15.1514 11.1398 14.5244 10.8023 13.9737C10.5264 13.5124 10.3268 13.1405 10.0307 12.4378C9.85871 12.0454 9.70012 11.6385 9.56941 11.2048C9.45238 10.8256 9.51445 10.5502 9.66512 10.3711C9.81715 10.1855 10.0307 10.0958 10.2648 10.0821C10.3061 10.0821 10.3473 10.0821 10.3886 10.0889C10.3542 9.95141 10.3405 9.83438 10.3405 9.73102C10.3405 9.28285 10.6921 8.95254 11.1671 8.95254C11.2292 8.95254 11.2912 8.95938 11.3462 8.97305C11.3394 8.8973 11.3325 8.83551 11.3325 8.77344C11.3325 8.28398 11.7323 7.99496 12.1731 7.99496C12.4834 7.99496 12.7175 8.1325 12.8545 8.4423C13.0549 8.3116 13.3303 8.26348 13.5643 8.32527C13.8815 8.40785 14.0743 8.62824 14.1913 9.30363C14.2326 9.51773 14.2947 9.77914 14.3704 10.0064C14.4667 10.2962 14.5769 10.5234 14.7696 10.8606C14.8314 10.9639 14.9072 11.081 14.9829 11.1912L15.045 11.0673C15.2309 10.688 15.5963 10.3162 16.1264 10.3162C16.3542 10.3162 16.6022 10.3987 16.7398 10.6328C16.8292 10.7638 16.8636 10.915 16.8636 11.046C16.8636 11.2248 16.7879 11.4039 16.7261 11.5417ZM16.1251 10.7313C15.7598 10.7313 15.5257 11.0066 15.3947 11.2475C15.3398 11.3506 15.2985 11.4608 15.264 11.5778C15.1883 11.8327 15.1125 11.936 14.8921 12.1148C14.7751 12.2182 14.6307 12.3489 14.5482 12.4523C14.4104 12.6388 14.3691 12.7971 14.3346 13.0448C14.3278 13.1069 14.2107 13.1345 14.0661 13.1345C13.9835 13.1345 13.9559 13.1069 13.9559 12.9762C13.9559 12.8384 14.0043 12.6319 14.1074 12.446C14.252 12.1911 14.4104 12.0536 14.5687 11.9226C14.727 11.7919 14.7751 11.737 14.8027 11.6544C14.6581 11.4608 14.5205 11.2612 14.4104 11.0684C14.2107 10.7173 14.08 10.4551 13.9767 10.1384C13.8941 9.88988 13.8252 9.60086 13.7839 9.37363C13.7013 8.89102 13.6188 8.76715 13.4604 8.72586C13.3295 8.69141 13.1575 8.72586 13.0609 8.80844C12.9852 8.87734 12.9579 8.9323 12.9784 9.08379C13.0128 9.41492 13.068 9.66977 13.1298 9.91066C13.2745 10.475 13.5154 10.9164 13.6393 11.178C13.6805 11.2675 13.715 11.3019 13.7839 11.2951C13.8802 11.2882 13.9354 11.2811 13.9972 11.2882C14.08 11.2951 14.1418 11.3432 14.1418 11.4258C14.1418 11.4947 14.1074 11.5223 13.9835 11.5496C13.7289 11.6049 13.4046 11.6943 13.088 11.8734C12.8189 12.0254 12.5849 12.2114 12.3713 12.4796C12.3508 12.5072 12.33 12.5212 12.2956 12.5212C12.2475 12.5212 12.2062 12.4659 12.1649 12.411C12.1236 12.3557 12.096 12.3145 12.096 12.2732C12.096 12.225 12.1168 12.1838 12.1649 12.1217C12.2406 12.0186 12.33 11.9429 12.33 11.8945C12.33 11.8603 12.268 11.7774 12.213 11.6812C12.1236 11.516 11.9721 11.1849 11.8687 10.9371C11.7104 10.5584 11.6002 10.0758 11.5384 9.77996C11.4627 9.45621 11.3457 9.3668 11.1666 9.3668C10.9188 9.3668 10.7537 9.51145 10.7537 9.73156C10.7537 9.87676 10.8018 10.0695 10.898 10.3862C10.9601 10.5929 11.0219 10.7993 11.0771 10.944C11.1666 11.1923 11.2768 11.4676 11.373 11.688C11.4627 11.8876 11.5934 12.1217 11.6555 12.2387C11.6899 12.3008 11.7517 12.4041 11.7517 12.4659C11.7517 12.5761 11.6691 12.6382 11.5589 12.6382C11.4971 12.6382 11.4419 12.6106 11.3801 12.5141C11.3044 12.4033 11.1389 12.0798 11.0219 11.8389C10.9325 11.6393 10.781 11.2806 10.7053 11.0329C10.5814 10.6405 10.4988 10.489 10.2855 10.4958C10.1614 10.5027 10.0583 10.5439 9.98258 10.6334C9.90684 10.7299 9.9 10.8814 9.9618 11.081C10.0928 11.501 10.2448 11.8865 10.408 12.2814C10.6979 12.9628 10.8838 13.3147 11.1523 13.762C11.4895 14.3127 11.8206 14.8643 12.3508 15.2154C12.7293 15.4631 13.1911 15.5941 13.6387 15.5941C14.2652 15.5941 14.7959 15.3179 15.1333 15.0013C15.4781 14.6846 15.9186 14.0645 15.9186 12.8176C15.9186 12.2464 16.1666 11.7501 16.3179 11.4263C16.3591 11.3438 16.4488 11.1718 16.4488 11.0479C16.4488 10.9927 16.4349 10.9169 16.4007 10.862C16.3386 10.7654 16.2421 10.7313 16.1251 10.7313ZM12.0284 10.1641C12.0902 10.4195 12.166 10.6396 12.2417 10.8324C12.3314 11.0673 12.4345 11.2669 12.5791 11.5354C12.648 11.6661 12.6825 11.6661 12.8477 11.5767C12.9784 11.5078 13.1711 11.4252 13.3158 11.3771C13.068 10.8401 12.8613 10.3919 12.7582 10.0132C12.7306 9.90301 12.6341 9.46195 12.6068 9.26918C12.586 9.07641 12.5655 8.91125 12.5171 8.73215C12.4621 8.51176 12.3864 8.40867 12.1731 8.40867C11.9732 8.40867 11.7323 8.51176 11.7323 8.77344C11.7323 8.9457 11.7804 9.20027 11.8288 9.40617C11.9114 9.6066 11.9251 9.73047 12.0284 10.1641Z" fill="white"/>
</svg>
