<svg width="24" height="24" viewBox="0 0 24 24" fill="none" xmlns="http://www.w3.org/2000/svg">
<path d="M12.4434 15.9165C11.9421 14.9618 11.3539 13.9975 10.2067 13.9975C9.98737 13.9975 9.76832 14.0326 9.56732 14.1214L9.17757 13.3667C9.65252 12.9724 10.42 12.6598 11.4065 12.6598C12.9411 12.6598 13.7287 13.3751 14.3539 14.2881C14.7251 13.5086 14.9016 12.456 14.9016 11.1512C14.9016 7.89301 13.8484 6.22003 11.3884 6.22003C8.96429 6.22003 7.91688 7.89301 7.91688 11.1512C7.91688 14.3923 8.96429 16.048 11.3884 16.048C11.7737 16.048 12.1227 16.0071 12.4434 15.9165ZM13.0444 17.0536C12.5129 17.1914 11.9483 17.2675 11.3884 17.2675C8.16049 17.2675 5 14.7754 5 11.1512C5 7.49266 8.16049 5 11.3884 5C14.6705 5 17.8007 7.47471 17.8007 11.1512C17.8007 13.1963 16.8144 14.8581 15.3809 15.9322C15.8441 16.6037 16.3209 17.0496 16.9849 17.0496C17.7094 17.0496 18.0016 16.5078 18.0506 16.083H18.9942C19.0493 16.6487 18.7569 19 16.1196 19C14.5223 19 13.6777 18.1042 13.0444 17.0536Z" fill="white"/>
</svg>
