<svg width="24" height="24" viewBox="0 0 24 24" fill="none" xmlns="http://www.w3.org/2000/svg">
<path d="M19 12.6151C19 11.7323 18.2618 11.0157 17.3524 11.0157C16.9042 11.0157 16.5087 11.1821 16.2188 11.4636C15.0984 10.683 13.543 10.1712 11.8295 10.1073L12.5808 6.69095L15.0193 7.18996C15.0457 7.79133 15.5597 8.27755 16.1924 8.27755C16.8383 8.27755 17.3656 7.76575 17.3656 7.13878C17.3656 6.51182 16.8383 6 16.1924 6C15.7311 6 15.3356 6.25592 15.1511 6.63977L12.4226 6.07678C12.3436 6.06398 12.2645 6.07678 12.1986 6.11517C12.1327 6.15355 12.0931 6.21753 12.0668 6.2943L11.2364 10.1073C9.48329 10.1584 7.91475 10.6575 6.78118 11.4636C6.49121 11.1949 6.0826 11.0157 5.64762 11.0157C4.73814 11.0157 4 11.7323 4 12.6151C4 13.2677 4.39542 13.8179 4.9754 14.0738C4.94902 14.2273 4.93585 14.3937 4.93585 14.56C4.93585 17.0167 7.87521 19 11.5132 19C15.1511 19 18.0905 17.0167 18.0905 14.56C18.0905 14.3937 18.0773 14.2401 18.0509 14.0866C18.5914 13.8307 19 13.2677 19 12.6151ZM7.73022 13.7539C7.73022 13.1269 8.25745 12.6151 8.90332 12.6151C9.54918 12.6151 10.0764 13.1269 10.0764 13.7539C10.0764 14.3809 9.54918 14.8927 8.90332 14.8927C8.25745 14.8927 7.73022 14.3809 7.73022 13.7539ZM14.2812 16.7608C13.4771 17.5412 11.9481 17.5925 11.5 17.5925C11.0518 17.5925 9.50964 17.5284 8.71878 16.7608C8.60016 16.6456 8.60016 16.4537 8.71878 16.3385C8.83742 16.2234 9.03512 16.2234 9.15376 16.3385C9.65464 16.8248 10.7355 17.0039 11.5132 17.0039C12.2908 17.0039 13.3585 16.8248 13.8725 16.3385C13.9912 16.2234 14.1889 16.2234 14.3075 16.3385C14.3998 16.4665 14.3998 16.6456 14.2812 16.7608ZM14.0703 14.8927C13.4244 14.8927 12.8972 14.3809 12.8972 13.7539C12.8972 13.1269 13.4244 12.6151 14.0703 12.6151C14.7161 12.6151 15.2434 13.1269 15.2434 13.7539C15.2434 14.3809 14.7161 14.8927 14.0703 14.8927Z" fill="white"/>
</svg>
