<svg width="24" height="24" viewBox="0 0 24 24" fill="none" xmlns="http://www.w3.org/2000/svg">
<path d="M19 7.3125C18.475 7.575 17.95 7.6625 17.3375 7.75C17.95 7.4 18.3875 6.875 18.5625 6.175C18.0375 6.525 17.425 6.7 16.725 6.875C16.2 6.35 15.4125 6 14.625 6C12.7875 6 11.3875 7.75 11.825 9.5C9.4625 9.4125 7.3625 8.275 5.875 6.525C5.0875 7.8375 5.525 9.5 6.75 10.375C6.3125 10.375 5.875 10.2 5.4375 10.025C5.4375 11.3375 6.4 12.5625 7.7125 12.9125C7.275 13 6.8375 13.0875 6.4 13C6.75 14.1375 7.8 15.0125 9.1125 15.0125C8.0625 15.8 6.4875 16.2375 5 16.0625C6.3125 16.85 7.8 17.375 9.375 17.375C14.7125 17.375 17.6875 12.9125 17.5125 8.8C18.125 8.45 18.65 7.925 19 7.3125Z" fill="white"/>
</svg>
