<svg width="24" height="24" viewBox="0 0 24 24" fill="none" xmlns="http://www.w3.org/2000/svg">
<path d="M16.9981 15.0026C16.9981 16.1091 16.0989 17.009 14.9935 17.009H9.00916C7.9037 17.009 7.00458 16.1091 7.00458 15.0026V9.01284C7.00458 7.90636 7.9037 7.00642 9.00916 7.00642H10.7484V5H9.00916C6.79823 5 5 6.79988 5 9.01284V14.9879C5 17.2008 6.79823 19.0007 9.00916 19.0007H14.9787C17.1896 19.0007 18.9879 17.2008 18.9879 14.9879V13.2617H16.998L16.9981 15.0026Z" fill="white"/>
<path d="M17.998 5H12.9719V7.00642H15.5808L10.0387 12.5536C9.64074 12.9372 9.64074 13.5863 10.0387 13.9699C10.2304 14.1617 10.4956 14.265 10.7462 14.265C10.9968 14.265 11.2621 14.1617 11.4537 13.9699L16.9957 8.42277V11.0341H19.0003L19.0004 6.00329C19.0004 5.44275 18.5582 5.00013 17.9982 5.00013L17.998 5Z" fill="white"/>
</svg>
