<svg width="102" height="27" viewBox="0 0 102 27" fill="none" xmlns="http://www.w3.org/2000/svg">
<path d="M16.29 13.1215C16.3014 12.2434 16.5346 11.3823 16.9681 10.6185C17.4016 9.85476 18.0213 9.21304 18.7694 8.75309C18.2941 8.07431 17.6671 7.51571 16.9382 7.12164C16.2093 6.72757 15.3985 6.50889 14.5703 6.48298C12.8035 6.29753 11.0908 7.54017 10.1904 7.54017C9.27271 7.54017 7.88656 6.50139 6.3939 6.5321C5.4284 6.56329 4.48746 6.84405 3.66273 7.34702C2.83801 7.84999 2.15763 8.55802 1.6879 9.40211C-0.346825 12.925 1.1709 18.1025 3.12004 20.9502C4.09524 22.3446 5.23495 23.9022 6.72627 23.8469C8.18561 23.7864 8.73065 22.9164 10.4922 22.9164C12.2374 22.9164 12.7487 23.8469 14.2703 23.8118C15.8363 23.7864 16.8229 22.4112 17.7639 21.0036C18.4645 20.01 19.0037 18.9119 19.3614 17.7499C18.4516 17.3651 17.6753 16.7211 17.1291 15.898C16.5829 15.0749 16.2911 14.1093 16.29 13.1215V13.1215Z" fill="white"/>
<path d="M13.4147 4.61148C14.2686 3.58651 14.6892 2.26908 14.5873 0.938965C13.2829 1.07597 12.078 1.69941 11.2126 2.68505C10.7895 3.16657 10.4655 3.72675 10.259 4.33357C10.0525 4.9404 9.96769 5.58196 10.0093 6.2216C10.6618 6.22832 11.3072 6.0869 11.8971 5.808C12.487 5.5291 13.0059 5.11999 13.4147 4.61148V4.61148Z" fill="white"/>
<path d="M33.799 20.4582H29.01L27.86 23.8541H25.8315L30.3676 11.2903H32.4751L37.0111 23.8541H34.9481L33.799 20.4582ZM29.506 18.8912H33.3021L31.4308 13.38H31.3784L29.506 18.8912Z" fill="white"/>
<path d="M46.8077 19.2762C46.8077 22.1227 45.2842 23.9516 42.985 23.9516C42.4026 23.982 41.8234 23.8479 41.3137 23.5644C40.804 23.281 40.3844 22.8598 40.1029 22.3489H40.0594V26.886H38.1792V14.6957H39.9992V16.2192H40.0337C40.3281 15.7109 40.7548 15.2918 41.2684 15.0066C41.782 14.7215 42.3633 14.5809 42.9504 14.5998C45.2753 14.5998 46.8077 16.4376 46.8077 19.2762ZM44.8751 19.2762C44.8751 17.4217 43.9167 16.2024 42.4544 16.2024C41.0178 16.2024 40.0516 17.4473 40.0516 19.2762C40.0516 21.1218 41.0178 22.3579 42.4544 22.3579C43.9167 22.3579 44.8751 21.1475 44.8751 19.2762V19.2762Z" fill="white"/>
<path d="M56.8902 19.2762C56.8902 22.1227 55.3662 23.9515 53.067 23.9515C52.4846 23.982 51.9054 23.8479 51.3957 23.5644C50.886 23.281 50.4664 22.8598 50.185 22.3489H50.1415V26.886H48.2612V14.6957H50.0812V16.2192H50.1158C50.4101 15.7109 50.8368 15.2918 51.3504 15.0066C51.864 14.7215 52.4453 14.5809 53.0324 14.5998C55.3573 14.5998 56.8902 16.4376 56.8902 19.2762ZM54.9571 19.2762C54.9571 17.4217 53.9988 16.2024 52.5365 16.2024C51.0999 16.2024 50.1336 17.4473 50.1336 19.2762C50.1336 21.1218 51.0999 22.3579 52.5365 22.3579C53.9988 22.3579 54.9571 21.1475 54.9571 19.2762H54.9571Z" fill="white"/>
<path d="M63.5531 20.3535C63.6925 21.5994 64.9028 22.4175 66.5568 22.4175C68.1416 22.4175 69.2817 21.5994 69.2817 20.476C69.2817 19.5008 68.5941 18.9169 66.9658 18.5167L65.3375 18.1245C63.0305 17.5672 61.9595 16.4883 61.9595 14.7375C61.9595 12.5698 63.8486 11.0808 66.5301 11.0808C69.1859 11.0808 71.0059 12.5698 71.0671 14.7375H69.1691C69.0555 13.4837 68.019 12.7269 66.5044 12.7269C64.9897 12.7269 63.9533 13.4926 63.9533 14.6071C63.9533 15.4953 64.6153 16.018 66.2347 16.4181L67.6189 16.758C70.1966 17.3676 71.2667 18.4031 71.2667 20.2408C71.2667 22.5913 69.3954 24.0635 66.4174 24.0635C63.6312 24.0635 61.7499 22.6259 61.6284 20.3534L63.5531 20.3535Z" fill="white"/>
<path d="M75.3255 12.5264V14.6941H77.0673V16.1831H75.3255V21.2329C75.3255 22.0174 75.6742 22.383 76.44 22.383C76.6468 22.3794 76.8532 22.3648 77.0585 22.3395V23.8195C76.7142 23.8839 76.3643 23.913 76.0141 23.9065C74.1596 23.9065 73.4363 23.2099 73.4363 21.4334V16.1831H72.1045V14.6941H73.4364V12.5264H75.3255Z" fill="white"/>
<path d="M78.0776 19.2747C78.0776 16.3926 79.7751 14.5815 82.422 14.5815C85.0778 14.5815 86.7674 16.3926 86.7674 19.2747C86.7674 22.1647 85.0867 23.9678 82.422 23.9678C79.7583 23.9678 78.0776 22.1647 78.0776 19.2747ZM84.8516 19.2747C84.8516 17.2976 83.9455 16.1308 82.422 16.1308C80.8985 16.1308 79.9924 17.3065 79.9924 19.2747C79.9924 21.2596 80.8985 22.4176 82.422 22.4176C83.9455 22.4176 84.8516 21.2596 84.8516 19.2747H84.8516Z" fill="white"/>
<path d="M88.3159 14.6956H90.1092V16.2547H90.1527C90.274 15.7677 90.5593 15.3374 90.9606 15.036C91.3618 14.7347 91.8546 14.5806 92.356 14.5997C92.5727 14.599 92.7888 14.6225 93.0002 14.6699V16.4286C92.7267 16.345 92.4413 16.3066 92.1554 16.315C91.8823 16.3039 91.61 16.352 91.3572 16.4561C91.1044 16.5602 90.8771 16.7178 90.691 16.918C90.5049 17.1182 90.3643 17.3564 90.2788 17.616C90.1934 17.8757 90.1652 18.1508 90.1962 18.4224V23.8556H88.3159L88.3159 14.6956Z" fill="white"/>
<path d="M101.669 21.1638C101.416 22.8267 99.7963 23.9678 97.7244 23.9678C95.0597 23.9678 93.4058 22.1825 93.4058 19.3182C93.4058 16.445 95.0686 14.5815 97.6454 14.5815C100.18 14.5815 101.773 16.3224 101.773 19.0998V19.744H95.3038V19.8576C95.2739 20.1947 95.3161 20.5343 95.4276 20.8539C95.5391 21.1734 95.7172 21.4656 95.9503 21.711C96.1834 21.9564 96.466 22.1494 96.7794 22.2772C97.0927 22.405 97.4297 22.4646 97.7679 22.4522C98.2122 22.4938 98.6581 22.3909 99.0393 22.1588C99.4204 21.9266 99.7164 21.5777 99.8833 21.1638L101.669 21.1638ZM95.3127 18.4299H99.8922C99.9091 18.1268 99.8631 17.8235 99.7572 17.539C99.6513 17.2545 99.4877 16.9949 99.2768 16.7766C99.0658 16.5583 98.812 16.386 98.5312 16.2704C98.2505 16.1549 97.9489 16.0986 97.6454 16.1051C97.3392 16.1033 97.0357 16.1621 96.7524 16.2782C96.469 16.3943 96.2115 16.5653 95.9946 16.7815C95.7778 16.9976 95.6058 17.2546 95.4888 17.5375C95.3717 17.8204 95.3119 18.1237 95.3127 18.4299V18.4299Z" fill="white"/>
<path d="M29.2704 1.83522C29.6646 1.80693 30.0602 1.86648 30.4286 2.00957C30.7969 2.15266 31.129 2.37572 31.4007 2.66267C31.6725 2.94962 31.8771 3.29331 32 3.66894C32.1228 4.04457 32.1607 4.44277 32.111 4.83484C32.111 6.76347 31.0687 7.87209 29.2705 7.87209H27.0898V1.83522H29.2704ZM28.0275 7.01838H29.1657C29.4474 7.03522 29.7293 6.98904 29.9908 6.88319C30.2524 6.77735 30.4871 6.61451 30.6778 6.40653C30.8685 6.19855 31.0104 5.95067 31.0933 5.68092C31.1761 5.41117 31.1977 5.12635 31.1566 4.84718C31.1947 4.56912 31.1709 4.28606 31.0868 4.01829C31.0027 3.75052 30.8604 3.50466 30.6702 3.29834C30.4799 3.09201 30.2463 2.93033 29.9862 2.82487C29.7261 2.71941 29.4459 2.67278 29.1657 2.68833H28.0275V7.01838Z" fill="white"/>
<path d="M33.1693 5.59038C33.1407 5.29098 33.175 4.98891 33.2699 4.70353C33.3648 4.41815 33.5184 4.15576 33.7207 3.93319C33.923 3.71063 34.1695 3.5328 34.4446 3.41111C34.7196 3.28942 35.0171 3.22656 35.3178 3.22656C35.6186 3.22656 35.916 3.28942 36.1911 3.41111C36.4661 3.5328 36.7127 3.71063 36.915 3.93319C37.1173 4.15576 37.2708 4.41815 37.3657 4.70353C37.4607 4.98891 37.4949 5.29098 37.4663 5.59038C37.4955 5.89008 37.4616 6.19257 37.3669 6.47841C37.2723 6.76426 37.1188 7.02712 36.9165 7.25013C36.7141 7.47313 36.4674 7.65133 36.192 7.77328C35.9167 7.89523 35.6189 7.95823 35.3178 7.95823C35.0167 7.95823 34.7189 7.89523 34.4436 7.77328C34.1683 7.65133 33.9215 7.47313 33.7192 7.25013C33.5168 7.02712 33.3634 6.76426 33.2687 6.47841C33.174 6.19257 33.1402 5.89008 33.1693 5.59038V5.59038ZM36.5415 5.59038C36.5415 4.60284 36.0979 4.02534 35.3193 4.02534C34.5378 4.02534 34.0981 4.60285 34.0981 5.59039C34.0981 6.58583 34.5378 7.15888 35.3193 7.15888C36.0979 7.15887 36.5415 6.58186 36.5415 5.59038H36.5415Z" fill="white"/>
<path d="M43.1789 7.87026H42.2462L41.3046 4.51491H41.2335L40.2958 7.87026H39.372L38.1162 3.31445H39.0282L39.8443 6.7908H39.9115L40.8481 3.31445H41.7107L42.6473 6.7908H42.7185L43.5306 3.31445H44.4297L43.1789 7.87026Z" fill="white"/>
<path d="M45.4844 3.31581H46.3499V4.03954H46.4171C46.5311 3.77961 46.7233 3.56171 46.967 3.41621C47.2107 3.27072 47.4937 3.20488 47.7766 3.22787C47.9983 3.21121 48.2209 3.24463 48.4279 3.32567C48.6349 3.4067 48.821 3.53328 48.9724 3.69601C49.1239 3.85874 49.2368 4.05346 49.3027 4.26575C49.3687 4.47803 49.386 4.70244 49.3535 4.92234V7.87157H48.4544V5.14812C48.4544 4.41599 48.1363 4.0519 47.4713 4.0519C47.3208 4.04489 47.1706 4.0705 47.0309 4.12699C46.8912 4.18348 46.7654 4.2695 46.6621 4.37915C46.5587 4.48881 46.4804 4.61951 46.4323 4.7623C46.3842 4.90509 46.3675 5.05659 46.3835 5.20641V7.87162H45.4844V3.31581Z" fill="white"/>
<path d="M50.7886 1.53589H51.6877V7.87015H50.7886V1.53589Z" fill="white"/>
<path d="M52.9354 5.59022C52.9068 5.2908 52.9411 4.98871 53.036 4.70332C53.131 4.41793 53.2846 4.15553 53.4869 3.93296C53.6892 3.71039 53.9358 3.53256 54.2108 3.41087C54.4859 3.28918 54.7834 3.22632 55.0842 3.22632C55.3849 3.22632 55.6824 3.28918 55.9574 3.41087C56.2325 3.53256 56.4791 3.71039 56.6814 3.93296C56.8837 4.15553 57.0373 4.41793 57.1323 4.70332C57.2272 4.98871 57.2615 5.2908 57.2329 5.59022C57.262 5.88993 57.2281 6.19243 57.1334 6.47827C57.0387 6.76411 56.8852 7.02697 56.6829 7.24997C56.4805 7.47297 56.2337 7.65116 55.9584 7.77311C55.6831 7.89505 55.3853 7.95805 55.0842 7.95805C54.783 7.95805 54.4852 7.89505 54.2099 7.77311C53.9346 7.65116 53.6878 7.47297 53.4854 7.24997C53.2831 7.02697 53.1296 6.76411 53.0349 6.47827C52.9402 6.19243 52.9063 5.88993 52.9354 5.59022V5.59022ZM56.3076 5.59022C56.3076 4.60269 55.8639 4.02518 55.0854 4.02518C54.3039 4.02518 53.8642 4.60269 53.8642 5.59023C53.8642 6.58567 54.3039 7.15872 55.0854 7.15872C55.8639 7.15871 56.3076 6.58171 56.3076 5.59022Z" fill="white"/>
<path d="M58.1836 6.58191C58.1836 5.76184 58.7942 5.28907 59.8781 5.22188L61.1121 5.15075V4.75751C61.1121 4.27634 60.794 4.00463 60.1794 4.00463C59.6775 4.00463 59.3297 4.1889 59.2299 4.511H58.3595C58.4514 3.72848 59.1874 3.22656 60.2209 3.22656C61.3631 3.22656 62.0073 3.79516 62.0073 4.75751V7.8703H61.1418V7.23006H61.0706C60.9262 7.45972 60.7235 7.64694 60.4831 7.77261C60.2426 7.89828 59.9732 7.95789 59.7022 7.94536C59.5109 7.96526 59.3176 7.94485 59.1348 7.88547C58.9519 7.82608 58.7835 7.72902 58.6404 7.60056C58.4973 7.4721 58.3827 7.31509 58.3041 7.13964C58.2254 6.96418 58.1843 6.77419 58.1836 6.58191V6.58191ZM61.1121 6.19262V5.81174L59.9996 5.88287C59.3722 5.92486 59.0877 6.13828 59.0877 6.53991C59.0877 6.94994 59.4433 7.18855 59.9325 7.18855C60.0758 7.20305 60.2205 7.18858 60.3581 7.146C60.4957 7.10341 60.6234 7.03358 60.7334 6.94066C60.8435 6.84774 60.9337 6.73363 60.9988 6.60512C61.0638 6.47661 61.1024 6.33633 61.1121 6.19262Z" fill="white"/>
<path d="M63.1875 5.59029C63.1875 4.15073 63.9275 3.23877 65.0786 3.23877C65.3633 3.22566 65.6459 3.29385 65.8933 3.43539C66.1407 3.57692 66.3427 3.78596 66.4757 4.03805H66.5428V1.53589H67.442V7.87015H66.5804V7.15037H66.5093C66.366 7.40076 66.157 7.60719 65.9048 7.7473C65.6526 7.88741 65.3669 7.95586 65.0786 7.94523C63.9197 7.94528 63.1875 7.03331 63.1875 5.59029ZM64.1163 5.59029C64.1163 6.55658 64.5718 7.13804 65.3335 7.13804C66.0913 7.13804 66.5597 6.5482 66.5597 5.59424C66.5597 4.64474 66.0864 4.04649 65.3335 4.04649C64.5767 4.04649 64.1162 4.63189 64.1162 5.59029H64.1163Z" fill="white"/>
<path d="M71.2706 1.9672C71.2636 1.85075 71.2918 1.7349 71.3515 1.63465C71.4112 1.53441 71.4995 1.45439 71.6052 1.40497C71.7109 1.35554 71.829 1.33898 71.9442 1.35743C72.0593 1.37589 72.1663 1.4285 72.2513 1.50847C72.3362 1.58843 72.3952 1.69206 72.4206 1.80592C72.4459 1.91979 72.4365 2.03865 72.3935 2.14711C72.3506 2.25557 72.276 2.34862 72.1796 2.41423C72.0831 2.47983 71.9692 2.51496 71.8525 2.51506C71.778 2.51886 71.7034 2.50755 71.6333 2.4818C71.5632 2.45605 71.4991 2.41639 71.4447 2.36521C71.3904 2.31404 71.3469 2.2524 71.317 2.184C71.2871 2.1156 71.2713 2.04186 71.2706 1.9672V1.9672ZM71.404 3.31438H72.3001V7.87019H71.404V3.31438Z" fill="white"/>
<path d="M73.7461 3.31581H74.6116V4.03954H74.6788C74.7928 3.77961 74.985 3.56171 75.2287 3.41621C75.4724 3.27072 75.7554 3.20488 76.0383 3.22787C76.26 3.21121 76.4826 3.24463 76.6896 3.32567C76.8966 3.4067 77.0827 3.53328 77.2341 3.69601C77.3856 3.85874 77.4985 4.05346 77.5644 4.26575C77.6304 4.47803 77.6478 4.70244 77.6152 4.92234V7.87157H76.7161V5.14812C76.7161 4.41599 76.398 4.0519 75.733 4.0519C75.5825 4.04489 75.4323 4.0705 75.2926 4.12699C75.1529 4.18348 75.0271 4.2695 74.9238 4.37915C74.8205 4.48881 74.7421 4.61951 74.694 4.7623C74.6459 4.90509 74.6293 5.05659 74.6452 5.20641V7.87162H73.7461V3.31581Z" fill="white"/>
<path d="M81.2578 5.59029C81.2578 4.15073 81.9979 3.23877 83.1489 3.23877C83.4336 3.22566 83.7162 3.29385 83.9636 3.43539C84.211 3.57692 84.413 3.78596 84.546 4.03805H84.6132V1.53589H85.5123V7.87015H84.6507V7.15037H84.5796C84.4363 7.40076 84.2272 7.60719 83.9751 7.7473C83.7229 7.88741 83.4372 7.95586 83.1489 7.94523C81.9899 7.94528 81.2578 7.03331 81.2578 5.59029ZM82.1866 5.59029C82.1866 6.55658 82.6421 7.13804 83.4038 7.13804C84.1616 7.13804 84.63 6.5482 84.63 5.59424C84.63 4.64474 84.1567 4.04649 83.4038 4.04649C82.647 4.04649 82.1866 4.63189 82.1866 5.59029Z" fill="white"/>
<path d="M90.8373 6.64005C90.7151 7.05642 90.4505 7.41659 90.0896 7.65753C89.7287 7.89848 89.2946 8.00487 88.8632 7.95808C88.563 7.966 88.2648 7.90851 87.9891 7.7896C87.7134 7.6707 87.4668 7.49321 87.2666 7.26948C87.0664 7.04574 86.9172 6.78111 86.8295 6.49396C86.7418 6.2068 86.7176 5.904 86.7587 5.60656C86.7187 5.30821 86.7433 5.00476 86.8308 4.71674C86.9183 4.42873 87.0667 4.16288 87.2659 3.93718C87.465 3.71149 87.7104 3.53123 87.9853 3.40859C88.2602 3.28596 88.5582 3.22383 88.8592 3.22639C90.1269 3.22639 90.8916 4.09245 90.8916 5.52305V5.8368H87.6746V5.88718C87.6605 6.05437 87.6815 6.22265 87.7363 6.38124C87.791 6.53983 87.8783 6.68523 87.9926 6.80811C88.1068 6.93099 88.2455 7.02865 88.3996 7.09481C88.5538 7.16098 88.7201 7.19419 88.8879 7.19233C89.103 7.21815 89.3209 7.17942 89.5139 7.08107C89.7069 6.98273 89.8663 6.8292 89.9718 6.64002L90.8373 6.64005ZM87.6746 5.17184H89.9757C89.987 5.01893 89.9662 4.86535 89.9147 4.72096C89.8631 4.57656 89.7819 4.44455 89.6763 4.3334C89.5707 4.22226 89.443 4.13443 89.3015 4.07557C89.1599 4.01671 89.0076 3.98812 88.8543 3.99164C88.6988 3.98968 88.5445 4.01888 88.4004 4.07751C88.2564 4.13613 88.1255 4.223 88.0156 4.33299C87.9056 4.44298 87.8188 4.57387 87.7603 4.71793C87.7017 4.862 87.6726 5.01633 87.6746 5.17184H87.6746Z" fill="white"/>
</svg>
