<svg width="1092" height="589" viewBox="0 0 1092 589" fill="none" xmlns="http://www.w3.org/2000/svg">
<path fill-rule="evenodd" clip-rule="evenodd" d="M88 472.5C88 452.892 103.892 437 123.5 437C143.108 437 159 452.892 159 472.5C159 492.108 143.108 508 123.5 508C103.892 508 88 492.108 88 472.5ZM144.772 483.219C145.688 479.739 145.688 472.542 145.688 472.542C145.688 472.542 145.715 465.303 144.772 461.836C144.259 459.936 142.762 458.439 140.862 457.926C137.381 456.969 123.5 456.969 123.5 456.969C123.5 456.969 109.619 456.969 106.138 457.884C104.28 458.397 102.741 459.936 102.228 461.836C101.312 465.303 101.312 472.5 101.312 472.5C101.312 472.5 101.312 479.739 102.228 483.164C102.741 485.064 104.238 486.561 106.138 487.074C109.647 488.031 123.5 488.031 123.5 488.031C123.5 488.031 137.381 488.031 140.862 487.13C142.762 486.617 144.259 485.119 144.772 483.219ZM130.627 472.5L119.076 479.156V465.844L130.627 472.5Z" fill="#3F3F3F"/>
<path d="M243 433C223.67 433 208 448.67 208 468C208 487.33 223.67 503 243 503C262.33 503 278 487.33 278 468C278 448.67 262.33 433 243 433ZM251.291 457.186H246.03C245.406 457.186 244.714 458.007 244.714 459.097V462.896H251.294L250.299 468.314H244.714V484.578H238.505V468.314H232.872V462.896H238.505V459.709C238.505 455.137 241.677 451.422 246.03 451.422H251.291V457.186Z" fill="#3F3F3F"/>
<g filter="url(#filter0_d_455_18620)">
<circle cx="363" cy="453" r="34.9999" fill="#121212"/>
</g>
<path d="M373.937 453C373.937 455.901 372.785 458.683 370.734 460.734C368.683 462.785 365.901 463.937 363 463.937C360.099 463.937 357.317 462.785 355.266 460.734C353.215 458.683 352.062 455.901 352.062 453C352.062 452.377 352.128 451.768 352.241 451.177H348.417V465.749C348.417 466.763 349.237 467.583 350.251 467.583H375.753C376.239 467.582 376.704 467.389 377.047 467.045C377.391 466.701 377.583 466.235 377.583 465.749V451.177H373.759C373.872 451.768 373.937 452.377 373.937 453ZM363 460.292C363.958 460.291 364.906 460.103 365.791 459.736C366.676 459.369 367.48 458.832 368.157 458.154C368.834 457.477 369.371 456.673 369.737 455.788C370.103 454.903 370.292 453.954 370.292 452.996C370.291 452.039 370.103 451.09 369.736 450.205C369.369 449.321 368.832 448.517 368.154 447.84C367.477 447.163 366.673 446.625 365.788 446.259C364.903 445.893 363.954 445.704 362.996 445.705C361.062 445.705 359.207 446.474 357.84 447.842C356.472 449.21 355.704 451.066 355.705 453C355.705 454.934 356.474 456.789 357.842 458.157C359.21 459.524 361.066 460.292 363 460.292ZM371.75 445.344H376.121C376.412 445.344 376.69 445.229 376.896 445.024C377.102 444.819 377.218 444.54 377.219 444.25V439.879C377.219 439.588 377.103 439.308 376.897 439.103C376.692 438.897 376.412 438.781 376.121 438.781H371.75C371.459 438.781 371.18 438.897 370.974 439.103C370.768 439.308 370.653 439.588 370.653 439.879V444.25C370.656 444.852 371.148 445.344 371.75 445.344ZM363 418C353.717 418 344.815 421.687 338.251 428.251C331.687 434.815 328 443.717 328 453C328 462.283 331.687 471.185 338.251 477.749C344.815 484.313 353.717 488 363 488C367.596 488 372.148 487.095 376.394 485.336C380.64 483.577 384.499 480.999 387.749 477.749C390.999 474.499 393.577 470.64 395.336 466.394C397.095 462.148 398 457.596 398 453C398 448.404 397.095 443.852 395.336 439.606C393.577 435.36 390.999 431.501 387.749 428.251C384.499 425.001 380.64 422.423 376.394 420.664C372.148 418.905 367.596 418 363 418ZM381.229 467.179C381.229 469.406 379.406 471.229 377.179 471.229H348.821C346.594 471.229 344.771 469.406 344.771 467.179V438.821C344.771 436.594 346.594 434.771 348.821 434.771H377.179C379.406 434.771 381.229 436.594 381.229 438.821V467.179Z" fill="#3F3F3F"/>
<path fill-rule="evenodd" clip-rule="evenodd" d="M482.054 466.108C501.414 466.108 517.108 450.414 517.108 431.054C517.108 411.694 501.414 396 482.054 396C462.694 396 447 411.694 447 431.054C447 450.414 462.694 466.108 482.054 466.108ZM491.335 422.484C492.772 423.567 494.56 424.21 496.499 424.21C496.5 424.21 496.513 424.21 496.514 424.209V425.7V429.721C494.618 429.722 492.776 429.35 491.039 428.617C489.921 428.146 488.881 427.538 487.929 426.804L487.957 439.18C487.945 441.967 486.843 444.586 484.847 446.558C483.223 448.163 481.165 449.184 478.935 449.515C478.411 449.592 477.877 449.632 477.338 449.632C474.95 449.632 472.683 448.859 470.829 447.432C470.48 447.163 470.146 446.872 469.829 446.558C467.666 444.42 466.551 441.523 466.739 438.476C466.882 436.156 467.811 433.943 469.359 432.209C471.408 429.914 474.274 428.641 477.338 428.641C477.877 428.641 478.411 428.681 478.935 428.759V430.245V434.381C478.438 434.217 477.907 434.127 477.354 434.127C474.555 434.127 472.29 436.411 472.332 439.213C472.358 441.005 473.337 442.572 474.782 443.436C475.46 443.842 476.241 444.093 477.074 444.139C477.727 444.175 478.354 444.084 478.935 443.892C480.935 443.232 482.378 441.353 482.378 439.137L482.384 430.849V415.718H487.922C487.927 416.267 487.983 416.802 488.086 417.321C488.504 419.42 489.688 421.242 491.335 422.484ZM496.514 424.208C496.515 424.208 496.515 424.208 496.514 424.209V424.208Z" fill="#3F3F3F"/>
<path d="M16.4142 31.5858C15.6331 30.8047 14.3668 30.8047 13.5858 31.5858L0.857841 44.3137C0.0767925 45.0948 0.0767925 46.3611 0.857841 47.1422C1.63889 47.9232 2.90522 47.9232 3.68627 47.1422L15 35.8284L26.3137 47.1422C27.0947 47.9232 28.3611 47.9232 29.1421 47.1422C29.9232 46.3611 29.9232 45.0948 29.1421 44.3137L16.4142 31.5858ZM17 575L17 33L13 33L13 575L17 575Z" fill="#383838"/>
<path d="M1091.41 575.414C1092.2 574.633 1092.2 573.367 1091.41 572.586L1078.69 559.858C1077.91 559.077 1076.64 559.077 1075.86 559.858C1075.08 560.639 1075.08 561.905 1075.86 562.686L1087.17 574L1075.86 585.314C1075.08 586.095 1075.08 587.361 1075.86 588.142C1076.64 588.923 1077.91 588.923 1078.69 588.142L1091.41 575.414ZM14 576L1090 576V572L14 572V576Z" fill="#383838"/>
<path d="M67 523.795C293.437 537.342 796.211 524.247 1065 149" stroke="url(#paint0_linear_455_18620)" stroke-width="13" stroke-linecap="round"/>
<line x1="549.5" y1="-1.96396e-08" x2="549.5" y2="572" stroke="#DA37D8" stroke-dasharray="10 10"/>
<defs>
<filter id="filter0_d_455_18620" x="310" y="413" width="106" height="106" filterUnits="userSpaceOnUse" color-interpolation-filters="sRGB">
<feFlood flood-opacity="0" result="BackgroundImageFix"/>
<feColorMatrix in="SourceAlpha" type="matrix" values="0 0 0 0 0 0 0 0 0 0 0 0 0 0 0 0 0 0 127 0" result="hardAlpha"/>
<feOffset dy="13"/>
<feGaussianBlur stdDeviation="9"/>
<feColorMatrix type="matrix" values="0 0 0 0 0.0658854 0 0 0 0 0.0730469 0 0 0 0 0.1375 0 0 0 0.08 0"/>
<feBlend mode="normal" in2="BackgroundImageFix" result="effect1_dropShadow_455_18620"/>
<feBlend mode="normal" in="SourceGraphic" in2="effect1_dropShadow_455_18620" result="shape"/>
</filter>
<linearGradient id="paint0_linear_455_18620" x1="83.6334" y1="236.907" x2="981.199" y2="743.178" gradientUnits="userSpaceOnUse">
<stop stop-color="#F24D42"/>
<stop offset="0.379199" stop-color="#ED2CCE"/>
<stop offset="0.737996" stop-color="#B84AEA"/>
<stop offset="1" stop-color="#8E61FF"/>
</linearGradient>
</defs>
</svg>
