<svg width="564" height="604" viewBox="0 0 564 604" fill="none" xmlns="http://www.w3.org/2000/svg">
<g clip-path="url(#clip0_462_18652)">
<rect width="604" height="564" transform="translate(564) rotate(90)" fill="black"/>
<rect x="564" width="604" height="352" transform="rotate(90 564 0)" fill="#EC38C4"/>
<g filter="url(#filter0_f_462_18652)">
<path d="M153.25 -661L-156.836 568.736L118.198 677.15C112.952 597.469 152.633 451.125 166.799 320.01C184.505 156.116 306.059 -82.512 365.777 -184.78C413.551 -266.595 516.188 -429.058 518.985 -516.835L153.25 -661Z" fill="url(#paint0_linear_462_18652)"/>
</g>
<g filter="url(#filter1_f_462_18652)">
<path d="M222.4 -296.306L-71.3049 868.464L189.199 971.15C184.23 895.678 221.815 757.066 235.232 632.877C252.003 477.642 367.136 251.621 423.699 154.755C468.949 77.2628 566.164 -76.6169 568.812 -159.757L222.4 -296.306Z" fill="url(#paint1_linear_462_18652)"/>
</g>
<path d="M341.5 410C379.332 410 410 440.668 410 478.5V478.5C410 516.331 379.332 547 341.5 547L0.000238152 547L0.000244141 410L341.5 410Z" fill="url(#paint2_linear_462_18652)"/>
<path d="M392 551C392 522.281 415.281 499 444 499L446 499C473.614 499 496 521.386 496 549V549C496 576.614 473.614 599 446 599L392 599L392 551Z" fill="#FE5799"/>
<path d="M243.999 547C282.107 547 312.999 577.892 312.999 616V616C312.999 654.108 282.107 685 243.999 685L-0.000738454 685L-0.000732422 547L243.999 547Z" fill="url(#paint3_linear_462_18652)"/>
<path d="M481 317C481 356.212 449.212 388 410 388V388C370.788 388 339 356.212 339 317L339 -0.000240239L481 -0.000213623L481 317Z" fill="url(#paint4_linear_462_18652)"/>
<path d="M481 317C481 356.212 449.212 388 410 388V388C370.788 388 339 356.212 339 317L339 -0.000240239L481 -0.000213623L481 317Z" fill="url(#paint5_linear_462_18652)"/>
<path d="M338.999 301C338.999 340.212 307.211 372 267.999 372V372C228.787 372 196.999 340.212 196.999 301L196.999 -0.000240239L338.999 -0.000213623L338.999 301Z" fill="url(#paint6_linear_462_18652)"/>
<path d="M338.999 301C338.999 340.212 307.211 372 267.999 372V372C228.787 372 196.999 340.212 196.999 301L196.999 -0.000240239L338.999 -0.000213623L338.999 301Z" fill="url(#paint7_linear_462_18652)"/>
<path d="M338.999 301C338.999 340.212 307.211 372 267.999 372V372C228.787 372 196.999 340.212 196.999 301L196.999 -0.000240239L338.999 -0.000213623L338.999 301Z" fill="url(#paint8_linear_462_18652)"/>
<path d="M196.999 286C196.999 325.212 165.211 357 125.999 357V357C86.7869 357 54.9991 325.212 54.9991 286L54.9991 -0.000240365L196.999 -0.000213623L196.999 286Z" fill="url(#paint9_linear_462_18652)"/>
<path d="M196.999 286C196.999 325.212 165.211 357 125.999 357V357C86.7869 357 54.9991 325.212 54.9991 286L54.9991 -0.000240365L196.999 -0.000213623L196.999 286Z" fill="url(#paint10_linear_462_18652)"/>
<path d="M196.999 286C196.999 325.212 165.211 357 125.999 357V357C86.7869 357 54.9991 325.212 54.9991 286L54.9991 -0.000240365L196.999 -0.000213623L196.999 286Z" fill="url(#paint11_linear_462_18652)"/>
<path d="M494.5 -2.90681e-06C531.227 -1.30142e-06 561 29.7731 561 66.5L561 71.5C561 108.227 531.227 138 494.5 138V138C457.773 138 428 108.227 428 71.5L428 66.5C428 29.7731 457.773 -4.51219e-06 494.5 -2.90681e-06V-2.90681e-06Z" fill="url(#paint12_linear_462_18652)"/>
<path d="M494.5 -2.90681e-06C531.227 -1.30142e-06 561 29.7731 561 66.5L561 71.5C561 108.227 531.227 138 494.5 138V138C457.773 138 428 108.227 428 71.5L428 66.5C428 29.7731 457.773 -4.51219e-06 494.5 -2.90681e-06V-2.90681e-06Z" fill="url(#paint13_linear_462_18652)"/>
<path d="M171.999 547.5C171.999 577.048 148.046 601 118.499 601V601C88.9519 601 64.9991 577.048 64.9991 547.5V547.5C64.9991 517.953 88.9519 494 118.499 494V494C148.046 494 171.999 517.953 171.999 547.5V547.5Z" fill="url(#paint14_linear_462_18652)"/>
<path d="M171.999 547.5C171.999 577.048 148.046 601 118.499 601V601C88.9519 601 64.9991 577.048 64.9991 547.5V547.5C64.9991 517.953 88.9519 494 118.499 494V494C148.046 494 171.999 517.953 171.999 547.5V547.5Z" fill="url(#paint15_linear_462_18652)"/>
<path d="M121 52C121 23.2812 144.282 4.07061e-06 173 9.09197e-06L175 9.44166e-06C202.615 1.42699e-05 225 22.3858 225 50V50C225 77.6143 202.615 100 175 100L121 100L121 52Z" fill="#FE9357"/>
<path d="M121 52C121 23.2812 144.282 4.07061e-06 173 9.09197e-06L175 9.44166e-06C202.615 1.42699e-05 225 22.3858 225 50V50C225 77.6143 202.615 100 175 100L121 100L121 52Z" fill="#9301B8"/>
</g>
<defs>
<filter id="filter0_f_462_18652" x="-236.836" y="-741" width="835.821" height="1498.15" filterUnits="userSpaceOnUse" color-interpolation-filters="sRGB">
<feFlood flood-opacity="0" result="BackgroundImageFix"/>
<feBlend mode="normal" in="SourceGraphic" in2="BackgroundImageFix" result="shape"/>
<feGaussianBlur stdDeviation="40" result="effect1_foregroundBlur_462_18652"/>
</filter>
<filter id="filter1_f_462_18652" x="-151.305" y="-376.306" width="800.117" height="1427.46" filterUnits="userSpaceOnUse" color-interpolation-filters="sRGB">
<feFlood flood-opacity="0" result="BackgroundImageFix"/>
<feBlend mode="normal" in="SourceGraphic" in2="BackgroundImageFix" result="shape"/>
<feGaussianBlur stdDeviation="40" result="effect1_foregroundBlur_462_18652"/>
</filter>
<linearGradient id="paint0_linear_462_18652" x1="21.5491" y1="113.839" x2="336.652" y2="-1302.88" gradientUnits="userSpaceOnUse">
<stop stop-color="#8725D3"/>
<stop offset="0.0600688" stop-color="#9F3BEE"/>
<stop offset="0.380614" stop-color="#F2554C"/>
<stop offset="0.61473" stop-color="#FE6C58"/>
<stop offset="0.842802" stop-color="#FEC957"/>
<stop offset="1" stop-color="#DB788D"/>
</linearGradient>
<linearGradient id="paint1_linear_462_18652" x1="97.6562" y1="437.598" x2="396.112" y2="-904.273" gradientUnits="userSpaceOnUse">
<stop stop-color="#8725D3"/>
<stop offset="0.0600688" stop-color="#9F3BEE"/>
<stop offset="0.380614" stop-color="#F2554C"/>
<stop offset="0.61473" stop-color="#FE6C58"/>
<stop offset="0.842802" stop-color="#FEC957"/>
<stop offset="1" stop-color="#DB788D"/>
</linearGradient>
<linearGradient id="paint2_linear_462_18652" x1="410" y1="478.5" x2="-21.3753" y2="483.657" gradientUnits="userSpaceOnUse">
<stop stop-color="#7C32F5"/>
<stop offset="0.864583" stop-color="#FF54E4"/>
</linearGradient>
<linearGradient id="paint3_linear_462_18652" x1="312.999" y1="616" x2="-16.3392" y2="618.984" gradientUnits="userSpaceOnUse">
<stop stop-color="#7C32F5"/>
<stop offset="0.864583" stop-color="#FF54E4"/>
</linearGradient>
<linearGradient id="paint4_linear_462_18652" x1="410" y1="388" x2="405.544" y2="-20.2385" gradientUnits="userSpaceOnUse">
<stop stop-color="#FED957"/>
<stop offset="0.177083" stop-color="#FEAE57"/>
<stop offset="1" stop-color="#FFE39B" stop-opacity="0.58"/>
</linearGradient>
<linearGradient id="paint5_linear_462_18652" x1="410" y1="388" x2="405.544" y2="-20.2385" gradientUnits="userSpaceOnUse">
<stop stop-color="#D124C0"/>
<stop offset="1" stop-color="#F13D3D"/>
</linearGradient>
<linearGradient id="paint6_linear_462_18652" x1="267.999" y1="372" x2="263.903" y2="-19.4077" gradientUnits="userSpaceOnUse">
<stop stop-color="#FE7557"/>
<stop offset="0.177083" stop-color="#FEAE57"/>
<stop offset="1" stop-color="#FFE39B" stop-opacity="0.58"/>
</linearGradient>
<linearGradient id="paint7_linear_462_18652" x1="267.999" y1="372" x2="263.903" y2="-19.4077" gradientUnits="userSpaceOnUse">
<stop stop-color="#FED957"/>
<stop offset="0.177083" stop-color="#FEAE57"/>
<stop offset="1" stop-color="#FFE39B" stop-opacity="0.58"/>
</linearGradient>
<linearGradient id="paint8_linear_462_18652" x1="267.999" y1="372" x2="263.903" y2="-19.4077" gradientUnits="userSpaceOnUse">
<stop stop-color="#D124C0"/>
<stop offset="1" stop-color="#F13D3D"/>
</linearGradient>
<linearGradient id="paint9_linear_462_18652" x1="125.999" y1="357" x2="122.227" y2="-18.6284" gradientUnits="userSpaceOnUse">
<stop stop-color="#FE7557"/>
<stop offset="0.177083" stop-color="#FEAE57"/>
<stop offset="1" stop-color="#FFE39B" stop-opacity="0.58"/>
</linearGradient>
<linearGradient id="paint10_linear_462_18652" x1="125.999" y1="357" x2="122.227" y2="-18.6284" gradientUnits="userSpaceOnUse">
<stop stop-color="#FED957"/>
<stop offset="0.177083" stop-color="#FEAE57"/>
<stop offset="1" stop-color="#FFE39B" stop-opacity="0.58"/>
</linearGradient>
<linearGradient id="paint11_linear_462_18652" x1="125.999" y1="357" x2="122.227" y2="-18.6284" gradientUnits="userSpaceOnUse">
<stop stop-color="#D124C0"/>
<stop offset="1" stop-color="#F13D3D"/>
</linearGradient>
<linearGradient id="paint12_linear_462_18652" x1="561" y1="69" x2="421.048" y2="69.5388" gradientUnits="userSpaceOnUse">
<stop stop-color="#FF73D8" stop-opacity="0.58"/>
<stop offset="0.71875" stop-color="#FC8951"/>
<stop offset="1" stop-color="#FB5C0F"/>
</linearGradient>
<linearGradient id="paint13_linear_462_18652" x1="561" y1="69" x2="421.048" y2="69.5388" gradientUnits="userSpaceOnUse">
<stop stop-color="#F42FD5"/>
<stop offset="1" stop-color="#7D32F5"/>
</linearGradient>
<linearGradient id="paint14_linear_462_18652" x1="118.499" y1="601" x2="118.049" y2="488.408" gradientUnits="userSpaceOnUse">
<stop stop-color="#FF73D8" stop-opacity="0.58"/>
<stop offset="0.71875" stop-color="#FC8951"/>
<stop offset="1" stop-color="#FB5C0F"/>
</linearGradient>
<linearGradient id="paint15_linear_462_18652" x1="118.499" y1="601" x2="118.049" y2="488.408" gradientUnits="userSpaceOnUse">
<stop stop-color="#F42FD5"/>
<stop offset="1" stop-color="#7D32F5"/>
</linearGradient>
<clipPath id="clip0_462_18652">
<rect width="604" height="564" fill="white" transform="translate(564) rotate(90)"/>
</clipPath>
</defs>
</svg>
