<svg width="32" height="33" viewBox="0 0 32 33" fill="none" xmlns="http://www.w3.org/2000/svg">
<path d="M32 32.0041H18.0518C18.0518 22.4887 9.5153 13.9522 0 13.9522V0.00390625C17.6753 0.00390625 32 14.3287 32 32.0041Z" fill="url(#paint0_linear_2673)"/>
<path opacity="0.5" d="M32 32.0041H18.0518C18.0518 22.4887 9.5153 13.9522 0 13.9522V0.00390625C17.6753 0.00390625 32 14.3287 32 32.0041Z" fill="url(#paint1_radial_2673)"/>
<path d="M32 32.0041H18.0518C18.0518 22.4887 9.5153 13.9522 0 13.9522V0.00390625C17.6753 0.00390625 32 14.3287 32 32.0041Z" fill="url(#paint2_linear_2673)"/>
<path d="M0 13.955V2.47266C16.3106 2.47266 29.5341 15.6962 29.5341 32.0068H18.0518C18.0518 22.4915 9.51529 13.955 0 13.955Z" fill="url(#paint3_linear_2673)"/>
<path opacity="0.5" d="M0 13.955V2.47266C16.3106 2.47266 29.5341 15.6962 29.5341 32.0068H18.0518C18.0518 22.4915 9.51529 13.955 0 13.955Z" fill="url(#paint4_radial_2673)"/>
<path d="M0 13.955V2.47266C16.3106 2.47266 29.5341 15.6962 29.5341 32.0068H18.0518C18.0518 22.4915 9.51529 13.955 0 13.955Z" fill="url(#paint5_linear_2673)"/>
<path d="M0 13.9517V4.92578C14.9553 4.92578 27.0777 17.0481 27.0777 32.0034H18.0518C18.0518 22.4881 9.5153 13.9517 0 13.9517Z" fill="url(#paint6_linear_2673)"/>
<path opacity="0.5" d="M0 13.9517V4.92578C14.9553 4.92578 27.0777 17.0481 27.0777 32.0034H18.0518C18.0518 22.4881 9.5153 13.9517 0 13.9517Z" fill="url(#paint7_radial_2673)"/>
<path d="M0 13.9517V4.92578C14.9553 4.92578 27.0777 17.0481 27.0777 32.0034H18.0518C18.0518 22.4881 9.5153 13.9517 0 13.9517Z" fill="url(#paint8_linear_2673)"/>
<path d="M0 13.9545V7.39453C13.5906 7.39453 24.6118 18.4157 24.6118 32.0062H18.0518C18.0518 22.491 9.5153 13.9545 0 13.9545Z" fill="url(#paint9_linear_2673)"/>
<path opacity="0.5" d="M0 13.9545V7.39453C13.5906 7.39453 24.6118 18.4157 24.6118 32.0062H18.0518C18.0518 22.491 9.5153 13.9545 0 13.9545Z" fill="url(#paint10_radial_2673)"/>
<path d="M0 13.9545V7.39453C13.5906 7.39453 24.6118 18.4157 24.6118 32.0062H18.0518C18.0518 22.491 9.5153 13.9545 0 13.9545Z" fill="url(#paint11_linear_2673)"/>
<path d="M0 13.9512V9.84766C12.2353 9.84766 22.1553 19.7676 22.1553 32.0029H18.0518C18.0518 22.4876 9.51529 13.9512 0 13.9512Z" fill="url(#paint12_linear_2673)"/>
<path opacity="0.5" d="M0 13.9512V9.84766C12.2353 9.84766 22.1553 19.7676 22.1553 32.0029H18.0518C18.0518 22.4876 9.51529 13.9512 0 13.9512Z" fill="url(#paint13_radial_2673)"/>
<path d="M0 13.9512V9.84766C12.2353 9.84766 22.1553 19.7676 22.1553 32.0029H17.3176C17.3082 22.4876 9.51529 13.9512 0 13.9512Z" fill="url(#paint14_linear_2673)"/>
<path d="M0 14.7706V12.3047C10.88 12.3047 19.6894 21.1236 19.6894 31.9943H17.2235C17.2329 22.4883 9.5153 14.7706 0 14.7706Z" fill="url(#paint15_linear_2673)"/>
<path opacity="0.5" d="M0 14.6976V12.3164C10.88 12.3164 19.6894 21.1352 19.6894 32.0057H17.2235C17.2329 22.4905 9.5153 14.6976 0 14.6976Z" fill="url(#paint16_radial_2673)"/>
<path d="M0 14.6977V12.3165C10.8518 12.2789 19.6518 21.0788 19.6894 32.0059H17.2235C17.2329 22.4906 9.5153 14.6977 0 14.6977Z" fill="url(#paint17_linear_2673)"/>
<defs>
<linearGradient id="paint0_linear_2673" x1="20.0705" y1="38.6859" x2="14.8192" y2="16.0397" gradientUnits="userSpaceOnUse">
<stop stop-color="#C20000"/>
<stop offset="0.076599" stop-color="#C80400"/>
<stop offset="0.6838" stop-color="#F02300"/>
<stop offset="0.9987" stop-color="#FF2F00"/>
</linearGradient>
<radialGradient id="paint1_radial_2673" cx="0" cy="0" r="1" gradientUnits="userSpaceOnUse" gradientTransform="translate(0.048441 31.9099) rotate(180) scale(31.956 31.9562)">
<stop offset="0.9066" stop-color="white" stop-opacity="0"/>
<stop offset="0.9551" stop-color="white" stop-opacity="0.5"/>
<stop offset="1" stop-color="white" stop-opacity="0"/>
</radialGradient>
<linearGradient id="paint2_linear_2673" x1="32.3283" y1="34.7196" x2="-0.492426" y2="-1.32833" gradientUnits="userSpaceOnUse">
<stop stop-color="#C20000"/>
<stop offset="0.0284242" stop-color="#C50200" stop-opacity="0.8463"/>
<stop offset="0.185" stop-color="#CF0A00" stop-opacity="0"/>
<stop offset="0.3922" stop-color="#DD1500" stop-opacity="0"/>
<stop offset="0.8181" stop-color="#F72900" stop-opacity="0"/>
<stop offset="0.9609" stop-color="#FC2D00" stop-opacity="0.7909"/>
<stop offset="0.9987" stop-color="#FF2F00"/>
</linearGradient>
<linearGradient id="paint3_linear_2673" x1="20.6217" y1="43.2094" x2="12.1704" y2="11.2093" gradientUnits="userSpaceOnUse">
<stop stop-color="#F05C00"/>
<stop offset="0.5926" stop-color="#FA7A00"/>
<stop offset="0.9987" stop-color="#FF8900"/>
</linearGradient>
<radialGradient id="paint4_radial_2673" cx="0" cy="0" r="1" gradientUnits="userSpaceOnUse" gradientTransform="translate(0.0621188 31.9537) rotate(180) scale(29.5403)">
<stop offset="0.9066" stop-color="white" stop-opacity="0"/>
<stop offset="0.9551" stop-color="white" stop-opacity="0.5"/>
<stop offset="1" stop-color="white" stop-opacity="0"/>
</radialGradient>
<linearGradient id="paint5_linear_2673" x1="29.4078" y1="31.7498" x2="0.14274" y2="2.10192" gradientUnits="userSpaceOnUse">
<stop stop-color="#F05C00"/>
<stop offset="0.0249671" stop-color="#F15E00" stop-opacity="0.8543"/>
<stop offset="0.1714" stop-color="#F46900" stop-opacity="0"/>
<stop offset="0.188" stop-color="#F46A00" stop-opacity="0"/>
<stop offset="0.8679" stop-color="#FD8300" stop-opacity="0"/>
<stop offset="0.9874" stop-color="#FF8800" stop-opacity="0.9139"/>
<stop offset="0.9987" stop-color="#FF8900"/>
</linearGradient>
<linearGradient id="paint6_linear_2673" x1="18.2853" y1="39.0636" x2="12.3776" y2="16.8277" gradientUnits="userSpaceOnUse">
<stop stop-color="#FFBF00"/>
<stop offset="0.1864" stop-color="#FFBE10"/>
<stop offset="0.7204" stop-color="#FFBD38"/>
<stop offset="0.9973" stop-color="#FFBC47"/>
</linearGradient>
<radialGradient id="paint7_radial_2673" cx="0" cy="0" r="1" gradientUnits="userSpaceOnUse" gradientTransform="translate(0.0894691 31.8682) rotate(180) scale(26.9129)">
<stop offset="0.9066" stop-color="white" stop-opacity="0"/>
<stop offset="0.9551" stop-color="white" stop-opacity="0.5"/>
<stop offset="1" stop-color="white" stop-opacity="0"/>
</radialGradient>
<linearGradient id="paint8_linear_2673" x1="19.4588" y1="33.431" x2="3.82879" y2="-1.76724" gradientUnits="userSpaceOnUse">
<stop stop-color="#FFBF00"/>
<stop offset="0.2503" stop-color="#FFBE15" stop-opacity="0"/>
<stop offset="0.3858" stop-color="#FFBD20" stop-opacity="0"/>
<stop offset="0.7818" stop-color="#FFBC3C" stop-opacity="0"/>
<stop offset="0.9973" stop-color="#FFBC47"/>
</linearGradient>
<linearGradient id="paint9_linear_2673" x1="27.282" y1="40.5976" x2="10.2983" y2="16.2296" gradientUnits="userSpaceOnUse">
<stop offset="0.00132565" stop-color="#4B8C1C"/>
<stop offset="0.2325" stop-color="#5EA12C"/>
<stop offset="0.7361" stop-color="#82C94A"/>
<stop offset="0.9973" stop-color="#90D856"/>
</linearGradient>
<radialGradient id="paint10_radial_2673" cx="0" cy="0" r="1" gradientUnits="userSpaceOnUse" gradientTransform="translate(0.082806 31.8823) rotate(180) scale(24.4923)">
<stop offset="0.9066" stop-color="white" stop-opacity="0"/>
<stop offset="0.9551" stop-color="white" stop-opacity="0.5"/>
<stop offset="1" stop-color="white" stop-opacity="0"/>
</radialGradient>
<linearGradient id="paint11_linear_2673" x1="24.8728" y1="31.4475" x2="2.93778" y2="8.14492" gradientUnits="userSpaceOnUse">
<stop offset="0.00132565" stop-color="#4B8C1C"/>
<stop offset="0.2281" stop-color="#61A42E" stop-opacity="0"/>
<stop offset="0.377" stop-color="#6BAE36" stop-opacity="0"/>
<stop offset="0.8356" stop-color="#85CB4C" stop-opacity="0"/>
<stop offset="0.9973" stop-color="#90D856"/>
</linearGradient>
<linearGradient id="paint12_linear_2673" x1="16.4504" y1="35.993" x2="7.75293" y2="11.7879" gradientUnits="userSpaceOnUse">
<stop offset="0.00662825" stop-color="#3640FF"/>
<stop offset="0.1428" stop-color="#2657F8"/>
<stop offset="0.4841" stop-color="#008EE6"/>
<stop offset="0.7886" stop-color="#0FACF6"/>
<stop offset="0.9973" stop-color="#17BBFE"/>
</linearGradient>
<radialGradient id="paint13_radial_2673" cx="0" cy="0" r="1" gradientUnits="userSpaceOnUse" gradientTransform="translate(0.089468 31.8677) rotate(180) scale(22.0719)">
<stop offset="0.9066" stop-color="white" stop-opacity="0"/>
<stop offset="0.9551" stop-color="white" stop-opacity="0.5"/>
<stop offset="1" stop-color="white" stop-opacity="0"/>
</radialGradient>
<linearGradient id="paint14_linear_2673" x1="25.0983" y1="33.4751" x2="-0.0093981" y2="6.80845" gradientUnits="userSpaceOnUse">
<stop offset="0.00662825" stop-color="#3640FF"/>
<stop offset="0.2031" stop-color="#1B67F2" stop-opacity="0"/>
<stop offset="0.4841" stop-color="#008EE6" stop-opacity="0"/>
<stop offset="0.5854" stop-color="#0598EB" stop-opacity="0"/>
<stop offset="0.8707" stop-color="#12B0F8" stop-opacity="0"/>
<stop offset="0.9973" stop-color="#17BBFE"/>
</linearGradient>
<linearGradient id="paint15_linear_2673" x1="19.8419" y1="37.7567" x2="8.15001" y2="17.8191" gradientUnits="userSpaceOnUse">
<stop offset="0.00268665" stop-color="#7000A3"/>
<stop offset="0.7988" stop-color="#9500DA"/>
<stop offset="0.9934" stop-color="#9F00E8"/>
</linearGradient>
<radialGradient id="paint16_radial_2673" cx="0" cy="0" r="1" gradientUnits="userSpaceOnUse" gradientTransform="translate(0.0894673 31.8705) rotate(180) scale(19.6658 19.6657)">
<stop offset="0.9066" stop-color="white" stop-opacity="0"/>
<stop offset="0.9551" stop-color="white" stop-opacity="0.5"/>
<stop offset="1" stop-color="white" stop-opacity="0"/>
</radialGradient>
<linearGradient id="paint17_linear_2673" x1="21.2304" y1="30.0856" x2="-0.978108" y2="10.1744" gradientUnits="userSpaceOnUse">
<stop offset="0.00268665" stop-color="#7000A3"/>
<stop offset="0.2117" stop-color="#7B00B3" stop-opacity="0"/>
<stop offset="0.8349" stop-color="#9400D8" stop-opacity="0"/>
<stop offset="0.9934" stop-color="#9F00E8"/>
</linearGradient>
</defs>
</svg>
