<svg width="32" height="32" viewBox="0 0 32 32" fill="none" xmlns="http://www.w3.org/2000/svg">
<path d="M22.3641 2.08203C22.3641 2.08203 19.0782 3.53377 18.8015 7.45258C18.5939 10.3472 22.2603 9.1537 22.2603 9.1537C22.2603 9.1537 23.7044 4.57582 22.3641 2.08203Z" fill="url(#paint0_radial_2673)"/>
<path d="M20.9648 7.03398C20.9648 8.72619 21.5615 9.26058 22.3398 8.84198C22.6338 7.78212 23.4898 4.19284 22.357 2.08203C22.3657 2.08203 20.9648 3.77424 20.9648 7.03398Z" fill="url(#paint1_radial_2673)"/>
<path d="M18.4285 4.52412C22.242 3.42858 24.4816 7.47227 22.8905 9.93945C22.8905 9.93945 22.4495 8.0334 21.2216 7.40992C19.9937 6.78645 18.5236 7.82854 18.5236 7.82854L17.2266 6.48362L18.4285 4.52412Z" fill="url(#paint2_radial_2673)"/>
<path d="M19.0619 22.8672C19.0619 22.8672 18.154 26.4121 18.154 28.1132C18.154 29.8144 17.3325 31.5156 15.8192 31.8363C14.3059 32.1569 5.57223 32.5132 3.36719 27.4096L3.47095 25.5659L11.4869 5.69504C19.2262 3.04084 24.8469 9.20428 27.3027 15.537C29.1014 20.1863 33.6758 21.7449 31.2978 26.1003C29.2916 29.7877 24.8988 30.1351 22.5295 25.2542C21.6647 23.4907 20.4368 23.0453 19.0619 22.8672Z" fill="url(#paint3_radial_2673)"/>
<path opacity="0.75" d="M19.0619 22.8672C19.0619 22.8672 18.154 26.4121 18.154 28.1132C18.154 29.8144 17.3325 31.5156 15.8192 31.8363C14.3059 32.1569 5.57223 32.5132 3.36719 27.4096L3.47095 25.5659L11.4869 5.69504C19.2262 3.04084 24.8469 9.20428 27.3027 15.537C29.1014 20.1863 33.6758 21.7449 31.2978 26.1003C29.2916 29.7877 24.8988 30.1351 22.5295 25.2542C21.6647 23.4907 20.4368 23.0453 19.0619 22.8672Z" fill="url(#paint4_radial_2673)"/>
<path opacity="0.75" d="M19.0619 22.8672C19.0619 22.8672 18.154 26.4121 18.154 28.1132C18.154 29.8144 17.3325 31.5156 15.8192 31.8363C14.3059 32.1569 5.57223 32.5132 3.36719 27.4096L3.47095 25.5659L11.4869 5.69504C19.2262 3.04084 24.8469 9.20428 27.3027 15.537C29.1014 20.1863 33.6758 21.7449 31.2978 26.1003C29.2916 29.7877 24.8988 30.1351 22.5295 25.2542C21.6647 23.4907 20.4368 23.0453 19.0619 22.8672Z" fill="url(#paint5_radial_2673)"/>
<path d="M18.3601 5.87891C22.4761 6.81409 21.8622 10.5103 19.6658 11.775C19.6398 11.7928 19.6139 11.7661 19.6226 11.7394C19.7004 11.4009 19.9857 9.96698 19.3977 9.04961C18.7232 7.99865 17.1581 8.15896 17.1581 8.15896L16.7344 6.50236L18.3601 5.87891Z" fill="url(#paint6_radial_2673)"/>
<path d="M17.2633 5.28125L15.9576 5.78893C9.48078 8.29171 4.82857 14.2414 3.87737 21.2955C3.51419 23.9853 3.40178 26.1852 3.36719 27.0313C3.78225 26.782 4.23191 26.7909 4.64698 27.3609C5.83165 29.0264 6.66178 28.9196 6.10836 28.3495C5.55494 27.7795 5.2177 25.6953 5.69329 25.3747C6.16889 25.0541 7.31033 23.7804 8.06264 22.3286C8.81494 20.8768 8.30476 18.4988 8.71983 18.4008C11.9971 17.5992 12.7235 13.7782 12.8964 13.6892C15.1101 12.5224 15.7154 9.43176 15.8279 9.15565L18.7939 5.72658C18.301 5.54845 17.7908 5.39704 17.2633 5.28125Z" fill="url(#paint7_radial_2673)"/>
<path d="M31.2903 26.0938C29.2841 29.7811 24.8913 30.1284 22.522 25.2477C21.6746 23.4931 20.4467 23.0478 19.0631 22.8786V22.8964C16.8235 22.6203 14.1428 22.9765 11.8513 19.3783C11.8513 19.3783 10.2775 17.2319 13.7191 17.1695C17.8611 17.0983 17.6882 19.503 19.1842 20.0374C21.7092 20.928 24.0526 20.8924 24.7789 22.8429C25.4966 24.7845 31.2903 26.0938 31.2903 26.0938Z" fill="url(#paint8_radial_2673)"/>
<path d="M7.13717 18.2572C7.90677 22.087 5.94385 27.4576 0.150207 26.3087C-0.0140907 26.273 -0.0573268 26.0771 0.089676 26.0237C1.19652 25.6318 2.70979 23.9484 3.06432 19.2369C3.28915 16.3333 4.91483 16.5115 7.30146 16.8855C9.6881 17.2596 7.13717 18.2572 7.13717 18.2572Z" fill="url(#paint9_linear_2673)"/>
<path d="M7.35325 17.3828L3.94623 20.1171L2.91721 20.6159C2.73562 21.8539 2.4762 22.8336 2.15625 23.5996C2.46755 24.4457 3.04692 25.2651 3.95488 25.9955C4.53424 25.7372 5.02714 25.3809 5.45085 24.9534C5.42491 24.8733 5.40762 24.8287 5.40762 24.8287L5.61515 24.7753C5.82268 24.5437 6.01292 24.2854 6.18587 24.0182C6.20316 22.9316 6.35881 20.7139 7.30136 19.9212C7.30136 19.3512 7.24948 18.7811 7.14571 18.2468C7.14571 18.2468 7.53484 18.0953 7.86343 17.8905C7.60402 17.5966 7.35325 17.3828 7.35325 17.3828Z" fill="url(#paint10_linear_2673)"/>
<path d="M17.9909 6.47172C18.847 6.12437 18.9508 5.17136 18.086 4.84181C14.0651 3.30988 10.5543 5.3584 9.17074 8.31539C6.23068 14.5856 2.87555 14.8083 2.73719 20.5976C2.63343 25.0509 5.42648 27.8119 5.87614 27.9901C6.42092 28.2038 5.49566 25.9505 5.76373 21.9069C5.98855 18.6203 8.89403 17.6495 9.6204 16.6074C10.3468 15.5654 13.503 8.27976 13.503 8.27976L17.9909 6.47172Z" fill="url(#paint11_linear_2673)"/>
<path d="M4.81797 22.941C2.29298 15.887 9.80742 13.7315 10.1014 9.66121C10.456 4.84271 15.4887 4.85161 18.0742 4.85161C14.0532 3.31967 10.283 5.09209 8.89082 8.0491C5.95076 14.3194 2.86369 14.8182 2.72534 20.6075C2.62157 25.0608 5.56163 27.9109 5.86428 28C5.87293 27.9911 6.70307 28.2049 4.81797 22.941Z" fill="url(#paint12_linear_2673)"/>
<path d="M17.9872 6.47184C16.6901 4.38768 14.6061 6.2848 12.6086 8.17301C12.0033 8.75195 10.9656 8.49365 10.8273 9.34869C10.3863 9.10821 9.97983 8.75195 9.67718 8.34224C9.52153 8.12848 9.11511 9.4912 10.3776 10.6491C10.5246 10.7827 10.5938 10.9875 10.5592 11.1835C10.4295 11.9405 10.222 12.7421 9.79824 13.5705C9.1324 13.5972 8.51845 13.4458 8.12932 13.3122C7.99097 13.2676 7.8872 13.428 7.97367 13.5437C8.20715 13.8555 8.48386 14.1494 8.64816 14.3275C8.75193 14.4344 8.78652 14.5947 8.72598 14.7372C8.49251 15.2716 8.03421 15.904 7.43755 16.3939C6.72847 16.9728 6.17505 17.5874 5.75134 18.2287C5.47462 18.2019 5.22385 18.1752 5.02497 18.1396C4.82608 18.1129 4.70502 18.2465 4.82608 18.3622C4.95579 18.4869 5.10279 18.5938 5.24115 18.7007C5.32762 18.763 5.36221 18.8877 5.31033 18.9857C4.00459 21.6488 4.27266 25.3184 6.03669 27.2778C5.75998 25.5677 5.63027 23.8755 5.75998 21.916C5.82916 20.8917 6.15776 20.0991 6.59876 19.4578C6.92736 18.9768 7.31648 18.5849 7.71426 18.2376C8.49251 17.5606 9.28805 17.0975 9.61665 16.6165C9.75501 16.4206 9.97983 16.002 10.2479 15.4409C10.5678 14.7907 10.957 13.9624 11.3547 13.0984C11.5882 12.5996 11.813 12.083 12.0379 11.5843C12.4356 10.6936 12.8075 9.86528 13.0669 9.25963C13.3263 8.66288 13.4906 8.2888 13.4906 8.2888L17.9872 6.47184Z" fill="url(#paint13_linear_2673)"/>
<path d="M24.2063 24.0516C23.2378 25.2986 23.3848 27.1067 24.63 28.0508C26.9561 29.8232 29.7838 28.9326 31.2884 26.1714C31.9802 24.8978 32.1185 23.8557 31.911 22.9115C31.7813 22.3237 31.0981 21.2014 31.0549 21.2014C29.9048 21.0144 29.6281 21.7715 28.9709 21.8962C28.2186 22.0387 27.743 21.6735 26.2297 22.101C24.7165 22.5285 24.6127 23.3302 24.336 23.8468C24.2928 23.9269 24.2495 23.9893 24.2063 24.0516Z" fill="url(#paint14_radial_2673)"/>
<path d="M27.2526 25.0031C27.0797 24.3796 27.7542 23.9878 27.3218 23.8274C26.8895 23.6671 26.362 24.0234 26.1458 24.629C25.9296 25.2346 26.1112 25.8581 26.5522 26.0184C26.9846 26.1787 27.4169 25.5909 27.2526 25.0031Z" fill="url(#paint15_radial_2673)"/>
<path d="M24.8569 26.1119C24.5456 25.7111 24.2343 26.8601 24.8915 26.9491C25.5054 27.0293 26.1713 28.6681 29.5351 28.2049C29.7858 28.0268 30.0193 27.8309 30.2441 27.5993C30.175 27.626 27.0619 28.9442 24.8569 26.1119Z" fill="url(#paint16_linear_2673)"/>
<path opacity="0.5" d="M19.0638 22.8969C16.8242 22.6119 14.1436 22.9681 11.852 19.3699C11.6705 19.0849 11.2467 19.2898 11.3419 19.6104C11.5235 20.2428 11.8693 20.9998 12.5611 21.7391C15.5098 24.9008 17.9829 24.0725 17.3344 28.0003C16.902 30.6276 14.697 32.0705 15.8211 31.83C17.3344 31.5094 18.1559 29.8083 18.1559 28.1071C18.1472 26.4951 19.0725 23.2264 19.0638 22.8969Z" fill="url(#paint17_radial_2673)"/>
<path d="M18.2592 14.4669C17.9306 15.3041 18.3111 16.5153 19.366 16.3906C20.0059 16.3194 20.3691 15.9008 20.4383 15.2684C20.5161 14.5737 20.2221 13.8434 19.686 13.6297C19.1498 13.4159 18.5186 13.7989 18.2592 14.4669Z" fill="url(#paint18_radial_2673)"/>
<path d="M18.2608 14.4676C18.01 15.1445 18.2435 15.857 18.7883 16.0707C19.3244 16.2845 19.9643 15.9104 20.2151 15.2336C20.4658 14.5567 20.2324 13.8442 19.6876 13.6304C19.1515 13.4167 18.5116 13.7908 18.2608 14.4676Z" fill="url(#paint19_radial_2673)"/>
<path d="M18.8911 14.2215C18.8133 14.4352 18.8825 14.6668 19.0554 14.7291C19.2284 14.7915 19.4273 14.6757 19.5051 14.462C19.5829 14.2482 19.5137 14.0167 19.3408 13.9543C19.1765 13.892 18.969 14.0078 18.8911 14.2215Z" fill="url(#paint20_linear_2673)"/>
<path d="M12.3537 12.7852C12.5872 16.8465 8.4019 19.8836 4.74412 18.3161C4.59712 18.2537 4.64035 18.0934 4.83059 18.031C5.69532 17.746 7.468 17.0602 8.30678 16.0271C9.43957 14.6288 9.05045 13.4353 9.05045 13.4353L10.2784 13.7827L12.3537 12.7852Z" fill="url(#paint21_linear_2673)"/>
<path d="M10.8295 13.5633C10.8209 13.5544 10.8122 13.5366 10.8036 13.5277L10.2848 13.7771L9.05686 13.4297C9.05686 13.4297 9.44598 14.6232 8.3132 16.0216C7.47441 17.0548 5.69308 17.7406 4.83701 18.0256C4.72459 18.0612 4.66406 18.1414 4.66406 18.2037C5.99574 18.5333 7.70789 18.2572 8.67638 17.8029C10.3453 17.028 11.7116 14.8102 10.8295 13.5633Z" fill="url(#paint22_linear_2673)"/>
<path d="M9.04768 13.4264C9.04768 13.4264 9.25521 14.0766 8.91797 14.9762C10.094 15.2968 11.5986 14.7357 12.2212 14.2369C12.3336 13.7827 12.3769 13.2928 12.3509 12.7852L10.2756 13.7649L9.04768 13.4264Z" fill="url(#paint23_linear_2673)"/>
<path d="M22.8576 10.0645L22.5117 10.8217C22.5117 10.8217 23.9385 11.5077 24.6908 10.9465C25.4431 10.3852 23.878 9.69922 23.878 9.69922L22.8576 10.0645Z" fill="url(#paint24_radial_2673)"/>
<path d="M15.4998 8.76148C13.7098 12.3776 12.3436 15.6731 8.01997 13.3217C7.89891 13.2594 7.9335 13.0545 8.06321 13.0456C9.09223 12.9298 11.4356 12.3687 11.4875 9.56309C11.5394 6.82873 15.1972 5.32349 17.0217 6.20526C18.8463 7.08702 15.4998 8.76148 15.4998 8.76148Z" fill="url(#paint25_linear_2673)"/>
<path d="M8.01997 13.3191C12.3436 15.6792 13.7099 12.375 15.4998 8.75902C15.4998 8.75902 16.892 8.05542 17.3849 7.3251C16.4856 7.17369 15.4998 7.69916 14.6351 9.75653C12.4301 15.0024 8.49557 13.2656 8.06321 13.043C7.9335 13.0519 7.89891 13.2567 8.01997 13.3191Z" fill="url(#paint26_linear_2673)"/>
<path d="M31.9113 22.9206C31.868 22.8939 31.8248 22.8761 31.7729 22.8672C31.4876 22.9474 31.4876 23.4284 31.6432 23.6689C31.7989 23.9095 31.3319 24.4083 31.7729 24.7468C31.8162 24.7201 31.8508 24.6934 31.8767 24.6667C32.0323 24.0431 32.0237 23.464 31.9113 22.9206Z" fill="url(#paint27_radial_2673)"/>
<path d="M28.0457 4.06445L29.6714 1.82871C29.4033 1.49023 29.1785 1.17847 28.9969 0.902344L26.9648 2.45222L26.7227 3.20044L28.0457 4.06445Z" fill="url(#paint28_linear_2673)"/>
<path d="M23.2374 10.7207L24.1972 9.39358C22.5975 8.11993 22.0787 6.89972 21.923 6.28516L20.4184 7.43412C20.2973 7.52318 20.2455 7.6835 20.2801 7.82601C20.453 8.49401 21.0756 10.5604 22.8742 10.8721C23.0126 10.881 23.1509 10.8276 23.2374 10.7207Z" fill="url(#paint29_linear_2673)"/>
<path d="M24.1953 9.38171L25.3887 7.73394C24.3856 6.87888 23.8235 5.74771 23.5554 5.03516L21.9298 6.27321C21.9211 7.23516 22.7253 8.62463 24.1953 9.38171Z" fill="url(#paint30_linear_2673)"/>
<path d="M26.7646 5.83472L28.0444 4.06236C27.4218 3.5547 27.05 2.88672 26.9548 2.44141L25.3205 3.68829L25.0352 5.65659L26.7646 5.83472Z" fill="url(#paint31_linear_2673)"/>
<path d="M25.3918 7.73987L26.7667 5.83392C25.8588 5.20157 25.4005 4.30203 25.3226 3.6875L23.5586 5.03235C23.5932 5.78939 24.2244 6.88486 25.3918 7.73987Z" fill="url(#paint32_linear_2673)"/>
<path d="M28.4766 1.28897C28.4766 1.59181 28.857 2.09061 29.2375 2.42017L29.4969 2.05498L30.5605 0.585319C30.6643 0.442806 30.6556 0.255759 30.5432 0.122153C30.4222 -0.0203589 30.2146 -0.038173 30.0676 0.0687113L28.4766 1.28897Z" fill="url(#paint33_linear_2673)"/>
<path opacity="0.48" d="M30.5435 0.129962C30.4224 -0.0125458 30.2149 -0.0303594 30.0679 0.0765219L20.4262 7.42461C20.3052 7.51367 20.2533 7.674 20.2879 7.8165C20.4608 8.48451 21.0834 10.5509 22.882 10.8626C23.0117 10.8893 23.1501 10.8359 23.2366 10.7201L30.5608 0.593114C30.6645 0.450606 30.6559 0.254657 30.5435 0.129962Z" fill="url(#paint34_radial_2673)"/>
<path opacity="0.75" d="M30.5435 0.129962C30.4224 -0.0125458 30.2149 -0.0303594 30.0679 0.0765219L20.4262 7.42461C20.3052 7.51367 20.2533 7.674 20.2879 7.8165C20.4608 8.48451 21.0834 10.5509 22.882 10.8626C23.0117 10.8893 23.1501 10.8359 23.2366 10.7201L30.5608 0.593114C30.6645 0.450606 30.6559 0.254657 30.5435 0.129962Z" fill="url(#paint35_radial_2673)"/>
<path d="M20.2879 7.81786C20.4004 8.24538 20.6944 9.23402 21.3515 9.98218C22.5967 8.84212 21.9482 7.27455 21.2132 6.82031L20.4176 7.42597C20.3052 7.51503 20.2533 7.66645 20.2879 7.81786Z" fill="url(#paint36_linear_2673)"/>
<path d="M18.3952 5.26172C22.5113 6.19692 21.8974 9.89318 19.7009 11.1579C19.675 11.1757 19.6491 11.149 19.6577 11.1223C19.7355 10.7838 20.0209 9.34988 19.4329 8.43249C18.7584 7.3815 17.1932 7.54182 17.1932 7.54182L16.7695 5.88519L18.3952 5.26172Z" fill="url(#paint37_radial_2673)"/>
<path d="M15.4372 8.88958C14.6503 8.62236 13.6559 8.45312 13.6559 8.45312L11.5806 8.87177C11.52 9.09445 11.4941 9.31713 11.4854 9.55763C11.4768 9.98518 11.4163 10.3682 11.3125 10.6978C12.2205 11.0006 13.5089 10.8581 14.6244 10.5196C14.8925 10.003 15.1605 9.45074 15.4372 8.88958Z" fill="url(#paint38_linear_2673)"/>
<path d="M16.7261 4.29297C15.1523 4.42657 14.0195 6.15445 13.2759 7.46372C12.5322 8.77298 10.8979 8.69282 9.75645 8.00702C9.47973 7.83779 9.7478 10.0288 12.6273 10.0823C15.2907 10.1357 16.1295 8.61267 16.1727 6.87588C16.2073 5.148 16.7261 4.29297 16.7261 4.29297Z" fill="url(#paint39_radial_2673)"/>
<path d="M13.6912 9.41436C12.2211 9.80626 10.777 9.37873 9.6702 8.07833C9.62696 8.47024 10.1977 10.0289 12.6189 10.0824C15.2823 10.1358 16.121 8.61274 16.1643 6.87591C16.1816 6.02976 16.3199 5.39737 16.4496 4.96094C14.8499 5.86053 15.2477 9.00465 13.6912 9.41436Z" fill="url(#paint40_linear_2673)"/>
<path d="M17.9802 1.78125C17.9802 1.78125 15.0574 3.14394 15.4552 8.51452C15.4898 8.98656 15.6195 9.3161 15.8097 9.53876C16.6658 10.5541 18.7584 9.28938 18.7584 9.28938C18.7584 9.28938 19.7269 6.37698 17.9802 1.78125Z" fill="url(#paint41_radial_2673)"/>
<path d="M17.6356 8.7551C18.0766 8.80854 18.2928 8.65712 18.4571 8.43446C18.6214 8.2207 18.7078 7.96241 18.7338 7.69521C18.8721 6.43048 18.9932 4.46213 17.9815 1.78125C16.1396 4.58682 15.4305 8.50571 17.6356 8.7551Z" fill="url(#paint42_radial_2673)"/>
<defs>
<radialGradient id="paint0_radial_2673" cx="0" cy="0" r="1" gradientUnits="userSpaceOnUse" gradientTransform="translate(21.3012 6.56721) scale(6.67868 6.87885)">
<stop stop-color="white"/>
<stop offset="1" stop-color="#E0DBEC"/>
</radialGradient>
<radialGradient id="paint1_radial_2673" cx="0" cy="0" r="1" gradientUnits="userSpaceOnUse" gradientTransform="translate(22.9983 4.55372) rotate(110.005) scale(7.23734 3.34444)">
<stop stop-color="#FC5B54" stop-opacity="0"/>
<stop offset="0.12" stop-color="#EB4E65" stop-opacity="0.12"/>
<stop offset="0.5274" stop-color="#B6249A" stop-opacity="0.5274"/>
<stop offset="0.8331" stop-color="#950ABB" stop-opacity="0.8331"/>
<stop offset="1" stop-color="#8800C7"/>
</radialGradient>
<radialGradient id="paint2_radial_2673" cx="0" cy="0" r="1" gradientUnits="userSpaceOnUse" gradientTransform="translate(16.1685 0.570909) scale(6.7465 6.949)">
<stop stop-color="#BB62AD"/>
<stop offset="0.2371" stop-color="#B95FAE"/>
<stop offset="0.4317" stop-color="#B455B1"/>
<stop offset="0.6112" stop-color="#AB43B5"/>
<stop offset="0.7816" stop-color="#9F2BBC"/>
<stop offset="0.9442" stop-color="#8E0CC4"/>
<stop offset="1" stop-color="#8800C7"/>
</radialGradient>
<radialGradient id="paint3_radial_2673" cx="0" cy="0" r="1" gradientUnits="userSpaceOnUse" gradientTransform="translate(14.8579 17.1851) rotate(52.8327) scale(24.1529 23.7419)">
<stop stop-color="white"/>
<stop offset="0.3621" stop-color="#FCFCFD"/>
<stop offset="0.659" stop-color="#F3F2F8"/>
<stop offset="0.9322" stop-color="#E5E1EF"/>
<stop offset="1" stop-color="#E0DBEC"/>
</radialGradient>
<radialGradient id="paint4_radial_2673" cx="0" cy="0" r="1" gradientUnits="userSpaceOnUse" gradientTransform="translate(29.1825 15.8159) rotate(52.8327) scale(24.1752 4.76033)">
<stop stop-color="#D1F2FF" stop-opacity="0.4"/>
<stop offset="0.4739" stop-color="#BFEDFF" stop-opacity="0.2105"/>
<stop offset="1" stop-color="#B0E9FF" stop-opacity="0"/>
</radialGradient>
<radialGradient id="paint5_radial_2673" cx="0" cy="0" r="1" gradientUnits="userSpaceOnUse" gradientTransform="translate(18.5908 36.9258) scale(15.0626 15.5146)">
<stop stop-color="#EF708C" stop-opacity="0.4"/>
<stop offset="1" stop-color="#EF708C" stop-opacity="0"/>
</radialGradient>
<radialGradient id="paint6_radial_2673" cx="0" cy="0" r="1" gradientUnits="userSpaceOnUse" gradientTransform="translate(23.8813 8.4799) scale(5.72032 5.89181)">
<stop stop-color="#D098C5"/>
<stop offset="0.2785" stop-color="#D19BC7" stop-opacity="0.8608"/>
<stop offset="0.5069" stop-color="#D3A5CD" stop-opacity="0.7465"/>
<stop offset="0.7177" stop-color="#D7B7D7" stop-opacity="0.6412"/>
<stop offset="0.9166" stop-color="#DDCFE5" stop-opacity="0.5417"/>
<stop offset="1" stop-color="#E0DBEC" stop-opacity="0.5"/>
</radialGradient>
<radialGradient id="paint7_radial_2673" cx="0" cy="0" r="1" gradientUnits="userSpaceOnUse" gradientTransform="translate(8.0716 14.1028) rotate(120.029) scale(26.3911 6.4269)">
<stop stop-color="#D098C5"/>
<stop offset="0.2785" stop-color="#D19BC7" stop-opacity="0.8608"/>
<stop offset="0.5069" stop-color="#D3A5CD" stop-opacity="0.7465"/>
<stop offset="0.7177" stop-color="#D7B7D7" stop-opacity="0.6412"/>
<stop offset="0.9166" stop-color="#DDCFE5" stop-opacity="0.5417"/>
<stop offset="1" stop-color="#E0DBEC" stop-opacity="0.5"/>
</radialGradient>
<radialGradient id="paint8_radial_2673" cx="0" cy="0" r="1" gradientUnits="userSpaceOnUse" gradientTransform="translate(16.5922 20.2723) rotate(108.073) scale(3.95882 11.027)">
<stop stop-color="#F9F9FC" stop-opacity="0"/>
<stop offset="0.3911" stop-color="#F6F6FA" stop-opacity="0.3911"/>
<stop offset="0.7115" stop-color="#EEECF5" stop-opacity="0.7115"/>
<stop offset="1" stop-color="#E0DBEC"/>
</radialGradient>
<linearGradient id="paint9_linear_2673" x1="11.4504" y1="27.6858" x2="1.99015" y2="20.4131" gradientUnits="userSpaceOnUse">
<stop/>
<stop offset="1" stop-color="#8800C7"/>
</linearGradient>
<linearGradient id="paint10_linear_2673" x1="-0.171927" y1="13.4473" x2="7.62956" y2="24.015" gradientUnits="userSpaceOnUse">
<stop/>
<stop offset="1" stop-opacity="0"/>
</linearGradient>
<linearGradient id="paint11_linear_2673" x1="-3.25239" y1="1.01595" x2="11.6579" y2="15.2118" gradientUnits="userSpaceOnUse">
<stop stop-color="#BB62AD"/>
<stop offset="0.2802" stop-color="#A94BAB"/>
<stop offset="0.8671" stop-color="#7B0FA4"/>
<stop offset="1" stop-color="#7000A3"/>
</linearGradient>
<linearGradient id="paint12_linear_2673" x1="-0.579011" y1="-10.9206" x2="15.5695" y2="23.4508" gradientUnits="userSpaceOnUse">
<stop stop-color="#BB62AD"/>
<stop offset="0.2802" stop-color="#A94BAB"/>
<stop offset="0.8671" stop-color="#7B0FA4"/>
<stop offset="1" stop-color="#7000A3"/>
</linearGradient>
<linearGradient id="paint13_linear_2673" x1="58.554" y1="16.9597" x2="-3.28697" y2="16.2999" gradientUnits="userSpaceOnUse">
<stop/>
<stop offset="1" stop-opacity="0"/>
</linearGradient>
<radialGradient id="paint14_radial_2673" cx="0" cy="0" r="1" gradientUnits="userSpaceOnUse" gradientTransform="translate(29.9433 20.9521) scale(7.28146 7.50005)">
<stop stop-color="#BB62AD"/>
<stop offset="0.2371" stop-color="#B95FAD"/>
<stop offset="0.4317" stop-color="#B155AC"/>
<stop offset="0.6112" stop-color="#A443AA"/>
<stop offset="0.7816" stop-color="#912BA7"/>
<stop offset="0.9442" stop-color="#7A0CA4"/>
<stop offset="1" stop-color="#7000A3"/>
</radialGradient>
<radialGradient id="paint15_radial_2673" cx="0" cy="0" r="1" gradientUnits="userSpaceOnUse" gradientTransform="translate(26.6108 25.7145) rotate(-70.9498) scale(3.63253 2.16212)">
<stop stop-color="#7000A3"/>
<stop offset="1"/>
</radialGradient>
<linearGradient id="paint16_linear_2673" x1="27.4698" y1="25.6165" x2="27.1705" y2="29.8476" gradientUnits="userSpaceOnUse">
<stop stop-color="#391838"/>
<stop offset="0.2285" stop-color="#3B173B"/>
<stop offset="0.4159" stop-color="#401545"/>
<stop offset="0.5889" stop-color="#491157"/>
<stop offset="0.7532" stop-color="#550C6F"/>
<stop offset="0.9098" stop-color="#65058E"/>
<stop offset="1" stop-color="#7000A3"/>
</linearGradient>
<radialGradient id="paint17_radial_2673" cx="0" cy="0" r="1" gradientUnits="userSpaceOnUse" gradientTransform="translate(22.1167 25.9133) scale(14.1825 14.6075)">
<stop stop-color="#D098C5"/>
<stop offset="0.2785" stop-color="#D19BC7" stop-opacity="0.7215"/>
<stop offset="0.5069" stop-color="#D3A5CD" stop-opacity="0.4931"/>
<stop offset="0.7177" stop-color="#D7B7D7" stop-opacity="0.2823"/>
<stop offset="0.9166" stop-color="#DDCFE5" stop-opacity="0.0834284"/>
<stop offset="1" stop-color="#E0DBEC" stop-opacity="0"/>
</radialGradient>
<radialGradient id="paint18_radial_2673" cx="0" cy="0" r="1" gradientUnits="userSpaceOnUse" gradientTransform="translate(19.5168 14.6753) rotate(111.737) scale(1.40967 1.14645)">
<stop stop-color="#D098C5"/>
<stop offset="0.2785" stop-color="#D19BC7" stop-opacity="0.8608"/>
<stop offset="0.5069" stop-color="#D3A5CD" stop-opacity="0.7465"/>
<stop offset="0.7177" stop-color="#D7B7D7" stop-opacity="0.6412"/>
<stop offset="0.9166" stop-color="#DDCFE5" stop-opacity="0.5417"/>
<stop offset="1" stop-color="#E0DBEC" stop-opacity="0.5"/>
</radialGradient>
<radialGradient id="paint19_radial_2673" cx="0" cy="0" r="1" gradientUnits="userSpaceOnUse" gradientTransform="translate(19.411 14.547) rotate(111.738) scale(1.28226 1.04284)">
<stop stop-color="#512D00"/>
<stop offset="1"/>
</radialGradient>
<linearGradient id="paint20_linear_2673" x1="18.1908" y1="17.3151" x2="18.953" y2="15.2018" gradientUnits="userSpaceOnUse">
<stop/>
<stop offset="1" stop-color="#512D00"/>
</linearGradient>
<linearGradient id="paint21_linear_2673" x1="9.41116" y1="8.23855" x2="8.57281" y2="14.8918" gradientUnits="userSpaceOnUse">
<stop stop-color="#BB62AD"/>
<stop offset="0.2802" stop-color="#A94BAB"/>
<stop offset="0.8671" stop-color="#7B0FA4"/>
<stop offset="1" stop-color="#7000A3"/>
</linearGradient>
<linearGradient id="paint22_linear_2673" x1="11.3227" y1="19.0893" x2="6.00664" y2="14.5958" gradientUnits="userSpaceOnUse">
<stop stop-color="#BB62AD"/>
<stop offset="0.2802" stop-color="#A94BAB"/>
<stop offset="0.8671" stop-color="#7B0FA4"/>
<stop offset="1" stop-color="#7000A3"/>
</linearGradient>
<linearGradient id="paint23_linear_2673" x1="14.0338" y1="9.12799" x2="8.81507" y2="15.941" gradientUnits="userSpaceOnUse">
<stop/>
<stop offset="1" stop-opacity="0"/>
</linearGradient>
<radialGradient id="paint24_radial_2673" cx="0" cy="0" r="1" gradientUnits="userSpaceOnUse" gradientTransform="translate(22.5955 10.6416) rotate(-4.54009) scale(2.06403 2.12573)">
<stop stop-color="#D098C5"/>
<stop offset="0.2785" stop-color="#D19BC7" stop-opacity="0.7215"/>
<stop offset="0.5069" stop-color="#D3A5CD" stop-opacity="0.4931"/>
<stop offset="0.7177" stop-color="#D7B7D7" stop-opacity="0.2823"/>
<stop offset="0.9166" stop-color="#DDCFE5" stop-opacity="0.0834284"/>
<stop offset="1" stop-color="#E0DBEC" stop-opacity="0"/>
</radialGradient>
<linearGradient id="paint25_linear_2673" x1="2.69102" y1="16.859" x2="11.6398" y2="11.2625" gradientUnits="userSpaceOnUse">
<stop stop-color="#BB62AD"/>
<stop offset="0.2371" stop-color="#B95FAD"/>
<stop offset="0.4317" stop-color="#B155AC"/>
<stop offset="0.6112" stop-color="#A443AA"/>
<stop offset="0.7816" stop-color="#912BA7"/>
<stop offset="0.9442" stop-color="#7A0CA4"/>
<stop offset="1" stop-color="#7000A3"/>
</linearGradient>
<linearGradient id="paint26_linear_2673" x1="3.9304" y1="-1.82008" x2="13.2504" y2="10.3491" gradientUnits="userSpaceOnUse">
<stop stop-color="#BB62AD"/>
<stop offset="0.2371" stop-color="#B95FAD"/>
<stop offset="0.4317" stop-color="#B155AC"/>
<stop offset="0.6112" stop-color="#A443AA"/>
<stop offset="0.7816" stop-color="#912BA7"/>
<stop offset="0.9442" stop-color="#7A0CA4"/>
<stop offset="1" stop-color="#7000A3"/>
</linearGradient>
<radialGradient id="paint27_radial_2673" cx="0" cy="0" r="1" gradientUnits="userSpaceOnUse" gradientTransform="translate(32.0758 24.0342) scale(1.8154 1.87018)">
<stop stop-color="#7000A3"/>
<stop offset="1"/>
</radialGradient>
<linearGradient id="paint28_linear_2673" x1="29.2306" y1="5.04671" x2="27.9578" y2="2.09924" gradientUnits="userSpaceOnUse">
<stop stop-color="#F05C00"/>
<stop offset="0.5926" stop-color="#FA7A00"/>
<stop offset="0.9987" stop-color="#FF8900"/>
</linearGradient>
<linearGradient id="paint29_linear_2673" x1="21.9334" y1="8.17753" x2="23.8105" y2="11.6138" gradientUnits="userSpaceOnUse">
<stop offset="0.00268665" stop-color="#7000A3"/>
<stop offset="0.7988" stop-color="#9500DA"/>
<stop offset="0.9934" stop-color="#9F00E8"/>
</linearGradient>
<linearGradient id="paint30_linear_2673" x1="24.2007" y1="9.98945" x2="23.338" y2="5.65748" gradientUnits="userSpaceOnUse">
<stop offset="0.00662825" stop-color="#3640FF"/>
<stop offset="0.1428" stop-color="#2657F8"/>
<stop offset="0.4841" stop-color="#008EE6"/>
<stop offset="0.7886" stop-color="#0FACF6"/>
<stop offset="0.9973" stop-color="#17BBFE"/>
</linearGradient>
<linearGradient id="paint31_linear_2673" x1="26.9341" y1="7.4607" x2="26.3206" y2="3.63866" gradientUnits="userSpaceOnUse">
<stop stop-color="#FFBF00"/>
<stop offset="0.00802441" stop-color="#FFBF01"/>
<stop offset="0.6596" stop-color="#FDCA29"/>
<stop offset="0.9973" stop-color="#FCCE38"/>
</linearGradient>
<linearGradient id="paint32_linear_2673" x1="25.415" y1="8.43974" x2="25.0823" y2="4.69537" gradientUnits="userSpaceOnUse">
<stop offset="0.00132565" stop-color="#4B8C1C"/>
<stop offset="0.2325" stop-color="#5EA12C"/>
<stop offset="0.7361" stop-color="#82C94A"/>
<stop offset="0.9973" stop-color="#90D856"/>
</linearGradient>
<linearGradient id="paint33_linear_2673" x1="30.3" y1="3.40252" x2="29.4509" y2="0.640371" gradientUnits="userSpaceOnUse">
<stop stop-color="#C20000"/>
<stop offset="0.076599" stop-color="#C80400"/>
<stop offset="0.6838" stop-color="#F02300"/>
<stop offset="0.9987" stop-color="#FF2F00"/>
</linearGradient>
<radialGradient id="paint34_radial_2673" cx="0" cy="0" r="1" gradientUnits="userSpaceOnUse" gradientTransform="translate(25.1989 6.58774) rotate(-48.8427) scale(9.5335 1.08441)">
<stop stop-color="#440063" stop-opacity="0.75"/>
<stop offset="1" stop-color="#420061" stop-opacity="0"/>
</radialGradient>
<radialGradient id="paint35_radial_2673" cx="0" cy="0" r="1" gradientUnits="userSpaceOnUse" gradientTransform="translate(24.6004 5.11244) rotate(-42.7723) scale(9.50213 1.08764)">
<stop stop-color="white" stop-opacity="0.5"/>
<stop offset="1" stop-color="white" stop-opacity="0"/>
</radialGradient>
<linearGradient id="paint36_linear_2673" x1="20.2344" y1="8.32326" x2="22.0608" y2="8.4453" gradientUnits="userSpaceOnUse">
<stop/>
<stop offset="1" stop-opacity="0"/>
</linearGradient>
<radialGradient id="paint37_radial_2673" cx="0" cy="0" r="1" gradientUnits="userSpaceOnUse" gradientTransform="translate(19.8872 5.32159) rotate(54.2412) scale(3.62038 1.62113)">
<stop stop-color="#BB62AD"/>
<stop offset="0.2371" stop-color="#B95FAE"/>
<stop offset="0.4317" stop-color="#B455B1"/>
<stop offset="0.6112" stop-color="#AB43B5"/>
<stop offset="0.7816" stop-color="#9F2BBC"/>
<stop offset="0.9442" stop-color="#8E0CC4"/>
<stop offset="1" stop-color="#8800C7"/>
</radialGradient>
<linearGradient id="paint38_linear_2673" x1="13.3034" y1="6.36198" x2="13.4129" y2="11.2239" gradientUnits="userSpaceOnUse">
<stop/>
<stop offset="1" stop-opacity="0"/>
</linearGradient>
<radialGradient id="paint39_radial_2673" cx="0" cy="0" r="1" gradientUnits="userSpaceOnUse" gradientTransform="translate(10.3404 1.87317) scale(8.40171 8.6537)">
<stop stop-color="#BB62AD"/>
<stop offset="0.2371" stop-color="#B95FAE"/>
<stop offset="0.4317" stop-color="#B455B1"/>
<stop offset="0.6112" stop-color="#AB43B5"/>
<stop offset="0.7816" stop-color="#9F2BBC"/>
<stop offset="0.9442" stop-color="#8E0CC4"/>
<stop offset="1" stop-color="#8800C7"/>
</radialGradient>
<linearGradient id="paint40_linear_2673" x1="9.35624" y1="0.462053" x2="14.3089" y2="8.30161" gradientUnits="userSpaceOnUse">
<stop stop-color="#BB62AD"/>
<stop offset="0.2371" stop-color="#B95FAD"/>
<stop offset="0.4317" stop-color="#B155AC"/>
<stop offset="0.6112" stop-color="#A443AA"/>
<stop offset="0.7816" stop-color="#912BA7"/>
<stop offset="0.9442" stop-color="#7A0CA4"/>
<stop offset="1" stop-color="#7000A3"/>
</linearGradient>
<radialGradient id="paint41_radial_2673" cx="0" cy="0" r="1" gradientUnits="userSpaceOnUse" gradientTransform="translate(18.2769 8.96009) rotate(-9.16137) scale(9.06803 9.32628)">
<stop stop-color="white"/>
<stop offset="1" stop-color="#E0DBEC"/>
</radialGradient>
<radialGradient id="paint42_radial_2673" cx="0" cy="0" r="1" gradientUnits="userSpaceOnUse" gradientTransform="translate(18.5387 5.67952) rotate(91.6585) scale(10.8231 6.08051)">
<stop stop-color="#FC5B54" stop-opacity="0"/>
<stop offset="0.12" stop-color="#EB4E65" stop-opacity="0.12"/>
<stop offset="0.5274" stop-color="#B6249A" stop-opacity="0.5274"/>
<stop offset="0.8331" stop-color="#950ABB" stop-opacity="0.8331"/>
<stop offset="1" stop-color="#8800C7"/>
</radialGradient>
</defs>
</svg>
