<svg width="56" height="55" viewBox="0 0 56 55" fill="none" xmlns="http://www.w3.org/2000/svg">
<path d="M27.5068 0.000488281C12.3188 0.000488281 0.00683594 12.3125 0.00683594 27.5005C0.00683594 42.6885 12.3188 55.0005 27.5068 55.0005C42.6949 55.0005 55.0068 42.6885 55.0068 27.5005C55.0068 12.3125 42.6949 0.000488281 27.5068 0.000488281Z" fill="white"/>
<path d="M34.5639 26.2121C34.5519 24.1629 35.4802 22.6185 37.3549 21.4797C36.3064 19.9774 34.7201 19.1511 32.6292 18.9918C30.6493 18.8356 28.4832 20.1456 27.6901 20.1456C26.8519 20.1456 24.9352 19.0459 23.427 19.0459C20.3146 19.094 17.0068 21.5278 17.0068 26.4795C17.0068 27.9428 17.2742 29.4542 17.809 31.0106C18.524 33.0598 21.1017 38.0806 23.7905 37.9995C25.1965 37.9665 26.191 37.002 28.0206 37.002C29.7961 37.002 30.7154 37.9995 32.2837 37.9995C34.9965 37.9605 37.3279 33.3963 38.0068 31.3411C34.3686 29.6254 34.5639 26.3173 34.5639 26.2121ZM31.4064 17.0478C32.9296 15.239 32.7914 13.5924 32.7463 13.0005C31.4004 13.0786 29.8442 13.9169 28.9579 14.9475C27.9815 16.0533 27.4077 17.4204 27.5309 18.9618C28.9849 19.073 30.3128 18.3248 31.4064 17.0478Z" fill="#141414"/>
</svg>
