<svg width="56" height="55" viewBox="0 0 56 55" fill="none" xmlns="http://www.w3.org/2000/svg">
<path d="M27.5068 0.000488281C12.3188 0.000488281 0.00683594 12.3125 0.00683594 27.5005C0.00683594 42.6885 12.3188 55.0005 27.5068 55.0005C42.6949 55.0005 55.0068 42.6885 55.0068 27.5005C55.0068 12.3125 42.6949 0.000488281 27.5068 0.000488281Z" fill="white"/>
<path d="M32.5863 29.0622L33.2846 24.538H28.9197V21.6021C28.9197 20.3646 29.5292 19.1575 31.4843 19.1575H33.4684V15.306C33.4684 15.306 31.6681 15.0005 29.9463 15.0005C26.3519 15.0005 24.0026 17.1677 24.0026 21.0903V24.5388H20.0068V29.063H24.0026V40.0005H28.9197V29.063L32.5863 29.0622Z" fill="#141414"/>
</svg>
