<svg width="56" height="55" viewBox="0 0 56 55" fill="none" xmlns="http://www.w3.org/2000/svg">
<path d="M27.5068 0.000488281C12.3188 0.000488281 0.00683594 12.3125 0.00683594 27.5005C0.00683594 42.6885 12.3188 55.0005 27.5068 55.0005C42.6949 55.0005 55.0068 42.6885 55.0068 27.5005C55.0068 12.3125 42.6949 0.000488281 27.5068 0.000488281Z" fill="white"/>
<g clip-path="url(#clip0_1835_30902)">
<path d="M20.4926 25.1724C20.98 23.6978 21.9206 22.4149 23.1802 21.5065C24.4398 20.5982 25.9542 20.1108 27.5072 20.114C29.2676 20.114 30.8592 20.739 32.1092 21.7619L35.7467 18.1255C33.5301 16.1932 30.6895 15.0005 27.5072 15.0005C22.5801 15.0005 18.3384 17.8109 16.2988 21.9276L20.4926 25.1724Z" fill="#141414"/>
<path d="M31.7147 33.7638C30.5793 34.4961 29.1376 34.8868 27.5064 34.8868C25.9596 34.8899 24.451 34.4065 23.1941 33.5048C21.9373 32.6032 20.9959 31.329 20.5033 29.8628L16.2949 33.0576C17.3275 35.1475 18.9254 36.9059 20.9072 38.1332C22.8891 39.3604 25.1753 40.0073 27.5064 40.0003C30.5616 40.0003 33.4803 38.9138 35.6668 36.8753L31.7158 33.7638H31.7147Z" fill="#141414"/>
<path d="M35.6673 36.8755C37.9537 34.7421 39.4381 31.5671 39.4381 27.5005C39.4381 26.7609 39.3245 25.9661 39.1548 25.2275H27.5068V30.0577H34.211C33.8808 31.6817 32.9923 32.939 31.7162 33.764L35.6673 36.8755Z" fill="#141414"/>
<path d="M20.5038 29.8631C20.249 29.1016 20.1195 28.3037 20.1205 27.5006C20.1205 26.6861 20.2507 25.9038 20.4924 25.1725L16.2986 21.9277C15.4407 23.6597 14.9984 25.5679 15.007 27.5006C15.007 29.5006 15.4705 31.3861 16.2955 33.0579L20.5038 29.8631Z" fill="#141414"/>
</g>
<defs>
<clipPath id="clip0_1835_30902">
<rect x="15.0068" y="15.0005" width="25" height="25" rx="8" fill="white"/>
</clipPath>
</defs>
</svg>
