<svg width="21" height="15" viewBox="0 0 21 15" fill="none" xmlns="http://www.w3.org/2000/svg">
<path d="M20.9284 3.988V12.375C20.9284 13.825 19.6341 15 18.0369 15H2.89142C2.12457 15 1.38912 14.7234 0.846877 14.2312C0.304631 13.7389 0 13.0712 0 12.375V3.988L10.1326 9.048C10.3392 9.151 10.5897 9.151 10.7957 9.048L20.9284 3.9875V3.988ZM18.0369 1.12891e-08C18.7917 6.36777e-05 19.5166 0.268076 20.0566 0.746788C20.5967 1.2255 20.9091 1.87696 20.9273 2.562L10.4642 7.787L0.00110141 2.5615L0.00220309 2.5165C0.0330463 1.83963 0.350939 1.19979 0.889405 0.730788C1.42787 0.261786 2.14521 -6.27765e-05 2.89142 1.12891e-08H18.0369Z" fill="white"/>
</svg>
