<svg width="736" height="743" viewBox="0 0 736 743" fill="none" xmlns="http://www.w3.org/2000/svg">
<path d="M405.111 80.0996C395.161 80.0996 394.166 80.0996 385.709 80.5969C378.147 81.0942 369.391 82.1882 359.64 83.8789C328.796 89.15 296.459 98.9961 276.261 108.544C272.977 110.135 268.599 112.323 265.316 114.014C251.983 121.373 250.59 122.169 241.834 127.937C225.517 139.275 221.736 141.961 205.816 155.884L200.244 161.056C249.894 118.39 429.488 78.1105 481.426 91.0397C474.462 89.3489 465.308 86.962 458.343 85.4702C437.05 81.8898 429.787 80.7958 405.111 80.0996Z" fill="#C95D2C" fill-opacity="0.78"/>
<path d="M586 145.243C579.831 140.668 571.772 134.303 565.404 130.026C548.787 118.987 495.854 118.788 420.833 131.617C308.001 151.111 187.907 192.882 152.585 224.906C148.804 228.387 146.118 231.57 144.526 234.454C141.143 241.316 136.466 250.466 133.481 257.528C123.134 284.679 122.736 285.673 118.756 301.387L116.865 309.344C117.96 304.669 121.641 299.199 128.308 293.232C170.495 254.942 313.872 205.015 448.593 181.842C545.205 165.233 611.173 166.825 625.103 183.235L619.73 177.068C599.034 155.885 598.636 155.487 586 145.243Z" fill="#D829B2" fill-opacity="0.25"/>
<path d="M685.598 301.785C682.016 289.651 676.942 273.639 672.564 261.804C663.907 240.521 589.184 237.338 476.353 256.732C328.299 282.192 170.694 337.091 124.328 379.161C114.975 387.615 110.896 394.974 111.493 401.041C113.284 413.473 116.069 430.082 118.656 442.414C121.442 451.962 125.124 464.792 128.507 474.24L131.691 482.296C129.004 475.632 132.686 467.278 143.73 457.233C190.096 415.064 347.702 360.264 495.855 334.804C614.059 314.416 690.473 318.891 692.861 342.959L691.767 333.511C690.075 323.963 687.886 311.233 685.598 301.785Z" fill="#6210C2" fill-opacity="0.25"/>
<path d="M508.591 423.518C373.87 446.691 230.493 496.617 188.306 534.907C176.366 545.748 173.779 554.5 179.351 560.964C187.41 569.816 198.554 581.253 207.211 589.508C216.464 597.266 229.2 607.211 238.951 614.272C230.692 608.703 231.488 600.448 243.328 589.707C278.65 557.583 398.745 515.812 511.576 496.418C612.169 479.113 673.062 485.379 659.928 509.745C665.301 498.706 672.067 483.688 676.743 472.251C680.325 461.112 684.803 446.193 687.688 434.756C693.16 409.594 622.019 403.925 508.591 423.518Z" fill="#D829B2" fill-opacity="0.18"/>
<path d="M422.923 663.305C417.948 663.603 413.769 663.802 409.889 663.901C413.67 663.802 417.948 663.703 422.923 663.305Z" fill="#0D9999"/>
<path d="M505.407 567.927C426.803 581.453 343.125 610.593 318.449 632.97C307.703 642.717 309.992 649.679 322.628 653.16L330.588 655.348C346.209 658.829 359.641 661.812 381.233 663.503C392.973 664.1 400.535 664.299 409.888 664C385.312 664.199 387.799 657.337 390.486 654.055C409.192 630.384 544.609 600.548 547.992 619.345C548.489 622.03 545.405 624.815 544.41 625.809C564.31 615.665 582.518 603.034 598.537 588.414L604.009 583.342C626.993 561.363 583.314 554.5 505.407 567.927Z" fill="#E5A552" fill-opacity="0.08"/>
<path d="M586.398 598.559C586.299 598.658 586.1 598.857 586 598.956C586.1 598.857 586.199 598.758 586.398 598.559Z" fill="#FF672E"/>
<path d="M531.574 633.866C534.161 632.573 536.748 631.28 539.037 630.086C552.369 622.627 553.762 621.931 562.518 616.163C573.463 608.505 578.836 604.725 586 598.957C573.165 609.101 559.334 618.052 544.41 625.611C541.922 627.6 539.037 629.987 531.574 633.866Z" fill="#FF672E"/>
<path d="M598.537 588.314C594.657 591.895 590.577 595.276 586.398 598.658C589.781 595.873 593.562 592.591 598.537 588.314Z" fill="#FF672E"/>
<path d="M531.574 633.865C530.281 634.462 528.987 635.158 527.893 635.655C529.186 635.059 530.38 634.462 531.574 633.865Z" fill="#FF672E"/>
<g filter="url(#filter0_f_262_2709)">
<path d="M205.242 454.968C206.634 355.547 288.514 276.164 387.931 277.849L429.412 278.552C525.954 280.188 604.039 357.647 606.451 454.173V454.173C609.052 558.26 523.129 642.873 419.094 638.674L377.64 637.001C280.338 633.073 203.878 552.341 205.242 454.968V454.968Z" fill="url(#paint0_linear_262_2709)"/>
</g>
<g filter="url(#filter1_f_262_2709)">
<path d="M299.372 470.473C311.345 425.156 348.123 390.64 394.108 381.563L439.892 372.525C514.562 357.786 585.815 410.211 593.964 485.884V485.884C602.841 568.315 533.161 637.797 450.756 628.686L404.37 623.557C329.949 615.329 280.246 542.864 299.372 470.473V470.473Z" fill="url(#paint1_linear_262_2709)"/>
</g>
<g opacity="0.2" filter="url(#filter2_f_262_2709)">
<path d="M272.453 430.157C280.301 350.296 339.766 286.853 418.648 274.183V274.183C527.259 256.737 629.278 340.457 634.549 451.359L634.833 457.331C640.415 574.772 535.604 663.197 420.354 638.278V638.278C327.188 618.135 262.621 530.209 271.871 436.079L272.453 430.157Z" fill="url(#paint2_linear_262_2709)"/>
</g>
<circle cx="400.325" cy="398.675" r="214.276" fill="url(#paint3_linear_262_2709)"/>
<g filter="url(#filter3_f_262_2709)">
<path d="M147.117 389.734C148.89 263.142 253.147 162.063 379.733 164.208L432.551 165.104C555.477 167.187 654.901 265.816 657.973 388.721V388.721C661.285 521.255 551.88 628.991 419.413 623.644L366.63 621.514C242.736 616.513 145.38 513.717 147.117 389.734V389.734Z" fill="url(#paint4_linear_262_2709)"/>
</g>
<g filter="url(#filter4_f_262_2709)">
<path d="M306.903 222.936C318.739 178.136 355.096 144.014 400.556 135.041L445.818 126.107C519.635 111.536 590.074 163.362 598.13 238.171V238.171C606.906 319.66 538.022 388.349 456.557 379.342L410.702 374.272C337.13 366.137 287.995 294.5 306.903 222.936V222.936Z" fill="url(#paint5_linear_262_2709)"/>
</g>
<g opacity="0.2" filter="url(#filter5_f_262_2709)">
<path d="M266.098 390.544C273.856 311.595 332.642 248.877 410.623 236.351V236.351C517.994 219.105 618.847 301.869 624.058 411.504L624.339 417.408C629.857 533.508 526.243 620.922 412.309 596.289V596.289C320.208 576.376 256.378 489.454 265.523 396.399L266.098 390.544Z" fill="url(#paint6_linear_262_2709)"/>
</g>
<g opacity="0.2" filter="url(#filter6_f_262_2709)">
<path d="M102.098 310.921C109.856 389.87 168.642 452.588 246.623 465.113V465.113C353.994 482.36 454.847 399.596 460.058 289.961L460.339 284.056C465.857 167.957 362.243 80.5425 248.309 105.176V105.176C156.208 125.089 92.378 212.011 101.523 305.066L102.098 310.921Z" fill="url(#paint7_linear_262_2709)"/>
</g>
<circle cx="402.923" cy="384.47" r="239.963" fill="url(#paint8_linear_262_2709)"/>
<circle cx="401.268" cy="386.118" r="211.829" fill="url(#paint9_linear_262_2709)"/>
<path d="M364.801 231.981L389.502 207.279C396.963 199.818 409.06 199.818 416.521 207.279L441.222 231.981L441.222 537.666L416.521 562.367C409.06 569.828 396.963 569.828 389.502 562.367L364.801 537.666L364.801 231.981Z" fill="white"/>
<path d="M364.801 231.981L389.502 207.279C396.963 199.818 409.06 199.818 416.521 207.279L441.222 231.981L441.222 537.666L416.521 562.367C409.06 569.828 396.963 569.828 389.502 562.367L364.801 537.666L364.801 231.981Z" fill="url(#paint10_linear_262_2709)"/>
<path d="M364.801 231.979L364.801 537.664L389.201 562.064C392.576 565.439 396.998 567.564 401.741 568.091L403.011 568.232L403.011 201.41L401.075 201.625C396.763 202.104 392.743 204.037 389.675 207.104L364.801 231.979Z" fill="white"/>
<path d="M364.801 231.979L364.801 537.664L389.201 562.064C392.576 565.439 396.998 567.564 401.741 568.091L403.011 568.232L403.011 201.41L401.075 201.625C396.763 202.104 392.743 204.037 389.675 207.104L364.801 231.979Z" fill="url(#paint11_linear_262_2709)"/>
<path d="M345.701 518.559L288.385 456.747L288.385 312.895L345.701 251.084L345.701 518.559Z" fill="white"/>
<path d="M345.701 518.559L288.385 456.747L288.385 312.895L345.701 251.084L345.701 518.559Z" fill="url(#paint12_linear_262_2709)"/>
<path d="M460.329 518.559L517.645 456.747L517.645 312.895L460.329 251.084L460.329 518.559Z" fill="white"/>
<path d="M460.329 518.559L517.645 456.747L517.645 312.895L460.329 251.084L460.329 518.559Z" fill="url(#paint13_linear_262_2709)"/>
<path d="M288.384 312.897L288.384 456.749L317.042 487.654L317.042 281.991L288.384 312.897Z" fill="white"/>
<path d="M288.384 312.897L288.384 456.749L317.042 487.654L317.042 281.991L288.384 312.897Z" fill="url(#paint14_linear_262_2709)"/>
<path d="M517.646 312.897L517.646 456.749L488.988 487.654L488.988 281.991L517.646 312.897Z" fill="white"/>
<path d="M517.646 312.897L517.646 456.749L488.988 487.654L488.988 281.991L517.646 312.897Z" fill="url(#paint15_linear_262_2709)"/>
<path d="M269.273 442.137L269.273 327.505L225.358 372.142C217.957 379.664 218.057 391.762 225.58 399.161L269.273 442.137Z" fill="white"/>
<path d="M269.273 442.137L269.273 327.505L225.358 372.142C217.957 379.664 218.057 391.762 225.58 399.161L269.273 442.137Z" fill="url(#paint16_linear_262_2709)"/>
<path d="M536.748 442.137L536.748 327.505L580.663 372.142C588.064 379.664 587.964 391.762 580.441 399.161L536.748 442.137Z" fill="white"/>
<path d="M536.748 442.137L536.748 327.505L580.663 372.142C588.064 379.664 587.964 391.762 580.441 399.161L536.748 442.137Z" fill="url(#paint17_linear_262_2709)"/>
<path d="M240.614 356.633L225.357 372.141C217.956 379.664 218.056 391.761 225.579 399.161L240.614 413.949L240.614 356.633Z" fill="white"/>
<path d="M240.614 356.633L225.357 372.141C217.956 379.664 218.056 391.761 225.579 399.161L240.614 413.949L240.614 356.633Z" fill="url(#paint18_linear_262_2709)"/>
<path d="M565.407 356.633L580.664 372.141C588.065 379.664 587.966 391.761 580.442 399.161L565.407 413.949L565.407 356.633Z" fill="white"/>
<path d="M565.407 356.633L580.664 372.141C588.065 379.664 587.966 391.761 580.442 399.161L565.407 413.949L565.407 356.633Z" fill="url(#paint19_linear_262_2709)"/>
<path fill-rule="evenodd" clip-rule="evenodd" d="M402.965 557.571L403.015 221.318L404.926 221.318L404.876 557.571L402.965 557.571Z" fill="url(#paint20_linear_262_2709)"/>
<path fill-rule="evenodd" clip-rule="evenodd" d="M317.038 474.615L317.038 298.846L318.948 298.846L318.948 474.615L317.038 474.615Z" fill="url(#paint21_linear_262_2709)"/>
<path fill-rule="evenodd" clip-rule="evenodd" d="M488.992 474.615L488.992 298.846L487.081 298.846L487.081 474.615L488.992 474.615Z" fill="url(#paint22_linear_262_2709)"/>
<path fill-rule="evenodd" clip-rule="evenodd" d="M238.704 407.749L238.704 363.807L240.614 363.807L240.614 407.749L238.704 407.749Z" fill="url(#paint23_linear_262_2709)"/>
<path fill-rule="evenodd" clip-rule="evenodd" d="M567.318 407.749L567.318 363.807L565.407 363.807L565.407 407.749L567.318 407.749Z" fill="url(#paint24_linear_262_2709)"/>
<path fill-rule="evenodd" clip-rule="evenodd" d="M267.363 419.212L267.363 352.344L269.273 352.344L269.273 419.212L267.363 419.212Z" fill="url(#paint25_linear_262_2709)"/>
<path fill-rule="evenodd" clip-rule="evenodd" d="M538.659 419.212L538.659 352.344L536.748 352.344L536.748 419.212L538.659 419.212Z" fill="url(#paint26_linear_262_2709)"/>
<path fill-rule="evenodd" clip-rule="evenodd" d="M343.791 512.828L343.791 337.059L345.701 337.059L345.701 512.828L343.791 512.828Z" fill="url(#paint27_linear_262_2709)"/>
<path fill-rule="evenodd" clip-rule="evenodd" d="M515.737 440.228L515.737 325.596L517.647 325.596L517.647 440.228L515.737 440.228Z" fill="url(#paint28_linear_262_2709)"/>
<path fill-rule="evenodd" clip-rule="evenodd" d="M439.325 536.735L439.368 251.082L441.278 251.082L441.236 536.735L439.325 536.735Z" fill="url(#paint29_linear_262_2709)"/>
<path d="M481.427 91.0395C474.561 89.1499 465.208 87.0613 458.343 85.47C434.563 81.2929 427.499 80.7956 405.111 80C402.823 80 400.435 80.0995 398.147 80.1989C409.987 80.4973 421.131 82.8842 411.877 92.3324C388.893 112.621 289.494 137.087 262.033 129.23C255.466 127.341 248.601 122.169 276.361 108.444C273.077 110.035 268.699 112.223 265.416 113.914C256.361 118.688 255.565 119.285 241.934 127.838C224.92 139.474 222.035 141.96 205.916 155.785L200.244 161.056C197.359 164.04 193.777 167.819 194.175 171.896C196.961 201.335 421.429 164.437 485.805 111.328C496.65 101.482 494.262 94.5204 481.427 91.0395Z" fill="#E5A552" fill-opacity="0.13"/>
<path d="M385.709 80.4974C389.987 80.2985 394.067 80.2985 398.146 80.1991C397.45 80.1991 396.853 80.0996 396.156 80.0996C394.962 80.1991 391.778 80.0996 385.709 80.4974Z" fill="#FF672E"/>
<g opacity="0.8">
<path d="M619.629 177.167C608.684 165.133 607.888 164.337 585.999 145.242C580.128 140.269 571.572 134.501 565.403 130.025C573.761 135.595 572.865 143.85 561.124 154.591C525.802 186.715 405.708 228.486 292.877 247.88C192.184 265.284 131.291 258.919 144.525 234.553C140.943 241.316 136.764 250.664 133.48 257.626C127.113 272.544 127.013 273.042 118.755 301.486L116.864 309.442C111.292 334.604 182.334 340.174 295.862 320.681C430.582 297.508 573.959 247.581 616.147 209.291C628.087 198.45 630.674 189.698 625.102 183.234L619.629 177.167Z" fill="#D829B2" fill-opacity="0.19"/>
</g>
<g opacity="0.8">
<path d="M685.597 301.786C682.613 289.553 676.842 273.64 672.563 261.805C674.852 271.153 670.872 276.325 660.524 286.867C551.772 376.874 130.894 464.395 111.492 401.141C113.184 413.673 116.169 430.182 118.656 442.514C121.243 452.162 125.422 464.792 128.506 474.34L131.69 482.396C140.347 503.679 215.07 506.862 327.901 487.468C475.955 462.008 633.659 407.108 680.026 365.039C689.378 356.486 693.458 349.226 692.861 343.159L691.766 333.711C690.274 323.964 687.587 311.234 685.597 301.786Z" fill="#570BBE" fill-opacity="0.25"/>
</g>
<path d="M179.25 560.964C187.309 569.816 198.453 581.253 207.11 589.508C216.363 597.265 229.099 607.111 238.849 614.272C255.366 625.312 308.399 625.61 383.52 612.681C496.351 593.287 616.446 551.516 651.768 519.392C655.548 515.911 658.235 512.729 659.827 509.745C665.299 498.705 671.966 483.688 676.642 472.25C680.722 461.31 684.602 446.094 687.587 434.756C686.094 440.823 682.712 444.204 676.145 450.868C591.77 524.763 229.596 605.023 179.25 560.964Z" fill="#D829B2" fill-opacity="0.19"/>
<g opacity="0.8">
<path d="M603.213 583.839C603.412 583.64 603.711 583.441 603.91 583.143L598.438 588.215C600.129 586.822 601.721 585.331 603.213 583.839Z" fill="#FF672E"/>
</g>
<g opacity="0.8">
<path d="M322.727 653.061L330.686 655.249C351.979 660.52 365.61 661.813 381.331 663.404C397.052 664.299 406.007 664.299 423.021 663.305C449.089 660.719 492.172 652.066 527.892 635.756C531.275 634.164 535.653 631.877 539.036 630.186C548.09 625.313 548.588 625.014 562.518 616.262C579.532 604.626 582.417 602.14 598.536 588.316C600.128 586.824 601.72 585.431 603.212 583.939C578.636 606.317 494.859 635.457 416.255 648.983C372.078 656.542 338.845 657.536 322.727 653.061Z" fill="#C95D2C" fill-opacity="0.34"/>
</g>
<defs>
<filter id="filter0_f_262_2709" x="183.224" y="255.822" width="445.284" height="405.001" filterUnits="userSpaceOnUse" color-interpolation-filters="sRGB">
<feFlood flood-opacity="0" result="BackgroundImageFix"/>
<feBlend mode="normal" in="SourceGraphic" in2="BackgroundImageFix" result="shape"/>
<feGaussianBlur stdDeviation="11" result="effect1_foregroundBlur_262_2709"/>
</filter>
<filter id="filter1_f_262_2709" x="195.259" y="270.038" width="499.47" height="459.453" filterUnits="userSpaceOnUse" color-interpolation-filters="sRGB">
<feFlood flood-opacity="0" result="BackgroundImageFix"/>
<feBlend mode="normal" in="SourceGraphic" in2="BackgroundImageFix" result="shape"/>
<feGaussianBlur stdDeviation="50" result="effect1_foregroundBlur_262_2709"/>
</filter>
<filter id="filter2_f_262_2709" x="170.99" y="171.876" width="564.056" height="570.63" filterUnits="userSpaceOnUse" color-interpolation-filters="sRGB">
<feFlood flood-opacity="0" result="BackgroundImageFix"/>
<feBlend mode="normal" in="SourceGraphic" in2="BackgroundImageFix" result="shape"/>
<feGaussianBlur stdDeviation="50" result="effect1_foregroundBlur_262_2709"/>
</filter>
<filter id="filter3_f_262_2709" x="125.094" y="142.175" width="554.952" height="503.661" filterUnits="userSpaceOnUse" color-interpolation-filters="sRGB">
<feFlood flood-opacity="0" result="BackgroundImageFix"/>
<feBlend mode="normal" in="SourceGraphic" in2="BackgroundImageFix" result="shape"/>
<feGaussianBlur stdDeviation="11" result="effect1_foregroundBlur_262_2709"/>
</filter>
<filter id="filter4_f_262_2709" x="202.837" y="23.6479" width="496.05" height="456.49" filterUnits="userSpaceOnUse" color-interpolation-filters="sRGB">
<feFlood flood-opacity="0" result="BackgroundImageFix"/>
<feBlend mode="normal" in="SourceGraphic" in2="BackgroundImageFix" result="shape"/>
<feGaussianBlur stdDeviation="50" result="effect1_foregroundBlur_262_2709"/>
</filter>
<filter id="filter5_f_262_2709" x="164.652" y="134.072" width="559.898" height="566.397" filterUnits="userSpaceOnUse" color-interpolation-filters="sRGB">
<feFlood flood-opacity="0" result="BackgroundImageFix"/>
<feBlend mode="normal" in="SourceGraphic" in2="BackgroundImageFix" result="shape"/>
<feGaussianBlur stdDeviation="50" result="effect1_foregroundBlur_262_2709"/>
</filter>
<filter id="filter6_f_262_2709" x="0.651855" y="0.996094" width="559.898" height="566.397" filterUnits="userSpaceOnUse" color-interpolation-filters="sRGB">
<feFlood flood-opacity="0" result="BackgroundImageFix"/>
<feBlend mode="normal" in="SourceGraphic" in2="BackgroundImageFix" result="shape"/>
<feGaussianBlur stdDeviation="50" result="effect1_foregroundBlur_262_2709"/>
</filter>
<linearGradient id="paint0_linear_262_2709" x1="126.933" y1="371.743" x2="746.227" y2="448.429" gradientUnits="userSpaceOnUse">
<stop stop-color="#FFBF0C"/>
<stop offset="0.578125" stop-color="#FE0F6D"/>
<stop offset="1" stop-color="#7101D3"/>
</linearGradient>
<linearGradient id="paint1_linear_262_2709" x1="198.389" y1="423.712" x2="725.473" y2="492.332" gradientUnits="userSpaceOnUse">
<stop stop-color="#FFBF0C"/>
<stop offset="0.578125" stop-color="#FE0F6D"/>
<stop offset="1" stop-color="#7101D3"/>
</linearGradient>
<linearGradient id="paint2_linear_262_2709" x1="188.518" y1="333.098" x2="786.549" y2="405.824" gradientUnits="userSpaceOnUse">
<stop stop-color="#FFBF0C"/>
<stop offset="0.578125" stop-color="#FE0F6D"/>
<stop offset="1" stop-color="#7101D3"/>
</linearGradient>
<linearGradient id="paint3_linear_262_2709" x1="614.601" y1="184.398" x2="400.325" y2="612.951" gradientUnits="userSpaceOnUse">
<stop stop-color="#010101"/>
<stop offset="1" stop-color="#1E1E1E"/>
</linearGradient>
<linearGradient id="paint4_linear_262_2709" x1="47.4072" y1="283.764" x2="835.949" y2="381.407" gradientUnits="userSpaceOnUse">
<stop stop-color="#FFBF0C"/>
<stop offset="0.578125" stop-color="#FE0F6D"/>
<stop offset="1" stop-color="#7101D3"/>
</linearGradient>
<linearGradient id="paint5_linear_262_2709" x1="207.073" y1="176.709" x2="728.137" y2="244.545" gradientUnits="userSpaceOnUse">
<stop stop-color="#FFBF0C"/>
<stop offset="0.578125" stop-color="#FE0F6D"/>
<stop offset="1" stop-color="#7101D3"/>
</linearGradient>
<linearGradient id="paint6_linear_262_2709" x1="183.122" y1="294.594" x2="774.322" y2="366.489" gradientUnits="userSpaceOnUse">
<stop stop-color="#FFBF0C"/>
<stop offset="0.578125" stop-color="#FE0F6D"/>
<stop offset="1" stop-color="#7101D3"/>
</linearGradient>
<linearGradient id="paint7_linear_262_2709" x1="19.1215" y1="406.871" x2="610.322" y2="334.976" gradientUnits="userSpaceOnUse">
<stop stop-color="#FFBF0C"/>
<stop offset="0.578125" stop-color="#FE0F6D"/>
<stop offset="1" stop-color="#7101D3"/>
</linearGradient>
<linearGradient id="paint8_linear_262_2709" x1="642.885" y1="144.508" x2="402.923" y2="624.433" gradientUnits="userSpaceOnUse">
<stop stop-color="#2B2B2B"/>
<stop offset="1" stop-color="#0F0F0F"/>
</linearGradient>
<linearGradient id="paint9_linear_262_2709" x1="613.097" y1="174.289" x2="401.267" y2="597.947" gradientUnits="userSpaceOnUse">
<stop stop-color="#010101"/>
<stop offset="1" stop-color="#1E1E1E"/>
</linearGradient>
<linearGradient id="paint10_linear_262_2709" x1="403.011" y1="533.845" x2="269.763" y2="454.339" gradientUnits="userSpaceOnUse">
<stop stop-color="#C014DA"/>
<stop offset="0.364049" stop-color="#A300BB"/>
<stop offset="1" stop-color="#6D2CC1"/>
</linearGradient>
<linearGradient id="paint11_linear_262_2709" x1="552.988" y1="974.22" x2="678.727" y2="921.915" gradientUnits="userSpaceOnUse">
<stop stop-color="#833AFC"/>
<stop offset="0.369792" stop-color="#D01DEB"/>
<stop offset="0.753231" stop-color="#EF81FF"/>
<stop offset="0.985947" stop-color="#F4ABFF"/>
</linearGradient>
<linearGradient id="paint12_linear_262_2709" x1="240.622" y1="276.735" x2="262.359" y2="510.593" gradientUnits="userSpaceOnUse">
<stop stop-color="#B94B1D"/>
<stop offset="0.590684" stop-color="#D96D3E"/>
<stop offset="1" stop-color="#F5BE7C"/>
</linearGradient>
<linearGradient id="paint13_linear_262_2709" x1="505.227" y1="251.084" x2="560.489" y2="278.478" gradientUnits="userSpaceOnUse">
<stop stop-color="#FF8DED"/>
<stop offset="0.307292" stop-color="#FF54E4"/>
<stop offset="1" stop-color="#F01CCE"/>
</linearGradient>
<linearGradient id="paint14_linear_262_2709" x1="305.579" y1="303.292" x2="277.135" y2="311.568" gradientUnits="userSpaceOnUse">
<stop stop-color="#FBE889"/>
<stop offset="0.470046" stop-color="#E39F4D"/>
<stop offset="1" stop-color="#C95C2C"/>
</linearGradient>
<linearGradient id="paint15_linear_262_2709" x1="502.362" y1="304.58" x2="407.975" y2="409.909" gradientUnits="userSpaceOnUse">
<stop stop-color="#8C0D78"/>
<stop offset="0.444229" stop-color="#C517AA"/>
<stop offset="0.786683" stop-color="#FB33DB"/>
</linearGradient>
<linearGradient id="paint16_linear_262_2709" x1="282.647" y1="447.868" x2="305.302" y2="377.191" gradientUnits="userSpaceOnUse">
<stop stop-color="#FA9B72"/>
<stop offset="0.412035" stop-color="#FB6A3D"/>
<stop offset="0.854167" stop-color="#B53C16"/>
</linearGradient>
<linearGradient id="paint17_linear_262_2709" x1="523.374" y1="447.868" x2="500.719" y2="377.191" gradientUnits="userSpaceOnUse">
<stop stop-color="#FF9399"/>
<stop offset="0.412035" stop-color="#FE3850"/>
<stop offset="0.854167" stop-color="#D90922"/>
</linearGradient>
<linearGradient id="paint18_linear_262_2709" x1="219.598" y1="346.61" x2="201.278" y2="387.813" gradientUnits="userSpaceOnUse">
<stop stop-color="#FF9473"/>
<stop offset="0.24679" stop-color="#FF906C"/>
<stop offset="0.989583" stop-color="#C74C17"/>
</linearGradient>
<linearGradient id="paint19_linear_262_2709" x1="586.423" y1="346.61" x2="604.744" y2="387.813" gradientUnits="userSpaceOnUse">
<stop stop-color="#FF7E8A"/>
<stop offset="0.989583" stop-color="#FF4646"/>
</linearGradient>
<linearGradient id="paint20_linear_262_2709" x1="403.015" y1="478.285" x2="415.418" y2="227.663" gradientUnits="userSpaceOnUse">
<stop stop-color="white" stop-opacity="0"/>
<stop offset="0.685133" stop-color="white"/>
<stop offset="1" stop-color="white" stop-opacity="0"/>
</linearGradient>
<linearGradient id="paint21_linear_262_2709" x1="317.076" y1="433.169" x2="320.461" y2="301.93" gradientUnits="userSpaceOnUse">
<stop stop-color="white" stop-opacity="0"/>
<stop offset="0.685133" stop-color="white"/>
<stop offset="1" stop-color="white" stop-opacity="0"/>
</linearGradient>
<linearGradient id="paint22_linear_262_2709" x1="488.953" y1="433.169" x2="485.569" y2="301.93" gradientUnits="userSpaceOnUse">
<stop stop-color="white" stop-opacity="0"/>
<stop offset="0.685133" stop-color="white"/>
<stop offset="1" stop-color="white" stop-opacity="0"/>
</linearGradient>
<linearGradient id="paint23_linear_262_2709" x1="238.742" y1="397.387" x2="238.953" y2="364.557" gradientUnits="userSpaceOnUse">
<stop stop-color="white" stop-opacity="0"/>
<stop offset="0.685133" stop-color="white"/>
<stop offset="1" stop-color="white" stop-opacity="0"/>
</linearGradient>
<linearGradient id="paint24_linear_262_2709" x1="567.28" y1="397.387" x2="567.068" y2="364.557" gradientUnits="userSpaceOnUse">
<stop stop-color="white" stop-opacity="0"/>
<stop offset="0.685133" stop-color="white"/>
<stop offset="1" stop-color="white" stop-opacity="0"/>
</linearGradient>
<linearGradient id="paint25_linear_262_2709" x1="267.401" y1="403.445" x2="267.891" y2="353.489" gradientUnits="userSpaceOnUse">
<stop stop-color="white" stop-opacity="0"/>
<stop offset="0.685133" stop-color="white"/>
<stop offset="1" stop-color="white" stop-opacity="0"/>
</linearGradient>
<linearGradient id="paint26_linear_262_2709" x1="538.621" y1="403.445" x2="538.13" y2="353.489" gradientUnits="userSpaceOnUse">
<stop stop-color="white" stop-opacity="0"/>
<stop offset="0.685133" stop-color="white"/>
<stop offset="1" stop-color="white" stop-opacity="0"/>
</linearGradient>
<linearGradient id="paint27_linear_262_2709" x1="343.829" y1="471.382" x2="347.213" y2="340.143" gradientUnits="userSpaceOnUse">
<stop stop-color="white" stop-opacity="0"/>
<stop offset="0.685133" stop-color="white"/>
<stop offset="1" stop-color="white" stop-opacity="0"/>
</linearGradient>
<linearGradient id="paint28_linear_262_2709" x1="515.775" y1="413.198" x2="517.215" y2="327.575" gradientUnits="userSpaceOnUse">
<stop stop-color="white" stop-opacity="0"/>
<stop offset="0.685133" stop-color="white"/>
<stop offset="1" stop-color="white" stop-opacity="0"/>
</linearGradient>
<linearGradient id="paint29_linear_262_2709" x1="439.373" y1="469.379" x2="448.335" y2="256.328" gradientUnits="userSpaceOnUse">
<stop stop-color="white" stop-opacity="0"/>
<stop offset="0.685133" stop-color="white"/>
<stop offset="1" stop-color="white" stop-opacity="0"/>
</linearGradient>
</defs>
</svg>
