<svg id="e7c1bmXAPSl1" xmlns="http://www.w3.org/2000/svg" xmlns:xlink="http://www.w3.org/1999/xlink" viewBox="0 0 90 70" shape-rendering="geometricPrecision" text-rendering="geometricPrecision"><style><![CDATA[#e7c1bmXAPSl1{pointer-events: all}#e7c1bmXAPSl1:hover #e7c1bmXAPSl2_to {animation: e7c1bmXAPSl2_to__to 3000ms linear 1 normal forwards}@keyframes e7c1bmXAPSl2_to__to { 0% {transform: translate(25.263451px,34.999851px)} 30% {transform: translate(16.263451px,35px)} 33.333333% {transform: translate(10.69599px,35px)} 70% {transform: translate(25.65215px,34.999999px)} 100% {transform: translate(25.65215px,34.999999px)}} #e7c1bmXAPSl1:hover #e7c1bmXAPSl2 {animation: e7c1bmXAPSl2_c_o 3000ms linear 1 normal forwards}@keyframes e7c1bmXAPSl2_c_o { 0% {opacity: 1} 30% {opacity: 0.15} 33.333333% {opacity: 0} 70% {opacity: 0} 100% {opacity: 1}} #e7c1bmXAPSl1:hover #e7c1bmXAPSl4 {animation: e7c1bmXAPSl4_c_o 3000ms linear 1 normal forwards}@keyframes e7c1bmXAPSl4_c_o { 0% {opacity: 0.9} 30% {opacity: 0.15} 33.333333% {opacity: 0} 70% {opacity: 0} 100% {opacity: 0.9}} #e7c1bmXAPSl1:hover #e7c1bmXAPSl6_to {animation: e7c1bmXAPSl6_to__to 3000ms linear 1 normal forwards}@keyframes e7c1bmXAPSl6_to__to { 0% {transform: translate(64.415352px,35.11055px)} 30% {transform: translate(73.73655px,35.000003px)} 33.333333% {transform: translate(78.696461px,35.000003px)} 70% {transform: translate(64.646446px,34.999997px)} 100% {transform: translate(64.646446px,34.999997px)}} #e7c1bmXAPSl1:hover #e7c1bmXAPSl6 {animation: e7c1bmXAPSl6_c_o 3000ms linear 1 normal forwards}@keyframes e7c1bmXAPSl6_c_o { 0% {opacity: 0.9} 30% {opacity: 0.13} 33.333333% {opacity: 0} 70% {opacity: 0} 100% {opacity: 0.9}} #e7c1bmXAPSl1:hover #e7c1bmXAPSl8_to {animation: e7c1bmXAPSl8_to__to 3000ms linear 1 normal forwards}@keyframes e7c1bmXAPSl8_to__to { 0% {transform: translate(16.263451px,34.999996px)} 33.333333% {transform: translate(16.263451px,34.999996px)} 66.666667% {transform: translate(73.73655px,34.999997px)} 73.333333% {transform: translate(80.909895px,34.999996px)} 100% {transform: translate(80.909895px,34.999996px)}} #e7c1bmXAPSl1:hover #e7c1bmXAPSl8 {animation: e7c1bmXAPSl8_c_o 3000ms linear 1 normal forwards}@keyframes e7c1bmXAPSl8_c_o { 0% {opacity: 0} 26.666667% {opacity: 0} 33.333333% {opacity: 0.9} 66.666667% {opacity: 0.8} 73.333333% {opacity: 0} 100% {opacity: 0}} #e7c1bmXAPSl1:hover #e7c1bmXAPSl10_to {animation: e7c1bmXAPSl10_to__to 3000ms linear 1 normal forwards}@keyframes e7c1bmXAPSl10_to__to { 0% {transform: translate(16.263451px,34.999996px)} 33.333333% {transform: translate(16.263451px,34.999996px)} 66.666667% {transform: translate(61.577362px,35.04787px)} 73.333333% {transform: translate(64.469471px,35.06665px)} 100% {transform: translate(64.469471px,35.06665px)}} #e7c1bmXAPSl1:hover #e7c1bmXAPSl10 {animation: e7c1bmXAPSl10_c_o 3000ms linear 1 normal forwards}@keyframes e7c1bmXAPSl10_c_o { 0% {opacity: 0} 26.666667% {opacity: 0} 33.333333% {opacity: 0.9} 66.666667% {opacity: 0.8} 73.333333% {opacity: 0} 100% {opacity: 0}} #e7c1bmXAPSl1:hover #e7c1bmXAPSl12_to {animation: e7c1bmXAPSl12_to__to 3000ms linear 1 normal forwards}@keyframes e7c1bmXAPSl12_to__to { 0% {transform: translate(16.263451px,34.999996px)} 33.333333% {transform: translate(16.263451px,34.999996px)} 66.666667% {transform: translate(58.842216px,35.309616px)} 73.333333% {transform: translate(64.317151px,35.261019px)} 100% {transform: translate(64.317151px,35.261019px)}} #e7c1bmXAPSl1:hover #e7c1bmXAPSl12 {animation: e7c1bmXAPSl12_c_o 3000ms linear 1 normal forwards}@keyframes e7c1bmXAPSl12_c_o { 0% {opacity: 0} 26.666667% {opacity: 0} 33.333333% {opacity: 0.9} 66.666667% {opacity: 0.8} 73.333333% {opacity: 0} 100% {opacity: 0}} #e7c1bmXAPSl1:hover #e7c1bmXAPSl14_to {animation: e7c1bmXAPSl14_to__to 3000ms linear 1 normal forwards}@keyframes e7c1bmXAPSl14_to__to { 0% {transform: translate(16.263451px,34.999996px)} 33.333333% {transform: translate(16.263451px,34.999996px)} 66.666667% {transform: translate(58.791874px,35.196369px)} 73.333333% {transform: translate(64.512622px,35.248454px)} 100% {transform: translate(64.512622px,35.248454px)}} #e7c1bmXAPSl1:hover #e7c1bmXAPSl14 {animation: e7c1bmXAPSl14_c_o 3000ms linear 1 normal forwards}@keyframes e7c1bmXAPSl14_c_o { 0% {opacity: 0} 26.666667% {opacity: 0} 33.333333% {opacity: 0.9} 66.666667% {opacity: 0.8} 73.333333% {opacity: 0} 100% {opacity: 0}} #e7c1bmXAPSl1:hover #e7c1bmXAPSl16_to {animation: e7c1bmXAPSl16_to__to 3000ms linear 1 normal forwards}@keyframes e7c1bmXAPSl16_to__to { 0% {transform: translate(16.263451px,34.999996px)} 33.333333% {transform: translate(16.263451px,34.999996px)} 66.666667% {transform: translate(58.791874px,35.196369px)} 73.333333% {transform: translate(64.512622px,35.248454px)} 100% {transform: translate(64.512622px,35.248454px)}} #e7c1bmXAPSl1:hover #e7c1bmXAPSl16 {animation: e7c1bmXAPSl16_c_o 3000ms linear 1 normal forwards}@keyframes e7c1bmXAPSl16_c_o { 0% {opacity: 0} 26.666667% {opacity: 0} 33.333333% {opacity: 0.9} 66.666667% {opacity: 0.8} 73.333333% {opacity: 0} 100% {opacity: 0}}]]></style><g id="e7c1bmXAPSl2_to" transform="translate(25.263451,34.999851)"><g id="e7c1bmXAPSl2" transform="translate(-25.263451,-34.999851)"><path id="e7c1bmXAPSl3" d="M15.0526,51.2633C11.7099,51.2633,9,48.5534,9,45.2107L9,24.789C9,21.4462,11.7099,18.7364,15.0526,18.7364L35.4743,18.7364C38.8171,18.7364,41.5269,21.4462,41.5269,24.789L41.5269,45.2107C41.5269,48.5534,38.8171,51.2633,35.4743,51.2633L15.0526,51.2633Z" fill="rgb(131,56,235)" stroke="none" stroke-width="1"/></g></g><g id="e7c1bmXAPSl4" opacity="0.9"><path id="e7c1bmXAPSl5" d="M23.3612,36.7119C22.4158,35.7665,22.4158,34.2335,23.3612,33.2881L42.9373,13.7119C43.8828,12.7665,45.4158,12.7665,46.3612,13.7119L65.9374,33.2881C66.8828,34.2335,66.8828,35.7665,65.9374,36.7119L46.3612,56.2881C45.4158,57.2335,43.8828,57.2335,42.9373,56.2881L23.3612,36.7119Z" fill="rgb(230,88,25)" stroke="none" stroke-width="1"/></g><g id="e7c1bmXAPSl6_to" transform="translate(64.415352,35.11055)"><g id="e7c1bmXAPSl6" transform="translate(-64.415352,-35.11055)" opacity="0.9"><path id="e7c1bmXAPSl7" d="M64.4153,51.374C55.4333,51.374,48.1519,44.0926,48.1519,35.1106L48.1519,35.1106C48.1519,26.1285,55.4333,18.8471,64.4153,18.8471L64.4153,18.8471C73.3974,18.8471,80.6788,26.1285,80.6788,35.1106L80.6788,35.1106C80.6788,44.0926,73.3974,51.374,64.4153,51.374L64.4153,51.374Z" fill="rgb(254,190,12)" stroke="none" stroke-width="1"/></g></g><g id="e7c1bmXAPSl8_to" transform="translate(16.263451,34.999996)"><g id="e7c1bmXAPSl8" transform="translate(-64.415352,-35.11055)" opacity="0"><path id="e7c1bmXAPSl9" d="M64.4153,51.374C55.4333,51.374,48.1519,44.0926,48.1519,35.1106L48.1519,35.1106C48.1519,26.1285,55.4333,18.8471,64.4153,18.8471L64.4153,18.8471C73.3974,18.8471,80.6788,26.1285,80.6788,35.1106L80.6788,35.1106C80.6788,44.0926,73.3974,51.374,64.4153,51.374L64.4153,51.374Z" fill="rgb(254,190,12)" stroke="none" stroke-width="1"/><g id="e7c1bmXAPSl10_to" transform="translate(16.263451,34.999996)"><g id="e7c1bmXAPSl10" transform="translate(-64.415352,-35.11055)" opacity="0"><path id="e7c1bmXAPSl11" d="M64.4153,51.374C55.4333,51.374,48.1519,44.0926,48.1519,35.1106L48.1519,35.1106C48.1519,26.1285,55.4333,18.8471,64.4153,18.8471L64.4153,18.8471C73.3974,18.8471,80.6788,26.1285,80.6788,35.1106L80.6788,35.1106C80.6788,44.0926,73.3974,51.374,64.4153,51.374L64.4153,51.374Z" fill="rgb(254,190,12)" stroke="none" stroke-width="1"/><g id="e7c1bmXAPSl12_to" transform="translate(16.263451,34.999996)"><g id="e7c1bmXAPSl12" transform="translate(-64.415352,-35.11055)" opacity="0"><path id="e7c1bmXAPSl13" d="M64.4153,51.374C55.4333,51.374,48.1519,44.0926,48.1519,35.1106L48.1519,35.1106C48.1519,26.1285,55.4333,18.8471,64.4153,18.8471L64.4153,18.8471C73.3974,18.8471,80.6788,26.1285,80.6788,35.1106L80.6788,35.1106C80.6788,44.0926,73.3974,51.374,64.4153,51.374L64.4153,51.374Z" fill="rgb(254,190,12)" stroke="none" stroke-width="1"/><g id="e7c1bmXAPSl14_to" transform="translate(16.263451,34.999996)"><g id="e7c1bmXAPSl14" transform="translate(-64.415352,-35.11055)" opacity="0"><path id="e7c1bmXAPSl15" d="M64.4153,51.374C55.4333,51.374,48.1519,44.0926,48.1519,35.1106L48.1519,35.1106C48.1519,26.1285,55.4333,18.8471,64.4153,18.8471L64.4153,18.8471C73.3974,18.8471,80.6788,26.1285,80.6788,35.1106L80.6788,35.1106C80.6788,44.0926,73.3974,51.374,64.4153,51.374L64.4153,51.374Z" fill="rgb(254,190,12)" stroke="none" stroke-width="1"/><g id="e7c1bmXAPSl16_to" transform="translate(16.263451,34.999996)"><g id="e7c1bmXAPSl16" transform="translate(-64.415352,-35.11055)" opacity="0"><path id="e7c1bmXAPSl17" d="M64.4153,51.374C55.4333,51.374,48.1519,44.0926,48.1519,35.1106L48.1519,35.1106C48.1519,26.1285,55.4333,18.8471,64.4153,18.8471L64.4153,18.8471C73.3974,18.8471,80.6788,26.1285,80.6788,35.1106L80.6788,35.1106C80.6788,44.0926,73.3974,51.374,64.4153,51.374L64.4153,51.374Z" fill="rgb(254,190,12)" stroke="none" stroke-width="1"/></g></g></g></g></g></g></g></g></g></g></svg>