<svg width="1559" height="620" viewBox="0 0 1559 620" fill="none" xmlns="http://www.w3.org/2000/svg">
<path opacity="0.3" d="M1117.41 309.999C1117.41 328.243 1108.12 345.726 1091.09 361.734C1074.06 377.744 1049.37 392.208 1018.78 404.376C957.588 428.709 872.991 443.782 779.497 443.782C686.003 443.782 601.406 428.709 540.219 404.376C509.623 392.208 484.93 377.744 467.902 361.734C450.877 345.726 441.584 328.243 441.584 309.999C441.584 291.756 450.877 274.273 467.902 258.264C484.93 242.255 509.623 227.791 540.219 215.623C601.406 191.29 686.003 176.217 779.497 176.217C872.991 176.217 957.588 191.29 1018.78 215.623C1049.37 227.791 1074.06 242.255 1091.09 258.264C1108.12 274.273 1117.41 291.756 1117.41 309.999Z" stroke="url(#paint0_linear_556_19004)" stroke-width="2"/>
<path opacity="0.3" d="M1190.04 309.388C1190.04 331.607 1178.71 352.877 1158.01 372.33C1137.31 391.785 1107.3 409.352 1070.13 424.125C995.802 453.669 893.049 471.965 779.5 471.965C665.951 471.965 563.198 453.669 488.869 424.125C451.701 409.352 421.691 391.785 400.988 372.33C380.288 352.877 368.963 331.607 368.963 309.388C368.963 287.168 380.288 265.898 400.988 246.445C421.691 226.99 451.701 209.424 488.869 194.65C563.198 165.106 665.951 146.811 779.5 146.811C893.049 146.811 995.802 165.106 1070.13 194.65C1107.3 209.424 1137.31 226.99 1158.01 246.445C1178.71 265.898 1190.04 287.168 1190.04 309.388Z" stroke="url(#paint1_linear_556_19004)" stroke-width="2"/>
<path opacity="0.3" d="M1262.66 309.388C1262.66 335.668 1249.3 360.807 1224.93 383.778C1200.55 406.751 1165.22 427.485 1121.48 444.919C1034.01 479.785 913.103 501.372 779.499 501.372C645.896 501.372 524.987 479.785 437.516 444.919C393.777 427.485 358.449 406.751 334.072 383.778C309.696 360.807 296.338 335.668 296.338 309.388C296.338 283.107 309.696 257.968 334.072 234.997C358.449 212.024 393.777 191.29 437.516 173.856C524.987 138.99 645.896 117.403 779.499 117.403C913.103 117.403 1034.01 138.99 1121.48 173.856C1165.22 191.29 1200.55 212.024 1224.93 234.997C1249.3 257.968 1262.66 283.107 1262.66 309.388Z" stroke="url(#paint2_linear_556_19004)" stroke-width="2"/>
<path opacity="0.3" d="M1335.28 309.999C1335.28 340.255 1319.89 369.182 1291.84 395.598C1263.79 422.015 1223.14 445.852 1172.83 465.892C1072.22 505.968 933.155 530.778 779.498 530.778C625.84 530.778 486.775 505.968 386.161 465.892C335.851 445.852 295.205 422.015 267.152 395.598C239.102 369.182 223.712 340.255 223.712 309.999C223.712 279.743 239.102 250.817 267.152 224.401C295.205 197.983 335.851 174.147 386.161 154.107C486.775 114.031 625.84 89.2207 779.498 89.2207C933.155 89.2207 1072.22 114.031 1172.83 154.107C1223.14 174.147 1263.79 197.983 1291.84 224.401C1319.89 250.817 1335.28 279.743 1335.28 309.999Z" stroke="url(#paint3_linear_556_19004)" stroke-width="2"/>
<path opacity="0.3" d="M1407.91 310C1407.91 344.146 1390.49 376.778 1358.77 406.566C1327.04 436.356 1281.07 463.229 1224.19 485.819C1110.44 530.996 953.215 558.96 779.502 558.96C605.789 558.96 448.567 530.996 334.811 485.819C277.93 463.229 231.966 436.356 200.238 406.566C168.513 376.778 151.092 344.146 151.092 310C151.092 275.854 168.513 243.221 200.238 213.433C231.966 183.643 277.93 156.77 334.811 134.18C448.567 89.0035 605.789 61.0391 779.502 61.0391C953.215 61.0391 1110.44 89.0035 1224.19 134.18C1281.07 156.77 1327.04 183.643 1358.77 213.433C1390.49 243.221 1407.91 275.854 1407.91 310Z" stroke="url(#paint4_linear_556_19004)" stroke-width="2"/>
<path opacity="0.3" d="M1485.38 309.387C1485.38 347.848 1465.79 384.591 1430.14 418.117C1394.5 451.644 1342.86 481.884 1278.97 507.3C1151.19 558.131 974.606 589.593 779.502 589.593C584.397 589.593 407.81 558.131 280.035 507.3C216.144 481.884 164.508 451.644 128.861 418.117C93.2155 384.591 73.626 347.848 73.626 309.387C73.626 270.926 93.2155 234.184 128.861 200.658C164.508 167.13 216.144 136.891 280.035 111.474C407.81 60.6433 584.397 29.1816 779.502 29.1816C974.606 29.1816 1151.19 60.6433 1278.97 111.474C1342.86 136.891 1394.5 167.13 1430.14 200.658C1465.79 234.184 1485.38 270.926 1485.38 309.387Z" stroke="url(#paint5_linear_556_19004)" stroke-width="2"/>
<path opacity="0.3" d="M1558 310C1558 352.436 1536.38 392.967 1497.06 429.937C1457.74 466.91 1400.78 500.252 1330.32 528.274C1189.4 584.315 994.659 619 779.5 619C564.341 619 369.597 584.315 228.68 528.274C158.218 500.252 101.264 466.91 61.942 429.937C22.6216 392.967 1 352.436 1 310C1 267.564 22.6216 227.033 61.942 190.063C101.264 153.09 158.218 119.748 228.68 91.7261C369.597 35.6846 564.341 1 779.5 1C994.659 1 1189.4 35.6846 1330.32 91.7261C1400.78 119.748 1457.74 153.09 1497.06 190.063C1536.38 227.033 1558 267.564 1558 310Z" stroke="url(#paint6_linear_556_19004)" stroke-width="2"/>
<defs>
<linearGradient id="paint0_linear_556_19004" x1="779.497" y1="175.217" x2="779.497" y2="444.782" gradientUnits="userSpaceOnUse">
<stop stop-color="white" stop-opacity="0"/>
<stop offset="0.614583" stop-color="white" stop-opacity="0.73"/>
<stop offset="1" stop-color="white" stop-opacity="0"/>
</linearGradient>
<linearGradient id="paint1_linear_556_19004" x1="779.5" y1="145.811" x2="779.5" y2="472.965" gradientUnits="userSpaceOnUse">
<stop stop-color="white" stop-opacity="0"/>
<stop offset="0.614583" stop-color="white" stop-opacity="0.73"/>
<stop offset="1" stop-color="white" stop-opacity="0"/>
</linearGradient>
<linearGradient id="paint2_linear_556_19004" x1="779.499" y1="116.403" x2="779.499" y2="502.372" gradientUnits="userSpaceOnUse">
<stop stop-color="white" stop-opacity="0"/>
<stop offset="0.614583" stop-color="white" stop-opacity="0.73"/>
<stop offset="1" stop-color="white" stop-opacity="0"/>
</linearGradient>
<linearGradient id="paint3_linear_556_19004" x1="779.498" y1="88.2207" x2="779.498" y2="531.778" gradientUnits="userSpaceOnUse">
<stop stop-color="white" stop-opacity="0"/>
<stop offset="0.614583" stop-color="white" stop-opacity="0.73"/>
<stop offset="1" stop-color="white" stop-opacity="0"/>
</linearGradient>
<linearGradient id="paint4_linear_556_19004" x1="779.502" y1="60.0391" x2="779.502" y2="559.96" gradientUnits="userSpaceOnUse">
<stop stop-color="white" stop-opacity="0"/>
<stop offset="0.614583" stop-color="white" stop-opacity="0.73"/>
<stop offset="1" stop-color="white" stop-opacity="0"/>
</linearGradient>
<linearGradient id="paint5_linear_556_19004" x1="779.502" y1="28.1816" x2="779.502" y2="590.593" gradientUnits="userSpaceOnUse">
<stop stop-color="white" stop-opacity="0"/>
<stop offset="0.614583" stop-color="white" stop-opacity="0.73"/>
<stop offset="1" stop-color="white" stop-opacity="0"/>
</linearGradient>
<linearGradient id="paint6_linear_556_19004" x1="779.5" y1="0" x2="779.5" y2="620" gradientUnits="userSpaceOnUse">
<stop stop-color="white" stop-opacity="0"/>
<stop offset="0.614583" stop-color="white" stop-opacity="0.73"/>
<stop offset="1" stop-color="white" stop-opacity="0"/>
</linearGradient>
</defs>
</svg>
