<svg width="56" height="55" viewBox="0 0 56 55" fill="none" xmlns="http://www.w3.org/2000/svg">
<path d="M27.5068 0.000488281C12.3188 0.000488281 0.00683594 12.3125 0.00683594 27.5005C0.00683594 42.6885 12.3188 55.0005 27.5068 55.0005C42.6949 55.0005 55.0068 42.6885 55.0068 27.5005C55.0068 12.3125 42.6949 0.000488281 27.5068 0.000488281Z" fill="white"/>
<g clip-path="url(#clip0_1835_30911)">
<path d="M40.0068 23.052V33.6755C40.0068 35.5122 38.4608 37.0005 36.5529 37.0005H18.4608C17.5447 37.0005 16.6662 36.6502 16.0185 36.0266C15.3707 35.4031 15.0068 34.5573 15.0068 33.6755V23.052L27.1108 29.4613C27.3575 29.5918 27.6568 29.5918 27.9029 29.4613L40.0068 23.0513V23.052ZM36.5529 18.0005C37.4545 18.0006 38.3204 18.3401 38.9655 18.9464C39.6106 19.5528 39.9839 20.378 40.0055 21.2457L27.5068 27.864L15.0082 21.2451L15.0095 21.1881C15.0463 20.3307 15.4261 19.5202 16.0693 18.9262C16.7125 18.3321 17.5694 18.0004 18.4608 18.0005H36.5529Z" fill="#141414"/>
</g>
<defs>
<clipPath id="clip0_1835_30911">
<rect x="15.0068" y="15.0005" width="25" height="25" rx="8" fill="white"/>
</clipPath>
</defs>
</svg>
