<svg width="56" height="55" viewBox="0 0 56 55" fill="none" xmlns="http://www.w3.org/2000/svg">
<path d="M27.5073 0.000488281C12.3193 0.000488281 0.00732422 12.3125 0.00732422 27.5005C0.00732422 42.6885 12.3193 55.0005 27.5073 55.0005C42.6953 55.0005 55.0073 42.6885 55.0073 27.5005C55.0073 12.3125 42.6953 0.000488281 27.5073 0.000488281Z" fill="white"/>
<path d="M37.1974 26.841H39.6904C39.6904 20.0912 34.8627 15.0005 28.4595 15.0005V17.632C33.5227 17.632 37.1974 21.5043 37.1974 26.841Z" fill="#141414"/>
<path d="M28.4726 22.895C31.094 22.895 32.2121 24.0753 32.2121 26.8423H34.705C34.705 22.599 32.4925 20.2635 28.4726 20.2635V22.895ZM32.7381 30.0567C32.4986 29.8269 32.1838 29.7044 31.8603 29.7149C31.5368 29.7255 31.2298 29.8683 31.0042 30.1133L28.0214 33.3514C27.3034 33.2067 25.8599 32.7317 24.3741 31.1672C22.8883 29.5975 22.4383 28.0699 22.3049 27.3173L25.3701 24.1674C25.6024 23.9294 25.738 23.6053 25.748 23.2637C25.758 22.9221 25.6417 22.5898 25.4237 22.3372L20.8179 16.9912C20.5998 16.7378 20.2967 16.584 19.973 16.5626C19.6492 16.5413 19.3303 16.6539 19.084 16.8768L16.3791 19.3254C16.1636 19.5537 16.035 19.8575 16.0176 20.1793C15.999 20.5083 15.6425 28.3002 21.3663 34.3448C26.3598 39.6144 32.6147 40 34.3373 40C34.5891 40 34.7437 39.9921 34.7848 39.9894C35.0896 39.9714 35.3773 39.835 35.5925 39.6065L37.911 36.75C38.1223 36.4902 38.2292 36.1537 38.2092 35.8119C38.1892 35.4702 38.0438 35.1502 37.8038 34.9198L32.7381 30.0567Z" fill="#141414"/>
</svg>
