<svg width="20" height="19" viewBox="0 0 20 19" fill="none" xmlns="http://www.w3.org/2000/svg">
<path d="M17.7398 8.99894H19.8268C19.8268 3.86897 15.7853 0 10.4248 0V1.99999C14.6635 1.99999 17.7398 4.94296 17.7398 8.99894Z" fill="white"/>
<path d="M10.4353 6.00021C12.6298 6.00021 13.5658 6.8972 13.5658 9.00019H15.6528C15.6528 5.77521 13.8006 4.00022 10.4353 4.00022V6.00021ZM14.0062 11.4432C13.8057 11.2685 13.5422 11.1754 13.2714 11.1834C13.0005 11.1914 12.7435 11.3 12.5547 11.4862L10.0576 13.9472C9.45651 13.8372 8.24814 13.4762 7.00428 12.2872C5.76043 11.0942 5.38372 9.93318 5.27207 9.36118L7.83804 6.9672C8.03256 6.78633 8.14602 6.54002 8.15439 6.28041C8.16276 6.0208 8.0654 5.76825 7.88291 5.57621L4.02717 1.51324C3.8446 1.32059 3.59086 1.20374 3.31983 1.1875C3.04881 1.17125 2.78185 1.2569 2.57566 1.42624L0.311258 3.28722C0.130848 3.46074 0.0231673 3.69167 0.00864225 3.93622C-0.00701029 4.18622 -0.305452 10.1082 4.48631 14.7021C8.66658 18.7071 13.9029 19.0001 15.345 19.0001C15.5558 19.0001 15.6852 18.9941 15.7196 18.9921C15.9748 18.9784 16.2156 18.8748 16.3958 18.7011L18.3367 16.5301C18.5136 16.3327 18.6031 16.0769 18.5863 15.8172C18.5696 15.5575 18.4478 15.3142 18.247 15.1391L14.0062 11.4432Z" fill="white"/>
</svg>
