<svg width="24" height="24" viewBox="0 0 24 24" fill="none" xmlns="http://www.w3.org/2000/svg">
<path d="M8.15001 19H5.175V9.6375H8.15001V19ZM6.6625 8.325C5.7 8.325 5 7.625 5 6.6625C5 5.7 5.7875 5 6.6625 5C7.625 5 8.325 5.7 8.325 6.6625C8.325 7.625 7.625 8.325 6.6625 8.325ZM19 19H16.025V13.925C16.025 12.4375 15.4125 12 14.5375 12C13.6625 12 12.7875 12.7 12.7875 14.0125V19H9.8125V9.6375H12.6125V10.95C12.875 10.3375 13.925 9.375 15.4125 9.375C17.075 9.375 18.825 10.3375 18.825 13.225V19H19Z" fill="white"/>
</svg>
