<svg width="24" height="24" viewBox="0 0 24 24" fill="none" xmlns="http://www.w3.org/2000/svg">
<path d="M16.1631 6H6.83688C6.46417 6 6.09512 6.07535 5.75082 6.22174C5.40651 6.36814 5.09369 6.5827 4.83024 6.85318C4.56679 7.12367 4.35786 7.44476 4.21541 7.79811C4.07295 8.15147 3.99975 8.53017 4 8.91256V14.0874C3.99975 14.4698 4.07295 14.8485 4.21541 15.2019C4.35786 15.5552 4.56679 15.8763 4.83024 16.1468C5.09369 16.4173 5.40651 16.6319 5.75082 16.7783C6.09512 16.9247 6.46417 17 6.83688 17H16.1631C16.5358 17 16.9049 16.9247 17.2492 16.7783C17.5935 16.6319 17.9063 16.4173 18.1698 16.1468C18.4332 15.8763 18.6421 15.5552 18.7846 15.2019C18.927 14.8485 19.0002 14.4698 19 14.0874V8.91256C19.0002 8.53017 18.927 8.15147 18.7846 7.79811C18.6421 7.44476 18.4332 7.12367 18.1698 6.85318C17.9063 6.5827 17.5935 6.36814 17.2492 6.22174C16.9049 6.07535 16.5358 6 16.1631 6V6ZM9.52375 13.8585V9.14148L13.4763 11.5L9.52375 13.8585Z" fill="white"/>
</svg>
