<svg width="24" height="24" viewBox="0 0 24 24" fill="none" xmlns="http://www.w3.org/2000/svg">
<path d="M10.4063 5.35061L11.4979 4.25901C11.8276 3.92929 12.3622 3.92929 12.6919 4.25901L13.7835 5.35061L13.7835 18.8595L12.6919 19.9511C12.3622 20.2809 11.8276 20.2809 11.4979 19.9511L10.4063 18.8595L10.4063 5.35061Z" fill="white"/>
<path d="M10.4063 5.35089L10.4063 18.8598L11.4846 19.9381C11.6337 20.0873 11.8291 20.1812 12.0387 20.2045L12.0949 20.2107L12.0949 4L12.0093 4.00951C11.8187 4.03068 11.6411 4.11607 11.5055 4.25164L10.4063 5.35089Z" fill="white"/>
<path d="M9.5625 18.0117L7.02958 15.2801L7.02958 8.92299L9.5625 6.19141L9.5625 18.0117Z" fill="white"/>
<path d="M14.6289 18.0117L17.1618 15.2801L17.1618 8.92299L14.6289 6.19141L14.6289 18.0117Z" fill="white"/>
<path d="M7.03041 8.9255L7.03041 15.2826L8.29688 16.6484L8.29687 7.55971L7.03041 8.9255Z" fill="white"/>
<path d="M17.1649 8.9255L17.1649 15.2826L15.8984 16.6484L15.8984 7.55971L17.1649 8.9255Z" fill="white"/>
<path d="M6.18359 14.6367L6.18359 9.57087L4.24288 11.5435C3.91583 11.8759 3.92022 12.4105 4.25269 12.7375L6.18359 14.6367Z" fill="white"/>
<path d="M18.0039 14.6367L18.0039 9.57087L19.9446 11.5435C20.2717 11.8759 20.2673 12.4105 19.9348 12.7375L18.0039 14.6367Z" fill="white"/>
<path d="M4.91797 10.8616L4.24372 11.5469C3.91666 11.8794 3.92105 12.414 4.25353 12.741L4.91797 13.3945L4.91797 10.8616Z" fill="white"/>
<path d="M19.2695 10.8616L19.9438 11.5469C20.2708 11.8794 20.2664 12.414 19.934 12.741L19.2695 13.3945L19.2695 10.8616Z" fill="white"/>
</svg>
