<svg width="22" height="21" viewBox="0 0 22 21" fill="none" xmlns="http://www.w3.org/2000/svg">
<path fill-rule="evenodd" clip-rule="evenodd" d="M4.04583 0.11462C3.88603 0.198021 3.7925 0.28372 3.70238 0.429231L3.57858 0.62918L3.56512 1.62737L3.55165 2.62552L2.9903 2.62621C2.29975 2.62712 1.97104 2.69243 1.50778 2.92093C0.829129 3.2556 0.283057 3.95932 0.129335 4.69721C0.078382 4.942 0.0695545 5.99221 0.0695545 11.8148C0.0695545 19.4402 0.0506678 18.9434 0.364023 19.5683C0.662721 20.164 1.19763 20.6241 1.88145 20.8737L2.18261 20.9836L10.4453 20.9945C19.6807 21.0066 19.0178 21.0271 19.6506 20.7088C20.2622 20.4012 20.767 19.8037 20.9783 19.1376L21.0693 18.8504V11.8148V4.77926L20.9783 4.49209C20.7666 3.82464 20.2614 3.22582 19.6528 2.92117C19.1983 2.69362 18.8634 2.62712 18.1677 2.62621L17.6063 2.62552L17.5929 1.62737L17.5794 0.62918L17.4556 0.429231C17.3655 0.28372 17.272 0.198021 17.1122 0.11462C16.9003 0.00406135 16.8708 0 16.2801 0C15.6116 0 15.4598 0.0349112 15.2456 0.238061C14.9858 0.484367 14.9722 0.554312 14.9722 1.63931V2.62552H10.579H6.18577V1.66015C6.18577 0.609981 6.16808 0.506725 5.94751 0.271741C5.73233 0.0424595 5.57343 0.00188709 4.88686 0.000902521C4.28548 4.10237e-05 4.25834 0.00369213 4.04583 0.11462ZM19.3146 13.7362L19.3038 18.6933L19.1916 18.8539C19.1299 18.9422 19.0111 19.0606 18.9277 19.117L18.7761 19.2196H10.5785H2.38088L2.22018 19.1074C2.13178 19.0458 2.01324 18.9271 1.95679 18.8438L1.85414 18.6923L1.84339 13.7357L1.83263 8.77907H10.579H19.3254L19.3146 13.7362Z" fill="white" fill-opacity="0.3"/>
</svg>
