<svg width="15" height="15" viewBox="0 0 15 15" fill="none" xmlns="http://www.w3.org/2000/svg">
<circle cx="7.5" cy="7.5" r="7.5" fill="#C9975A" fill-opacity="0.2"/>
<path fill-rule="evenodd" clip-rule="evenodd" d="M6.82877 2.54729C5.46905 2.74384 4.23314 3.61481 3.49545 4.89634C3.06461 5.64481 2.81951 6.56747 2.81951 7.44085V7.74064H2.4753H2.13112L2.05409 7.81667C1.95619 7.9133 1.93347 8.05985 1.99945 8.16894C2.0664 8.27956 3.60945 10.1751 3.62915 10.171C3.65245 10.166 5.19788 8.25951 5.252 8.16894C5.31738 8.05955 5.29445 7.913 5.19687 7.81667L5.11984 7.74064H4.71887H4.31789L4.33063 7.376C4.36156 6.48996 4.66162 5.7527 5.24708 5.12425C5.84187 4.48577 6.52222 4.1669 7.35445 4.13653C7.65501 4.12556 7.74949 4.13102 7.97407 4.17239C8.53384 4.27553 9.01281 4.50892 9.44827 4.89074L9.61873 5.04018L9.69195 4.94922C9.73223 4.89919 9.95294 4.62144 10.1824 4.33202L10.5997 3.80579L10.4439 3.66516C10.0671 3.32488 9.46967 2.95536 9.02901 2.78996C8.7559 2.68747 8.34458 2.5831 8.05724 2.54342C7.74033 2.49962 7.14544 2.50149 6.82877 2.54729ZM10.4921 6.28236C10.0497 6.82976 9.67415 7.30525 9.65773 7.339C9.60875 7.43974 9.63818 7.57696 9.72776 7.66537L9.80399 7.74064H10.2032H10.6025L10.5889 7.85061C10.4841 8.70111 10.206 9.32444 9.67663 9.89492C9.19098 10.4183 8.64687 10.7213 7.96699 10.847C7.75116 10.8869 7.65297 10.8926 7.3652 10.8818C6.73375 10.8582 6.22312 10.6843 5.72297 10.3225C5.54858 10.1964 5.54088 10.1933 5.50355 10.2338C5.48227 10.2569 5.26223 10.531 5.01459 10.843C4.59617 11.3701 4.56673 11.413 4.59811 11.4509C4.65551 11.5201 5.09777 11.8301 5.31265 11.9517C6.60047 12.6805 8.20034 12.6992 9.51446 12.0007C10.0102 11.7372 10.3947 11.4334 10.7937 10.9898C11.3845 10.333 11.7584 9.61821 11.9633 8.75368C12.0298 8.4732 12.1043 7.97327 12.1043 7.80796V7.74064H12.4485H12.7927L12.8697 7.66461C12.9674 7.56818 12.9903 7.42163 12.9247 7.31233C12.8948 7.26237 11.4446 5.4571 11.3116 5.30421C11.3034 5.29481 10.9347 5.73496 10.4921 6.28236Z" fill="#D58A2E"/>
</svg>
