<svg width="15" height="15" viewBox="0 0 15 15" fill="none" xmlns="http://www.w3.org/2000/svg">
<circle cx="7.5" cy="7.5" r="7.5" fill="#3DBF71" fill-opacity="0.2"/>
<path fill-rule="evenodd" clip-rule="evenodd" d="M11.4542 4.39819C11.5998 4.44287 11.8219 4.66294 11.8833 4.8234C11.9545 5.00932 11.9474 5.25083 11.8658 5.41932C11.7742 5.60844 6.98286 10.3615 6.76566 10.4788C6.55772 10.591 6.31214 10.591 6.10388 10.4788C5.98058 10.4123 3.7736 8.43681 3.39839 8.057C3.25189 7.90873 3.17901 7.72764 3.18171 7.51883C3.18748 7.07855 3.5087 6.78159 3.94536 6.81281C4.05015 6.82031 4.17784 6.84812 4.2291 6.8746C4.30661 6.91465 5.77803 8.23667 6.25338 8.69333L6.39207 8.82653L8.56738 6.65563C9.76383 5.46165 10.7849 4.46367 10.8364 4.43793C11.0381 4.33707 11.2175 4.32552 11.4542 4.39819Z" fill="#3DBF71"/>
</svg>
