<svg width="15" height="15" viewBox="0 0 15 15" fill="none" xmlns="http://www.w3.org/2000/svg">
<circle cx="7.5" cy="7.5" r="7.5" fill="#C9975A" fill-opacity="0.2"/>
<path fill-rule="evenodd" clip-rule="evenodd" d="M7.33856 3.0278C7.01445 3.109 6.76765 3.33674 6.6196 3.69128C6.54697 3.86517 6.55109 4.10759 6.65556 5.79712C6.70334 6.56927 6.76446 7.56129 6.79142 8.00158C6.85043 8.96484 6.88686 9.06676 7.23455 9.24046C7.47135 9.35877 7.63733 9.37114 7.84435 9.28596C8.17666 9.14925 8.3546 8.83773 8.3511 8.39881C8.35018 8.28263 8.40595 7.22807 8.47508 6.0554C8.61352 3.70577 8.61421 3.72634 8.38911 3.40359C8.17181 3.09208 7.72299 2.93154 7.33856 3.0278ZM7.31398 10.0609C6.84974 10.2112 6.55597 10.6249 6.59067 11.0794C6.63237 11.625 7.03376 11.9981 7.58094 12C7.9716 12.0013 8.29475 11.804 8.47739 11.4527C8.57555 11.2638 8.58617 10.8371 8.49777 10.6321C8.41546 10.4411 8.21424 10.2268 8.0306 10.1343C7.86116 10.0491 7.47339 10.0094 7.31398 10.0609Z" fill="#D48A2E"/>
</svg>
