<svg width="37" height="45" viewBox="0 0 37 45" fill="none" xmlns="http://www.w3.org/2000/svg">
<path d="M36.2389 43.7248C34.3944 44.8911 32.5744 44.4852 30.9464 43.8936C28.6926 43.0406 26.5058 41.937 24.5108 40.6477C15.4763 34.4677 10.1337 25.7664 8.03349 15.1031C7.50918 12.3901 7.36459 9.55719 7.03506 6.46982C4.49406 7.8768 3.12763 10.686 0.583679 12.2817C0.288568 11.019 0.930967 10.2113 1.44546 9.52745C3.5674 6.73006 5.75229 3.93365 7.99916 1.20111C9.09014 -0.102769 9.91058 -0.215733 11.0261 0.933972C13.3821 3.29823 14.7859 6.15081 15.1754 9.42783C15.1735 9.55361 14.9817 9.73931 14.7249 10.0498C12.0285 9.31568 12.7122 5.86675 10.4024 4.57255C9.32715 8.89598 10.0177 13.0584 11.088 17.1009C12.2182 21.333 13.7292 25.3824 16.1915 29.0064C18.5918 32.5665 21.6325 35.4447 24.9909 38.1391C28.2854 40.8955 32.0364 42.6526 36.2389 43.7248Z" fill="white"/>
</svg>
