<svg width="40" height="31" viewBox="0 0 40 31" fill="none" xmlns="http://www.w3.org/2000/svg">
    <path d="M33.8617 2.52736C31.3122 1.35755 28.5783 0.495693 25.7198 0.00207068C25.6678 -0.00745608 25.6158 0.0163518 25.589 0.0639687C25.2374 0.689327 24.8479 1.50516 24.5752 2.1464C21.5007 1.68612 18.442 1.68612 15.4305 2.1464C15.1577 1.4909 14.7541 0.689327 14.401 0.0639687C14.3741 0.0179405 14.3221 -0.00586735 14.2701 0.00207068C11.4132 0.494116 8.67927 1.35597 6.12823 2.52736C6.10614 2.53688 6.08721 2.55276 6.07465 2.57338C0.888986 10.3207 -0.531584 17.8775 0.1653 25.3407C0.168453 25.3772 0.18895 25.4121 0.21733 25.4343C3.63868 27.9468 6.95285 29.4722 10.2055 30.4832C10.2575 30.4991 10.3127 30.4801 10.3458 30.4372C11.1152 29.3865 11.8011 28.2786 12.3891 27.1136C12.4238 27.0453 12.3907 26.9644 12.3198 26.9374C11.2319 26.5247 10.196 26.0216 9.19955 25.4502C9.12073 25.4041 9.11442 25.2914 9.18693 25.2374C9.39662 25.0803 9.60637 24.9168 9.80659 24.7518C9.84282 24.7216 9.8933 24.7152 9.93589 24.7343C16.4821 27.7231 23.5692 27.7231 30.0383 24.7343C30.0808 24.7137 30.1313 24.72 30.1691 24.7502C30.3694 24.9152 30.5791 25.0803 30.7904 25.2374C30.8629 25.2914 30.8581 25.4041 30.7793 25.4502C29.7829 26.0327 28.747 26.5247 27.6575 26.9358C27.5866 26.9628 27.555 27.0453 27.5897 27.1136C28.1904 28.277 28.8763 29.3849 29.6315 30.4356C29.663 30.4801 29.7198 30.4991 29.7718 30.4832C33.0402 29.4722 36.3544 27.9468 39.7757 25.4343C39.8057 25.4121 39.8246 25.3787 39.8278 25.3422C40.6618 16.714 38.4308 9.21913 33.9137 2.57496C33.9026 2.55276 33.8838 2.53688 33.8617 2.52736ZM13.3667 20.7964C11.3958 20.7964 9.77189 18.987 9.77189 16.7648C9.77189 14.5427 11.3643 12.7333 13.3667 12.7333C15.3848 12.7333 16.993 14.5586 16.9615 16.7648C16.9615 18.987 15.369 20.7964 13.3667 20.7964ZM26.6579 20.7964C24.6871 20.7964 23.0632 18.987 23.0632 16.7648C23.0632 14.5427 24.6556 12.7333 26.6579 12.7333C28.6761 12.7333 30.2842 14.5586 30.2527 16.7648C30.2527 18.987 28.6761 20.7964 26.6579 20.7964Z" fill="#000000"/>
</svg>
