<svg width="20" height="12" viewBox="0 0 20 12" fill="none" xmlns="http://www.w3.org/2000/svg">
<path fill-rule="evenodd" clip-rule="evenodd" d="M8.50002 0.0385765C5.98717 0.307551 3.63835 1.46307 1.83266 3.31868C1.15879 4.01119 0.442674 4.96865 0.112541 5.61845C-0.0919318 6.02098 -0.0514453 6.16228 0.517127 7.03035C1.87259 9.09983 3.93024 10.6937 6.23965 11.4631C7.49113 11.88 8.55342 12.0332 9.92025 11.9941C11.2866 11.955 12.363 11.7302 13.6048 11.2247C15.0967 10.6175 16.3334 9.76194 17.4839 8.54126C18.0104 7.98264 18.3323 7.57439 18.7292 6.96183C19.2545 6.15114 19.2896 6.01563 19.0808 5.60469C18.7638 4.98058 18.0446 4.01943 17.3776 3.32862C15.5768 1.46328 13.1968 0.299183 10.6461 0.0360494C10.1694 -0.0131225 8.96993 -0.0117139 8.50002 0.0385765ZM10.5403 1.97679C12.0055 2.35541 13.1189 3.51383 13.4914 5.04719C13.607 5.52305 13.6144 6.40905 13.5068 6.89062C13.0948 8.73455 11.6042 10.0296 9.78022 10.1283C8.38768 10.2037 7.02614 9.48401 6.26297 8.26909C5.99833 7.84784 5.82878 7.44518 5.7086 6.95276C5.58646 6.45217 5.58646 5.54778 5.7086 5.04719C5.96509 3.99607 6.56826 3.11217 7.42264 2.53553C7.92292 2.19787 8.37179 2.02509 9.12012 1.88225C9.35107 1.83818 10.2305 1.89667 10.5403 1.97679ZM9.0201 3.25107C8.43569 3.37887 7.81154 3.78629 7.45617 4.27187C6.96537 4.94255 6.78238 5.7629 6.94332 6.57131C7.2673 8.19858 8.88956 9.18057 10.4203 8.67597C11.9758 8.16321 12.7504 6.34559 12.0635 4.82002C11.5253 3.62465 10.2703 2.97762 9.0201 3.25107Z" fill="white" fill-opacity="0.5"/>
</svg>
