<svg width="62" height="57" viewBox="0 0 62 57" fill="none" xmlns="http://www.w3.org/2000/svg">
<path d="M29.6699 41.3906H32.3418V32.8281H40.9043V30.1719H32.3418V21.6094H29.6699V30.1719H21.1074V32.8281H29.6699V41.3906Z" fill="white"/>
<path d="M30.9139 2.56974C31.3824 2.56974 31.8514 2.72447 32.209 3.03393L43.1993 12.5414C43.4612 12.7671 43.7044 12.8755 43.9074 12.8755C44.2608 12.8755 44.4944 12.5492 44.4944 11.9489V9.65561C44.4944 8.71035 45.2614 7.94337 46.2066 7.94337H50.4831C51.4284 7.94337 52.1954 8.71041 52.1954 9.65561V18.6109C52.1954 19.5562 52.7752 20.8247 53.4905 21.4437L58.8285 26.0616C59.5443 26.6806 59.3565 27.1821 58.4112 27.1821H53.9071C52.9618 27.1821 52.1948 27.8612 52.1948 28.6981V30.2141V52.7204C52.1948 53.6656 51.4278 54.4326 50.4826 54.4326L11.3456 54.4332C10.4003 54.4332 9.63335 53.6662 9.63335 52.721V28.8938C9.63335 27.9486 8.8663 27.1816 7.92111 27.1816H3.41694C2.47168 27.1816 2.28443 26.6801 2.9997 26.0611L29.6197 3.03393C29.9767 2.72327 30.4457 2.56913 30.9141 2.56913L30.9139 2.56974ZM30.9141 0.000693797C29.8087 0.000693797 28.7522 0.387825 27.9393 1.08985L1.31927 24.1186C-0.430888 25.6316 0.00312911 27.2795 0.177744 27.7485C0.352344 28.2188 1.10253 29.7492 3.41635 29.7492H7.06433V52.7193C7.06433 55.0794 8.98495 57 11.345 57H50.4835C52.8436 57 54.7642 55.0794 54.7642 52.7193V29.7492H58.4122C60.7266 29.7492 61.4762 28.2181 61.6508 27.7485C61.8254 27.2795 62.2595 25.6305 60.5087 24.1174L55.1712 19.4994C55.0087 19.3453 54.7739 18.8323 54.7636 18.6041L54.7643 9.65374C54.7643 7.29369 52.8436 5.37306 50.4836 5.37306H46.207C44.3388 5.37306 42.7463 6.57601 42.1636 8.2473L33.8898 1.08975C33.0758 0.387131 32.0197 0 30.9143 0L30.9141 0.000693797Z" fill="#6D10E0"/>
</svg>
