<svg width="24" height="24" viewBox="0 0 24 24" fill="none" xmlns="http://www.w3.org/2000/svg">
<path d="M12.0007 0.332031C9.69321 0.332031 7.43758 1.01627 5.519 2.29822C3.60043 3.58017 2.10508 5.40225 1.22206 7.53406C0.339039 9.66586 0.108 12.0116 0.558161 14.2748C1.00832 16.5379 2.11946 18.6167 3.75108 20.2483C5.38269 21.8799 7.46149 22.991 9.7246 23.4412C11.9877 23.8914 14.3335 23.6603 16.4653 22.7773C18.5971 21.8943 20.4192 20.3989 21.7011 18.4804C22.9831 16.5618 23.6673 14.3061 23.6673 11.9987C23.6673 10.4666 23.3656 8.94952 22.7793 7.53406C22.1929 6.11859 21.3336 4.83247 20.2502 3.74912C19.1669 2.66577 17.8808 1.80641 16.4653 1.2201C15.0498 0.633799 13.5327 0.332031 12.0007 0.332031ZM13.1673 16.6654C13.1673 16.9748 13.0444 17.2715 12.8256 17.4903C12.6068 17.7091 12.3101 17.832 12.0007 17.832C11.6912 17.832 11.3945 17.7091 11.1757 17.4903C10.9569 17.2715 10.834 16.9748 10.834 16.6654V10.832C10.834 10.5226 10.9569 10.2259 11.1757 10.0071C11.3945 9.78828 11.6912 9.66536 12.0007 9.66536C12.3101 9.66536 12.6068 9.78828 12.8256 10.0071C13.0444 10.2259 13.1673 10.5226 13.1673 10.832V16.6654ZM12.0007 8.4987C11.7699 8.4987 11.5443 8.43027 11.3525 8.30208C11.1606 8.17388 11.0111 7.99168 10.9228 7.7785C10.8345 7.56531 10.8114 7.33074 10.8564 7.10443C10.9014 6.87811 11.0125 6.67023 11.1757 6.50707C11.3389 6.34391 11.5467 6.2328 11.7731 6.18778C11.9994 6.14277 12.2339 6.16587 12.4471 6.25417C12.6603 6.34247 12.8425 6.49201 12.9707 6.68387C13.0989 6.87572 13.1673 7.10129 13.1673 7.33203C13.1673 7.64145 13.0444 7.9382 12.8256 8.15699C12.6068 8.37578 12.3101 8.4987 12.0007 8.4987Z" fill="#808080"/>
</svg>
