<svg width="90" height="70" viewBox="0 0 90 70" fill="none" xmlns="http://www.w3.org/2000/svg">
<g clip-path="url(#clip0_453_18613)">
<g filter="url(#filter0_d_453_18613)">
<path d="M16.8393 53.7778C13.0621 53.7778 10 50.7158 10 46.9385L10 23.6849C10 19.9077 13.0621 16.8456 16.8393 16.8456L40.0929 16.8456C43.8701 16.8456 46.9322 19.9077 46.9322 23.6849L46.9322 46.9385C46.9322 50.7158 43.8701 53.7778 40.0929 53.7778L16.8393 53.7778Z" fill="white"/>
<path d="M16.8393 53.7778C13.0621 53.7778 10 50.7158 10 46.9385L10 23.6849C10 19.9077 13.0621 16.8456 16.8393 16.8456L40.0929 16.8456C43.8701 16.8456 46.9322 19.9077 46.9322 23.6849L46.9322 46.9385C46.9322 50.7158 43.8701 53.7778 40.0929 53.7778L16.8393 53.7778Z" fill="#FEBE0C"/>
</g>
<g opacity="0.7" filter="url(#filter1_d_453_18613)">
<path d="M29.5614 37.0494C28.493 35.9811 28.493 34.2489 29.5614 33.1805L51.8075 10.9344C52.8759 9.86607 54.608 9.86607 55.6764 10.9344L77.9225 33.1805C78.9909 34.2489 78.9909 35.9811 77.9225 37.0494L55.6764 59.2955C54.608 60.3639 52.8759 60.3639 51.8075 59.2955L29.5614 37.0494Z" fill="#F046CD"/>
</g>
</g>
<defs>
<filter id="filter0_d_453_18613" x="-4" y="6.8457" width="64.9321" height="64.9321" filterUnits="userSpaceOnUse" color-interpolation-filters="sRGB">
<feFlood flood-opacity="0" result="BackgroundImageFix"/>
<feColorMatrix in="SourceAlpha" type="matrix" values="0 0 0 0 0 0 0 0 0 0 0 0 0 0 0 0 0 0 127 0" result="hardAlpha"/>
<feOffset dy="4"/>
<feGaussianBlur stdDeviation="7"/>
<feComposite in2="hardAlpha" operator="out"/>
<feColorMatrix type="matrix" values="0 0 0 0 0.983333 0 0 0 0 0.229772 0 0 0 0 0.127014 0 0 0 0.33 0"/>
<feBlend mode="normal" in2="BackgroundImageFix" result="effect1_dropShadow_453_18613"/>
<feBlend mode="normal" in="SourceGraphic" in2="effect1_dropShadow_453_18613" result="shape"/>
</filter>
<filter id="filter1_d_453_18613" x="17.7601" y="3.13306" width="71.9636" height="71.9639" filterUnits="userSpaceOnUse" color-interpolation-filters="sRGB">
<feFlood flood-opacity="0" result="BackgroundImageFix"/>
<feColorMatrix in="SourceAlpha" type="matrix" values="0 0 0 0 0 0 0 0 0 0 0 0 0 0 0 0 0 0 127 0" result="hardAlpha"/>
<feOffset dy="4"/>
<feGaussianBlur stdDeviation="5.5"/>
<feComposite in2="hardAlpha" operator="out"/>
<feColorMatrix type="matrix" values="0 0 0 0 0.339886 0 0 0 0 0.0348958 0 0 0 0 0.8375 0 0 0 0.42 0"/>
<feBlend mode="normal" in2="BackgroundImageFix" result="effect1_dropShadow_453_18613"/>
<feBlend mode="normal" in="SourceGraphic" in2="effect1_dropShadow_453_18613" result="shape"/>
</filter>
<clipPath id="clip0_453_18613">
<rect width="90" height="70" fill="white"/>
</clipPath>
</defs>
</svg>
