<svg width="49" height="49" viewBox="0 0 49 49" fill="none" xmlns="http://www.w3.org/2000/svg">
<path d="M24.2188 0.597656C10.9625 0.597656 0.21875 11.3414 0.21875 24.5977C0.21875 37.8539 10.9625 48.5977 24.2188 48.5977C37.475 48.5977 48.2188 37.8539 48.2188 24.5977C48.2188 11.3414 37.475 0.597656 24.2188 0.597656ZM17.2438 36.8789H11.4031V19.2914H17.2438V36.8789ZM14.3187 16.8914H14.2812C12.3219 16.8914 11.0469 15.5414 11.0469 13.8539C11.0469 12.1289 12.35 10.8164 14.3563 10.8164C16.3625 10.8164 17.5906 12.1289 17.6281 13.8539C17.6281 15.5414 16.3625 16.8914 14.3187 16.8914ZM38.3187 36.8789H32.4781V27.4758C32.4781 25.1133 31.6344 23.5008 29.5156 23.5008C27.9031 23.5008 26.9375 24.5883 26.5156 25.6383C26.3656 26.0133 26.3187 26.5383 26.3187 27.0633V36.8789H20.4781C20.4781 36.8789 20.5531 20.9414 20.4781 19.2914H26.3187V21.7852C27.0969 20.5852 28.4844 18.8789 31.5875 18.8789C35.4313 18.8789 38.3187 21.3914 38.3187 26.7914V36.8789Z" fill="white"/>
</svg>
