<svg width="16" height="16" viewBox="0 0 16 16" fill="none" xmlns="http://www.w3.org/2000/svg">
<path fill-rule="evenodd" clip-rule="evenodd" d="M9.88707 2.07778C7.41172 2.6691 5.34658 3.1706 5.29789 3.1922C5.18135 3.24394 5.05554 3.40066 5.01978 3.53862C5.00036 3.61352 4.99103 5.02289 4.99095 7.89519C4.99087 10.2304 4.98157 12.1367 4.97027 12.1313C4.959 12.1259 4.86973 12.0798 4.77193 12.0288C4.1113 11.6844 3.23921 11.627 2.54238 11.8819C1.38042 12.3069 0.756389 13.3984 1.08913 14.4238C1.18493 14.7189 1.30904 14.9296 1.53019 15.1724C2.68647 16.4417 4.95777 16.2133 5.77745 14.7452C5.80893 14.6888 5.8695 14.5371 5.91201 14.4081L5.9149 14.3994C5.96419 14.2498 5.98962 14.0934 5.99024 13.9359L6.00297 10.7461L6.01194 8.49834C6.01471 7.80607 6.49087 7.20561 7.1643 7.04517L9.92863 6.38659C12.0802 5.87401 13.8745 5.44644 13.9158 5.43644V5.43644C13.9542 5.42718 13.9911 5.45623 13.9911 5.49566V7.70763V9.81832C13.9911 9.89907 13.9048 9.95055 13.8338 9.91227V9.91227C13.3689 9.66194 12.9677 9.57335 12.3907 9.59358C11.6093 9.62099 11.0541 9.86252 10.5556 10.3919C10.3532 10.6068 10.2859 10.702 10.1926 10.9049C9.94613 11.4413 9.93897 11.9532 10.1707 12.4724C10.3874 12.9578 10.7353 13.3081 11.2644 13.5734C12.0325 13.9586 12.9887 13.9525 13.767 13.5574C14.2576 13.3083 14.6195 12.9474 14.8247 12.5023C15.0147 12.0902 15.0045 12.4412 14.9966 6.61613L14.9898 1.5051C14.9896 1.40922 14.9629 1.31527 14.9125 1.2337V1.2337C14.8225 1.088 14.6596 0.996359 14.4972 1.00011C14.437 1.00152 12.3624 1.48645 9.88707 2.07778Z" fill="white"/>
</svg>
