<svg width="16" height="29" viewBox="0 0 16 29" fill="none" xmlns="http://www.w3.org/2000/svg">
<path fill-rule="evenodd" clip-rule="evenodd" d="M1.81361 0.115966C1.57918 0.211625 1.40143 0.362762 0.900782 0.892227C0.132954 1.70419 0.0283765 1.89811 0.0264033 2.51309C0.0253367 2.84353 0.0524279 3.02793 0.126235 3.19313C0.194869 3.34687 1.90262 5.20269 5.43218 8.95943L10.6369 14.499L5.42642 20.0383C1.37328 24.3472 0.191989 25.6343 0.108263 25.8326C0.0363223 26.0031 0.000432048 26.2098 5.41768e-06 26.456C-0.00106116 27.0371 0.154872 27.3242 0.89513 28.1045C1.41583 28.6534 1.56883 28.7814 1.82684 28.8837C2.21576 29.038 2.52358 29.0387 2.91603 28.8862C3.21163 28.7713 3.48926 28.4853 9.47509 22.1284C16.3899 14.7847 15.9959 15.2458 15.9959 14.4987C15.9959 13.7516 16.3899 14.2127 9.47509 6.86883C3.48627 0.508403 3.21179 0.225622 2.91603 0.110979C2.53035 -0.0385718 2.18867 -0.0370417 1.81361 0.115966Z" fill="white"/>
</svg>
