<svg width="24" height="24" viewBox="0 0 24 24" fill="none" xmlns="http://www.w3.org/2000/svg">
<path fill-rule="evenodd" clip-rule="evenodd" d="M11.0478 18.6658C6.83988 18.6658 3.42871 15.2547 3.42871 11.0468C3.42871 6.8389 6.83988 3.42773 11.0478 3.42773C15.2556 3.42773 18.6668 6.8389 18.6668 11.0468C18.6668 12.8075 18.0696 14.4287 17.0667 15.7188L20.2926 18.9448C20.6645 19.3167 20.6645 19.9197 20.2926 20.2916C19.9207 20.6636 19.3177 20.6636 18.9457 20.2916L15.7198 17.0657C14.4296 18.0686 12.8084 18.6658 11.0478 18.6658ZM11.0478 16.7611C14.2037 16.7611 16.7621 14.2027 16.7621 11.0468C16.7621 7.89087 14.2037 5.3325 11.0478 5.3325C7.89185 5.3325 5.33348 7.89087 5.33348 11.0468C5.33348 14.2027 7.89185 16.7611 11.0478 16.7611Z" fill="#888888"/>
</svg>
