<svg width="49" height="49" viewBox="0 0 49 49" fill="none" xmlns="http://www.w3.org/2000/svg">
<path d="M24.2187 0.597656C10.9637 0.597656 0.21875 11.3427 0.21875 24.5977C0.21875 37.8527 10.9637 48.5977 24.2187 48.5977C37.4737 48.5977 48.2186 37.8527 48.2186 24.5977C48.2186 11.3427 37.4737 0.597656 24.2187 0.597656ZM33.9812 20.2577C33.9912 20.4627 33.9937 20.6677 33.9937 20.8677C33.9937 27.1177 29.2412 34.3202 20.5462 34.3202C17.9769 34.3244 15.4611 33.5865 13.3012 32.1952C13.6687 32.2402 14.0462 32.2577 14.4287 32.2577C16.6437 32.2577 18.6812 31.5052 20.2987 30.2352C19.313 30.2158 18.3579 29.8894 17.5665 29.3015C16.7751 28.7135 16.1868 27.8933 15.8837 26.9552C16.5916 27.0898 17.3208 27.0616 18.0162 26.8727C16.9463 26.6563 15.9842 26.0766 15.293 25.2318C14.6018 24.387 14.224 23.3292 14.2237 22.2377V22.1802C14.8612 22.5327 15.5912 22.7477 16.3662 22.7727C15.3632 22.105 14.6532 21.0793 14.3813 19.9055C14.1095 18.7316 14.2963 17.4983 14.9037 16.4577C16.0911 17.9177 17.5719 19.112 19.2501 19.9634C20.9284 20.8148 22.7668 21.3043 24.6462 21.4002C24.4072 20.3859 24.5101 19.3212 24.9387 18.3714C25.3673 17.4217 26.0977 16.6401 27.0164 16.1483C27.935 15.6565 28.9904 15.482 30.0184 15.6518C31.0465 15.8217 31.9896 16.3265 32.7012 17.0877C33.7591 16.8783 34.7736 16.4903 35.7012 15.9402C35.3486 17.0355 34.6103 17.9656 33.6237 18.5577C34.5608 18.4448 35.4758 18.1929 36.3387 17.8102C35.7049 18.7599 34.9065 19.5888 33.9812 20.2577Z" fill="white"/>
</svg>
