<svg width="40" height="40" viewBox="0 0 40 40" fill="none" xmlns="http://www.w3.org/2000/svg">
<g clip-path="url(#clip0_1699_24873)">
<path d="M20.0004 35.9488C18.9545 35.9484 17.9265 35.6776 17.0161 35.1629L8.21609 30.1843C7.28682 29.6578 6.51359 28.8946 5.97509 27.9723C5.43659 27.05 5.15204 26.0014 5.15039 24.9334V15.0648C5.15187 13.9967 5.43635 12.9481 5.97487 12.0257C6.51339 11.1034 7.28671 10.3402 8.21609 9.81391L17.0161 4.83476C17.9265 4.31958 18.9548 4.04883 20.0009 4.04883C21.047 4.04883 22.0753 4.31958 22.9858 4.83476L31.7858 9.81391C32.715 10.3403 33.4881 11.1036 34.0264 12.0259C34.5647 12.9483 34.849 13.9968 34.8504 15.0648V24.9334C34.8483 26.0013 34.5637 27.0496 34.0253 27.9718C33.487 28.8941 32.7141 29.6574 31.7852 30.1843L22.9852 35.1629C22.0747 35.6777 21.0465 35.9485 20.0004 35.9488V35.9488Z" fill="#F1C400"/>
<path d="M32.0994 15.0667V24.9348C32.0994 25.5167 31.9448 26.0882 31.6514 26.5907C31.358 27.0932 30.9364 27.5088 30.4296 27.7948L21.6296 32.7739C21.1323 33.0551 20.5707 33.2029 19.9994 33.2029C19.4281 33.2029 18.8665 33.0551 18.3692 32.7739L9.56921 27.7948C9.06246 27.5088 8.6408 27.0932 8.3474 26.5907C8.05401 26.0882 7.8994 25.5167 7.89941 24.9348V15.0667C7.89972 14.4852 8.05448 13.9143 8.34787 13.4122C8.64126 12.9102 9.06275 12.4951 9.56921 12.2094L18.3692 7.22975C18.8665 6.94856 19.4281 6.80078 19.9994 6.80078C20.5707 6.80078 21.1323 6.94856 21.6296 7.22975L30.4296 12.2094C30.9361 12.4951 31.3576 12.9102 31.651 13.4122C31.9443 13.9143 32.0991 14.4852 32.0994 15.0667V15.0667Z" fill="#F1C300"/>
<path d="M7.94416 30.6634L16.7442 35.642C17.737 36.204 18.8585 36.4994 19.9993 36.4994C21.1402 36.4994 22.2617 36.204 23.2545 35.642L32.0545 30.6634C33.0682 30.0887 33.9117 29.2559 34.4993 28.2496C35.0868 27.2433 35.3975 26.0993 35.3996 24.934V15.0654C35.398 13.9 35.0876 12.7558 34.5 11.7494C33.9124 10.743 33.0686 9.91029 32.0545 9.33605L23.2545 4.3569C22.2581 3.80511 21.1378 3.51562 19.9988 3.51562C18.8598 3.51562 17.7395 3.80511 16.7431 4.3569L7.94306 9.33605C6.92931 9.91055 6.08586 10.7434 5.49856 11.7498C4.91127 12.7562 4.60109 13.9002 4.59961 15.0654V24.934C4.60132 26.0994 4.91171 27.2434 5.49919 28.2498C6.08667 29.2562 6.93028 30.089 7.94416 30.6634V30.6634ZM5.69961 15.0654C5.70103 14.0947 5.95962 13.1417 6.44905 12.3034C6.93848 11.4651 7.64128 10.7715 8.48591 10.2931L17.2859 5.3139C18.1139 4.84559 19.0489 4.59947 20.0002 4.59947C20.9514 4.59947 21.8864 4.84559 22.7144 5.3139L31.5144 10.2936C32.3588 10.772 33.0614 11.4656 33.5507 12.3038C34.0399 13.142 34.2983 14.0949 34.2996 15.0654V24.934C34.2981 25.9046 34.0395 26.8574 33.5502 27.6956C33.0609 28.5338 32.3583 29.2274 31.5139 29.7058L22.7139 34.685C21.8833 35.1447 20.9497 35.3858 20.0004 35.3858C19.0512 35.3858 18.1175 35.1447 17.287 34.685L8.48701 29.7058C7.64222 29.2277 6.93922 28.5342 6.44959 27.696C5.95996 26.8578 5.70118 25.9048 5.69961 24.934V15.0654Z" fill="#E79C00"/>
<path opacity="0.8" d="M9.29826 28.2697L18.0983 33.2488C18.6787 33.5752 19.3334 33.7466 19.9993 33.7466C20.6652 33.7466 21.3199 33.5752 21.9004 33.2488L30.7004 28.2697C31.2911 27.9355 31.7827 27.4507 32.1251 26.8648C32.4675 26.2788 32.6485 25.6126 32.6496 24.9339V15.0653C32.6486 14.3865 32.4676 13.7202 32.1252 13.1341C31.7828 12.548 31.2912 12.0632 30.7004 11.729L21.9004 6.74981C21.32 6.42341 20.6653 6.25195 19.9993 6.25195C19.3334 6.25195 18.6787 6.42341 18.0983 6.74981L9.29826 11.729C8.70771 12.0634 8.21629 12.5483 7.874 13.1343C7.53172 13.7203 7.35078 14.3866 7.34961 15.0653V24.9339C7.35088 25.6125 7.53186 26.2786 7.87414 26.8645C8.21642 27.4505 8.70779 27.9353 9.29826 28.2697V28.2697ZM8.44961 15.0653C8.4502 14.5808 8.57926 14.1052 8.82361 13.687C9.06796 13.2687 9.41888 12.9227 9.84056 12.6843L18.6406 7.70461C19.0556 7.4713 19.5237 7.34876 19.9999 7.34876C20.476 7.34876 20.9441 7.4713 21.3592 7.70461L30.1592 12.6843C30.5808 12.9228 30.9315 13.2689 31.1758 13.6871C31.42 14.1054 31.549 14.5809 31.5496 15.0653V24.9339C31.5489 25.4182 31.4198 25.8936 31.1756 26.3117C30.9313 26.7298 30.5806 27.0758 30.1592 27.3143L21.3592 32.2935C20.944 32.5263 20.4759 32.6486 19.9999 32.6486C19.5238 32.6486 19.0558 32.5263 18.6406 32.2935L9.84056 27.3143C9.41899 27.0759 9.06817 26.73 8.82382 26.3118C8.57948 25.8937 8.45036 25.4182 8.44961 24.9339V15.0653Z" fill="#E79C00"/>
<path d="M15.2221 23.5005C15.1115 23.5005 15.0204 23.4713 14.9488 23.4128C14.8837 23.3543 14.8414 23.3088 14.8219 23.2763L12.5863 19.9429V23.2374C12.5863 23.3088 12.5603 23.3706 12.5082 23.4225C12.4561 23.4745 12.3943 23.5005 12.3227 23.5005H11.0439C10.9723 23.5005 10.9104 23.4745 10.8584 23.4225C10.8063 23.3706 10.7803 23.3088 10.7803 23.2374V16.9409C10.7803 16.8694 10.8063 16.8077 10.8584 16.7557C10.9104 16.7037 10.9723 16.6777 11.0439 16.6777H12.0591C12.1698 16.6777 12.2576 16.707 12.3227 16.7655C12.3943 16.8239 12.4399 16.8694 12.4594 16.9019L14.695 20.2353V16.9409C14.695 16.8694 14.721 16.8077 14.7731 16.7557C14.8251 16.7037 14.887 16.6777 14.9585 16.6777H16.2374C16.309 16.6777 16.3708 16.7037 16.4229 16.7557C16.475 16.8077 16.501 16.8694 16.501 16.9409V23.2374C16.501 23.3088 16.475 23.3706 16.4229 23.4225C16.3708 23.4745 16.309 23.5005 16.2374 23.5005H15.2221Z" fill="white"/>
<path d="M22.5886 16.6777C22.6602 16.6777 22.7221 16.7037 22.7741 16.7557C22.8262 16.8077 22.8522 16.8694 22.8522 16.9409V17.9741C22.8522 18.0455 22.8262 18.1073 22.7741 18.1593C22.7221 18.2112 22.6602 18.2372 22.5886 18.2372H19.6697V19.5725H22.3934C22.465 19.5725 22.5268 19.5985 22.5789 19.6505C22.6309 19.7025 22.657 19.7642 22.657 19.8357V20.8689C22.657 20.9404 22.6309 21.0021 22.5789 21.0541C22.5268 21.106 22.465 21.132 22.3934 21.132H19.6697V23.2374C19.6697 23.3088 19.6437 23.3706 19.5916 23.4225C19.5395 23.4745 19.4777 23.5005 19.4061 23.5005H18.1273C18.0557 23.5005 17.9938 23.4745 17.9418 23.4225C17.8897 23.3706 17.8637 23.3088 17.8637 23.2374V16.9409C17.8637 16.8694 17.8897 16.8077 17.9418 16.7557C17.9938 16.7037 18.0557 16.6777 18.1273 16.6777H22.5886Z" fill="white"/>
<path d="M28.9067 16.6777C28.9783 16.6777 29.0401 16.7037 29.0922 16.7557C29.1442 16.8077 29.1703 16.8694 29.1703 16.9409V17.9741C29.1703 18.0455 29.1442 18.1073 29.0922 18.1593C29.0401 18.2112 28.9783 18.2372 28.9067 18.2372H27.1885V23.2374C27.1885 23.3088 27.1625 23.3706 27.1104 23.4225C27.0584 23.4745 26.9965 23.5005 26.9249 23.5005H25.6461C25.5745 23.5005 25.5127 23.4745 25.4606 23.4225C25.4085 23.3706 25.3825 23.3088 25.3825 23.2374V18.2372H23.6643C23.5927 18.2372 23.5309 18.2112 23.4788 18.1593C23.4268 18.1073 23.4007 18.0455 23.4007 17.9741V16.9409C23.4007 16.8694 23.4268 16.8077 23.4788 16.7557C23.5309 16.7037 23.5927 16.6777 23.6643 16.6777H28.9067Z" fill="white"/>
</g>
<defs>
<clipPath id="clip0_1699_24873">
<rect width="33" height="33" fill="white" transform="translate(3.5 3.5)"/>
</clipPath>
</defs>
</svg>
