<svg width="24" height="24" viewBox="0 0 24 24" fill="none" xmlns="http://www.w3.org/2000/svg">
<path d="M14.0463 4H10.7567C7.59053 4 5 6.59053 5 9.75672V12.2239C5 14.4443 6.29526 16.4798 8.28956 17.4255V20.1805C8.28956 20.4272 8.59795 20.5506 8.76243 20.3655L11.1474 17.9806H14.0463C17.2125 17.9806 19.803 15.3901 19.803 12.2239V9.75672C19.803 6.59053 17.2125 4 14.0463 4V4ZM16.205 14.7939L15.3621 15.6162C14.478 16.4798 12.1959 15.4929 10.1811 13.4369C8.1662 11.3809 7.28213 9.07825 8.12508 8.21474L8.94747 7.39235C9.25586 7.08396 9.76986 7.10452 10.1194 7.41291L11.3118 8.6465C11.7436 9.07825 11.5586 9.8184 11.0034 9.98288C10.6128 10.1062 10.3455 10.538 10.4689 10.9286C10.6745 11.8333 11.8258 12.9846 12.6893 13.2108C13.08 13.293 13.5117 13.0874 13.6556 12.6968C13.8407 12.1417 14.5808 11.9772 14.992 12.4089L16.1845 13.6425C16.5134 13.9303 16.5134 14.4443 16.205 14.7939V14.7939ZM13.1416 7.90635C13.0594 7.90635 12.9772 7.90635 12.8949 7.92691C12.751 7.94747 12.6071 7.82411 12.5865 7.68019C12.566 7.53627 12.6893 7.39235 12.8333 7.37179C12.9361 7.35123 13.0389 7.35123 13.1416 7.35123C14.6425 7.35123 15.8761 8.58482 15.8761 10.0857C15.8761 10.1885 15.8761 10.2913 15.8555 10.3941C15.835 10.538 15.6911 10.6614 15.5471 10.6408C15.4032 10.6202 15.2799 10.4763 15.3004 10.3324C15.3004 10.2502 15.321 10.1679 15.321 10.0857C15.3415 8.89321 14.3547 7.90635 13.1416 7.90635ZM14.7864 10.1062C14.7864 10.2502 14.6631 10.3735 14.5192 10.3735C14.3752 10.3735 14.2519 10.2502 14.2519 10.1062C14.2519 9.51001 13.7584 9.01657 13.1622 9.01657C13.0183 9.01657 12.8949 8.89321 12.8949 8.7493C12.8949 8.60538 13.0183 8.48202 13.1622 8.48202C14.0463 8.46146 14.7864 9.20161 14.7864 10.1062V10.1062ZM16.8835 10.9903C16.8424 11.1342 16.6985 11.237 16.534 11.1959C16.3901 11.1548 16.3078 11.0109 16.349 10.8669C16.4106 10.6202 16.4312 10.3735 16.4312 10.1062C16.4312 8.29698 14.9509 6.81668 13.1416 6.81668C13.0594 6.81668 12.9772 6.81668 12.8949 6.81668C12.751 6.81668 12.6071 6.71388 12.6071 6.56997C12.6071 6.42605 12.7099 6.28213 12.8538 6.28213C12.9566 6.28213 13.0594 6.26157 13.1416 6.26157C15.2593 6.26157 16.9863 7.98859 16.9863 10.1062C16.9863 10.3941 16.9452 10.7025 16.8835 10.9903V10.9903Z" fill="white"/>
</svg>
