<svg width="24" height="24" viewBox="0 0 24 24" fill="none" xmlns="http://www.w3.org/2000/svg">
<path d="M13.919 4H10.6757C7.55408 4 5 6.55408 5 9.67574V12.1082C5 14.2974 6.27704 16.3042 8.24328 17.2366V19.9529C8.24328 20.1961 8.54734 20.3177 8.7095 20.1353L11.0609 17.7839H13.919C17.0407 17.7839 19.5948 15.2299 19.5948 12.1082V9.67574C19.5948 6.55408 17.0407 4 13.919 4V4ZM16.0474 14.642L15.2163 15.4528C14.3447 16.3042 12.0947 15.3312 10.1082 13.3042C8.12166 11.2771 7.25002 9.00681 8.08111 8.15545L8.89193 7.34463C9.19599 7.04057 9.70275 7.06084 10.0474 7.3649L11.223 8.58113C11.6487 9.00681 11.4663 9.73655 10.919 9.89871C10.5338 10.0203 10.2703 10.446 10.3919 10.8312C10.5947 11.7231 11.7298 12.8582 12.5812 13.0812C12.9663 13.1623 13.392 12.9596 13.5339 12.5744C13.7163 12.0271 14.446 11.865 14.8515 12.2906L16.0271 13.5069C16.3515 13.7906 16.3515 14.2974 16.0474 14.642V14.642ZM13.0271 7.85139C12.946 7.85139 12.865 7.85139 12.7839 7.87166C12.642 7.89193 12.5001 7.77031 12.4798 7.62842C12.4595 7.48652 12.5812 7.34463 12.7231 7.32436C12.8244 7.30409 12.9258 7.30409 13.0271 7.30409C14.5069 7.30409 15.7231 8.52032 15.7231 10.0001C15.7231 10.1014 15.7231 10.2028 15.7028 10.3041C15.6825 10.446 15.5407 10.5676 15.3988 10.5474C15.2569 10.5271 15.1352 10.3852 15.1555 10.2433C15.1555 10.1622 15.1758 10.0811 15.1758 10.0001C15.1961 8.82438 14.2231 7.85139 13.0271 7.85139ZM14.6488 10.0203C14.6488 10.1622 14.5271 10.2839 14.3852 10.2839C14.2433 10.2839 14.1217 10.1622 14.1217 10.0203C14.1217 9.43249 13.6352 8.946 13.0474 8.946C12.9055 8.946 12.7839 8.82438 12.7839 8.68248C12.7839 8.54059 12.9055 8.41897 13.0474 8.41897C13.919 8.3987 14.6488 9.12843 14.6488 10.0203V10.0203ZM16.7163 10.892C16.6758 11.0339 16.5339 11.1352 16.3717 11.0947C16.2299 11.0541 16.1488 10.9122 16.1893 10.7703C16.2501 10.5271 16.2704 10.2839 16.2704 10.0203C16.2704 8.23653 14.8109 6.77706 13.0271 6.77706C12.946 6.77706 12.865 6.77706 12.7839 6.77706C12.642 6.77706 12.5001 6.6757 12.5001 6.53381C12.5001 6.39192 12.6014 6.25002 12.7433 6.25002C12.8447 6.25002 12.946 6.22975 13.0271 6.22975C15.115 6.22975 16.8177 7.93248 16.8177 10.0203C16.8177 10.3041 16.7772 10.6082 16.7163 10.892V10.892Z" fill="white"/>
</svg>
