<svg width="32" height="28" viewBox="0 0 32 28" fill="none" xmlns="http://www.w3.org/2000/svg">
<path fill-rule="evenodd" clip-rule="evenodd" d="M14.6514 0.45243C14.5137 0.468045 14.063 0.516684 13.6499 0.560522C7.76544 1.18522 2.61418 4.54232 0.774316 8.95148C-2.03581 15.6857 3.05743 22.8568 11.9323 24.6615C13.4941 24.9791 14.6641 25.0728 16.5471 25.0313C18.3308 24.9919 19.111 24.9042 20.5748 24.579C21.5062 24.372 21.2635 24.2982 22.5616 25.1835C23.8482 26.061 25.372 26.7602 27.0587 27.2471C28.1797 27.5707 30.0532 27.9463 30.2719 27.8914C30.3729 27.8659 30.4803 27.7583 30.534 27.6285C30.6206 27.4192 30.6079 27.3842 30.267 26.8934C29.2217 25.3878 28.4619 23.57 28.2385 22.0398C28.0937 21.0482 28.1384 20.9323 29.0254 19.9984C30.5957 18.3454 31.4675 16.698 31.8662 14.6305C32.0425 13.7161 32.045 11.768 31.871 10.9414C31.2544 8.01374 29.4042 5.43163 26.52 3.474C24.3996 2.03471 21.7829 1.05177 18.919 0.61883C18.0247 0.483661 15.3102 0.377789 14.6514 0.45243ZM14.6172 6.73818V6.73731L15.6113 5.7432C15.7339 5.6206 15.8946 5.54337 16.0669 5.52422L16.1443 5.51562V5.52734C16.3397 5.52734 16.5351 5.60189 16.6842 5.75098L17.6714 6.73818V18.9551L16.6842 19.9423C16.5351 20.0914 16.3397 20.1659 16.1443 20.1659V20.1759L16.0935 20.1703C16.0379 20.1641 15.9835 20.1524 15.9308 20.1356C15.8113 20.1009 15.6986 20.0365 15.6044 19.9423L14.6172 18.9551V18.9542V6.73818ZM13.8594 18.1875L11.5687 15.7172L11.5687 9.96805L13.8594 7.49772L13.8594 18.1875ZM19.5937 16.9321L18.4297 18.1875L18.4297 7.49772L19.5938 8.75308V8.73758L20.7391 9.97274L20.7391 15.7219L19.5937 16.957V16.9321ZM10.7969 15.1367L10.7969 10.5554L9.64062 11.7306V11.7211L9.03086 12.3408C8.73509 12.6415 8.73906 13.125 9.03973 13.4207L9.64062 14.0117V13.9995L10.7969 15.1367ZM21.4922 10.5554V15.1367L23.2384 13.4192C23.5391 13.1235 23.5431 12.64 23.2473 12.3393L21.4922 10.5554Z" fill="white"/>
</svg>
