<svg width="201" height="201" viewBox="0 0 201 201" fill="none" xmlns="http://www.w3.org/2000/svg">
<path fill-rule="evenodd" clip-rule="evenodd" d="M98.3825 62.8931C95.4213 63.6074 93.1665 65.611 91.8138 68.7303C91.1503 70.2602 91.1879 72.393 92.1424 87.2575C92.5789 94.0508 93.1373 102.779 93.3837 106.652C93.9228 115.127 94.2556 116.024 97.4322 117.552C99.5957 118.593 101.112 118.702 103.004 117.952C106.04 116.749 107.665 114.009 107.633 110.147C107.625 109.125 108.135 99.8469 108.766 89.5298C110.031 68.8578 110.037 69.0387 107.981 66.1992C105.995 63.4585 101.895 62.0461 98.3825 62.8931ZM98.158 124.77C93.9165 126.092 91.2325 129.732 91.5495 133.731C91.9305 138.531 95.5977 141.814 100.597 141.83C104.166 141.842 107.119 140.106 108.787 137.015C109.684 135.353 109.781 131.599 108.973 129.796C108.221 128.115 106.383 126.229 104.705 125.416C103.157 124.666 99.6143 124.317 98.158 124.77Z" fill="black"/>
<path fill-rule="evenodd" clip-rule="evenodd" d="M98.3825 62.8931C95.4213 63.6074 93.1665 65.611 91.8138 68.7303C91.1503 70.2602 91.1879 72.393 92.1424 87.2575C92.5789 94.0508 93.1373 102.779 93.3837 106.652C93.9228 115.127 94.2556 116.024 97.4322 117.552C99.5957 118.593 101.112 118.702 103.004 117.952C106.04 116.749 107.665 114.009 107.633 110.147C107.625 109.125 108.135 99.8469 108.766 89.5298C110.031 68.8578 110.037 69.0387 107.981 66.1992C105.995 63.4585 101.895 62.0461 98.3825 62.8931ZM98.158 124.77C93.9165 126.092 91.2325 129.732 91.5495 133.731C91.9305 138.531 95.5977 141.814 100.597 141.83C104.166 141.842 107.119 140.106 108.787 137.015C109.684 135.353 109.781 131.599 108.973 129.796C108.221 128.115 106.383 126.229 104.705 125.416C103.157 124.666 99.6143 124.317 98.158 124.77Z" fill="url(#paint0_linear_1946_36181)"/>
<circle cx="100.5" cy="100.5" r="99.5" stroke="url(#paint1_linear_1946_36181)" stroke-width="2" stroke-dasharray="10 10"/>
<defs>
<linearGradient id="paint0_linear_1946_36181" x1="94.6241" y1="62.6484" x2="112.577" y2="63.7779" gradientUnits="userSpaceOnUse">
<stop stop-color="#ED2CCE"/>
<stop offset="0.578125" stop-color="#B84AEA"/>
<stop offset="1" stop-color="#8E61FF"/>
</linearGradient>
<linearGradient id="paint1_linear_1946_36181" x1="35.8666" y1="1.25709e-05" x2="220.416" y2="50.3126" gradientUnits="userSpaceOnUse">
<stop stop-color="#ED2CCE"/>
<stop offset="0.578125" stop-color="#B84AEA"/>
<stop offset="1" stop-color="#8E61FF"/>
</linearGradient>
</defs>
</svg>
