<svg width="30" height="30" viewBox="0 0 30 30" fill="none" xmlns="http://www.w3.org/2000/svg">
<path fill-rule="evenodd" clip-rule="evenodd" d="M20.8796 0.0737813C20.8796 0.114361 20.7433 0.147563 20.5766 0.147563C20.4099 0.147563 20.2735 0.180765 20.2735 0.221344C20.2735 0.261924 20.1713 0.295126 20.0463 0.295126C19.9212 0.295126 19.819 0.328327 19.819 0.368907C19.819 0.409487 19.7508 0.442688 19.6674 0.442688C19.5841 0.442688 19.5159 0.47589 19.5159 0.51647C19.5159 0.55705 19.4477 0.590251 19.3644 0.590251C19.2811 0.590251 19.2129 0.623453 19.2129 0.664033C19.2129 0.704613 19.1447 0.737814 19.0614 0.737814C18.978 0.737814 18.9098 0.771016 18.9098 0.811595C18.9098 0.852175 18.8492 0.885377 18.7751 0.885377C18.7009 0.885377 18.5911 0.95178 18.531 1.03294C18.471 1.1141 18.3778 1.1805 18.3239 1.1805C18.2701 1.1805 17.9026 1.49548 17.5073 1.88047C17.1119 2.26546 16.7885 2.62337 16.7885 2.67576C16.7885 2.72822 16.7203 2.81897 16.637 2.87747C16.5537 2.93598 16.4855 3.03559 16.4855 3.09882C16.4855 3.16205 16.4173 3.26166 16.334 3.32016C16.2506 3.37867 16.1824 3.48558 16.1824 3.55781C16.1824 3.62997 16.1483 3.68907 16.1067 3.68907C16.065 3.68907 16.0309 3.78868 16.0309 3.91042C16.0309 4.03215 15.9968 4.13176 15.9552 4.13176C15.9135 4.13176 15.8794 4.19816 15.8794 4.27932C15.8794 4.36048 15.8453 4.42689 15.8036 4.42689C15.762 4.42689 15.7279 4.55969 15.7279 4.72201C15.7279 4.88433 15.6938 5.01714 15.6521 5.01714C15.61 5.01714 15.5763 5.21391 15.5763 5.45982C15.5763 5.70574 15.5427 5.90251 15.5006 5.90251C15.4589 5.90251 15.4248 6.06852 15.4248 6.27142C15.4248 6.47432 15.4589 6.64033 15.5006 6.64033C15.5423 6.64033 15.5763 6.70673 15.5763 6.78789C15.5763 6.92313 15.6269 6.93545 16.1824 6.93545C16.536 6.93545 16.7885 6.90469 16.7885 6.86167C16.7885 6.82109 16.9249 6.78789 17.0916 6.78789C17.2582 6.78789 17.3946 6.75469 17.3946 6.71411C17.3946 6.67353 17.4969 6.64033 17.6219 6.64033C17.7469 6.64033 17.8492 6.60713 17.8492 6.56655C17.8492 6.52597 17.9174 6.49276 18.0007 6.49276C18.084 6.49276 18.1522 6.45956 18.1522 6.41898C18.1522 6.3784 18.2129 6.3452 18.287 6.3452C18.3612 6.3452 18.471 6.2788 18.531 6.19764C18.5911 6.11648 18.6842 6.05008 18.738 6.05008C18.8657 6.05008 20.4251 4.53143 20.4251 4.40711C20.4251 4.35473 20.4932 4.26405 20.5766 4.20554C20.6599 4.14703 20.7281 4.04012 20.7281 3.96789C20.7281 3.89573 20.7622 3.83663 20.8039 3.83663C20.8455 3.83663 20.8796 3.77023 20.8796 3.68907C20.8796 3.60791 20.9137 3.54151 20.9554 3.54151C20.9971 3.54151 21.0311 3.4751 21.0311 3.39395C21.0311 3.31279 21.0652 3.24638 21.1069 3.24638C21.1486 3.24638 21.1827 3.17998 21.1827 3.09882C21.1827 3.01766 21.2168 2.95126 21.2584 2.95126C21.3001 2.95126 21.3342 2.88485 21.3342 2.80369C21.3342 2.72253 21.3683 2.65613 21.41 2.65613C21.4516 2.65613 21.4857 2.52332 21.4857 2.36101C21.4857 2.19869 21.5198 2.06588 21.5615 2.06588C21.6031 2.06588 21.6372 1.89987 21.6372 1.69697C21.6372 1.49407 21.6713 1.32807 21.713 1.32807C21.7579 1.32807 21.7888 1.05751 21.7888 0.664033V0H21.3342C21.0817 0 20.8796 0.0327589 20.8796 0.0737813ZM20.7281 7.1568C20.7281 7.19782 20.5261 7.23058 20.2735 7.23058C20.021 7.23058 19.819 7.26334 19.819 7.30436C19.819 7.34494 19.6826 7.37814 19.5159 7.37814C19.3493 7.37814 19.2129 7.41134 19.2129 7.45192C19.2129 7.4925 19.1106 7.5257 18.9856 7.5257C18.8606 7.5257 18.7583 7.55891 18.7583 7.59949C18.7583 7.64007 18.656 7.67327 18.531 7.67327C18.406 7.67327 18.3037 7.70647 18.3037 7.74705C18.3037 7.78763 18.2015 7.82083 18.0765 7.82083C17.9515 7.82083 17.8492 7.85403 17.8492 7.89461C17.8492 7.93519 17.7469 7.96839 17.6219 7.96839C17.4969 7.96839 17.3946 8.0016 17.3946 8.04218C17.3946 8.08276 17.3264 8.11596 17.2431 8.11596C17.1598 8.11596 17.0916 8.14916 17.0916 8.18974C17.0916 8.23032 16.9893 8.26352 16.8643 8.26352C16.7393 8.26352 16.637 8.29672 16.637 8.3373C16.637 8.37788 16.5347 8.41108 16.4097 8.41108C16.2847 8.41108 16.1824 8.44428 16.1824 8.48486C16.1824 8.52544 16.012 8.55864 15.8036 8.55864C15.5953 8.55864 15.4248 8.52544 15.4248 8.48486C15.4248 8.44428 15.3225 8.41108 15.1975 8.41108C15.0725 8.41108 14.9703 8.37788 14.9703 8.3373C14.9703 8.29672 14.868 8.26352 14.743 8.26352C14.618 8.26352 14.5157 8.23032 14.5157 8.18974C14.5157 8.14916 14.4134 8.11596 14.2884 8.11596C14.1634 8.11596 14.0611 8.08276 14.0611 8.04218C14.0611 8.0016 13.9588 7.96839 13.8338 7.96839C13.7088 7.96839 13.6066 7.93519 13.6066 7.89461C13.6066 7.85403 13.5043 7.82083 13.3793 7.82083C13.2543 7.82083 13.152 7.78763 13.152 7.74705C13.152 7.70647 13.0497 7.67327 12.9247 7.67327C12.7997 7.67327 12.6974 7.64007 12.6974 7.59949C12.6974 7.55891 12.5951 7.5257 12.4701 7.5257C12.3451 7.5257 12.2429 7.4925 12.2429 7.45192C12.2429 7.41134 12.1065 7.37814 11.9398 7.37814C11.7731 7.37814 11.6368 7.34494 11.6368 7.30436C11.6368 7.25928 11.2832 7.23058 10.7276 7.23058C10.1721 7.23058 9.8185 7.25928 9.8185 7.30436C9.8185 7.34538 9.61645 7.37814 9.36394 7.37814C9.11142 7.37814 8.90937 7.4109 8.90937 7.45192C8.90937 7.4925 8.80709 7.5257 8.68208 7.5257C8.55708 7.5257 8.4548 7.55891 8.4548 7.59949C8.4548 7.64007 8.38662 7.67327 8.30328 7.67327C8.21994 7.67327 8.15176 7.70647 8.15176 7.74705C8.15176 7.78763 8.04948 7.82083 7.92447 7.82083C7.79947 7.82083 7.69719 7.85403 7.69719 7.89461C7.69719 7.93519 7.63651 7.96839 7.56241 7.96839C7.48824 7.96839 7.37846 8.0348 7.31838 8.11596C7.25831 8.19712 7.14853 8.26352 7.07436 8.26352C7.00026 8.26352 6.93958 8.29672 6.93958 8.3373C6.93958 8.37788 6.88511 8.41108 6.81844 8.41108C6.75184 8.41108 6.60176 8.51069 6.48501 8.63243C6.36826 8.75417 6.23462 8.85377 6.18803 8.85377C6.07772 8.85377 5.12131 9.78519 5.12131 9.89261C5.12131 9.93799 5.01903 10.0681 4.89403 10.1818C4.76902 10.2955 4.66674 10.4344 4.66674 10.4902C4.66674 10.5462 4.59856 10.6398 4.51522 10.6983C4.43189 10.7568 4.3637 10.8637 4.3637 10.936C4.3637 11.0081 4.32961 11.0672 4.28794 11.0672C4.24627 11.0672 4.21218 11.1336 4.21218 11.2148C4.21218 11.2959 4.17809 11.3623 4.13642 11.3623C4.09475 11.3623 4.06066 11.4287 4.06066 11.5099C4.06066 11.5911 4.02656 11.6575 3.98489 11.6575C3.94323 11.6575 3.90913 11.7239 3.90913 11.805C3.90913 11.8862 3.87504 11.9526 3.83337 11.9526C3.7917 11.9526 3.75761 12.0522 3.75761 12.1739C3.75761 12.2957 3.72352 12.3953 3.68185 12.3953C3.64018 12.3953 3.60609 12.4949 3.60609 12.6166C3.60609 12.7384 3.572 12.838 3.53033 12.838C3.48866 12.838 3.45457 12.9708 3.45457 13.1331C3.45457 13.2954 3.42047 13.4282 3.37881 13.4282C3.33714 13.4282 3.30304 13.561 3.30304 13.7233C3.30304 13.8857 3.26895 14.0185 3.22728 14.0185C3.18183 14.0185 3.15152 14.3136 3.15152 14.7563C3.15152 15.199 3.12122 15.4941 3.07576 15.4941C3.0303 15.4941 3 15.7892 3 16.2319C3 16.6746 3.0303 16.9697 3.07576 16.9697C3.12122 16.9697 3.15152 17.2649 3.15152 17.7075C3.15152 18.1502 3.18183 18.4454 3.22728 18.4454C3.26941 18.4454 3.30304 18.6421 3.30304 18.888C3.30304 19.134 3.33668 19.3307 3.37881 19.3307C3.42047 19.3307 3.45457 19.4635 3.45457 19.6259C3.45457 19.7882 3.48866 19.921 3.53033 19.921C3.572 19.921 3.60609 20.0538 3.60609 20.2161C3.60609 20.3784 3.64018 20.5112 3.68185 20.5112C3.72352 20.5112 3.75761 20.644 3.75761 20.8064C3.75761 20.9687 3.7917 21.1015 3.83337 21.1015C3.87504 21.1015 3.90913 21.2011 3.90913 21.3228C3.90913 21.4446 3.94323 21.5442 3.98489 21.5442C4.02656 21.5442 4.06066 21.6438 4.06066 21.7655C4.06066 21.8873 4.09475 21.9869 4.13642 21.9869C4.17809 21.9869 4.21218 22.0865 4.21218 22.2082C4.21218 22.3299 4.24627 22.4296 4.28794 22.4296C4.32961 22.4296 4.3637 22.496 4.3637 22.5771C4.3637 22.6583 4.39779 22.7247 4.43946 22.7247C4.48113 22.7247 4.51522 22.8243 4.51522 22.946C4.51522 23.0678 4.54932 23.1674 4.59098 23.1674C4.63265 23.1674 4.66674 23.2338 4.66674 23.3149C4.66674 23.3961 4.70084 23.4625 4.74251 23.4625C4.78417 23.4625 4.81827 23.5289 4.81827 23.6101C4.81827 23.6912 4.85236 23.7576 4.89403 23.7576C4.9357 23.7576 4.96979 23.824 4.96979 23.9052C4.96979 23.9863 5.00388 24.0527 5.04555 24.0527C5.08722 24.0527 5.12131 24.1191 5.12131 24.2003C5.12131 24.2815 5.1554 24.3479 5.19707 24.3479C5.23874 24.3479 5.27283 24.4143 5.27283 24.4954C5.27283 24.5766 5.30693 24.643 5.34859 24.643C5.39026 24.643 5.42436 24.7021 5.42436 24.7743C5.42436 24.8465 5.49254 24.9534 5.57588 25.0119C5.65922 25.0704 5.7274 25.1773 5.7274 25.2496C5.7274 25.3217 5.76149 25.3808 5.80316 25.3808C5.84483 25.3808 5.87892 25.4399 5.87892 25.5121C5.87892 25.5843 5.94711 25.6912 6.03044 25.7497C6.11378 25.8082 6.18197 25.9078 6.18197 25.9711C6.18197 26.0343 6.25015 26.1339 6.33349 26.1924C6.41683 26.2509 6.48501 26.3445 6.48501 26.4005C6.48501 26.4563 6.58729 26.5952 6.7123 26.7089C6.8373 26.8226 6.93958 26.9554 6.93958 27.004C6.93958 27.0526 7.04186 27.1854 7.16686 27.2991C7.29187 27.4128 7.39415 27.5428 7.39415 27.5878C7.39415 27.7128 8.96725 29.2174 9.09786 29.2174C9.1609 29.2174 9.21241 29.2506 9.21241 29.2912C9.21241 29.3318 9.2731 29.365 9.34719 29.365C9.42136 29.365 9.53114 29.4314 9.59122 29.5126C9.65539 29.5992 9.78736 29.6601 9.91101 29.6601C10.0268 29.6601 10.1215 29.6933 10.1215 29.7339C10.1215 29.7793 10.5004 29.8077 11.1064 29.8077C11.7125 29.8077 12.0913 29.7793 12.0913 29.7339C12.0913 29.6933 12.2277 29.6601 12.3944 29.6601C12.5611 29.6601 12.6974 29.6269 12.6974 29.5864C12.6974 29.5458 12.7656 29.5126 12.8489 29.5126C12.9323 29.5126 13.0005 29.4794 13.0005 29.4388C13.0005 29.3982 13.1027 29.365 13.2278 29.365C13.3528 29.365 13.455 29.3318 13.455 29.2912C13.455 29.2506 13.5573 29.2174 13.6823 29.2174C13.8073 29.2174 13.9096 29.1842 13.9096 29.1437C13.9096 29.1031 13.9778 29.0699 14.0611 29.0699C14.1445 29.0699 14.2126 29.0367 14.2126 28.9961C14.2126 28.9555 14.349 28.9223 14.5157 28.9223C14.6824 28.9223 14.8187 28.8891 14.8187 28.8485C14.8187 28.8064 15.046 28.7748 15.3491 28.7748C15.6521 28.7748 15.8794 28.7431 15.8794 28.701C15.8794 28.6604 16.0158 28.6272 16.1824 28.6272C16.3491 28.6272 16.4855 28.6604 16.4855 28.701C16.4855 28.7431 16.7128 28.7748 17.0158 28.7748C17.3189 28.7748 17.5461 28.8064 17.5461 28.8485C17.5461 28.8891 17.6484 28.9223 17.7734 28.9223C17.8984 28.9223 18.0007 28.9555 18.0007 28.9961C18.0007 29.0367 18.103 29.0699 18.228 29.0699C18.353 29.0699 18.4553 29.1031 18.4553 29.1437C18.4553 29.1842 18.5575 29.2174 18.6826 29.2174C18.8076 29.2174 18.9098 29.2506 18.9098 29.2912C18.9098 29.3318 18.978 29.365 19.0614 29.365C19.1447 29.365 19.2129 29.3982 19.2129 29.4388C19.2129 29.4794 19.3152 29.5126 19.4402 29.5126C19.5652 29.5126 19.6674 29.5458 19.6674 29.5864C19.6674 29.6269 19.8038 29.6601 19.9705 29.6601C20.1372 29.6601 20.2735 29.6933 20.2735 29.7339C20.2735 29.779 20.6271 29.8077 21.1827 29.8077C21.7382 29.8077 22.0918 29.779 22.0918 29.7339C22.0918 29.6933 22.1941 29.6601 22.3191 29.6601C22.4441 29.6601 22.5464 29.6269 22.5464 29.5864C22.5464 29.5458 22.6146 29.5126 22.6979 29.5126C22.7812 29.5126 22.8494 29.4794 22.8494 29.4388C22.8494 29.3982 22.9101 29.365 22.9842 29.365C23.0584 29.365 23.1681 29.2986 23.2282 29.2174C23.2883 29.1363 23.3816 29.0699 23.4354 29.0699C23.554 29.0699 24.8192 27.8512 24.8192 27.7371C24.8192 27.6927 24.9556 27.5289 25.1222 27.3729C25.2889 27.2169 25.4253 27.0443 25.4253 26.9892C25.4253 26.9341 25.4935 26.8412 25.5768 26.7827C25.6602 26.7241 25.7283 26.6245 25.7283 26.5613C25.7283 26.4981 25.7965 26.3985 25.8799 26.34C25.9632 26.2815 26.0314 26.1819 26.0314 26.1186C26.0314 26.0554 26.0996 25.9558 26.1829 25.8973C26.2662 25.8388 26.3344 25.7392 26.3344 25.6759C26.3344 25.6127 26.4026 25.5131 26.4859 25.4546C26.5693 25.3961 26.6375 25.2892 26.6375 25.2169C26.6375 25.1448 26.6716 25.0857 26.7132 25.0857C26.7549 25.0857 26.789 25.0193 26.789 24.9381C26.789 24.857 26.8231 24.7906 26.8648 24.7906C26.9064 24.7906 26.9405 24.7242 26.9405 24.643C26.9405 24.5618 26.9746 24.4954 27.0163 24.4954C27.0579 24.4954 27.092 24.429 27.092 24.3479C27.092 24.2667 27.1261 24.2003 27.1678 24.2003C27.2095 24.2003 27.2436 24.1339 27.2436 24.0527C27.2436 23.9716 27.2777 23.9052 27.3193 23.9052C27.361 23.9052 27.3951 23.8388 27.3951 23.7576C27.3951 23.6765 27.4292 23.6101 27.4708 23.6101C27.5125 23.6101 27.5466 23.5437 27.5466 23.4625C27.5466 23.3813 27.5807 23.3149 27.6224 23.3149C27.664 23.3149 27.6981 23.2153 27.6981 23.0936C27.6981 22.9718 27.7322 22.8722 27.7739 22.8722C27.8156 22.8722 27.8497 22.7726 27.8497 22.6509C27.8497 22.5292 27.8837 22.4296 27.9254 22.4296C28.0416 22.4296 28.0153 21.9163 27.8929 21.7972C27.8334 21.7392 27.7312 21.6917 27.6656 21.6917C27.6002 21.6917 27.5466 21.6585 27.5466 21.618C27.5466 21.5774 27.4859 21.5442 27.4118 21.5442C27.3377 21.5442 27.2279 21.4778 27.1678 21.3966C27.1077 21.3155 27.0116 21.249 26.9542 21.249C26.8968 21.249 26.7542 21.1494 26.6375 21.0277C26.5207 20.906 26.3868 20.8064 26.3399 20.8064C26.229 20.8064 25.5768 20.1713 25.5768 20.0632C25.5768 20.0176 25.4745 19.8871 25.3495 19.7734C25.2245 19.6597 25.1222 19.5209 25.1222 19.465C25.1222 19.4091 25.0541 19.3155 24.9707 19.257C24.8874 19.1984 24.8192 19.0915 24.8192 19.0193C24.8192 18.9471 24.7851 18.888 24.7434 18.888C24.7018 18.888 24.6677 18.8216 24.6677 18.7405C24.6677 18.6593 24.6336 18.5929 24.5919 18.5929C24.5502 18.5929 24.5162 18.5265 24.5162 18.4454C24.5162 18.3642 24.4821 18.2978 24.4404 18.2978C24.3987 18.2978 24.3646 18.1982 24.3646 18.0764C24.3646 17.9547 24.3305 17.8551 24.2889 17.8551C24.2472 17.8551 24.2131 17.7223 24.2131 17.56C24.2131 17.3977 24.179 17.2649 24.1374 17.2649C24.0895 17.2649 24.0616 16.7484 24.0616 15.863C24.0616 14.9776 24.0895 14.4612 24.1374 14.4612C24.179 14.4612 24.2131 14.3284 24.2131 14.166C24.2131 14.0037 24.2472 13.8709 24.2889 13.8709C24.3305 13.8709 24.3646 13.7713 24.3646 13.6496C24.3646 13.5278 24.3987 13.4282 24.4404 13.4282C24.4821 13.4282 24.5162 13.3286 24.5162 13.2069C24.5162 13.0851 24.5502 12.9855 24.5919 12.9855C24.6336 12.9855 24.6677 12.9264 24.6677 12.8543C24.6677 12.782 24.7359 12.6751 24.8192 12.6166C24.9025 12.5581 24.9707 12.4585 24.9707 12.3953C24.9707 12.332 25.0389 12.2324 25.1222 12.1739C25.2056 12.1154 25.2738 12.0246 25.2738 11.972C25.2738 11.8554 26.3738 10.7721 26.4922 10.7721C26.5387 10.7721 26.6722 10.6725 26.789 10.5507C26.9057 10.429 27.0558 10.3294 27.1224 10.3294C27.2013 10.3294 27.2436 10.2647 27.2436 10.1441C27.2436 10.0072 27.0361 9.75671 26.449 9.1849C26.0119 8.75933 25.6103 8.41108 25.5565 8.41108C25.5027 8.41108 25.4096 8.34468 25.3495 8.26352C25.2895 8.18236 25.1797 8.11596 25.1055 8.11596C25.0314 8.11596 24.9707 8.08276 24.9707 8.04218C24.9707 8.0016 24.9025 7.96839 24.8192 7.96839C24.7359 7.96839 24.6677 7.93519 24.6677 7.89461C24.6677 7.85403 24.5995 7.82083 24.5162 7.82083C24.4328 7.82083 24.3646 7.78763 24.3646 7.74705C24.3646 7.70647 24.2624 7.67327 24.1374 7.67327C24.0123 7.67327 23.9101 7.64007 23.9101 7.59949C23.9101 7.55891 23.8078 7.5257 23.6828 7.5257C23.5578 7.5257 23.4555 7.4925 23.4555 7.45192C23.4555 7.41134 23.3191 7.37814 23.1525 7.37814C22.9858 7.37814 22.8494 7.34494 22.8494 7.30436C22.8494 7.26135 22.5969 7.23058 22.2433 7.23058C21.8897 7.23058 21.6372 7.19981 21.6372 7.1568C21.6372 7.11578 21.4352 7.08302 21.1827 7.08302C20.9302 7.08302 20.7281 7.11578 20.7281 7.1568Z" fill="black"/>
</svg>
