<svg width="60" height="60" viewBox="0 0 60 60" fill="none" xmlns="http://www.w3.org/2000/svg">
<g opacity="0.3">
<path d="M49.1419 30.4779C49.1419 27.7663 46.9368 25.5612 44.2253 25.5612H41.7669V18.1862C41.7669 11.4086 36.2529 5.89453 29.4753 5.89453C22.6976 5.89453 17.1836 11.4086 17.1836 18.1862V25.5612H14.7253C12.0137 25.5612 9.80859 27.7663 9.80859 30.4779V50.1445C9.80859 52.8561 12.0137 55.0612 14.7253 55.0612H44.2253C46.9368 55.0612 49.1419 52.8561 49.1419 50.1445V30.4779ZM22.1003 18.1862C22.1003 14.1201 25.4092 10.8112 29.4753 10.8112C33.5413 10.8112 36.8503 14.1201 36.8503 18.1862V25.5612H22.1003V18.1862Z" fill="#797979"/>
</g>
</svg>
