<svg width="15" height="15" viewBox="0 0 15 15" fill="none" xmlns="http://www.w3.org/2000/svg">
<circle cx="7.5" cy="7.5" r="7.5" fill="#E4726E" fill-opacity="0.2"/>
<path fill-rule="evenodd" clip-rule="evenodd" d="M7.34052 3.0278C7.0164 3.109 6.7696 3.33674 6.62155 3.69128C6.54893 3.86517 6.55304 4.10759 6.65751 5.79712C6.70529 6.56927 6.76641 7.56129 6.79338 8.00158C6.85238 8.96484 6.88881 9.06676 7.2365 9.24046C7.4733 9.35877 7.63928 9.37114 7.8463 9.28596C8.17861 9.14925 8.35655 8.83773 8.35305 8.39881C8.35213 8.28263 8.40791 7.22807 8.47703 6.0554C8.61547 3.70577 8.61616 3.72634 8.39106 3.40359C8.17376 3.09208 7.72494 2.93154 7.34052 3.0278ZM7.31594 10.0609C6.85169 10.2112 6.55793 10.6249 6.59262 11.0794C6.63432 11.625 7.03571 11.9981 7.58289 12C7.97355 12.0013 8.2967 11.804 8.47934 11.4527C8.5775 11.2638 8.58812 10.8371 8.49973 10.6321C8.41741 10.4411 8.21619 10.2268 8.03256 10.1343C7.86311 10.0491 7.47534 10.0094 7.31594 10.0609Z" fill="#E4726E"/>
</svg>
