<svg width="20" height="12" viewBox="0 0 20 12" fill="#ffffff" xmlns="http://www.w3.org/2000/svg">
<path fill-rule="evenodd" clip-rule="evenodd" d="M8.64259 0.0385765C6.12975 0.307551 3.78093 1.46307 1.97524 3.31868C1.30137 4.01119 0.585253 4.96865 0.255119 5.61845C0.0506463 6.02098 0.0911328 6.16228 0.659705 7.03035C2.01516 9.09983 4.07282 10.6937 6.38223 11.4631C7.63371 11.88 8.696 12.0332 10.0628 11.9941C11.4292 11.955 12.5055 11.7302 13.7474 11.2247C15.2393 10.6175 16.476 9.76194 17.6265 8.54126C18.153 7.98264 18.4749 7.57439 18.8718 6.96183C19.3971 6.15114 19.4322 6.01563 19.2234 5.60469C18.9064 4.98058 18.1871 4.01943 17.5202 3.32862C15.7193 1.46328 13.3394 0.299183 10.7887 0.0360494C10.312 -0.0131225 9.11251 -0.0117139 8.64259 0.0385765ZM10.6829 1.97679C12.1481 2.35541 13.2615 3.51383 13.634 5.04719C13.7496 5.52305 13.757 6.40905 13.6494 6.89062C13.2374 8.73455 11.7468 10.0296 9.9228 10.1283C8.53026 10.2037 7.16872 9.48401 6.40555 8.26909C6.14091 7.84784 5.97136 7.44518 5.85118 6.95276C5.72904 6.45217 5.72904 5.54778 5.85118 5.04719C6.10766 3.99607 6.71084 3.11217 7.56522 2.53553C8.0655 2.19787 8.51437 2.02509 9.26269 1.88225C9.49365 1.83818 10.373 1.89667 10.6829 1.97679ZM9.16268 3.25107C8.57826 3.37887 7.95412 3.78629 7.59875 4.27187C7.10795 4.94255 6.92496 5.7629 7.0859 6.57131C7.40987 8.19858 9.03214 9.18057 10.5629 8.67597C12.1184 8.16321 12.893 6.34559 12.2061 4.82002C11.6679 3.62465 10.4128 2.97762 9.16268 3.25107Z" fill="white" fill-opacity="0.5"/>
</svg>
