<svg width="25" height="29" viewBox="0 0 25 29" fill="none" xmlns="http://www.w3.org/2000/svg">
<path fill-rule="evenodd" clip-rule="evenodd" d="M2.36269 0.102341C1.26281 0.396546 0.400102 1.26699 0.109953 2.3752C-0.0366509 2.935 -0.0366509 26.0648 0.109953 26.6246C0.403876 27.7471 1.26834 28.6098 2.39067 28.9007C2.72585 28.9875 3.97644 28.9998 12.5064 28.9998C23.218 28.9998 22.5872 29.0229 23.3815 28.6017C23.8374 28.36 24.4026 27.7869 24.635 27.3305C25.0161 26.5824 24.9999 27.0057 24.9999 17.7876V9.32136H22.2155C19.2136 9.32136 19.0367 9.30511 18.3672 8.9676C17.9073 8.73573 17.3107 8.15871 17.0739 7.71672C16.6774 6.97671 16.6709 6.90531 16.6709 3.28772V0L9.69209 0.00427241C3.81252 0.00783265 2.65804 0.0233035 2.36269 0.102341ZM18.7531 3.54762C18.7531 5.82086 18.7715 6.4562 18.8419 6.62392C18.9558 6.89508 19.2843 7.16968 19.5521 7.21745C19.6674 7.23803 20.8085 7.24651 22.0879 7.23622L24.4141 7.21758L21.7406 4.11046C20.2701 2.40154 18.9964 0.931165 18.9101 0.843L18.7531 0.682595V3.54762Z" fill="white"/>
<path fill-rule="evenodd" clip-rule="evenodd" d="M12.9827 10.7904C11.0378 11.224 9.41517 11.5918 9.37691 11.6076C9.28535 11.6456 9.18649 11.7605 9.1584 11.8617C9.14314 11.9166 9.13581 12.9501 9.13575 15.0565C9.13568 16.769 9.12837 18.1669 9.1195 18.1629C9.11064 18.159 9.0405 18.1252 8.96366 18.0878C8.4446 17.8353 7.75938 17.7931 7.21187 17.98C6.2989 18.2917 5.80859 19.0922 6.07003 19.8441C6.1453 20.0606 6.24282 20.215 6.41658 20.3931C7.32508 21.3239 9.10967 21.1564 9.75371 20.0798C9.77845 20.0385 9.82604 19.9272 9.85944 19.8326C9.89963 19.7188 9.92042 19.599 9.92094 19.4782L9.93091 17.1471L9.93653 15.8315C9.93953 15.1309 10.4271 14.5257 11.1109 14.3736L13.0153 13.9502C14.7059 13.5743 16.1157 13.2607 16.1482 13.2534C16.1784 13.2466 16.2073 13.2696 16.2073 13.3007V14.9189V16.4595C16.2073 16.5229 16.1404 16.5642 16.0837 16.5357C15.7184 16.3521 15.4032 16.2871 14.9498 16.302C14.3359 16.3221 13.8996 16.4992 13.508 16.8874C13.349 17.045 13.296 17.1148 13.2228 17.2636C13.0291 17.657 13.0235 18.0324 13.2056 18.4131C13.3758 18.7691 13.6492 19.0259 14.0649 19.2205C14.6684 19.503 15.4197 19.4985 16.0312 19.2087C16.4167 19.0261 16.701 18.7614 16.8622 18.435C17.0116 18.1328 17.0035 18.3902 16.9973 14.1185L16.992 10.3726C16.9919 10.301 16.9708 10.2311 16.9313 10.1714C16.8606 10.0645 16.7325 9.99733 16.6049 10.0001C16.5576 10.0011 14.9276 10.3567 12.9827 10.7904Z" fill="black"/>
</svg>
