<svg width="90" height="70" viewBox="0 0 90 70" fill="none" xmlns="http://www.w3.org/2000/svg">
<g clip-path="url(#clip0_453_18614)">
<g opacity="0.9" filter="url(#filter0_d_453_18614)">
<path d="M18 12.488C18 11.1139 19.1139 10 20.488 10L49.1001 10C50.4742 10 51.5881 11.1139 51.5881 12.488V41.1001C51.5881 42.4742 50.4742 43.5881 49.1001 43.5881H20.488C19.1139 43.5881 18 42.4742 18 41.1001V12.488Z" fill="#FF611B"/>
</g>
<g opacity="0.7" filter="url(#filter1_d_453_18614)">
<path d="M55.2062 60.5881C45.9311 60.5881 38.4121 53.0692 38.4121 43.7941V43.7941C38.4121 34.519 45.9311 27 55.2062 27V27C64.4812 27 72.0002 34.519 72.0002 43.7941V43.7941C72.0002 53.0692 64.4812 60.5881 55.2062 60.5881V60.5881Z" fill="#6E16C6"/>
</g>
</g>
<defs>
<filter id="filter0_d_453_18614" x="2" y="0" width="65.5881" height="65.5881" filterUnits="userSpaceOnUse" color-interpolation-filters="sRGB">
<feFlood flood-opacity="0" result="BackgroundImageFix"/>
<feColorMatrix in="SourceAlpha" type="matrix" values="0 0 0 0 0 0 0 0 0 0 0 0 0 0 0 0 0 0 127 0" result="hardAlpha"/>
<feOffset dy="6"/>
<feGaussianBlur stdDeviation="8"/>
<feComposite in2="hardAlpha" operator="out"/>
<feColorMatrix type="matrix" values="0 0 0 0 1 0 0 0 0 0.116667 0 0 0 0 0.434667 0 0 0 0.42 0"/>
<feBlend mode="normal" in2="BackgroundImageFix" result="effect1_dropShadow_453_18614"/>
<feBlend mode="normal" in="SourceGraphic" in2="effect1_dropShadow_453_18614" result="shape"/>
</filter>
<filter id="filter1_d_453_18614" x="32.4121" y="17" width="61.5881" height="61.5881" filterUnits="userSpaceOnUse" color-interpolation-filters="sRGB">
<feFlood flood-opacity="0" result="BackgroundImageFix"/>
<feColorMatrix in="SourceAlpha" type="matrix" values="0 0 0 0 0 0 0 0 0 0 0 0 0 0 0 0 0 0 127 0" result="hardAlpha"/>
<feOffset dx="8" dy="4"/>
<feGaussianBlur stdDeviation="7"/>
<feComposite in2="hardAlpha" operator="out"/>
<feColorMatrix type="matrix" values="0 0 0 0 0.481 0 0 0 0 0 0 0 0 0 0.65 0 0 0 0.38 0"/>
<feBlend mode="normal" in2="BackgroundImageFix" result="effect1_dropShadow_453_18614"/>
<feBlend mode="normal" in="SourceGraphic" in2="effect1_dropShadow_453_18614" result="shape"/>
</filter>
<clipPath id="clip0_453_18614">
<rect width="90" height="70" fill="white"/>
</clipPath>
</defs>
</svg>
