<svg width="49" height="49" viewBox="0 0 49 49" fill="none" xmlns="http://www.w3.org/2000/svg">
<path d="M31.7188 24.5977C31.7188 26.5868 30.9286 28.4944 29.5221 29.901C28.1155 31.3075 26.2079 32.0977 24.2188 32.0977C22.2296 32.0977 20.322 31.3075 18.9154 29.901C17.5089 28.4944 16.7188 26.5868 16.7188 24.5977C16.7188 24.1702 16.7637 23.7527 16.8412 23.3477H14.2188L14.2188 33.3402C14.2188 34.0352 14.7812 34.5977 15.4762 34.5977H32.9638C33.2968 34.597 33.616 34.4642 33.8513 34.2285C34.0866 33.9927 34.2188 33.6732 34.2188 33.3402V23.3477H31.5963C31.6738 23.7527 31.7188 24.1702 31.7188 24.5977ZM24.2188 29.5977C24.8755 29.5975 25.5258 29.468 26.1326 29.2165C26.7393 28.965 27.2905 28.5965 27.7548 28.1319C28.2191 27.6674 28.5873 27.116 28.8385 26.5091C29.0897 25.9023 29.2189 25.2519 29.2188 24.5952C29.2186 23.9384 29.0891 23.2881 28.8376 22.6814C28.5861 22.0746 28.2176 21.5234 27.753 21.0591C27.2885 20.5948 26.7371 20.2266 26.1302 19.9754C25.5234 19.7242 24.873 19.595 24.2162 19.5952C22.8898 19.5955 21.6179 20.1227 20.6802 21.0609C19.7425 21.999 19.2159 23.2712 19.2162 24.5977C19.2166 25.9241 19.7438 27.196 20.682 28.1337C21.6201 29.0714 22.8923 29.598 24.2188 29.5977ZM30.2188 19.3477H33.2163C33.4154 19.3477 33.6064 19.2687 33.7475 19.1281C33.8885 18.9876 33.9681 18.7968 33.9688 18.5977V15.6002C33.9688 15.4006 33.8895 15.2092 33.7483 15.0681C33.6072 14.9269 33.4158 14.8477 33.2163 14.8477L30.2188 14.8477C30.0192 14.8477 29.8278 14.9269 29.6867 15.0681C29.5455 15.2092 29.4663 15.4006 29.4663 15.6002V18.5977C29.4688 19.0102 29.8063 19.3477 30.2188 19.3477ZM24.2188 0.597656C17.8536 0.597656 11.7491 3.12622 7.24819 7.62709C2.74731 12.128 0.21875 18.2325 0.21875 24.5977C0.21875 30.9629 2.74731 37.0673 7.24819 41.5682C11.7491 46.0691 17.8536 48.5977 24.2188 48.5977C27.3705 48.5977 30.4913 47.9769 33.4032 46.7708C36.315 45.5647 38.9607 43.7968 41.1893 41.5682C43.4179 39.3396 45.1857 36.6939 46.3919 33.7821C47.598 30.8702 48.2188 27.7494 48.2188 24.5977C48.2188 21.4459 47.598 18.3251 46.3919 15.4133C45.1857 12.5014 43.4179 9.8557 41.1893 7.62709C38.9607 5.39849 36.315 3.63066 33.4032 2.42455C30.4913 1.21843 27.3705 0.597656 24.2188 0.597656ZM36.7188 34.3202C36.7188 35.8477 35.4688 37.0977 33.9412 37.0977H14.4963C12.9688 37.0977 11.7188 35.8477 11.7188 34.3202L11.7188 14.8752C11.7188 13.3477 12.9688 12.0977 14.4963 12.0977L33.9412 12.0977C35.4688 12.0977 36.7188 13.3477 36.7188 14.8752V34.3202Z" fill="white"/>
</svg>
