<svg width="25" height="25" viewBox="0 0 25 25" fill="none" xmlns="http://www.w3.org/2000/svg">
<path fill-rule="evenodd" clip-rule="evenodd" d="M3.17 10.94C3.16962 11.0992 3.16962 11.2659 3.16962 11.4406V15.5302C3.16962 18.3586 3.16962 19.7728 4.0483 20.6515C4.92698 21.5302 6.34119 21.5302 9.16962 21.5302H15.2968C18.1253 21.5302 19.5395 21.5302 20.4181 20.6515C21.2968 19.7728 21.2968 18.3586 21.2968 15.5302V11.4406C21.2968 11.2659 21.2968 11.0992 21.2964 10.94L19.5652 12.6591C19.0032 13.2172 18.2433 13.5304 17.4513 13.5304H7.01512C6.22313 13.5304 5.46328 13.2172 4.90129 12.6591L3.17 10.94ZM3.40751 8.35732L6.31051 11.24C6.49784 11.426 6.75113 11.5304 7.01512 11.5304H17.4513C17.7153 11.5304 17.9686 11.426 18.1559 11.2399L21.0589 8.35732C20.9948 8.17347 20.9135 8.00587 20.8102 7.84737C20.3235 7.10065 19.4555 6.71756 17.7194 5.95137L13.8482 4.24295C13.0527 3.89186 12.6549 3.71631 12.2332 3.71631C11.8115 3.71631 11.4137 3.89186 10.6182 4.24295L6.74709 5.95137C5.01098 6.71756 4.14293 7.10065 3.65627 7.84737C3.55298 8.00586 3.47161 8.17347 3.40751 8.35732Z" fill="#E1E1E1"/>
</svg>
