<svg width="32" height="27" viewBox="0 0 32 27" xmlns="http://www.w3.org/2000/svg">
<path fill-rule="evenodd" clip-rule="evenodd" d="M24.5125 26.3722C24.9419 26.6762 25.4952 26.7522 25.9885 26.5655C26.4819 26.3775 26.8445 25.9562 26.9539 25.4455C28.1125 20.0002 30.9232 6.21753 31.9779 1.2642C32.0579 0.890864 31.9245 0.502865 31.6312 0.253531C31.3379 0.00419772 30.9312 -0.0678024 30.5685 0.0668643C24.9779 2.1362 7.76053 8.5962 0.723197 11.2002C0.27653 11.3655 -0.0141362 11.7949 0.000530472 12.2655C0.0165305 12.7375 0.333864 13.1469 0.791197 13.2842C3.9472 14.2282 8.08986 15.5415 8.08986 15.5415C8.08986 15.5415 10.0259 21.3882 11.0352 24.3615C11.1619 24.7349 11.4539 25.0282 11.8392 25.1295C12.2232 25.2295 12.6339 25.1242 12.9205 24.8535C14.5419 23.3229 17.0485 20.9562 17.0485 20.9562C17.0485 20.9562 21.8112 24.4482 24.5125 26.3722ZM9.83253 14.8029L12.0712 22.1869L12.5685 17.5109C12.5685 17.5109 21.2179 9.70953 26.1485 5.26287C26.2925 5.1322 26.3125 4.91353 26.1925 4.7602C26.0739 4.60687 25.8552 4.57087 25.6912 4.67487C19.9765 8.3242 9.83253 14.8029 9.83253 14.8029Z" fill="#686868"/>
</svg>
