<svg width="145" height="145" viewBox="0 0 145 145" fill="none" xmlns="http://www.w3.org/2000/svg">
<circle cx="72.5" cy="72.5" r="72.5" fill="url(#paint0_linear_640_19488)"/>
<circle cx="72" cy="73" r="64" fill="url(#paint1_linear_640_19488)"/>
<path d="M64.3633 41.4564L69.3111 36.5086C70.8056 35.0141 73.2287 35.0141 74.7232 36.5086L79.671 41.4564L79.671 102.687L74.7232 107.635C73.2287 109.13 70.8056 109.13 69.3111 107.635L64.3633 102.687L64.3633 41.4564Z" fill="white"/>
<path d="M64.3633 41.4564L69.3111 36.5086C70.8056 35.0141 73.2287 35.0141 74.7232 36.5086L79.671 41.4564L79.671 102.687L74.7232 107.635C73.2287 109.13 70.8056 109.13 69.3111 107.635L64.3633 102.687L64.3633 41.4564Z" fill="url(#paint2_linear_640_19488)"/>
<path d="M64.3633 41.4564L64.3633 102.687L69.2509 107.575C69.9268 108.251 70.8126 108.677 71.7627 108.782L72.0172 108.81L72.0172 35.3333L71.6292 35.3764C70.7656 35.4723 69.9603 35.8594 69.3458 36.4738L64.3633 41.4564Z" fill="white"/>
<path d="M64.3633 41.4564L64.3633 102.687L69.2509 107.575C69.9268 108.251 70.8126 108.677 71.7627 108.782L72.0172 108.81L72.0172 35.3333L71.6292 35.3764C70.7656 35.4723 69.9603 35.8594 69.3458 36.4738L64.3633 41.4564Z" fill="url(#paint3_linear_640_19488)"/>
<path d="M60.5361 98.8604L49.0553 86.4791L49.0553 57.6645L60.5361 45.2832L60.5361 98.8604Z" fill="white"/>
<path d="M60.5361 98.8604L49.0553 86.4791L49.0553 57.6645L60.5361 45.2832L60.5361 98.8604Z" fill="url(#paint4_linear_640_19488)"/>
<path d="M83.498 98.8604L94.9789 86.4791L94.9789 57.6645L83.4981 45.2832L83.498 98.8604Z" fill="white"/>
<path d="M83.498 98.8604L94.9789 86.4791L94.9789 57.6645L83.4981 45.2832L83.498 98.8604Z" fill="url(#paint5_linear_640_19488)"/>
<path d="M49.0555 57.6649L49.0555 86.4795L54.7959 92.6702L54.7959 51.4743L49.0555 57.6649Z" fill="white"/>
<path d="M49.0555 57.6649L49.0555 86.4795L54.7959 92.6702L54.7959 51.4743L49.0555 57.6649Z" fill="url(#paint6_linear_640_19488)"/>
<path d="M94.9787 57.6649L94.9787 86.4795L89.2383 92.6702L89.2383 51.4743L94.9787 57.6649Z" fill="white"/>
<path d="M94.9787 57.6649L94.9787 86.4795L89.2383 92.6702L89.2383 51.4743L94.9787 57.6649Z" fill="url(#paint7_linear_640_19488)"/>
<path d="M45.2285 83.5527L45.2285 60.5911L36.432 69.5322C34.9495 71.039 34.9695 73.4623 36.4764 74.9445L45.2285 83.5527Z" fill="white"/>
<path d="M45.2285 83.5527L45.2285 60.5911L36.432 69.5322C34.9495 71.039 34.9695 73.4623 36.4764 74.9445L45.2285 83.5527Z" fill="url(#paint8_linear_640_19488)"/>
<path d="M98.8057 83.5527L98.8057 60.5911L107.602 69.5322C109.085 71.039 109.065 73.4623 107.558 74.9445L98.8057 83.5527Z" fill="white"/>
<path d="M98.8057 83.5527L98.8057 60.5911L107.602 69.5322C109.085 71.039 109.065 73.4623 107.558 74.9445L98.8057 83.5527Z" fill="url(#paint9_linear_640_19488)"/>
<path d="M39.4883 66.4257L36.4321 69.532C34.9497 71.0388 34.9696 73.4621 36.4766 74.9443L39.4883 77.9065L39.4883 66.4257Z" fill="white"/>
<path d="M39.4883 66.4257L36.4321 69.532C34.9497 71.0388 34.9696 73.4621 36.4766 74.9443L39.4883 77.9065L39.4883 66.4257Z" fill="url(#paint10_linear_640_19488)"/>
<path d="M104.546 66.4257L107.602 69.532C109.084 71.0388 109.065 73.4621 107.558 74.9443L104.546 77.9065L104.546 66.4257Z" fill="white"/>
<path d="M104.546 66.4257L107.602 69.532C109.084 71.0388 109.065 73.4621 107.558 74.9443L104.546 77.9065L104.546 66.4257Z" fill="url(#paint11_linear_640_19488)"/>
<path fill-rule="evenodd" clip-rule="evenodd" d="M72.0077 106.675L72.0177 39.3207L72.4004 39.3208L72.3904 106.675L72.0077 106.675Z" fill="url(#paint12_linear_640_19488)"/>
<path fill-rule="evenodd" clip-rule="evenodd" d="M54.796 90.0584L54.796 54.8506L55.1787 54.8506L55.1787 90.0584L54.796 90.0584Z" fill="url(#paint13_linear_640_19488)"/>
<path fill-rule="evenodd" clip-rule="evenodd" d="M89.2382 90.0584L89.2382 54.8506L88.8555 54.8506L88.8555 90.0584L89.2382 90.0584Z" fill="url(#paint14_linear_640_19488)"/>
<path fill-rule="evenodd" clip-rule="evenodd" d="M39.1056 76.6643L39.1056 67.8623L39.4883 67.8623L39.4883 76.6643L39.1056 76.6643Z" fill="url(#paint15_linear_640_19488)"/>
<path fill-rule="evenodd" clip-rule="evenodd" d="M104.929 76.6643L104.929 67.8623L104.546 67.8623L104.546 76.6643L104.929 76.6643Z" fill="url(#paint16_linear_640_19488)"/>
<path fill-rule="evenodd" clip-rule="evenodd" d="M44.8458 78.9605L44.8458 65.5662L45.2285 65.5662L45.2285 78.9605L44.8458 78.9605Z" fill="url(#paint17_linear_640_19488)"/>
<path fill-rule="evenodd" clip-rule="evenodd" d="M99.1884 78.9605L99.1884 65.5662L98.8057 65.5662L98.8057 78.9605L99.1884 78.9605Z" fill="url(#paint18_linear_640_19488)"/>
<path fill-rule="evenodd" clip-rule="evenodd" d="M60.1534 97.7122L60.1534 62.5044L60.5361 62.5044L60.5361 97.7122L60.1534 97.7122Z" fill="url(#paint19_linear_640_19488)"/>
<path fill-rule="evenodd" clip-rule="evenodd" d="M94.5958 83.1699L94.5958 60.2083L94.9785 60.2083L94.9785 83.1699L94.5958 83.1699Z" fill="url(#paint20_linear_640_19488)"/>
<path fill-rule="evenodd" clip-rule="evenodd" d="M79.2895 102.502L79.298 45.2831L79.6807 45.2832L79.6722 102.502L79.2895 102.502Z" fill="url(#paint21_linear_640_19488)"/>
<defs>
<linearGradient id="paint0_linear_640_19488" x1="145" y1="-4.32134e-06" x2="72.5" y2="145" gradientUnits="userSpaceOnUse">
<stop stop-color="#2B2B2B"/>
<stop offset="1" stop-color="#0F0F0F"/>
</linearGradient>
<linearGradient id="paint1_linear_640_19488" x1="136" y1="9" x2="72" y2="137" gradientUnits="userSpaceOnUse">
<stop stop-color="#010101"/>
<stop offset="1" stop-color="#1E1E1E"/>
</linearGradient>
<linearGradient id="paint2_linear_640_19488" x1="72.0172" y1="101.922" x2="45.3264" y2="85.9964" gradientUnits="userSpaceOnUse">
<stop stop-color="#C014DA"/>
<stop offset="0.364049" stop-color="#A300BB"/>
<stop offset="1" stop-color="#6D2CC1"/>
</linearGradient>
<linearGradient id="paint3_linear_640_19488" x1="102.059" y1="190.133" x2="127.245" y2="179.656" gradientUnits="userSpaceOnUse">
<stop stop-color="#833AFC"/>
<stop offset="0.369792" stop-color="#D01DEB"/>
<stop offset="0.753231" stop-color="#EF81FF"/>
<stop offset="0.985947" stop-color="#F4ABFF"/>
</linearGradient>
<linearGradient id="paint4_linear_640_19488" x1="39.488" y1="50.4214" x2="43.842" y2="97.2648" gradientUnits="userSpaceOnUse">
<stop stop-color="#B94B1D"/>
<stop offset="0.590684" stop-color="#D96D3E"/>
<stop offset="1" stop-color="#F5BE7C"/>
</linearGradient>
<linearGradient id="paint5_linear_640_19488" x1="92.4914" y1="45.2832" x2="103.561" y2="50.7705" gradientUnits="userSpaceOnUse">
<stop stop-color="#FF8DED"/>
<stop offset="0.307292" stop-color="#FF54E4"/>
<stop offset="1" stop-color="#F01CCE"/>
</linearGradient>
<linearGradient id="paint6_linear_640_19488" x1="52.4997" y1="55.741" x2="46.8022" y2="57.3988" gradientUnits="userSpaceOnUse">
<stop stop-color="#FBE889"/>
<stop offset="0.470046" stop-color="#E39F4D"/>
<stop offset="1" stop-color="#C95C2C"/>
</linearGradient>
<linearGradient id="paint7_linear_640_19488" x1="91.9171" y1="55.9991" x2="73.0106" y2="77.0971" gradientUnits="userSpaceOnUse">
<stop stop-color="#8C0D78"/>
<stop offset="0.444229" stop-color="#C517AA"/>
<stop offset="0.786683" stop-color="#FB33DB"/>
</linearGradient>
<linearGradient id="paint8_linear_640_19488" x1="47.9074" y1="84.7008" x2="52.4453" y2="70.5436" gradientUnits="userSpaceOnUse">
<stop stop-color="#FA9B72"/>
<stop offset="0.412035" stop-color="#FB6A3D"/>
<stop offset="0.854167" stop-color="#B53C16"/>
</linearGradient>
<linearGradient id="paint9_linear_640_19488" x1="96.1268" y1="84.7008" x2="91.5888" y2="70.5436" gradientUnits="userSpaceOnUse">
<stop stop-color="#FF9399"/>
<stop offset="0.412035" stop-color="#FE3850"/>
<stop offset="0.854167" stop-color="#D90922"/>
</linearGradient>
<linearGradient id="paint10_linear_640_19488" x1="35.2786" y1="64.4179" x2="31.6089" y2="72.6713" gradientUnits="userSpaceOnUse">
<stop stop-color="#FF9473"/>
<stop offset="0.24679" stop-color="#FF906C"/>
<stop offset="0.989583" stop-color="#C74C17"/>
</linearGradient>
<linearGradient id="paint11_linear_640_19488" x1="108.756" y1="64.4179" x2="112.425" y2="72.6713" gradientUnits="userSpaceOnUse">
<stop stop-color="#FF7E8A"/>
<stop offset="0.989583" stop-color="#FF4646"/>
</linearGradient>
<linearGradient id="paint12_linear_640_19488" x1="72.0177" y1="90.7931" x2="74.5021" y2="40.5918" gradientUnits="userSpaceOnUse">
<stop stop-color="white" stop-opacity="0"/>
<stop offset="0.685133" stop-color="white"/>
<stop offset="1" stop-color="white" stop-opacity="0"/>
</linearGradient>
<linearGradient id="paint13_linear_640_19488" x1="54.8036" y1="81.7566" x2="55.4816" y2="55.4684" gradientUnits="userSpaceOnUse">
<stop stop-color="white" stop-opacity="0"/>
<stop offset="0.685133" stop-color="white"/>
<stop offset="1" stop-color="white" stop-opacity="0"/>
</linearGradient>
<linearGradient id="paint14_linear_640_19488" x1="89.2305" y1="81.7566" x2="88.5525" y2="55.4684" gradientUnits="userSpaceOnUse">
<stop stop-color="white" stop-opacity="0"/>
<stop offset="0.685133" stop-color="white"/>
<stop offset="1" stop-color="white" stop-opacity="0"/>
</linearGradient>
<linearGradient id="paint15_linear_640_19488" x1="39.1132" y1="74.5888" x2="39.1556" y2="68.0127" gradientUnits="userSpaceOnUse">
<stop stop-color="white" stop-opacity="0"/>
<stop offset="0.685133" stop-color="white"/>
<stop offset="1" stop-color="white" stop-opacity="0"/>
</linearGradient>
<linearGradient id="paint16_linear_640_19488" x1="104.921" y1="74.5888" x2="104.879" y2="68.0127" gradientUnits="userSpaceOnUse">
<stop stop-color="white" stop-opacity="0"/>
<stop offset="0.685133" stop-color="white"/>
<stop offset="1" stop-color="white" stop-opacity="0"/>
</linearGradient>
<linearGradient id="paint17_linear_640_19488" x1="44.8534" y1="75.8022" x2="44.9516" y2="65.7955" gradientUnits="userSpaceOnUse">
<stop stop-color="white" stop-opacity="0"/>
<stop offset="0.685133" stop-color="white"/>
<stop offset="1" stop-color="white" stop-opacity="0"/>
</linearGradient>
<linearGradient id="paint18_linear_640_19488" x1="99.1807" y1="75.8022" x2="99.0826" y2="65.7955" gradientUnits="userSpaceOnUse">
<stop stop-color="white" stop-opacity="0"/>
<stop offset="0.685133" stop-color="white"/>
<stop offset="1" stop-color="white" stop-opacity="0"/>
</linearGradient>
<linearGradient id="paint19_linear_640_19488" x1="60.1611" y1="89.4104" x2="60.8391" y2="63.1222" gradientUnits="userSpaceOnUse">
<stop stop-color="white" stop-opacity="0"/>
<stop offset="0.685133" stop-color="white"/>
<stop offset="1" stop-color="white" stop-opacity="0"/>
</linearGradient>
<linearGradient id="paint20_linear_640_19488" x1="94.6034" y1="77.7557" x2="94.8919" y2="60.6046" gradientUnits="userSpaceOnUse">
<stop stop-color="white" stop-opacity="0"/>
<stop offset="0.685133" stop-color="white"/>
<stop offset="1" stop-color="white" stop-opacity="0"/>
</linearGradient>
<linearGradient id="paint21_linear_640_19488" x1="79.2991" y1="89.0098" x2="81.0942" y2="46.334" gradientUnits="userSpaceOnUse">
<stop stop-color="white" stop-opacity="0"/>
<stop offset="0.685133" stop-color="white"/>
<stop offset="1" stop-color="white" stop-opacity="0"/>
</linearGradient>
</defs>
</svg>
