<svg width="49" height="49" viewBox="0 0 49 49" fill="none" xmlns="http://www.w3.org/2000/svg">
<path fill-rule="evenodd" clip-rule="evenodd" d="M0.21875 24.5977C0.21875 11.3414 10.9625 0.597656 24.2188 0.597656C37.475 0.597656 48.2188 11.3414 48.2188 24.5977C48.2188 37.8539 37.475 48.5977 24.2188 48.5977C10.9625 48.5977 0.21875 37.8539 0.21875 24.5977ZM38.6 31.8445C39.2188 29.4914 39.2188 24.6258 39.2188 24.6258C39.2188 24.6258 39.2375 19.732 38.6 17.3883C38.2531 16.1039 37.2406 15.0914 35.9563 14.7445C33.6031 14.0977 24.2188 14.0977 24.2188 14.0977C24.2188 14.0977 14.8344 14.0977 12.4813 14.7164C11.225 15.0633 10.1844 16.1039 9.8375 17.3883C9.21875 19.732 9.21875 24.5977 9.21875 24.5977C9.21875 24.5977 9.21875 29.4914 9.8375 31.807C10.1844 33.0914 11.1969 34.1039 12.4813 34.4508C14.8531 35.0977 24.2188 35.0977 24.2188 35.0977C24.2188 35.0977 33.6031 35.0977 35.9563 34.4883C37.2406 34.1414 38.2531 33.1289 38.6 31.8445ZM29.0368 24.5977L21.2274 29.0977V20.0977L29.0368 24.5977Z" fill="white"/>
</svg>
