<svg width="113" height="27" viewBox="0 0 113 27" fill="none" xmlns="http://www.w3.org/2000/svg">
<path d="M59.8269 6.16445C58.9588 6.16445 58.227 5.86714 57.6483 5.28186C57.0743 4.71298 56.7538 3.92871 56.7682 3.12805C56.7682 2.27355 57.0647 1.55016 57.6483 0.976587C58.2246 0.391314 58.9564 0.0939941 59.8245 0.0939941C60.6831 0.0939941 61.4149 0.391314 62.0032 0.976587C62.5868 1.56888 62.8833 2.29228 62.8833 3.12805C62.8737 3.9849 62.5772 4.70829 62.0032 5.27952C61.4269 5.86948 60.6951 6.16445 59.8269 6.16445ZM33.9961 6.16445C33.1471 6.16445 32.4105 5.87182 31.8079 5.29357C31.21 4.71766 30.9062 3.98958 30.9062 3.1304C30.9062 2.27121 31.21 1.54313 31.8079 0.967223C32.3986 0.388973 33.1351 0.0963354 33.9961 0.0963354C34.417 0.0963354 34.826 0.178274 35.2182 0.344492C35.6032 0.506027 35.9165 0.72609 36.1485 0.995316L36.2059 1.06321L35.5578 1.68594L35.4908 1.60868C35.1249 1.1826 34.6346 0.974246 33.9865 0.974246C33.4078 0.974246 32.9032 1.17558 32.487 1.57357C32.0685 1.97389 31.8557 2.4983 31.8557 3.13274C31.8557 3.76717 32.0685 4.29158 32.487 4.69191C32.9032 5.08989 33.4078 5.29123 33.9865 5.29123C34.6035 5.29123 35.1225 5.08989 35.5267 4.69191C35.7658 4.4578 35.9141 4.13004 35.9667 3.71567H33.8885V2.8401H36.8587L36.8707 2.9197C36.8922 3.06719 36.9138 3.21936 36.9138 3.35982C36.9138 4.1675 36.665 4.82067 36.1724 5.30293C35.6128 5.87416 34.881 6.16445 33.9961 6.16445ZM68.3408 6.04038H67.4248L64.6195 1.64614L64.6435 2.43743V6.03804H63.7275V0.220414H64.7726L64.8013 0.264895L67.4391 4.40395L67.4152 3.615V0.220414H68.3408V6.04038V6.04038ZM52.9441 6.04038H52.0162V1.09598H50.4067V0.220414H54.5512V1.09598H52.9417V6.04038H52.9441ZM49.651 6.04038H48.7255V0.220414H49.651V6.04038ZM44.4494 6.04038H43.5239V1.09598H41.9144V0.220414H46.0589V1.09598H44.4494V6.04038ZM41.3285 6.03101H37.7795V0.220414H41.3285V1.09598H38.7074V2.69261H41.0726V3.55882H38.7074V5.15544H41.3285V6.03101ZM58.3274 4.6802C58.7412 5.08521 59.2434 5.28889 59.8269 5.28889C60.4272 5.28889 60.9175 5.08989 61.3264 4.6802C61.733 4.28221 61.9386 3.76015 61.9386 3.1304C61.9386 2.50064 61.733 1.97623 61.3288 1.58059C60.9151 1.17558 60.4105 0.971905 59.8293 0.971905C59.2291 0.971905 58.7388 1.1709 58.3322 1.58059C57.9257 1.97858 57.72 2.50064 57.72 3.1304C57.72 3.76015 57.9233 4.28456 58.3274 4.6802Z" fill="white"/>
<path fill-rule="evenodd" clip-rule="evenodd" d="M57.0811 14.6998C54.8022 14.6998 52.9549 16.3989 52.9549 18.7426C52.9549 21.065 54.8142 22.7854 57.0811 22.7854C59.36 22.7854 61.2072 21.0744 61.2072 18.7426C61.2072 16.3989 59.36 14.6998 57.0811 14.6998ZM57.0811 21.1835C55.8343 21.1835 54.7612 20.1692 54.7612 18.7331C54.7612 17.2757 55.8367 16.2828 57.0811 16.2828C58.3278 16.2828 59.401 17.2757 59.401 18.7331C59.4034 20.1787 58.3278 21.1835 57.0811 21.1835ZM48.0788 14.6998C45.7999 14.6998 43.9527 16.3989 43.9527 18.7426C43.9527 21.065 45.812 22.7854 48.0788 22.7854C50.3577 22.7854 52.2049 21.0744 52.2049 18.7426C52.2049 16.3989 50.3553 14.6998 48.0788 14.6998ZM48.0788 21.1835C46.832 21.1835 45.7589 20.1692 45.7589 18.7331C45.7589 17.2757 46.8344 16.2828 48.0788 16.2828C49.3256 16.2828 50.3987 17.2757 50.3987 18.7331C50.3987 20.1787 49.3256 21.1835 48.0788 21.1835ZM37.3668 15.9344V17.6454H41.5459C41.4181 18.6051 41.095 19.3137 40.6006 19.7995C39.9881 20.4014 39.0428 21.0555 37.3764 21.0555C34.8081 21.0555 32.7993 19.0175 32.7993 16.4937C32.7993 13.9699 34.8081 11.9319 37.3764 11.9319C38.763 11.9319 39.7735 12.4698 40.5235 13.157L41.7582 11.9437C40.7164 10.9626 39.3297 10.2114 37.386 10.2114C33.8628 10.2114 30.9062 13.0315 30.9062 16.4842C30.9062 19.9464 33.8604 22.757 37.386 22.757C39.2887 22.757 40.7164 22.1456 41.845 20.9939C42.9953 19.8635 43.3594 18.2686 43.3594 16.9819C43.3594 16.5814 43.3281 16.2212 43.263 15.9155H37.3643C37.3668 15.9131 37.3668 15.9344 37.3668 15.9344ZM81.1819 17.2662C80.8371 16.3586 79.7953 14.6903 77.6587 14.6903C75.5414 14.6903 73.7809 16.3278 73.7809 18.7331C73.7809 21.0034 75.5221 22.7759 77.8637 22.7759C79.7447 22.7759 80.8395 21.6456 81.2905 20.982L79.8942 20.0626C79.4312 20.7379 78.7873 21.1811 77.8733 21.1811C76.9497 21.1811 76.3034 20.7687 75.8742 19.9559L81.3749 17.7165C81.3749 17.7189 81.1819 17.2662 81.1819 17.2662ZM75.5727 18.617C75.5293 17.0553 76.8074 16.2614 77.7214 16.2614C78.4424 16.2614 79.0429 16.6098 79.2479 17.1169L75.5727 18.617ZM71.1041 22.5342H72.9104V10.6569H71.1041V22.5342ZM68.138 15.5979H68.0728C67.6653 15.1216 66.8912 14.6903 65.9025 14.6903C63.8502 14.6903 61.9596 16.4652 61.9596 18.745C61.9596 21.0152 63.8406 22.7688 65.9025 22.7688C66.8791 22.7688 67.6653 22.3352 68.0728 21.8494H68.138V22.43C68.138 23.9727 67.2987 24.8045 65.9459 24.8045C64.839 24.8045 64.1517 24.0224 63.8719 23.3684L62.302 24.013C62.753 25.0794 63.9564 26.3993 65.9435 26.3993C68.0608 26.3993 69.855 25.1742 69.855 22.1859V14.932H68.1476V15.5979C68.15 15.5979 68.138 15.5979 68.138 15.5979ZM66.064 21.1835C64.8173 21.1835 63.7755 20.1597 63.7755 18.745C63.7755 17.3184 64.8173 16.2851 66.064 16.2851C67.2987 16.2851 68.2561 17.3302 68.2561 18.745C68.2682 20.1597 67.3012 21.1835 66.064 21.1835ZM89.6392 10.6569H85.3201V22.5342H87.1264V18.0364H89.6416C91.6408 18.0364 93.6062 16.6122 93.6062 14.3514C93.6062 12.0907 91.648 10.6569 89.6392 10.6569ZM89.6923 16.3776H87.124V12.3016H89.6923C91.0451 12.3016 91.8096 13.3988 91.8096 14.3396C91.8096 15.2709 91.0355 16.3776 89.6923 16.3776ZM100.846 14.6784C99.5337 14.6784 98.1809 15.2496 97.6214 16.4937L99.2226 17.1477C99.5675 16.4937 100.199 16.2709 100.867 16.2709C101.803 16.2709 102.748 16.8207 102.77 17.8018V17.9274C102.447 17.7473 101.738 17.4724 100.889 17.4724C99.16 17.4724 97.4068 18.4013 97.4068 20.1431C97.4068 21.738 98.8247 22.7617 100.404 22.7617C101.617 22.7617 102.285 22.2238 102.702 21.6005H102.768V22.52H104.509V17.9701C104.509 15.8515 102.907 14.6784 100.846 14.6784ZM100.619 21.1835C100.028 21.1835 99.2009 20.8991 99.2009 20.1692C99.2009 19.2497 100.233 18.9014 101.113 18.9014C101.909 18.9014 102.285 19.0696 102.758 19.3019C102.628 20.3683 101.711 21.174 100.619 21.1835ZM110.861 14.932L108.787 20.0839H108.722L106.573 14.932H104.629L107.854 22.1337L106.016 26.1363H107.897L112.857 14.932H110.861ZM94.6021 22.5342H96.4084V10.6569H94.6021V22.5342Z" fill="white"/>
<path fill-rule="evenodd" clip-rule="evenodd" d="M0.717008 0.847358C0.435837 1.15228 0.273438 1.61821 0.273438 2.22806V23.8582C0.273438 24.4681 0.435837 24.934 0.726703 25.2267L0.801843 25.2926L12.8437 13.1736V12.9029L0.792148 0.781494L0.717008 0.847358Z" fill="url(#paint0_linear_558_19012)"/>
<path fill-rule="evenodd" clip-rule="evenodd" d="M16.8489 17.2228L12.8325 13.1808V12.8978L16.8489 8.85571L16.9362 8.90938L21.687 11.6269C23.0468 12.3977 23.0468 13.6711 21.687 14.4517L16.9362 17.1692L16.8489 17.2228Z" fill="url(#paint1_linear_558_19012)"/>
<path fill-rule="evenodd" clip-rule="evenodd" d="M16.9355 17.1709L12.8318 13.041L0.714844 25.2356C1.15841 25.7137 1.90255 25.7674 2.73394 25.3014L16.9355 17.1709Z" fill="url(#paint2_linear_558_19012)"/>
<path fill-rule="evenodd" clip-rule="evenodd" d="M16.9355 8.91101L2.73394 0.792687C1.90255 0.314565 1.15599 0.380429 0.714844 0.858552L12.8318 13.0409L16.9355 8.91101Z" fill="url(#paint3_linear_558_19012)"/>
<defs>
<linearGradient id="paint0_linear_558_19012" x1="11.7636" y1="1.99469" x2="-7.54163" y2="7.10586" gradientUnits="userSpaceOnUse">
<stop stop-color="#00A0FF"/>
<stop offset="0.00657" stop-color="#00A1FF"/>
<stop offset="0.2601" stop-color="#00BEFF"/>
<stop offset="0.5122" stop-color="#00D2FF"/>
<stop offset="0.7604" stop-color="#00DFFF"/>
<stop offset="1" stop-color="#00E3FF"/>
</linearGradient>
<linearGradient id="paint1_linear_558_19012" x1="23.4603" y1="13.0393" x2="-0.058536" y2="13.0393" gradientUnits="userSpaceOnUse">
<stop stop-color="#FFE000"/>
<stop offset="0.4087" stop-color="#FFBD00"/>
<stop offset="0.7754" stop-color="#FFA500"/>
<stop offset="1" stop-color="#FF9C00"/>
</linearGradient>
<linearGradient id="paint2_linear_558_19012" x1="14.7041" y1="15.2883" x2="-0.927502" y2="41.4302" gradientUnits="userSpaceOnUse">
<stop stop-color="#FF3A44"/>
<stop offset="1" stop-color="#C31162"/>
</linearGradient>
<linearGradient id="paint3_linear_558_19012" x1="-2.33635" y1="-6.34818" x2="4.63757" y2="5.32727" gradientUnits="userSpaceOnUse">
<stop stop-color="#32A071"/>
<stop offset="0.0685" stop-color="#2DA771"/>
<stop offset="0.4762" stop-color="#15CF74"/>
<stop offset="0.8009" stop-color="#06E775"/>
<stop offset="1" stop-color="#00F076"/>
</linearGradient>
</defs>
</svg>
