<svg width="314" height="473" viewBox="0 0 314 473" fill="none" xmlns="http://www.w3.org/2000/svg">
<g clip-path="url(#clip0_455_18621)">
<path fill-rule="evenodd" clip-rule="evenodd" d="M9 392.781C9 379.094 20.0935 368 33.7813 368C47.4691 368 58.5626 379.094 58.5626 392.781C58.5626 406.469 47.4691 417.563 33.7813 417.563C20.0935 417.563 9 406.469 9 392.781ZM48.6307 400.264C49.2696 397.834 49.2696 392.81 49.2696 392.81C49.2696 392.81 49.289 387.757 48.6307 385.337C48.2726 384.011 47.2271 382.966 45.9009 382.607C43.4712 381.939 33.7813 381.939 33.7813 381.939C33.7813 381.939 24.0914 381.939 21.6617 382.578C20.3646 382.937 19.2901 384.011 18.9319 385.337C18.293 387.757 18.293 392.781 18.293 392.781C18.293 392.781 18.293 397.834 18.9319 400.225C19.2901 401.552 20.3355 402.597 21.6617 402.955C24.1108 403.623 33.7813 403.623 33.7813 403.623C33.7813 403.623 43.4712 403.623 45.9009 402.994C47.2271 402.636 48.2726 401.59 48.6307 400.264ZM38.7564 392.781L30.6928 397.428V388.135L38.7564 392.781Z" fill="#3F3F3F"/>
</g>
<path d="M115.781 353C102.095 353 90.9998 364.095 90.9998 377.781C90.9998 391.468 102.095 402.563 115.781 402.563C129.468 402.563 140.562 391.468 140.562 377.781C140.562 364.095 129.468 353 115.781 353ZM121.651 370.125H117.926C117.485 370.125 116.994 370.706 116.994 371.478V374.167H121.654L120.949 378.003H116.994V389.519H112.598V378.003H108.61V374.167H112.598V371.911C112.598 368.674 114.844 366.044 117.926 366.044H121.651V370.125Z" fill="#3F3F3F"/>
<g filter="url(#filter0_d_455_18621)">
<circle cx="75.7814" cy="342.781" r="24.7812" fill="#121212"/>
</g>
<path d="M83.5255 342.781C83.5255 344.835 82.7096 346.805 81.2573 348.257C79.805 349.71 77.8352 350.525 75.7813 350.525C73.7274 350.525 71.7577 349.71 70.3054 348.257C68.8531 346.805 68.0372 344.835 68.0372 342.781C68.0372 342.34 68.0836 341.909 68.1636 341.491H65.4558V351.808C65.4558 352.526 66.0366 353.107 66.7542 353.107H84.811C85.1549 353.106 85.4845 352.969 85.7275 352.726C85.9704 352.482 86.1069 352.152 86.1069 351.808V341.491H83.399C83.479 341.909 83.5255 342.34 83.5255 342.781ZM75.7813 347.944C76.4595 347.944 77.131 347.81 77.7574 347.551C78.3839 347.291 78.9531 346.91 79.4325 346.431C79.9119 345.951 80.2921 345.382 80.5515 344.755C80.8109 344.128 80.9443 343.457 80.9441 342.779C80.9439 342.101 80.8102 341.429 80.5505 340.803C80.2908 340.176 79.9103 339.607 79.4307 339.128C78.951 338.648 78.3816 338.268 77.755 338.009C77.1284 337.749 76.4569 337.616 75.7787 337.616C74.4091 337.616 73.0958 338.161 72.1276 339.129C71.1594 340.098 70.6156 341.412 70.616 342.781C70.6163 344.151 71.1607 345.464 72.1294 346.432C73.0981 347.401 74.4117 347.944 75.7813 347.944ZM81.9766 337.36H85.0717C85.2774 337.36 85.4746 337.279 85.6202 337.134C85.7659 336.989 85.848 336.792 85.8487 336.586V333.491C85.8487 333.285 85.7669 333.087 85.6212 332.941C85.4754 332.796 85.2778 332.714 85.0717 332.714H81.9766C81.7706 332.714 81.5729 332.796 81.4272 332.941C81.2815 333.087 81.1996 333.285 81.1996 333.491V336.586C81.2022 337.012 81.5507 337.36 81.9766 337.36ZM75.7813 318C69.2089 318 62.9057 320.611 58.2583 325.258C53.6109 329.906 51 336.209 51 342.781C51 349.354 53.6109 355.657 58.2583 360.304C62.9057 364.952 69.2089 367.563 75.7813 367.563C79.0356 367.563 82.2581 366.922 85.2647 365.676C88.2713 364.431 91.0032 362.606 93.3044 360.304C95.6055 358.003 97.4309 355.271 98.6763 352.265C99.9216 349.258 100.563 346.036 100.563 342.781C100.563 339.527 99.9216 336.305 98.6763 333.298C97.4309 330.291 95.6055 327.559 93.3044 325.258C91.0032 322.957 88.2713 321.132 85.2647 319.886C82.2581 318.641 79.0356 318 75.7813 318ZM88.6883 352.82C88.6883 354.398 87.3976 355.688 85.8203 355.688H65.7423C64.1651 355.688 62.8744 354.398 62.8744 352.82V332.742C62.8744 331.165 64.1651 329.874 65.7423 329.874H85.8203C87.3976 329.874 88.6883 331.165 88.6883 332.742V352.82Z" fill="#3F3F3F"/>
<path fill-rule="evenodd" clip-rule="evenodd" d="M110.781 327.563C124.468 327.563 135.563 316.468 135.563 302.781C135.563 289.095 124.468 278 110.781 278C97.095 278 86 289.095 86 302.781C86 316.468 97.095 327.563 110.781 327.563ZM117.344 296.723C118.359 297.489 119.624 297.943 120.994 297.943C120.995 297.943 121.005 297.943 121.005 297.942V298.997V301.839C119.665 301.84 118.363 301.577 117.134 301.059C116.344 300.725 115.609 300.296 114.936 299.776L114.956 308.526C114.947 310.496 114.168 312.347 112.757 313.742C111.609 314.877 110.154 315.599 108.577 315.832C108.207 315.887 107.83 315.915 107.448 315.915C105.761 315.915 104.158 315.368 102.847 314.359C102.6 314.17 102.365 313.964 102.14 313.742C100.611 312.231 99.8226 310.183 99.9553 308.028C100.057 306.388 100.713 304.824 101.808 303.598C103.256 301.976 105.282 301.075 107.448 301.075C107.83 301.075 108.207 301.104 108.577 301.159V302.21V305.133C108.226 305.018 107.851 304.954 107.46 304.954C105.481 304.954 103.88 306.568 103.909 308.549C103.928 309.816 104.62 310.924 105.641 311.535C106.121 311.822 106.673 311.999 107.262 312.032C107.724 312.057 108.167 311.993 108.577 311.857C109.991 311.39 111.011 310.062 111.011 308.496L111.016 302.636V291.94H114.931C114.935 292.327 114.974 292.706 115.047 293.073C115.343 294.557 116.179 295.845 117.344 296.723ZM121.005 297.942C121.005 297.942 121.005 297.942 121.005 297.942V297.942Z" fill="#3F3F3F"/>
<path d="M4 425C74.136 425 227.446 422.413 310 225" stroke="url(#paint0_linear_455_18621)" stroke-width="8" stroke-linecap="round"/>
<g clip-path="url(#clip1_455_18621)">
<line x1="157.5" y1="-35.0009" x2="158.398" y2="467.999" stroke="url(#paint1_linear_455_18621)" stroke-dasharray="10 10"/>
</g>
<defs>
<filter id="filter0_d_455_18621" x="33.0001" y="313" width="85.5624" height="85.5625" filterUnits="userSpaceOnUse" color-interpolation-filters="sRGB">
<feFlood flood-opacity="0" result="BackgroundImageFix"/>
<feColorMatrix in="SourceAlpha" type="matrix" values="0 0 0 0 0 0 0 0 0 0 0 0 0 0 0 0 0 0 127 0" result="hardAlpha"/>
<feOffset dy="13"/>
<feGaussianBlur stdDeviation="9"/>
<feColorMatrix type="matrix" values="0 0 0 0 0.0658854 0 0 0 0 0.0730469 0 0 0 0 0.1375 0 0 0 0.08 0"/>
<feBlend mode="normal" in2="BackgroundImageFix" result="effect1_dropShadow_455_18621"/>
<feBlend mode="normal" in="SourceGraphic" in2="effect1_dropShadow_455_18621" result="shape"/>
</filter>
<linearGradient id="paint0_linear_455_18621" x1="9.10001" y1="271.512" x2="336.846" y2="378.64" gradientUnits="userSpaceOnUse">
<stop stop-color="#F24D42"/>
<stop offset="0.379199" stop-color="#ED2CCE"/>
<stop offset="0.737996" stop-color="#B84AEA"/>
<stop offset="1" stop-color="#8E61FF"/>
</linearGradient>
<linearGradient id="paint1_linear_455_18621" x1="174.582" y1="10.2565" x2="174.254" y2="478.524" gradientUnits="userSpaceOnUse">
<stop stop-color="#DA37D8" stop-opacity="0"/>
<stop offset="0.296875" stop-color="#DA37D8"/>
<stop offset="0.671875" stop-color="#DA37D8"/>
<stop offset="1" stop-color="#DA37D8" stop-opacity="0"/>
</linearGradient>
<clipPath id="clip0_455_18621">
<rect width="49.5626" height="49.5626" fill="white" transform="translate(9 368)"/>
</clipPath>
<clipPath id="clip1_455_18621">
<rect width="1" height="473" fill="white" transform="translate(158)"/>
</clipPath>
</defs>
</svg>
