<svg width="201" height="201" viewBox="0 0 201 201" fill="none" xmlns="http://www.w3.org/2000/svg">
<path fill-rule="evenodd" clip-rule="evenodd" d="M153.489 58.9236C155.44 59.5224 158.416 62.4713 159.239 64.6215C160.193 67.1128 160.097 70.349 159.004 72.6068C157.776 75.1409 93.5728 138.833 90.6623 140.404C87.8759 141.907 84.5852 141.907 81.7945 140.404C80.1423 139.513 50.5688 113.041 45.5409 107.952C43.5778 105.965 42.6012 103.538 42.6374 100.74C42.7147 94.8404 47.0191 90.8612 52.8704 91.2795C54.2745 91.3801 55.9856 91.7527 56.6724 92.1075C57.7111 92.6442 77.4281 110.359 83.7977 116.478L85.6562 118.263L114.805 89.1734C130.838 73.1739 144.52 59.8011 145.21 59.4561C147.913 58.1046 150.316 57.9499 153.489 58.9236Z" fill="black"/>
<path fill-rule="evenodd" clip-rule="evenodd" d="M153.489 58.9236C155.44 59.5224 158.416 62.4713 159.239 64.6215C160.193 67.1128 160.097 70.349 159.004 72.6068C157.776 75.1409 93.5728 138.833 90.6623 140.404C87.8759 141.907 84.5852 141.907 81.7945 140.404C80.1423 139.513 50.5688 113.041 45.5409 107.952C43.5778 105.965 42.6012 103.538 42.6374 100.74C42.7147 94.8404 47.0191 90.8612 52.8704 91.2795C54.2745 91.3801 55.9856 91.7527 56.6724 92.1075C57.7111 92.6442 77.4281 110.359 83.7977 116.478L85.6562 118.263L114.805 89.1734C130.838 73.1739 144.52 59.8011 145.21 59.4561C147.913 58.1046 150.316 57.9499 153.489 58.9236Z" fill="url(#paint0_linear_1946_35947)"/>
<circle cx="100.5" cy="100.5" r="99.5" stroke="url(#paint1_linear_1946_35947)" stroke-width="2" stroke-dasharray="10 10"/>
<defs>
<linearGradient id="paint0_linear_1946_35947" x1="63.56" y1="58.2988" x2="164.355" y2="97.0111" gradientUnits="userSpaceOnUse">
<stop stop-color="#ED2CCE"/>
<stop offset="0.578125" stop-color="#B84AEA"/>
<stop offset="1" stop-color="#8E61FF"/>
</linearGradient>
<linearGradient id="paint1_linear_1946_35947" x1="35.8666" y1="1.25709e-05" x2="220.416" y2="50.3126" gradientUnits="userSpaceOnUse">
<stop stop-color="#ED2CCE"/>
<stop offset="0.578125" stop-color="#B84AEA"/>
<stop offset="1" stop-color="#8E61FF"/>
</linearGradient>
</defs>
</svg>
