<svg width="84" height="83" viewBox="0 0 84 83" fill="none" xmlns="http://www.w3.org/2000/svg">
<path fill-rule="evenodd" clip-rule="evenodd" d="M65.8809 26.3315C66.6865 26.5787 67.9155 27.7964 68.2554 28.6843C68.6492 29.7131 68.6097 31.0494 68.1581 31.9817C67.6512 33.0282 41.1393 59.3287 39.9375 59.9774C38.7869 60.5984 37.4281 60.5984 36.2757 59.9774C35.5935 59.6098 23.3815 48.6785 21.3053 46.5769C20.4947 45.7565 20.0914 44.7545 20.1064 43.599C20.1382 41.1628 21.9157 39.5197 24.3319 39.6924C24.9117 39.7339 25.6183 39.8878 25.9019 40.0343C26.3308 40.2559 34.4726 47.5711 37.1029 50.0979L37.8703 50.835L49.9071 38.8227C56.5274 32.2159 62.1772 26.6938 62.4622 26.5514C63.5782 25.9933 64.5708 25.9294 65.8809 26.3315Z" fill="white"/>
<circle cx="42" cy="41.5" r="40.5" stroke="white" stroke-width="2" stroke-dasharray="6 6"/>
</svg>
