<svg width="1642" height="727" viewBox="0 0 1642 727" fill="none" xmlns="http://www.w3.org/2000/svg">
<g clip-path="url(#clip0_460_18638)">
<rect width="1642" height="666" fill="#F11DCF"/>
<g filter="url(#filter0_f_460_18638)">
<path d="M-360 704.785L1653.08 1080.67L1800.1 626.507C1672.22 642.987 1432.37 593.774 1219.64 584.15C953.723 572.12 556.907 400.256 386.076 314.314C249.411 245.56 -22.7521 96.511 -164.496 100.845L-360 704.785Z" fill="url(#paint0_linear_460_18638)"/>
</g>
<path d="M982 600C982 508.873 1055.87 435 1147 435V435C1238.13 435 1312 508.873 1312 600V1185H982V600Z" fill="url(#paint1_linear_460_18638)"/>
<path d="M982 600C982 508.873 1055.87 435 1147 435V435C1238.13 435 1312 508.873 1312 600V1185H982V600Z" fill="url(#paint2_linear_460_18638)"/>
<path d="M1181 129.5C1181 57.9791 1238.98 0 1310.5 0H1315C1384.04 0 1440 55.9644 1440 125V125C1440 194.036 1384.04 250 1315 250H1181V129.5Z" fill="#9301B8"/>
<path d="M1312 600C1312 508.873 1385.87 435 1477 435V435C1568.13 435 1642 508.873 1642 600V1185H1312V600Z" fill="url(#paint3_linear_460_18638)"/>
<path d="M1312 600C1312 508.873 1385.87 435 1477 435V435C1568.13 435 1642 508.873 1642 600V1185H1312V600Z" fill="url(#paint4_linear_460_18638)"/>
<path d="M990 536C990 627.127 916.127 701 825 701V701C733.873 701 660 627.127 660 536L660 -156L990 -156L990 536Z" fill="url(#paint5_linear_460_18638)"/>
<path d="M990 536C990 627.127 916.127 701 825 701V701C733.873 701 660 627.127 660 536L660 -156L990 -156L990 536Z" fill="url(#paint6_linear_460_18638)"/>
<path d="M990 536C990 627.127 916.127 701 825 701V701C733.873 701 660 627.127 660 536L660 -156L990 -156L990 536Z" fill="url(#paint7_linear_460_18638)"/>
<path d="M660 536C660 627.127 586.127 701 495 701V701C403.873 701 330 627.127 330 536L330 -156L660 -156L660 536Z" fill="url(#paint8_linear_460_18638)"/>
<path d="M660 536C660 627.127 586.127 701 495 701V701C403.873 701 330 627.127 330 536L330 -156L660 -156L660 536Z" fill="url(#paint9_linear_460_18638)"/>
<path d="M660 536C660 627.127 586.127 701 495 701V701C403.873 701 330 627.127 330 536L330 -156L660 -156L660 536Z" fill="url(#paint10_linear_460_18638)"/>
<path d="M660 536C660 627.127 586.127 701 495 701V701C403.873 701 330 627.127 330 536L330 -156L660 -156L660 536Z" fill="url(#paint11_linear_460_18638)"/>
<path d="M330 536C330 627.127 256.127 701 165 701V701C73.873 701 -5.53833e-05 627.127 -4.84114e-05 536L4.53192e-06 -156L330 -156L330 536Z" fill="url(#paint12_linear_460_18638)"/>
<path d="M0 -0.5C0 -88.5894 71.4106 -160 159.5 -160H170.5C258.589 -160 330 -88.5894 330 -0.5V-0.5C330 87.5894 258.589 159 170.5 159H159.5C71.4106 159 0 87.5894 0 -0.5V-0.5Z" fill="url(#paint13_linear_460_18638)"/>
</g>
<defs>
<filter id="filter0_f_460_18638" x="-440" y="20.7524" width="2320.1" height="1139.92" filterUnits="userSpaceOnUse" color-interpolation-filters="sRGB">
<feFlood flood-opacity="0" result="BackgroundImageFix"/>
<feBlend mode="normal" in="SourceGraphic" in2="BackgroundImageFix" result="shape"/>
<feGaussianBlur stdDeviation="40" result="effect1_foregroundBlur_460_18638"/>
</filter>
<linearGradient id="paint0_linear_460_18638" x1="1667.61" y1="815.983" x2="-391.114" y2="684.929" gradientUnits="userSpaceOnUse">
<stop offset="0.0129279" stop-color="#4B05AC"/>
<stop offset="0.380614" stop-color="#8D01B7"/>
<stop offset="0.61473" stop-color="#F327D2"/>
<stop offset="1" stop-color="#FF6464"/>
</linearGradient>
<linearGradient id="paint1_linear_460_18638" x1="1147" y1="435" x2="1154.16" y2="1224.15" gradientUnits="userSpaceOnUse">
<stop stop-color="#FE7557"/>
<stop offset="0.177083" stop-color="#FEAE57"/>
<stop offset="1" stop-color="#FFE39B" stop-opacity="0.58"/>
</linearGradient>
<linearGradient id="paint2_linear_460_18638" x1="1147" y1="435" x2="1154.16" y2="1224.15" gradientUnits="userSpaceOnUse">
<stop stop-color="#4305AB"/>
<stop offset="1" stop-color="#FF54E4"/>
</linearGradient>
<linearGradient id="paint3_linear_460_18638" x1="1477" y1="435" x2="1484.16" y2="1224.15" gradientUnits="userSpaceOnUse">
<stop stop-color="#FE7557"/>
<stop offset="0.177083" stop-color="#FEAE57"/>
<stop offset="1" stop-color="#FFE39B" stop-opacity="0.58"/>
</linearGradient>
<linearGradient id="paint4_linear_460_18638" x1="1477" y1="435" x2="1484.16" y2="1224.15" gradientUnits="userSpaceOnUse">
<stop stop-color="#4305AB"/>
<stop offset="1" stop-color="#FF54E4"/>
</linearGradient>
<linearGradient id="paint5_linear_460_18638" x1="825" y1="701" x2="815.645" y2="-200.712" gradientUnits="userSpaceOnUse">
<stop stop-color="#FED957"/>
<stop offset="0.177083" stop-color="#FEAE57"/>
<stop offset="1" stop-color="#FFE39B" stop-opacity="0.58"/>
</linearGradient>
<linearGradient id="paint6_linear_460_18638" x1="825" y1="701" x2="815.645" y2="-200.712" gradientUnits="userSpaceOnUse">
<stop stop-color="#4305AB"/>
<stop offset="1" stop-color="#FF54E4"/>
</linearGradient>
<linearGradient id="paint7_linear_460_18638" x1="825" y1="701" x2="815.645" y2="-200.712" gradientUnits="userSpaceOnUse">
<stop stop-color="#D124C0"/>
<stop offset="1" stop-color="#F13D3D"/>
</linearGradient>
<linearGradient id="paint8_linear_460_18638" x1="495" y1="701" x2="485.645" y2="-200.712" gradientUnits="userSpaceOnUse">
<stop stop-color="#FE7557"/>
<stop offset="0.177083" stop-color="#FEAE57"/>
<stop offset="1" stop-color="#FFE39B" stop-opacity="0.58"/>
</linearGradient>
<linearGradient id="paint9_linear_460_18638" x1="495" y1="701" x2="485.645" y2="-200.712" gradientUnits="userSpaceOnUse">
<stop stop-color="#FED957"/>
<stop offset="0.177083" stop-color="#FEAE57"/>
<stop offset="1" stop-color="#FFE39B" stop-opacity="0.58"/>
</linearGradient>
<linearGradient id="paint10_linear_460_18638" x1="495" y1="701" x2="485.645" y2="-200.712" gradientUnits="userSpaceOnUse">
<stop stop-color="#4305AB"/>
<stop offset="1" stop-color="#FF54E4"/>
</linearGradient>
<linearGradient id="paint11_linear_460_18638" x1="495" y1="701" x2="485.645" y2="-200.712" gradientUnits="userSpaceOnUse">
<stop stop-color="#D124C0"/>
<stop offset="1" stop-color="#F13D3D"/>
</linearGradient>
<linearGradient id="paint12_linear_460_18638" x1="165" y1="701" x2="155.645" y2="-200.712" gradientUnits="userSpaceOnUse">
<stop stop-color="#D124C0"/>
<stop offset="1" stop-color="#F13D3D"/>
</linearGradient>
<linearGradient id="paint13_linear_460_18638" x1="165" y1="-160" x2="166.296" y2="175.674" gradientUnits="userSpaceOnUse">
<stop stop-color="#F42FD5"/>
<stop offset="1" stop-color="#7D32F5"/>
</linearGradient>
<clipPath id="clip0_460_18638">
<rect width="1642" height="727" fill="white"/>
</clipPath>
</defs>
</svg>
