<svg width="201" height="201" viewBox="0 0 201 201" fill="none" xmlns="http://www.w3.org/2000/svg">
<path fill-rule="evenodd" clip-rule="evenodd" d="M62.296 68.2839C57.9147 69.3278 55.1574 73.7256 56.2635 77.9055C56.6012 79.1819 57.235 80.322 58.0986 81.2065C58.8696 81.9963 95.4775 106.088 96.8171 106.687C98.8593 107.601 101.293 107.568 103.377 106.597C105.013 105.836 140.876 82.2122 141.786 81.2962C146.067 76.9914 143.731 69.6942 137.618 68.2761C136.01 67.903 63.8639 67.9104 62.296 68.2839ZM56 105.969C56 119.67 56.0577 125.956 56.1894 126.579C56.8191 129.561 59.2716 131.992 62.3749 132.712C63.9938 133.088 135.71 133.099 137.509 132.724C140.636 132.072 143.165 129.604 143.804 126.579C144.022 125.547 144.081 86.2184 143.864 86.3131C143.793 86.3441 135.482 91.7908 125.395 98.417C115.308 105.043 106.502 110.739 105.826 111.074C103.926 112.015 102.316 112.375 99.9966 112.375C97.6775 112.375 96.0668 112.015 94.167 111.074C93.4913 110.739 84.6852 105.043 74.598 98.417C64.5109 91.7908 56.1999 86.3441 56.1289 86.3131C56.0579 86.282 56 95.1275 56 105.969Z" fill="black"/>
<path fill-rule="evenodd" clip-rule="evenodd" d="M62.296 68.2839C57.9147 69.3278 55.1574 73.7256 56.2635 77.9055C56.6012 79.1819 57.235 80.322 58.0986 81.2065C58.8696 81.9963 95.4775 106.088 96.8171 106.687C98.8593 107.601 101.293 107.568 103.377 106.597C105.013 105.836 140.876 82.2122 141.786 81.2962C146.067 76.9914 143.731 69.6942 137.618 68.2761C136.01 67.903 63.8639 67.9104 62.296 68.2839ZM56 105.969C56 119.67 56.0577 125.956 56.1894 126.579C56.8191 129.561 59.2716 131.992 62.3749 132.712C63.9938 133.088 135.71 133.099 137.509 132.724C140.636 132.072 143.165 129.604 143.804 126.579C144.022 125.547 144.081 86.2184 143.864 86.3131C143.793 86.3441 135.482 91.7908 125.395 98.417C115.308 105.043 106.502 110.739 105.826 111.074C103.926 112.015 102.316 112.375 99.9966 112.375C97.6775 112.375 96.0668 112.015 94.167 111.074C93.4913 110.739 84.6852 105.043 74.598 98.417C64.5109 91.7908 56.1999 86.3441 56.1289 86.3131C56.0579 86.282 56 95.1275 56 105.969Z" fill="url(#paint0_linear_1946_35709)"/>
<circle cx="100.5" cy="100.5" r="99.5" stroke="url(#paint1_linear_1946_35709)" stroke-width="2" stroke-dasharray="10 10"/>
<defs>
<linearGradient id="paint0_linear_1946_35709" x1="71.7028" y1="68" x2="148.099" y2="96.197" gradientUnits="userSpaceOnUse">
<stop stop-color="#ED2CCE"/>
<stop offset="0.578125" stop-color="#B84AEA"/>
<stop offset="1" stop-color="#8E61FF"/>
</linearGradient>
<linearGradient id="paint1_linear_1946_35709" x1="35.8666" y1="1.25709e-05" x2="220.416" y2="50.3126" gradientUnits="userSpaceOnUse">
<stop stop-color="#ED2CCE"/>
<stop offset="0.578125" stop-color="#B84AEA"/>
<stop offset="1" stop-color="#8E61FF"/>
</linearGradient>
</defs>
</svg>
