<svg width="383" height="792" viewBox="0 0 383 792" fill="none" xmlns="http://www.w3.org/2000/svg">
<mask id="path-1-inside-1_274_14603" fill="white">
<path fill-rule="evenodd" clip-rule="evenodd" d="M6.32162 31.6686C0 44.0754 0 60.317 0 92.8V699.2C0 731.683 0 747.925 6.32162 760.331C11.8823 771.245 20.7551 780.118 31.6686 785.678C44.0754 792 60.3169 792 92.8 792H290.2C322.683 792 338.925 792 351.331 785.678C362.245 780.118 371.118 771.245 376.678 760.331C383 747.925 383 731.683 383 699.2V92.8C383 60.317 383 44.0754 376.678 31.6686C371.118 20.7551 362.245 11.8823 351.331 6.32162C338.925 0 322.683 0 290.2 0H92.8C60.317 0 44.0754 0 31.6686 6.32162C20.7551 11.8823 11.8823 20.7551 6.32162 31.6686ZM16 86.3786C16 61.7435 16 49.4259 20.7904 40.0166C25.0042 31.7398 31.7279 25.0107 39.9978 20.7935C48.8489 16.2799 60.2754 16.0156 82.1221 16.0001C83.0736 15.9994 83.5494 15.9991 83.9314 16.1286C84.6504 16.3724 85.2158 16.9379 85.4599 17.6573C85.5896 18.0394 85.5896 18.5133 85.5896 19.461V19.4611C85.5896 27.0434 85.5896 30.8345 86.6262 33.8909C88.5783 39.6463 93.0939 44.1656 98.8445 46.1192C101.898 47.1567 105.686 47.1567 113.263 47.1567H269.737C277.314 47.1567 281.102 47.1567 284.155 46.1192C289.906 44.1656 294.422 39.6463 296.374 33.8909C297.41 30.8345 297.41 27.0434 297.41 19.4611C297.41 18.5134 297.41 18.0395 297.54 17.6573C297.784 16.9379 298.35 16.3724 299.069 16.1286C299.451 15.9991 299.926 15.9994 300.878 16.0001C322.725 16.0156 334.151 16.2799 343.002 20.7935C351.272 25.0107 357.996 31.7398 362.21 40.0166C367 49.4259 367 61.7435 367 86.3786V705.62C367 730.256 367 742.573 362.21 751.983C357.996 760.259 351.272 766.989 343.002 771.206C333.6 776 321.293 776 296.678 776H86.3221C61.7071 776 49.3995 776 39.9978 771.206C31.7279 766.989 25.0042 760.259 20.7904 751.983C16 742.573 16 730.256 16 705.62V86.3786Z"/>
</mask>
<path fill-rule="evenodd" clip-rule="evenodd" d="M6.32162 31.6686C0 44.0754 0 60.317 0 92.8V699.2C0 731.683 0 747.925 6.32162 760.331C11.8823 771.245 20.7551 780.118 31.6686 785.678C44.0754 792 60.3169 792 92.8 792H290.2C322.683 792 338.925 792 351.331 785.678C362.245 780.118 371.118 771.245 376.678 760.331C383 747.925 383 731.683 383 699.2V92.8C383 60.317 383 44.0754 376.678 31.6686C371.118 20.7551 362.245 11.8823 351.331 6.32162C338.925 0 322.683 0 290.2 0H92.8C60.317 0 44.0754 0 31.6686 6.32162C20.7551 11.8823 11.8823 20.7551 6.32162 31.6686ZM16 86.3786C16 61.7435 16 49.4259 20.7904 40.0166C25.0042 31.7398 31.7279 25.0107 39.9978 20.7935C48.8489 16.2799 60.2754 16.0156 82.1221 16.0001C83.0736 15.9994 83.5494 15.9991 83.9314 16.1286C84.6504 16.3724 85.2158 16.9379 85.4599 17.6573C85.5896 18.0394 85.5896 18.5133 85.5896 19.461V19.4611C85.5896 27.0434 85.5896 30.8345 86.6262 33.8909C88.5783 39.6463 93.0939 44.1656 98.8445 46.1192C101.898 47.1567 105.686 47.1567 113.263 47.1567H269.737C277.314 47.1567 281.102 47.1567 284.155 46.1192C289.906 44.1656 294.422 39.6463 296.374 33.8909C297.41 30.8345 297.41 27.0434 297.41 19.4611C297.41 18.5134 297.41 18.0395 297.54 17.6573C297.784 16.9379 298.35 16.3724 299.069 16.1286C299.451 15.9991 299.926 15.9994 300.878 16.0001C322.725 16.0156 334.151 16.2799 343.002 20.7935C351.272 25.0107 357.996 31.7398 362.21 40.0166C367 49.4259 367 61.7435 367 86.3786V705.62C367 730.256 367 742.573 362.21 751.983C357.996 760.259 351.272 766.989 343.002 771.206C333.6 776 321.293 776 296.678 776H86.3221C61.7071 776 49.3995 776 39.9978 771.206C31.7279 766.989 25.0042 760.259 20.7904 751.983C16 742.573 16 730.256 16 705.62V86.3786Z" fill="#212121"/>
<path d="M6.32162 31.6686L5.87612 31.4416L6.32162 31.6686ZM6.32162 760.331L6.76713 760.104L6.76713 760.104L6.32162 760.331ZM31.6686 785.678L31.4416 786.124L31.4416 786.124L31.6686 785.678ZM351.331 785.678L351.558 786.124L351.558 786.124L351.331 785.678ZM376.678 760.331L376.233 760.104L376.233 760.104L376.678 760.331ZM376.678 31.6686L376.233 31.8955L376.233 31.8955L376.678 31.6686ZM351.331 6.32162L351.558 5.87612L351.558 5.87612L351.331 6.32162ZM31.6686 6.32162L31.4416 5.87612L31.6686 6.32162ZM20.7904 40.0166L20.3448 39.7897L20.3448 39.7897L20.7904 40.0166ZM39.9978 20.7935L40.225 21.2389L40.225 21.2389L39.9978 20.7935ZM82.1221 16.0001L82.1217 15.5001L82.1217 15.5001L82.1221 16.0001ZM83.9314 16.1286L84.092 15.6551L84.092 15.6551L83.9314 16.1286ZM85.4599 17.6573L84.9864 17.8179L84.9864 17.8179L85.4599 17.6573ZM86.6262 33.8909L87.0997 33.7303L87.0997 33.7303L86.6262 33.8909ZM98.8445 46.1192L98.6837 46.5927L98.6837 46.5927L98.8445 46.1192ZM284.155 46.1192L283.995 45.6458L283.995 45.6458L284.155 46.1192ZM296.374 33.8909L295.9 33.7303L295.9 33.7303L296.374 33.8909ZM297.54 17.6573L298.014 17.8179L298.014 17.8179L297.54 17.6573ZM299.069 16.1286L299.229 16.6021L299.229 16.6021L299.069 16.1286ZM300.878 16.0001L300.878 15.5001L300.878 15.5001L300.878 16.0001ZM343.002 20.7935L343.229 20.348L343.229 20.348L343.002 20.7935ZM362.21 40.0166L362.655 39.7897L362.655 39.7897L362.21 40.0166ZM362.21 751.983L362.655 752.209L362.655 752.209L362.21 751.983ZM343.002 771.206L342.775 770.76L342.775 770.76L343.002 771.206ZM39.9978 771.206L40.225 770.76L40.225 770.76L39.9978 771.206ZM20.7904 751.983L21.236 751.756L21.236 751.756L20.7904 751.983ZM0.5 92.8C0.5 76.5502 0.500389 64.393 1.28854 54.7464C2.07622 45.1057 3.64821 38.0168 6.76713 31.8955L5.87612 31.4416C2.67341 37.7272 1.08459 44.9625 0.291863 54.665C-0.500389 64.3617 -0.5 76.5667 -0.5 92.8H0.5ZM0.5 699.2V92.8H-0.5V699.2H0.5ZM6.76713 760.104C3.64821 753.983 2.07622 746.894 1.28854 737.254C0.500389 727.607 0.5 715.45 0.5 699.2H-0.5C-0.5 715.433 -0.500389 727.638 0.291863 737.335C1.08459 747.038 2.67341 754.273 5.87612 760.558L6.76713 760.104ZM31.8955 785.233C21.0762 779.72 12.2798 770.924 6.76713 760.104L5.87612 760.558C11.4847 771.566 20.4341 780.515 31.4416 786.124L31.8955 785.233ZM92.8 791.5C76.5502 791.5 64.393 791.5 54.7464 790.711C45.1057 789.924 38.0168 788.352 31.8955 785.233L31.4416 786.124C37.7272 789.327 44.9625 790.915 54.665 791.708C64.3617 792.5 76.5667 792.5 92.8 792.5V791.5ZM290.2 791.5H92.8V792.5H290.2V791.5ZM351.104 785.233C344.983 788.352 337.894 789.924 328.254 790.711C318.607 791.5 306.45 791.5 290.2 791.5V792.5C306.433 792.5 318.638 792.5 328.335 791.708C338.038 790.915 345.273 789.327 351.558 786.124L351.104 785.233ZM376.233 760.104C370.72 770.924 361.924 779.72 351.104 785.233L351.558 786.124C362.566 780.515 371.515 771.566 377.124 760.558L376.233 760.104ZM382.5 699.2C382.5 715.45 382.5 727.607 381.711 737.254C380.924 746.894 379.352 753.983 376.233 760.104L377.124 760.558C380.327 754.273 381.915 747.038 382.708 737.335C383.5 727.638 383.5 715.433 383.5 699.2H382.5ZM382.5 92.8V699.2H383.5V92.8H382.5ZM376.233 31.8955C379.352 38.0168 380.924 45.1057 381.711 54.7464C382.5 64.393 382.5 76.5502 382.5 92.8H383.5C383.5 76.5667 383.5 64.3617 382.708 54.665C381.915 44.9625 380.327 37.7272 377.124 31.4416L376.233 31.8955ZM351.104 6.76713C361.924 12.2798 370.72 21.0762 376.233 31.8955L377.124 31.4416C371.515 20.4341 362.566 11.4847 351.558 5.87612L351.104 6.76713ZM290.2 0.5C306.45 0.5 318.607 0.500389 328.254 1.28854C337.894 2.07622 344.983 3.64821 351.104 6.76713L351.558 5.87612C345.273 2.67341 338.038 1.08459 328.335 0.291863C318.638 -0.500389 306.433 -0.5 290.2 -0.5V0.5ZM92.8 0.5H290.2V-0.5H92.8V0.5ZM31.8955 6.76713C38.0168 3.64821 45.1057 2.07622 54.7464 1.28854C64.393 0.500389 76.5502 0.5 92.8 0.5V-0.5C76.5667 -0.5 64.3617 -0.500389 54.665 0.291863C44.9625 1.08459 37.7272 2.67341 31.4416 5.87612L31.8955 6.76713ZM6.76713 31.8955C12.2798 21.0762 21.0762 12.2798 31.8955 6.76713L31.4416 5.87612C20.4341 11.4847 11.4847 20.4341 5.87612 31.4416L6.76713 31.8955ZM20.3448 39.7897C17.9078 44.5766 16.7018 50.0814 16.1005 57.4472C15.4996 64.8073 15.5 74.0693 15.5 86.3786H16.5C16.5 74.0528 16.5004 64.8385 17.0971 57.5286C17.6934 50.2245 18.8826 44.8659 21.236 40.2434L20.3448 39.7897ZM39.7707 20.348C31.4066 24.6132 24.6065 31.4189 20.3448 39.7897L21.236 40.2434C25.4019 32.0607 32.0491 25.4081 40.225 21.2389L39.7707 20.348ZM82.1217 15.5001C71.2036 15.5078 62.861 15.5774 56.1396 16.2122C49.4124 16.8476 44.2738 18.0517 39.7707 20.348L40.225 21.2389C44.5729 19.0217 49.5731 17.8368 56.2336 17.2078C62.8999 16.5782 71.1939 16.5078 82.1224 16.5001L82.1217 15.5001ZM84.092 15.6551C83.6119 15.4923 83.0324 15.4994 82.1217 15.5001L82.1224 16.5001C83.1149 16.4994 83.4869 16.5058 83.7708 16.6021L84.092 15.6551ZM85.9334 17.4966C85.6393 16.63 84.9583 15.9489 84.092 15.6551L83.7708 16.6021C84.3424 16.796 84.7922 17.2457 84.9864 17.8179L85.9334 17.4966ZM86.0896 19.461C86.0896 18.5539 86.0962 17.9766 85.9333 17.4966L84.9864 17.8179C85.0829 18.1023 85.0896 18.4727 85.0896 19.461H86.0896ZM86.0896 19.4611V19.461H85.0896V19.4611H86.0896ZM87.0997 33.7303C86.0962 30.7717 86.0896 27.084 86.0896 19.4611H85.0896C85.0896 27.0028 85.0829 30.8973 86.1527 34.0515L87.0997 33.7303ZM99.0054 45.6458C93.402 43.7422 89.0019 39.3386 87.0997 33.7303L86.1527 34.0515C88.1547 39.954 92.7858 44.589 98.6837 46.5927L99.0054 45.6458ZM113.263 46.6567C105.646 46.6567 101.961 46.65 99.0054 45.6458L98.6837 46.5927C101.836 47.6634 105.727 47.6567 113.263 47.6567V46.6567ZM269.737 46.6567H113.263V47.6567H269.737V46.6567ZM283.995 45.6458C281.039 46.65 277.354 46.6567 269.737 46.6567V47.6567C277.273 47.6567 281.164 47.6634 284.316 46.5927L283.995 45.6458ZM295.9 33.7303C293.998 39.3386 289.598 43.7422 283.995 45.6458L284.316 46.5927C290.214 44.589 294.845 39.954 296.847 34.0515L295.9 33.7303ZM296.91 19.4611C296.91 27.084 296.904 30.7717 295.9 33.7303L296.847 34.0515C297.917 30.8973 297.91 27.0028 297.91 19.4611H296.91ZM297.067 17.4966C296.904 17.9766 296.91 18.5539 296.91 19.4611H297.91C297.91 18.4728 297.917 18.1023 298.014 17.8179L297.067 17.4966ZM298.908 15.6551C298.042 15.9489 297.361 16.63 297.067 17.4966L298.014 17.8179C298.208 17.2457 298.658 16.796 299.229 16.6021L298.908 15.6551ZM300.878 15.5001C299.968 15.4994 299.388 15.4923 298.908 15.6551L299.229 16.6021C299.513 16.5058 299.885 16.4994 300.878 16.5001L300.878 15.5001ZM343.229 20.348C338.726 18.0517 333.588 16.8476 326.86 16.2122C320.139 15.5774 311.796 15.5078 300.878 15.5001L300.878 16.5001C311.806 16.5078 320.1 16.5782 326.766 17.2078C333.427 17.8368 338.427 19.0217 342.775 21.2389L343.229 20.348ZM362.655 39.7897C358.394 31.4189 351.593 24.6132 343.229 20.348L342.775 21.2389C350.951 25.4081 357.598 32.0607 361.764 40.2434L362.655 39.7897ZM367.5 86.3786C367.5 74.0693 367.5 64.8073 366.9 57.4473C366.298 50.0814 365.092 44.5766 362.655 39.7897L361.764 40.2434C364.117 44.8659 365.307 50.2246 365.903 57.5286C366.5 64.8385 366.5 74.0528 366.5 86.3786H367.5ZM367.5 705.62V86.3786H366.5V705.62H367.5ZM362.655 752.209C365.092 747.423 366.298 741.918 366.9 734.552C367.5 727.192 367.5 717.93 367.5 705.62H366.5C366.5 717.946 366.5 727.161 365.903 734.471C365.307 741.775 364.117 747.133 361.764 751.756L362.655 752.209ZM343.229 771.651C351.593 767.386 358.394 760.58 362.655 752.209L361.764 751.756C357.598 759.938 350.951 766.591 342.775 770.76L343.229 771.651ZM296.678 776.5C308.977 776.5 318.232 776.5 325.586 775.899C332.946 775.297 338.446 774.09 343.229 771.651L342.775 770.76C338.156 773.115 332.802 774.306 325.504 774.902C318.2 775.5 308.994 775.5 296.678 775.5V776.5ZM86.3221 776.5H296.678V775.5H86.3221V776.5ZM39.7707 771.651C44.5538 774.09 50.0543 775.297 57.4142 775.899C64.7683 776.5 74.0228 776.5 86.3221 776.5V775.5C74.0063 775.5 64.7996 775.5 57.4957 774.902C50.1977 774.306 44.8436 773.115 40.225 770.76L39.7707 771.651ZM20.3448 752.209C24.6065 760.58 31.4066 767.386 39.7707 771.651L40.225 770.76C32.0491 766.591 25.4019 759.938 21.236 751.756L20.3448 752.209ZM15.5 705.62C15.5 717.93 15.4996 727.192 16.1005 734.552C16.7018 741.918 17.9078 747.423 20.3448 752.209L21.236 751.756C18.8826 747.133 17.6934 741.775 17.0971 734.471C16.5004 727.161 16.5 717.946 16.5 705.62H15.5ZM15.5 86.3786V705.62H16.5V86.3786H15.5Z" fill="#373737" mask="url(#path-1-inside-1_274_14603)"/>
</svg>
