<svg width="21" height="21" viewBox="0 0 21 21" fill="none" xmlns="http://www.w3.org/2000/svg">
<path fill-rule="evenodd" clip-rule="evenodd" d="M7.73679 0.2C7.73679 0.0895428 7.82633 0 7.93679 0H13.0626C13.173 0 13.2626 0.0895431 13.2626 0.2V5.3254C13.2626 5.43586 13.173 5.5254 13.0626 5.5254H7.93679C7.82633 5.5254 7.73679 5.43586 7.73679 5.3254V0.2ZM0 0.201065C0 0.0906082 0.0895431 0.00106539 0.2 0.00106539H5.3258C5.43626 0.00106539 5.5258 0.0906084 5.5258 0.201065V5.32647C5.5258 5.43692 5.43626 5.52647 5.3258 5.52647H0.2C0.0895427 5.52647 0 5.43692 0 5.32647V0.201065ZM15.6736 0C15.5631 0 15.4736 0.0895428 15.4736 0.2V5.3254C15.4736 5.43586 15.5631 5.5254 15.6736 5.5254H20.7994C20.9098 5.5254 20.9994 5.43586 20.9994 5.3254V0.2C20.9994 0.0895431 20.9098 0 20.7994 0H15.6736ZM0 7.93333C0 7.82287 0.0895431 7.73333 0.2 7.73333H5.3258C5.43626 7.73333 5.5258 7.82287 5.5258 7.93333V13.0587C5.5258 13.1692 5.43626 13.2587 5.3258 13.2587H0.2C0.0895427 13.2587 0 13.1692 0 13.0587V7.93333ZM7.93679 7.73333C7.82633 7.73333 7.73679 7.82287 7.73679 7.93333V13.0587C7.73679 13.1692 7.82633 13.2587 7.93679 13.2587H13.0626C13.173 13.2587 13.2626 13.1692 13.2626 13.0587V7.93333C13.2626 7.82287 13.173 7.73333 13.0626 7.73333H7.93679ZM15.4736 7.93333C15.4736 7.82287 15.5631 7.73333 15.6736 7.73333H20.7994C20.9098 7.73333 20.9994 7.82287 20.9994 7.93333V13.0587C20.9994 13.1692 20.9098 13.2587 20.7994 13.2587H15.6736C15.5631 13.2587 15.4736 13.1692 15.4736 13.0587V7.93333ZM0.2 15.471C0.0895431 15.471 0 15.5606 0 15.671V20.7964C0 20.9069 0.0895427 20.9965 0.2 20.9965H5.3258C5.43626 20.9965 5.5258 20.9069 5.5258 20.7965V15.671C5.5258 15.5606 5.43626 15.471 5.3258 15.471H0.2ZM7.73679 15.671C7.73679 15.5606 7.82633 15.471 7.93679 15.471H13.0626C13.173 15.471 13.2626 15.5606 13.2626 15.671V20.7965C13.2626 20.9069 13.173 20.9965 13.0626 20.9965H7.93679C7.82633 20.9965 7.73679 20.9069 7.73679 20.7964V15.671ZM15.6736 15.471C15.5631 15.471 15.4736 15.5606 15.4736 15.671V20.7964C15.4736 20.9069 15.5631 20.9965 15.6736 20.9965H20.7994C20.9098 20.9965 20.9994 20.9069 20.9994 20.7965V15.671C20.9994 15.5606 20.9098 15.471 20.7994 15.471H15.6736Z" fill="white"/>
</svg>
