<svg width="32" height="32" viewBox="0 0 32 32" fill="none" xmlns="http://www.w3.org/2000/svg">
<path fill-rule="evenodd" clip-rule="evenodd" d="M16 32C24.8366 32 32 24.8366 32 16C32 7.16344 24.8366 0 16 0C7.16344 0 0 7.16344 0 16C0 24.8366 7.16344 32 16 32ZM6.86095 10.862C8.17819 9.11224 10.1401 7.98986 12.2005 7.80727C12.4597 7.78424 12.6976 7.76211 12.7291 7.75802C12.7605 7.75397 12.8425 7.81046 12.9112 7.88359C13.009 7.98773 13.0178 8.01655 12.9519 8.01655C12.7835 8.01655 11.5399 8.40162 10.9435 8.63841C10.6072 8.77196 10.0786 9.00805 9.76904 9.16298C9.19263 9.45146 8.14964 10.1178 8.0144 10.2839C7.986 10.3188 7.96158 10.3443 7.96624 10.3519C7.97621 10.368 8.11938 10.3018 8.64175 10.0689C10.1021 9.41769 11.9113 8.93848 13.8152 8.69856C14.6435 8.59421 17.0591 8.61032 17.9366 8.72616C19.8438 8.97779 21.6638 9.49688 23.3542 10.2713C23.5845 10.3768 23.7873 10.4631 23.805 10.4631C23.866 10.4631 23.0966 9.92338 22.6571 9.65788C21.8122 9.14745 20.1247 8.41939 19.2235 8.17643L18.9683 8.10761L19.1138 7.95571C19.2872 7.77472 19.4431 7.76451 20.1967 7.88503C22.215 8.20781 23.924 9.246 25.1384 10.887C26.1893 12.3069 27.2485 15.6597 27.5919 18.653C27.749 20.0225 27.4505 21.0024 26.6191 21.8471C25.715 22.7658 23.7207 23.542 22.0165 23.6385C21.5627 23.6642 21.4589 23.6556 21.405 23.5878C21.3693 23.5428 21.0947 23.2036 20.7949 22.8339C20.4952 22.4642 20.2499 22.1444 20.25 22.1231C20.25 22.1017 20.4475 22.0154 20.6887 21.9313C21.3133 21.7134 22.2126 21.2435 22.6877 20.887C23.0817 20.5912 23.7728 19.9302 23.688 19.9302C23.6651 19.9302 23.4421 20.0509 23.1924 20.1984C22.1166 20.8339 20.9084 21.3533 19.7982 21.6577C17.5115 22.2845 15.1511 22.2595 12.5186 21.5807C11.319 21.2713 9.73059 20.7139 8.74152 20.2554C8.48094 20.1345 8.25775 20.0458 8.24546 20.0581C8.23318 20.0703 8.40601 20.2615 8.62957 20.4829C9.26878 21.116 10.2164 21.6937 11.1711 22.0323C11.5453 22.165 11.5783 22.1878 11.5168 22.2718C11.4794 22.3229 11.1975 22.6777 10.8904 23.0603L10.332 23.7558L10.0381 23.7577C9.25033 23.7628 8.12294 23.5221 7.21778 23.1554C5.18933 22.3337 4.26944 21.0969 4.36628 19.3217C4.5197 16.5087 5.74946 12.3384 6.86095 10.862ZM14.2914 16.5662C14.1345 15.7005 13.5588 15.0703 12.7272 14.8537C12.5528 14.8083 12.3375 14.7736 12.2486 14.7765C11.5091 14.801 10.6728 15.3971 10.4088 16.0877C9.92958 17.3419 10.6522 18.7081 11.9358 18.9747C13.256 19.2488 14.5398 17.9362 14.2914 16.5662ZM21.4073 15.986C21.1709 15.5077 20.8591 15.1991 20.3906 14.9798C19.7838 14.6958 19.1691 14.738 18.5554 15.1056C18.0442 15.4118 17.6958 15.9368 17.5846 16.5681C17.3359 17.9803 18.6856 19.2967 20.0292 18.9525C20.4711 18.8393 20.775 18.6544 21.0954 18.3038C21.472 17.8916 21.6012 17.5339 21.6038 16.8959C21.6058 16.4144 21.5955 16.3668 21.4073 15.986Z" fill="white"/>
</svg>
