<svg width="29" height="26" viewBox="0 0 29 26" fill="none" xmlns="http://www.w3.org/2000/svg">
<path fill-rule="evenodd" clip-rule="evenodd" d="M6.20384 1.58233L10.4559 3.16618H14.1964H17.9369L22.2152 1.57751C26.8153 -0.130667 26.7406 -0.109879 27.0751 0.225501C27.1867 0.337361 27.4034 0.91111 27.82 2.19706L28.4074 4.0109L27.4988 8.1916C26.9991 10.491 26.5293 12.5226 26.4547 12.7062L26.319 13.0401L27.2644 15.9626L28.2099 18.885L27.3902 21.689C26.5265 24.6434 26.4805 24.754 26.0816 24.8336C25.9628 24.8573 24.9435 24.6068 23.135 24.1095C21.1362 23.5599 20.3081 23.3591 20.1463 23.3848C20.0067 23.4069 19.7436 23.5662 19.4467 23.8081C18.8474 24.2966 16.6081 25.8453 16.3732 25.9337C16.2696 25.9727 15.3751 26 14.1995 26C12.5939 26 12.1655 25.9814 12.0169 25.9052C11.732 25.7593 9.5667 24.2517 9.0784 23.8593C8.57677 23.4561 8.40948 23.3603 8.2074 23.3603C8.12739 23.3603 6.8044 23.7064 5.26742 24.1295C2.48653 24.895 2.47181 24.8982 2.24308 24.7901C2.1081 24.7264 1.97225 24.5927 1.91395 24.4664C1.79749 24.2138 0.282426 19.0411 0.282426 18.8958C0.282426 18.8416 0.687176 17.5487 1.18187 16.0228C1.67657 14.497 2.08132 13.1638 2.08132 13.0602C2.08132 12.9565 2.03708 12.7742 1.98298 12.655C1.8837 12.4362 1.54971 10.9942 0.548062 6.45993L0 3.97922L0.582041 2.2391C0.902177 1.28199 1.19453 0.432721 1.23177 0.351681C1.3034 0.196002 1.63432 0.00250853 1.83334 7.74415e-07C1.8985 -0.000857144 3.86522 0.711215 6.20384 1.58233ZM21.1573 4.25857C16.8299 7.20948 16.3725 7.53826 16.3725 7.69836C16.3725 7.85147 16.6159 8.06456 18.1778 9.27852L19.9831 10.6817L22.5844 11.3785C24.015 11.7618 25.2497 12.0753 25.3279 12.0753C25.4144 12.0753 25.4922 12.0171 25.5263 11.9268C25.5572 11.8451 26.01 10.1363 26.5326 8.1293L27.4826 4.48031L26.8578 2.79035C26.3509 1.41919 26.2056 1.09061 26.0876 1.04818C25.9658 1.00436 25.164 1.5265 21.1573 4.25857ZM2.11756 1.26886C2.06792 1.38679 1.78097 2.14975 1.47995 2.96424L0.932558 4.44514L1.88251 8.11175C2.40498 10.1284 2.85757 11.8451 2.88828 11.9268C2.9224 12.0175 2.99982 12.0753 3.08703 12.0753C3.16558 12.0753 4.40055 11.7612 5.83127 11.3773L8.43266 10.6793L10.2539 9.26268C11.9999 7.90459 12.159 7.75037 12.0242 7.54691C11.9973 7.50632 9.85732 6.02885 7.26878 4.26372C3.94983 2.00053 2.51012 1.05438 2.38506 1.05438C2.24795 1.05438 2.18732 1.10302 2.11756 1.26886ZM10.0208 15.7192C9.17447 16.0972 8.99392 16.2641 9.16155 16.5134C9.2387 16.6282 9.512 16.7349 10.3643 16.9835C12.0041 17.4617 12.109 17.3854 11.518 16.1444C11.0762 15.2166 11.1187 15.2287 10.0208 15.7192ZM17.29 15.4285C17.1699 15.5041 16.5391 16.8099 16.5391 16.9828C16.5391 17.1684 16.6575 17.2888 16.8397 17.2888C16.9993 17.2888 18.9626 16.7215 19.1538 16.6202C19.2435 16.5727 19.2727 16.4958 19.2579 16.3465C19.2385 16.1496 19.1942 16.1192 18.4046 15.7596C17.5571 15.3736 17.435 15.3373 17.29 15.4285ZM12.366 21.312L12.0976 21.5075L12.0161 22.3403C11.9535 22.9794 11.9528 23.1947 12.013 23.2666C12.1248 23.4 16.2844 23.4062 16.3958 23.2731C16.449 23.2097 16.4417 22.9631 16.3692 22.3657C16.2699 21.5472 16.2691 21.545 16.0212 21.3319L15.7729 21.1184L14.2036 21.1175L12.6344 21.1165L12.366 21.312Z" fill="white"/>
</svg>
