<svg cache-id="cb7a556b3ac64db9926f1f2a74e81e9e" id="ejBVlEOzMiQ1" xmlns="http://www.w3.org/2000/svg" xmlns:xlink="http://www.w3.org/1999/xlink" viewBox="0 0 94 73" shape-rendering="geometricPrecision" text-rendering="geometricPrecision"><style><![CDATA[#ejBVlEOzMiQ1{pointer-events: all}#ejBVlEOzMiQ1:hover #ejBVlEOzMiQ2_to {animation: ejBVlEOzMiQ2_to__to 3000ms linear 1 normal forwards}@keyframes ejBVlEOzMiQ2_to__to { 0% {transform: translate(28.466101px,32.114982px)} 33.333333% {transform: translate(19.492954px,32.300931px)} 83.333333% {transform: translate(28.280175px,32.114991px)} 86.666667% {transform: translate(28.280175px,32.11px)} 100% {transform: translate(28.280175px,32.114983px)}} #ejBVlEOzMiQ1:hover #ejBVlEOzMiQ2 {animation: ejBVlEOzMiQ2_c_o 3000ms linear 1 normal forwards}@keyframes ejBVlEOzMiQ2_c_o { 0% {opacity: 1} 33.333333% {opacity: 0} 83.333333% {opacity: 0} 100% {opacity: 1}} #ejBVlEOzMiQ1:hover #ejBVlEOzMiQ5_to {animation: ejBVlEOzMiQ5_to__to 3000ms linear 1 normal forwards}@keyframes ejBVlEOzMiQ5_to__to { 0% {transform: translate(57.741951px,32.114981px)} 33.333333% {transform: translate(65.871016px,32.114979px)} 83.333333% {transform: translate(57.741951px,32.300938px)} 100% {transform: translate(57.741951px,32.300938px)}} #ejBVlEOzMiQ1:hover #ejBVlEOzMiQ5 {animation: ejBVlEOzMiQ5_c_o 3000ms linear 1 normal forwards}@keyframes ejBVlEOzMiQ5_c_o { 0% {opacity: 0.7} 33.333333% {opacity: 0} 83.333333% {opacity: 0} 100% {opacity: 0.7}} #ejBVlEOzMiQ1:hover #ejBVlEOzMiQ7_to {animation: ejBVlEOzMiQ7_to__to 3000ms linear 1 normal forwards}@keyframes ejBVlEOzMiQ7_to__to { 0% {transform: translate(23.352048px,32.324414px)} 26.666667% {transform: translate(23.352048px,32.324414px)} 43.333333% {transform: translate(47.346114px,32.031372px)} 76.666667% {transform: translate(58.475798px,32.297492px)} 80% {transform: translate(69.01815px,31.924048px)} 83.333333% {transform: translate(68.900439px,32.700306px)} 100% {transform: translate(68.900439px,32.700306px)}} #ejBVlEOzMiQ1:hover #ejBVlEOzMiQ7 {animation: ejBVlEOzMiQ7_c_o 3000ms linear 1 normal forwards}@keyframes ejBVlEOzMiQ7_c_o { 0% {opacity: 0} 30% {opacity: 0} 40% {opacity: 0.5} 63.333333% {opacity: 0.7} 83.333333% {opacity: 0} 100% {opacity: 0}} #ejBVlEOzMiQ1:hover #ejBVlEOzMiQ9_to {animation: ejBVlEOzMiQ9_to__to 3000ms linear 1 normal forwards}@keyframes ejBVlEOzMiQ9_to__to { 0% {transform: translate(23.234337px,27.163975px)} 26.666667% {transform: translate(23.234337px,27.163975px)} 40% {transform: translate(42.547301px,27.487087px)} 43.333333% {transform: translate(48.523222px,27.577198px)} 76.666667% {transform: translate(57.634849px,27.490186px)} 80% {transform: translate(67.252717px,27.469874px)} 83.333333% {transform: translate(67.60585px,27.893px)} 100% {transform: translate(67.60585px,27.893px)}} #ejBVlEOzMiQ1:hover #ejBVlEOzMiQ9 {animation: ejBVlEOzMiQ9_c_o 3000ms linear 1 normal forwards}@keyframes ejBVlEOzMiQ9_c_o { 0% {opacity: 0} 30% {opacity: 0} 40% {opacity: 0.5} 63.333333% {opacity: 0.7} 83.333333% {opacity: 0} 100% {opacity: 0}} #ejBVlEOzMiQ1:hover #ejBVlEOzMiQ11_to {animation: ejBVlEOzMiQ11_to__to 3000ms linear 1 normal forwards}@keyframes ejBVlEOzMiQ11_to__to { 0% {transform: translate(23.234337px,27.163975px)} 26.666667% {transform: translate(23.234337px,27.163975px)} 40% {transform: translate(42.547301px,27.487087px)} 43.333333% {transform: translate(48.523222px,27.577198px)} 76.666667% {transform: translate(57.634849px,27.490186px)} 80% {transform: translate(67.252717px,27.469874px)} 83.333333% {transform: translate(67.60585px,27.893px)} 100% {transform: translate(67.60585px,27.893px)}} #ejBVlEOzMiQ1:hover #ejBVlEOzMiQ11 {animation: ejBVlEOzMiQ11_c_o 3000ms linear 1 normal forwards}@keyframes ejBVlEOzMiQ11_c_o { 0% {opacity: 0} 30% {opacity: 0} 40% {opacity: 0.5} 63.333333% {opacity: 0.7} 83.333333% {opacity: 0} 100% {opacity: 0}} #ejBVlEOzMiQ1:hover #ejBVlEOzMiQ13_to {animation: ejBVlEOzMiQ13_to__to 3000ms linear 1 normal forwards}@keyframes ejBVlEOzMiQ13_to__to { 0% {transform: translate(23.234337px,27.163975px)} 26.666667% {transform: translate(23.234337px,27.163975px)} 40% {transform: translate(42.547301px,27.487087px)} 43.333333% {transform: translate(48.523222px,27.577198px)} 76.666667% {transform: translate(57.634849px,27.490186px)} 80% {transform: translate(67.252717px,27.469874px)} 83.333333% {transform: translate(67.60585px,27.893px)} 100% {transform: translate(67.60585px,27.893px)}} #ejBVlEOzMiQ1:hover #ejBVlEOzMiQ13 {animation: ejBVlEOzMiQ13_c_o 3000ms linear 1 normal forwards}@keyframes ejBVlEOzMiQ13_c_o { 0% {opacity: 0} 30% {opacity: 0} 40% {opacity: 0.5} 63.333333% {opacity: 0.7} 83.333333% {opacity: 0} 100% {opacity: 0}} #ejBVlEOzMiQ1:hover #ejBVlEOzMiQ15_to {animation: ejBVlEOzMiQ15_to__to 3000ms linear 1 normal forwards}@keyframes ejBVlEOzMiQ15_to__to { 0% {transform: translate(23.234337px,27.163975px)} 26.666667% {transform: translate(23.234337px,27.163975px)} 40% {transform: translate(42.547301px,27.487087px)} 43.333333% {transform: translate(48.523222px,27.577198px)} 76.666667% {transform: translate(57.634849px,27.490186px)} 80% {transform: translate(67.252717px,27.469874px)} 83.333333% {transform: translate(67.60585px,27.893px)} 100% {transform: translate(67.60585px,27.893px)}} #ejBVlEOzMiQ1:hover #ejBVlEOzMiQ15 {animation: ejBVlEOzMiQ15_c_o 3000ms linear 1 normal forwards}@keyframes ejBVlEOzMiQ15_c_o { 0% {opacity: 0} 30% {opacity: 0} 40% {opacity: 0.5} 63.333333% {opacity: 0.7} 83.333333% {opacity: 0} 100% {opacity: 0}}]]></style><defs><filter id="ejBVlEOzMiQ2-filter" x="-400%" width="600%" y="-400%" height="600%"><feGaussianBlur id="ejBVlEOzMiQ2-filter-drop-shadow-0-blur" in="SourceAlpha" stdDeviation="4,3"/><feOffset id="ejBVlEOzMiQ2-filter-drop-shadow-0-offset" dx="6" dy="0" result="tmp"/><feFlood id="ejBVlEOzMiQ2-filter-drop-shadow-0-flood" flood-color="rgba(251,59,32,0.33)"/><feComposite id="ejBVlEOzMiQ2-filter-drop-shadow-0-composite" operator="in" in2="tmp"/><feMerge id="ejBVlEOzMiQ2-filter-drop-shadow-0-merge"><feMergeNode id="ejBVlEOzMiQ2-filter-drop-shadow-0-merge-node-1"/><feMergeNode id="ejBVlEOzMiQ2-filter-drop-shadow-0-merge-node-2" in="SourceGraphic"/></feMerge></filter><filter id="ejBVlEOzMiQ5-filter" x="-400%" width="600%" y="-400%" height="600%"><feGaussianBlur id="ejBVlEOzMiQ5-filter-drop-shadow-0-blur" in="SourceAlpha" stdDeviation="2,3"/><feOffset id="ejBVlEOzMiQ5-filter-drop-shadow-0-offset" dx="3" dy="0" result="tmp"/><feFlood id="ejBVlEOzMiQ5-filter-drop-shadow-0-flood" flood-color="rgba(87,9,214,0.42)"/><feComposite id="ejBVlEOzMiQ5-filter-drop-shadow-0-composite" operator="in" in2="tmp"/><feMerge id="ejBVlEOzMiQ5-filter-drop-shadow-0-merge"><feMergeNode id="ejBVlEOzMiQ5-filter-drop-shadow-0-merge-node-1"/><feMergeNode id="ejBVlEOzMiQ5-filter-drop-shadow-0-merge-node-2" in="SourceGraphic"/></feMerge></filter></defs><g id="ejBVlEOzMiQ2_to" transform="translate(28.466101,32.114982)"><g id="ejBVlEOzMiQ2" transform="rotate(1170.576965) translate(-32.467975,-32.497641)" filter="url(#ejBVlEOzMiQ2-filter)"><path id="ejBVlEOzMiQ3" d="M20.8393,50.7778C17.0621,50.7778,14,47.7158,14,43.9385L14,20.6849C14,16.9077,17.0621,13.8456,20.8393,13.8456L44.0929,13.8456C47.8701,13.8456,50.9322,16.9077,50.9322,20.6849L50.9322,43.9385C50.9322,47.7158,47.8701,50.7778,44.0929,50.7778L20.8393,50.7778Z" fill="rgb(255,255,255)" stroke="none" stroke-width="1"/><path id="ejBVlEOzMiQ4" d="M20.8393,50.7778C17.0621,50.7778,14,47.7158,14,43.9385L14,20.6849C14,16.9077,17.0621,13.8456,20.8393,13.8456L44.0929,13.8456C47.8701,13.8456,50.9322,16.9077,50.9322,20.6849L50.9322,43.9385C50.9322,47.7158,47.8701,50.7778,44.0929,50.7778L20.8393,50.7778Z" fill="rgb(254,190,12)" stroke="none" stroke-width="1"/></g></g><g id="ejBVlEOzMiQ5_to" transform="translate(57.741951,32.114981)"><g id="ejBVlEOzMiQ5" transform="translate(-57.741951,-32.300938)" opacity="0.7" filter="url(#ejBVlEOzMiQ5-filter)"><path id="ejBVlEOzMiQ6" d="M33.5614,34.0494C32.493,32.9811,32.493,31.2489,33.5614,30.1805L55.8075,7.93443C56.8759,6.86607,58.608,6.86607,59.6764,7.93443L81.9225,30.1805C82.9909,31.2489,82.9909,32.9811,81.9225,34.0494L59.6764,56.2955C58.608,57.3639,56.8759,57.3639,55.8075,56.2955L33.5614,34.0494Z" fill="rgb(240,70,205)" stroke="none" stroke-width="1"/></g></g><g id="ejBVlEOzMiQ7_to" transform="translate(23.352048,32.324414)"><g id="ejBVlEOzMiQ7" transform="translate(-57.741951,-27.114981)" opacity="0"><path id="ejBVlEOzMiQ8" d="M33.5614,34.0494C32.493,32.9811,32.493,31.2489,33.5614,30.1805L55.8075,7.93443C56.8759,6.86607,58.608,6.86607,59.6764,7.93443L81.9225,30.1805C82.9909,31.2489,82.9909,32.9811,81.9225,34.0494L59.6764,56.2955C58.608,57.3639,56.8759,57.3639,55.8075,56.2955L33.5614,34.0494Z" transform="matrix(1 0 0 1 0 -5)" fill="rgb(240,70,205)" stroke="none" stroke-width="1"/><g id="ejBVlEOzMiQ9_to" transform="translate(23.234337,27.163975)"><g id="ejBVlEOzMiQ9" transform="translate(-57.741951,-27.597107)" opacity="0"><path id="ejBVlEOzMiQ10" d="M33.5614,34.0494C32.493,32.9811,32.493,31.2489,33.5614,30.1805L55.8075,7.93443C56.8759,6.86607,58.608,6.86607,59.6764,7.93443L81.9225,30.1805C82.9909,31.2489,82.9909,32.9811,81.9225,34.0494L59.6764,56.2955C58.608,57.3639,56.8759,57.3639,55.8075,56.2955L33.5614,34.0494Z" transform="matrix(1 0 0 1 0 -5)" fill="rgb(240,70,205)" stroke="none" stroke-width="1"/><g id="ejBVlEOzMiQ11_to" transform="translate(23.234337,27.163975)"><g id="ejBVlEOzMiQ11" transform="translate(-57.741951,-27.597107)" opacity="0"><path id="ejBVlEOzMiQ12" d="M33.5614,34.0494C32.493,32.9811,32.493,31.2489,33.5614,30.1805L55.8075,7.93443C56.8759,6.86607,58.608,6.86607,59.6764,7.93443L81.9225,30.1805C82.9909,31.2489,82.9909,32.9811,81.9225,34.0494L59.6764,56.2955C58.608,57.3639,56.8759,57.3639,55.8075,56.2955L33.5614,34.0494Z" transform="matrix(1 0 0 1 0 -5)" fill="rgb(240,70,205)" stroke="none" stroke-width="1"/><g id="ejBVlEOzMiQ13_to" transform="translate(23.234337,27.163975)"><g id="ejBVlEOzMiQ13" transform="translate(-57.741951,-27.597107)" opacity="0"><path id="ejBVlEOzMiQ14" d="M33.5614,34.0494C32.493,32.9811,32.493,31.2489,33.5614,30.1805L55.8075,7.93443C56.8759,6.86607,58.608,6.86607,59.6764,7.93443L81.9225,30.1805C82.9909,31.2489,82.9909,32.9811,81.9225,34.0494L59.6764,56.2955C58.608,57.3639,56.8759,57.3639,55.8075,56.2955L33.5614,34.0494Z" transform="matrix(1 0 0 1 0 -5)" fill="rgb(240,70,205)" stroke="none" stroke-width="1"/><g id="ejBVlEOzMiQ15_to" transform="translate(23.234337,27.163975)"><g id="ejBVlEOzMiQ15" transform="translate(-57.741951,-27.597107)" opacity="0"><path id="ejBVlEOzMiQ16" d="M33.5614,34.0494C32.493,32.9811,32.493,31.2489,33.5614,30.1805L55.8075,7.93443C56.8759,6.86607,58.608,6.86607,59.6764,7.93443L81.9225,30.1805C82.9909,31.2489,82.9909,32.9811,81.9225,34.0494L59.6764,56.2955C58.608,57.3639,56.8759,57.3639,55.8075,56.2955L33.5614,34.0494Z" transform="matrix(1 0 0 1 0 -5)" fill="rgb(240,70,205)" stroke="none" stroke-width="1"/></g></g></g></g></g></g></g></g></g></g></svg>