<svg id="eI5QbN3oTeG1" xmlns="http://www.w3.org/2000/svg" xmlns:xlink="http://www.w3.org/1999/xlink" viewBox="0 0 90 70" shape-rendering="geometricPrecision" text-rendering="geometricPrecision"><style><![CDATA[#eI5QbN3oTeG1{pointer-events: all}#eI5QbN3oTeG1:hover #eI5QbN3oTeG2_to {animation: eI5QbN3oTeG2_to__to 3000ms linear 1 normal forwards}@keyframes eI5QbN3oTeG2_to__to { 0% {transform: translate(38.000002px,35.000002px)} 33.333333% {transform: translate(22.711998px,35px)} 70% {transform: translate(38.198806px,35px)} 100% {transform: translate(38.198806px,35px)}} #eI5QbN3oTeG1:hover #eI5QbN3oTeG2 {animation: eI5QbN3oTeG2_c_o 3000ms linear 1 normal forwards}@keyframes eI5QbN3oTeG2_c_o { 0% {opacity: 1} 33.333333% {opacity: 0} 70% {opacity: 0} 100% {opacity: 1}} #eI5QbN3oTeG1:hover #eI5QbN3oTeG4_to {animation: eI5QbN3oTeG4_to__to 3000ms linear 1 normal forwards}@keyframes eI5QbN3oTeG4_to__to { 0% {transform: translate(59.070251px,35.000151px)} 33.333333% {transform: translate(72.322349px,35.000151px)} 70% {transform: translate(58.486809px,34.999999px)} 100% {transform: translate(58.486809px,34.999999px)}} #eI5QbN3oTeG1:hover #eI5QbN3oTeG4 {animation: eI5QbN3oTeG4_c_o 3000ms linear 1 normal forwards}@keyframes eI5QbN3oTeG4_c_o { 0% {opacity: 0.9} 33.333333% {opacity: 0} 70% {opacity: 0} 100% {opacity: 0.9}} #eI5QbN3oTeG1:hover #eI5QbN3oTeG6_to {animation: eI5QbN3oTeG6_to__to 3000ms linear 1 normal forwards}@keyframes eI5QbN3oTeG6_to__to { 0% {transform: translate(19.07025px,35.00015px)} 30% {transform: translate(19.07025px,35.00015px)} 70% {transform: translate(72.322348px,35px)} 100% {transform: translate(72.322348px,35px)}} #eI5QbN3oTeG1:hover #eI5QbN3oTeG6 {animation: eI5QbN3oTeG6_c_o 3000ms linear 1 normal forwards}@keyframes eI5QbN3oTeG6_c_o { 0% {opacity: 0} 30% {opacity: 0} 36.666667% {opacity: 0.9} 66.666667% {opacity: 0.9} 70% {opacity: 0} 100% {opacity: 0}} #eI5QbN3oTeG1:hover #eI5QbN3oTeG8_to {animation: eI5QbN3oTeG8_to__to 3000ms linear 1 normal forwards}@keyframes eI5QbN3oTeG8_to__to { 0% {transform: translate(24.07025px,35.00015px)} 30% {transform: translate(24.07025px,35.00015px)} 70% {transform: translate(56.423174px,35.009649px)} 100% {transform: translate(56.423174px,35.009649px)}} #eI5QbN3oTeG1:hover #eI5QbN3oTeG8 {animation: eI5QbN3oTeG8_c_o 3000ms linear 1 normal forwards}@keyframes eI5QbN3oTeG8_c_o { 0% {opacity: 0} 30% {opacity: 0} 36.666667% {opacity: 0.9} 66.666667% {opacity: 0.9} 70% {opacity: 0} 100% {opacity: 0}} #eI5QbN3oTeG1:hover #eI5QbN3oTeG10_to {animation: eI5QbN3oTeG10_to__to 3000ms linear 1 normal forwards}@keyframes eI5QbN3oTeG10_to__to { 0% {transform: translate(24.07025px,35.00015px)} 30% {transform: translate(24.07025px,35.00015px)} 50% {transform: translate(40.308879px,35.021013px)} 70% {transform: translate(56.547508px,35.041876px)} 100% {transform: translate(56.547508px,35.041876px)}} #eI5QbN3oTeG1:hover #eI5QbN3oTeG10 {animation: eI5QbN3oTeG10_c_o 3000ms linear 1 normal forwards}@keyframes eI5QbN3oTeG10_c_o { 0% {opacity: 0} 30% {opacity: 0} 36.666667% {opacity: 0.9} 66.666667% {opacity: 0.9} 70% {opacity: 0} 100% {opacity: 0}} #eI5QbN3oTeG1:hover #eI5QbN3oTeG12_to {animation: eI5QbN3oTeG12_to__to 3000ms linear 1 normal forwards}@keyframes eI5QbN3oTeG12_to__to { 0% {transform: translate(24.07025px,35.00015px)} 30% {transform: translate(24.07025px,35.00015px)} 70% {transform: translate(56.091768px,35.19395px)} 100% {transform: translate(56.091768px,35.19395px)}} #eI5QbN3oTeG1:hover #eI5QbN3oTeG12 {animation: eI5QbN3oTeG12_c_o 3000ms linear 1 normal forwards}@keyframes eI5QbN3oTeG12_c_o { 0% {opacity: 0} 30% {opacity: 0} 36.666667% {opacity: 0.9} 66.666667% {opacity: 0.9} 70% {opacity: 0} 100% {opacity: 0}} #eI5QbN3oTeG1:hover #eI5QbN3oTeG14_to {animation: eI5QbN3oTeG14_to__to 3000ms linear 1 normal forwards}@keyframes eI5QbN3oTeG14_to__to { 0% {transform: translate(24.07025px,35.00015px)} 30% {transform: translate(24.07025px,35.00015px)} 70% {transform: translate(56.150431px,35.197925px)} 100% {transform: translate(56.150431px,35.197925px)}} #eI5QbN3oTeG1:hover #eI5QbN3oTeG14 {animation: eI5QbN3oTeG14_c_o 3000ms linear 1 normal forwards}@keyframes eI5QbN3oTeG14_c_o { 0% {opacity: 0} 30% {opacity: 0} 36.666667% {opacity: 0.9} 66.666667% {opacity: 0.9} 70% {opacity: 0} 100% {opacity: 0}}]]></style><g id="eI5QbN3oTeG2_to" transform="translate(38.000002,35.000002)"><g id="eI5QbN3oTeG2" transform="translate(-38.000002,-35.000002)"><path id="eI5QbN3oTeG3" d="M17.6296,39.6296C15.0728,37.0728,15.0728,32.9272,17.6296,30.3704L33.3704,14.6296C35.9272,12.0728,40.0728,12.0728,42.6296,14.6296L58.3704,30.3704C60.9272,32.9272,60.9272,37.0728,58.3704,39.6296L42.6296,55.3704C40.0728,57.9272,35.9272,57.9272,33.3704,55.3704L17.6296,39.6296Z" fill="rgb(228,63,240)" stroke="none" stroke-width="1"/></g></g><g id="eI5QbN3oTeG4_to" transform="translate(59.070251,35.000151)"><g id="eI5QbN3oTeG4" transform="translate(-59.070251,-35.000151)" opacity="0.9"><path id="eI5QbN3oTeG5" d="M41.3926,19.9414C41.3926,18.495,42.5651,17.3225,44.0115,17.3225L74.129,17.3225C75.5754,17.3225,76.7479,18.495,76.7479,19.9414L76.7479,50.0589C76.7479,51.5053,75.5754,52.6778,74.129,52.6778L44.0115,52.6778C42.5651,52.6778,41.3926,51.5053,41.3926,50.0589L41.3926,19.9414Z" fill="rgb(106,0,255)" stroke="none" stroke-width="1"/></g></g><g id="eI5QbN3oTeG6_to" transform="translate(19.07025,35.00015)"><g id="eI5QbN3oTeG6" transform="translate(-56.07025,-35.00015)" opacity="0"><path id="eI5QbN3oTeG7" d="M41.3926,19.9414C41.3926,18.495,42.5651,17.3225,44.0115,17.3225L74.129,17.3225C75.5754,17.3225,76.7479,18.495,76.7479,19.9414L76.7479,50.0589C76.7479,51.5053,75.5754,52.6778,74.129,52.6778L44.0115,52.6778C42.5651,52.6778,41.3926,51.5053,41.3926,50.0589L41.3926,19.9414Z" transform="matrix(1 0 0 1 -3 0)" fill="rgb(106,0,255)" stroke="none" stroke-width="1"/><g id="eI5QbN3oTeG8_to" transform="translate(24.07025,35.00015)"><g id="eI5QbN3oTeG8" transform="translate(-56.07025,-35.00015)" opacity="0"><path id="eI5QbN3oTeG9" d="M41.3926,19.9414C41.3926,18.495,42.5651,17.3225,44.0115,17.3225L74.129,17.3225C75.5754,17.3225,76.7479,18.495,76.7479,19.9414L76.7479,50.0589C76.7479,51.5053,75.5754,52.6778,74.129,52.6778L44.0115,52.6778C42.5651,52.6778,41.3926,51.5053,41.3926,50.0589L41.3926,19.9414Z" transform="matrix(1 0 0 1 -3 0)" fill="rgb(106,0,255)" stroke="none" stroke-width="1"/><g id="eI5QbN3oTeG10_to" transform="translate(24.07025,35.00015)"><g id="eI5QbN3oTeG10" transform="translate(-56.07025,-35.00015)" opacity="0"><path id="eI5QbN3oTeG11" d="M41.3926,19.9414C41.3926,18.495,42.5651,17.3225,44.0115,17.3225L74.129,17.3225C75.5754,17.3225,76.7479,18.495,76.7479,19.9414L76.7479,50.0589C76.7479,51.5053,75.5754,52.6778,74.129,52.6778L44.0115,52.6778C42.5651,52.6778,41.3926,51.5053,41.3926,50.0589L41.3926,19.9414Z" transform="matrix(1 0 0 1 -3 0)" fill="rgb(106,0,255)" stroke="none" stroke-width="1"/><g id="eI5QbN3oTeG12_to" transform="translate(24.07025,35.00015)"><g id="eI5QbN3oTeG12" transform="translate(-56.07025,-35.00015)" opacity="0"><path id="eI5QbN3oTeG13" d="M41.3926,19.9414C41.3926,18.495,42.5651,17.3225,44.0115,17.3225L74.129,17.3225C75.5754,17.3225,76.7479,18.495,76.7479,19.9414L76.7479,50.0589C76.7479,51.5053,75.5754,52.6778,74.129,52.6778L44.0115,52.6778C42.5651,52.6778,41.3926,51.5053,41.3926,50.0589L41.3926,19.9414Z" transform="matrix(1 0 0 1 -3 0)" fill="rgb(106,0,255)" stroke="none" stroke-width="1"/><g id="eI5QbN3oTeG14_to" transform="translate(24.07025,35.00015)"><g id="eI5QbN3oTeG14" transform="translate(-56.07025,-35.00015)" opacity="0"><path id="eI5QbN3oTeG15" d="M41.3926,19.9414C41.3926,18.495,42.5651,17.3225,44.0115,17.3225L74.129,17.3225C75.5754,17.3225,76.7479,18.495,76.7479,19.9414L76.7479,50.0589C76.7479,51.5053,75.5754,52.6778,74.129,52.6778L44.0115,52.6778C42.5651,52.6778,41.3926,51.5053,41.3926,50.0589L41.3926,19.9414Z" transform="matrix(1 0 0 1 -3 0)" fill="rgb(106,0,255)" stroke="none" stroke-width="1"/></g></g></g></g></g></g></g></g></g></g></svg>