<svg cache-id="d61a775fc39f458f829b11291b000b5c" id="eCapO5H4LqF1" xmlns="http://www.w3.org/2000/svg" xmlns:xlink="http://www.w3.org/1999/xlink" viewBox="0 0 92 79" shape-rendering="geometricPrecision" text-rendering="geometricPrecision"><style><![CDATA[#eCapO5H4LqF1{pointer-events: all}#eCapO5H4LqF1:hover #eCapO5H4LqF2_to {animation: eCapO5H4LqF2_to__to 3000ms linear 1 normal forwards}@keyframes eCapO5H4LqF2_to__to { 0% {transform: translate(32.79405px,37.79405px)} 23.333333% {transform: translate(16.79405px,37.79405px)} 66.666667% {transform: translate(33.292278px,37.79405px)} 100% {transform: translate(33.292278px,37.79405px)}} #eCapO5H4LqF1:hover #eCapO5H4LqF2 {animation: eCapO5H4LqF2_c_o 3000ms linear 1 normal forwards}@keyframes eCapO5H4LqF2_c_o { 0% {opacity: 0.9} 23.333333% {opacity: 0} 66.666667% {opacity: 0} 100% {opacity: 0.9}} #eCapO5H4LqF1:hover #eCapO5H4LqF4_to {animation: eCapO5H4LqF4_to__to 3000ms linear 1 normal forwards}@keyframes eCapO5H4LqF4_to__to { 0% {transform: translate(55.857651px,37.79405px)} 23.333333% {transform: translate(71.205952px,37.79405px)} 66.666667% {transform: translate(55.413113px,37.79405px)} 100% {transform: translate(55.413113px,37.79405px)}} #eCapO5H4LqF1:hover #eCapO5H4LqF4 {animation: eCapO5H4LqF4_c_o 3000ms linear 1 normal forwards}@keyframes eCapO5H4LqF4_c_o { 0% {opacity: 0.7} 23.333333% {opacity: 0} 66.666667% {opacity: 0} 100% {opacity: 0.7}} #eCapO5H4LqF1:hover #eCapO5H4LqF6_to {animation: eCapO5H4LqF6_to__to 3000ms linear 1 normal forwards}@keyframes eCapO5H4LqF6_to__to { 0% {transform: translate(16.5617px,38.021736px)} 23.333333% {transform: translate(16.5617px,38.021736px)} 60% {transform: translate(71.42072px,37.768919px)} 70% {transform: translate(75.205952px,37.79405px)} 100% {transform: translate(75.205952px,37.79405px)}} #eCapO5H4LqF1:hover #eCapO5H4LqF6 {animation: eCapO5H4LqF6_c_o 3000ms linear 1 normal forwards}@keyframes eCapO5H4LqF6_c_o { 0% {opacity: 0} 23.333333% {opacity: 0} 53.333333% {opacity: 0.7} 63.333333% {opacity: 0.9} 73.333333% {opacity: 0} 100% {opacity: 0}} #eCapO5H4LqF1:hover #eCapO5H4LqF8_to {animation: eCapO5H4LqF8_to__to 3000ms linear 1 normal forwards}@keyframes eCapO5H4LqF8_to__to { 0% {transform: translate(15.766859px,43.906437px)} 23.333333% {transform: translate(15.766859px,43.906437px)} 56.666667% {transform: translate(48.401175px,43.759056px)} 73.333333% {transform: translate(57.20615px,43.794051px)} 100% {transform: translate(57.20615px,43.794051px)}} #eCapO5H4LqF1:hover #eCapO5H4LqF8 {animation: eCapO5H4LqF8_c_o 3000ms linear 1 normal forwards}@keyframes eCapO5H4LqF8_c_o { 0% {opacity: 0} 23.333333% {opacity: 0} 53.333333% {opacity: 0.7} 60% {opacity: 0.9} 70% {opacity: 0} 100% {opacity: 0}} #eCapO5H4LqF1:hover #eCapO5H4LqF10_to {animation: eCapO5H4LqF10_to__to 3000ms linear 1 normal forwards}@keyframes eCapO5H4LqF10_to__to { 0% {transform: translate(15.428437px,43.890791px)} 23.333333% {transform: translate(15.428437px,43.890791px)} 46.666667% {transform: translate(45.35632px,43.661093px)} 73.333333% {transform: translate(57.206148px,43.794048px)} 100% {transform: translate(57.206148px,43.794048px)}} #eCapO5H4LqF1:hover #eCapO5H4LqF10 {animation: eCapO5H4LqF10_c_o 3000ms linear 1 normal forwards}@keyframes eCapO5H4LqF10_c_o { 0% {opacity: 0} 23.333333% {opacity: 0} 53.333333% {opacity: 0.7} 60% {opacity: 0.9} 70% {opacity: 0} 100% {opacity: 0}} #eCapO5H4LqF1:hover #eCapO5H4LqF12_to {animation: eCapO5H4LqF12_to__to 3000ms linear 1 normal forwards}@keyframes eCapO5H4LqF12_to__to { 0% {transform: translate(45.87784px,43.840704px)} 23.333333% {transform: translate(45.87784px,43.840704px)} 40% {transform: translate(17.461428px,44.005511px)} 56.666667% {transform: translate(47.818246px,43.671929px)} 73.333333% {transform: translate(73.755759px,45.33416px)} 100% {transform: translate(73.755759px,45.33416px)}} #eCapO5H4LqF1:hover #eCapO5H4LqF12 {animation: eCapO5H4LqF12_c_o 3000ms linear 1 normal forwards}@keyframes eCapO5H4LqF12_c_o { 0% {opacity: 0} 23.333333% {opacity: 0} 53.333333% {opacity: 0.7} 60% {opacity: 0.9} 70% {opacity: 0} 100% {opacity: 0}} #eCapO5H4LqF1:hover #eCapO5H4LqF14_to {animation: eCapO5H4LqF14_to__to 3000ms linear 1 normal forwards}@keyframes eCapO5H4LqF14_to__to { 0% {transform: translate(20.342875px,42.201747px)} 23.333333% {transform: translate(20.342875px,42.201747px)} 60% {transform: translate(50.653151px,42.211069px)} 73.333333% {transform: translate(61.523965px,42.0881px)} 100% {transform: translate(61.523965px,42.0881px)}} #eCapO5H4LqF1:hover #eCapO5H4LqF14 {animation: eCapO5H4LqF14_c_o 3000ms linear 1 normal forwards}@keyframes eCapO5H4LqF14_c_o { 0% {opacity: 0} 23.333333% {opacity: 0} 53.333333% {opacity: 0.7} 60% {opacity: 0.9} 70% {opacity: 0} 100% {opacity: 0}}]]></style><defs><filter id="eCapO5H4LqF2-filter" x="-400%" width="600%" y="-400%" height="600%"><feGaussianBlur id="eCapO5H4LqF2-filter-drop-shadow-0-blur" in="SourceAlpha" stdDeviation="3,4"/><feOffset id="eCapO5H4LqF2-filter-drop-shadow-0-offset" dx="4" dy="0" result="tmp"/><feFlood id="eCapO5H4LqF2-filter-drop-shadow-0-flood" flood-color="rgba(255,97,27,0.42)"/><feComposite id="eCapO5H4LqF2-filter-drop-shadow-0-composite" operator="in" in2="tmp"/><feMerge id="eCapO5H4LqF2-filter-drop-shadow-0-merge"><feMergeNode id="eCapO5H4LqF2-filter-drop-shadow-0-merge-node-1"/><feMergeNode id="eCapO5H4LqF2-filter-drop-shadow-0-merge-node-2" in="SourceGraphic"/></feMerge></filter><filter id="eCapO5H4LqF4-filter" x="-400%" width="600%" y="-400%" height="600%"><feGaussianBlur id="eCapO5H4LqF4-filter-drop-shadow-0-blur" in="SourceAlpha" stdDeviation="2,4"/><feOffset id="eCapO5H4LqF4-filter-drop-shadow-0-offset" dx="6" dy="0" result="tmp"/><feFlood id="eCapO5H4LqF4-filter-drop-shadow-0-flood" flood-color="rgba(110,22,198,0.36)"/><feComposite id="eCapO5H4LqF4-filter-drop-shadow-0-composite" operator="in" in2="tmp"/><feMerge id="eCapO5H4LqF4-filter-drop-shadow-0-merge"><feMergeNode id="eCapO5H4LqF4-filter-drop-shadow-0-merge-node-1"/><feMergeNode id="eCapO5H4LqF4-filter-drop-shadow-0-merge-node-2" in="SourceGraphic"/></feMerge></filter></defs><g id="eCapO5H4LqF2_to" transform="translate(32.79405,37.79405)"><g id="eCapO5H4LqF2" transform="translate(-32.79405,-26.79405)" opacity="0.9" filter="url(#eCapO5H4LqF2-filter)"><path id="eCapO5H4LqF3" d="M16,12.488C16,11.1139,17.1139,10,18.488,10L47.1001,10C48.4742,10,49.5881,11.1139,49.5881,12.488L49.5881,41.1001C49.5881,42.4742,48.4742,43.5881,47.1001,43.5881L18.488,43.5881C17.1139,43.5881,16,42.4742,16,41.1001L16,12.488Z" fill="rgb(255,97,27)" stroke="none" stroke-width="1"/></g></g><g id="eCapO5H4LqF4_to" transform="translate(55.857651,37.79405)"><g id="eCapO5H4LqF4" transform="translate(-53.20615,-43.79405)" opacity="0.7" filter="url(#eCapO5H4LqF4-filter)"><path id="eCapO5H4LqF5" d="M53.2062,60.5881C43.9311,60.5881,36.4121,53.0692,36.4121,43.7941C36.4121,34.519,43.9311,27,53.2062,27C62.4812,27,70.0002,34.519,70.0002,43.7941C70.0002,53.0692,62.4812,60.5881,53.2062,60.5881Z" transform="matrix(1 0 0 1 4 0)" fill="rgb(110,22,198)" stroke="none" stroke-width="1"/></g></g><g id="eCapO5H4LqF6_to" transform="translate(16.5617,38.021736)"><g id="eCapO5H4LqF6" transform="translate(-57.20615,-43.79405)" opacity="0"><path id="eCapO5H4LqF7" d="M53.2062,60.5881C43.9311,60.5881,36.4121,53.0692,36.4121,43.7941C36.4121,34.519,43.9311,27,53.2062,27C62.4812,27,70.0002,34.519,70.0002,43.7941C70.0002,53.0692,62.4812,60.5881,53.2062,60.5881Z" transform="matrix(1 0 0 1 4 0)" fill="rgb(110,22,198)" stroke="none" stroke-width="1"/><g id="eCapO5H4LqF8_to" transform="translate(15.766859,43.906437)"><g id="eCapO5H4LqF8" transform="translate(-57.20615,-43.79405)" opacity="0"><path id="eCapO5H4LqF9" d="M53.2062,60.5881C43.9311,60.5881,36.4121,53.0692,36.4121,43.7941C36.4121,34.519,43.9311,27,53.2062,27C62.4812,27,70.0002,34.519,70.0002,43.7941C70.0002,53.0692,62.4812,60.5881,53.2062,60.5881Z" transform="matrix(1 0 0 1 4 0)" fill="rgb(110,22,198)" stroke="none" stroke-width="1"/><g id="eCapO5H4LqF10_to" transform="translate(15.428437,43.890791)"><g id="eCapO5H4LqF10" transform="translate(-57.20615,-43.79405)" opacity="0"><path id="eCapO5H4LqF11" d="M53.2062,60.5881C43.9311,60.5881,36.4121,53.0692,36.4121,43.7941C36.4121,34.519,43.9311,27,53.2062,27C62.4812,27,70.0002,34.519,70.0002,43.7941C70.0002,53.0692,62.4812,60.5881,53.2062,60.5881Z" transform="matrix(1 0 0 1 4 0)" fill="rgb(110,22,198)" stroke="none" stroke-width="1"/><g id="eCapO5H4LqF12_to" transform="translate(45.87784,43.840704)"><g id="eCapO5H4LqF12" transform="translate(-57.141819,-42.0881)" opacity="0"><path id="eCapO5H4LqF13" d="M53.2062,60.5881C43.9311,60.5881,36.4121,53.0692,36.4121,43.7941C36.4121,34.519,43.9311,27,53.2062,27C62.4812,27,70.0002,34.519,70.0002,43.7941C70.0002,53.0692,62.4812,60.5881,53.2062,60.5881Z" transform="matrix(1 0 0 1 3.935669 -1.70595)" fill="rgb(110,22,198)" stroke="none" stroke-width="1"/><g id="eCapO5H4LqF14_to" transform="translate(20.342875,42.201747)"><g id="eCapO5H4LqF14" transform="translate(-57.20615,-43.79405)" opacity="0"><path id="eCapO5H4LqF15" d="M53.2062,60.5881C43.9311,60.5881,36.4121,53.0692,36.4121,43.7941C36.4121,34.519,43.9311,27,53.2062,27C62.4812,27,70.0002,34.519,70.0002,43.7941C70.0002,53.0692,62.4812,60.5881,53.2062,60.5881Z" transform="matrix(1 0 0 1 4 0)" fill="rgb(110,22,198)" stroke="none" stroke-width="1"/></g></g></g></g></g></g></g></g></g></g></svg>