<svg width="135" height="34" viewBox="0 0 135 34" fill="none" xmlns="http://www.w3.org/2000/svg">
<path fill-rule="evenodd" clip-rule="evenodd" d="M20.0038 0.0841583C20.0038 0.130445 19.8513 0.168317 19.6648 0.168317C19.4783 0.168317 19.3257 0.206188 19.3257 0.252475C19.3257 0.298763 19.2113 0.336634 19.0715 0.336634C18.9316 0.336634 18.8172 0.374505 18.8172 0.420792C18.8172 0.467079 18.7409 0.50495 18.6476 0.50495C18.5544 0.50495 18.4781 0.542822 18.4781 0.589109C18.4781 0.635396 18.4018 0.673268 18.3086 0.673268C18.2154 0.673268 18.1391 0.711139 18.1391 0.757426C18.1391 0.803713 18.0628 0.841584 17.9695 0.841584C17.8763 0.841584 17.8 0.879455 17.8 0.925742C17.8 0.97203 17.7321 1.0099 17.6492 1.0099C17.5663 1.0099 17.4434 1.08564 17.3762 1.17822C17.309 1.27079 17.2047 1.34653 17.1445 1.34653C17.0843 1.34653 16.6731 1.70581 16.2308 2.14495C15.7885 2.58408 15.4267 2.99234 15.4267 3.05209C15.4267 3.11193 15.3504 3.21544 15.2572 3.28218C15.1639 3.34892 15.0876 3.46253 15.0876 3.53465C15.0876 3.60678 15.0114 3.72039 14.9181 3.78713C14.8249 3.85387 14.7486 3.97581 14.7486 4.0582C14.7486 4.14051 14.7104 4.20792 14.6638 4.20792C14.6172 4.20792 14.5791 4.32154 14.5791 4.4604C14.5791 4.59926 14.5409 4.71287 14.4943 4.71287C14.4477 4.71287 14.4095 4.78861 14.4095 4.88119C14.4095 4.97376 14.3714 5.04951 14.3248 5.04951C14.2782 5.04951 14.24 5.20099 14.24 5.38614C14.24 5.57129 14.2019 5.72277 14.1553 5.72277C14.1081 5.72277 14.0705 5.94722 14.0705 6.22772C14.0705 6.50822 14.0329 6.73267 13.9857 6.73267C13.9391 6.73267 13.901 6.92203 13.901 7.15347C13.901 7.3849 13.9391 7.57426 13.9857 7.57426C14.0324 7.57426 14.0705 7.65 14.0705 7.74258C14.0705 7.89684 14.127 7.91089 14.7486 7.91089C15.1442 7.91089 15.4267 7.8758 15.4267 7.82673C15.4267 7.78045 15.5793 7.74258 15.7657 7.74258C15.9522 7.74258 16.1048 7.7047 16.1048 7.65842C16.1048 7.61213 16.2192 7.57426 16.3591 7.57426C16.4989 7.57426 16.6134 7.53639 16.6134 7.4901C16.6134 7.44381 16.6896 7.40594 16.7829 7.40594C16.8761 7.40594 16.9524 7.36807 16.9524 7.32178C16.9524 7.27549 17.0203 7.23762 17.1032 7.23762C17.1862 7.23762 17.309 7.16188 17.3762 7.06931C17.4434 6.97673 17.5476 6.90099 17.6078 6.90099C17.7506 6.90099 19.4953 5.16876 19.4953 5.02695C19.4953 4.9672 19.5716 4.86377 19.6648 4.79703C19.758 4.73029 19.8343 4.60835 19.8343 4.52596C19.8343 4.44365 19.8725 4.37624 19.9191 4.37624C19.9657 4.37624 20.0038 4.3005 20.0038 4.20792C20.0038 4.11535 20.042 4.0396 20.0886 4.0396C20.1352 4.0396 20.1734 3.96386 20.1734 3.87129C20.1734 3.77871 20.2115 3.70297 20.2581 3.70297C20.3047 3.70297 20.3429 3.62723 20.3429 3.53465C20.3429 3.44208 20.381 3.36634 20.4276 3.36634C20.4743 3.36634 20.5124 3.29059 20.5124 3.19802C20.5124 3.10545 20.5506 3.0297 20.5972 3.0297C20.6438 3.0297 20.6819 2.87822 20.6819 2.69307C20.6819 2.50792 20.7201 2.35644 20.7667 2.35644C20.8133 2.35644 20.8515 2.16708 20.8515 1.93564C20.8515 1.70421 20.8896 1.51485 20.9362 1.51485C20.9865 1.51485 21.021 1.20624 21.021 0.757426V0H20.5124C20.2299 0 20.0038 0.0373662 20.0038 0.0841583ZM63.741 8.07921V12.1188H64.2496H64.7582V8.07921V4.0396H64.2496H63.741V8.07921ZM81.3715 5.55446C81.3715 6.95056 81.3597 7.06931 81.2207 7.06931C81.1378 7.06931 81.015 6.99356 80.9477 6.90099C80.8805 6.80842 80.7577 6.73267 80.6747 6.73267C80.5918 6.73267 80.5239 6.6948 80.5239 6.64852C80.5239 6.59802 80.1849 6.56436 79.6763 6.56436C79.1677 6.56436 78.8287 6.59802 78.8287 6.64852C78.8287 6.6948 78.7524 6.73267 78.6592 6.73267C78.5659 6.73267 78.4896 6.77055 78.4896 6.81683C78.4896 6.86312 78.4312 6.90099 78.3597 6.90099C78.1909 6.90099 77.642 7.446 77.642 7.61356C77.642 7.68451 77.6039 7.74258 77.5572 7.74258C77.5106 7.74258 77.4725 7.81832 77.4725 7.91089C77.4725 8.00347 77.4343 8.07921 77.3877 8.07921C77.3411 8.07921 77.303 8.19282 77.303 8.33168C77.303 8.47055 77.2648 8.58416 77.2182 8.58416C77.1668 8.58416 77.1334 8.94882 77.1334 9.5099C77.1334 10.071 77.1668 10.4356 77.2182 10.4356C77.2648 10.4356 77.303 10.5493 77.303 10.6881C77.303 10.827 77.3411 10.9406 77.3877 10.9406C77.4343 10.9406 77.4725 10.9982 77.4725 11.0687C77.4725 11.289 78.3752 12.1188 78.6149 12.1188C78.7325 12.1188 78.8287 12.1567 78.8287 12.203C78.8287 12.2529 79.1395 12.2871 79.5915 12.2871C80.0436 12.2871 80.3544 12.2529 80.3544 12.203C80.3544 12.1567 80.4146 12.1188 80.4882 12.1188C80.5618 12.1188 80.7685 11.9673 80.9477 11.7822C81.3182 11.3993 81.3715 11.3781 81.3715 11.6139C81.3715 11.7064 81.4097 11.7822 81.4563 11.7822C81.5029 11.7822 81.5411 11.8579 81.5411 11.9505C81.5411 12.0963 81.5976 12.1188 81.9649 12.1188H82.3887V8.07921V4.0396H81.8801H81.3715V5.55446ZM104.935 4.20792C104.935 4.3005 104.897 4.37624 104.851 4.37624C104.796 4.37624 104.766 5.52643 104.766 7.65842C104.766 9.7904 104.796 10.9406 104.851 10.9406C104.899 10.9406 104.935 11.1931 104.935 11.5297V12.1188H105.444H105.953V10.1832C105.953 8.94882 105.983 8.24752 106.037 8.24752C106.084 8.24752 106.122 8.18904 106.122 8.1175C106.122 7.9491 106.5 7.57426 106.669 7.57426C106.741 7.57426 106.8 7.53639 106.8 7.4901C106.8 7.44331 107.026 7.40594 107.309 7.40594C107.591 7.40594 107.817 7.44331 107.817 7.4901C107.817 7.53639 107.877 7.57426 107.95 7.57426C108.122 7.57426 108.326 7.77691 108.326 7.947C108.326 8.01971 108.364 8.07921 108.411 8.07921C108.457 8.07921 108.495 8.26856 108.495 8.5C108.495 8.73144 108.534 8.92079 108.58 8.92079C108.634 8.92079 108.665 9.53793 108.665 10.604V12.2871H109.052C109.686 12.2871 109.682 12.3014 109.682 10.1471C109.682 8.93678 109.651 8.24752 109.597 8.24752C109.551 8.24752 109.513 8.13391 109.513 7.99505C109.513 7.85619 109.474 7.74258 109.428 7.74258C109.381 7.74258 109.343 7.66683 109.343 7.57426C109.343 7.48168 109.305 7.40594 109.258 7.40594C109.212 7.40594 109.173 7.34644 109.173 7.27373C109.173 7.10364 108.969 6.90099 108.798 6.90099C108.725 6.90099 108.665 6.86312 108.665 6.81683C108.665 6.77055 108.589 6.73267 108.495 6.73267C108.402 6.73267 108.326 6.6948 108.326 6.64852C108.326 6.59945 108.043 6.56436 107.648 6.56436C107.252 6.56436 106.97 6.59945 106.97 6.64852C106.97 6.6948 106.893 6.73267 106.8 6.73267C106.707 6.73267 106.631 6.77055 106.631 6.81683C106.631 6.86312 106.568 6.90099 106.492 6.90099C106.416 6.90099 106.284 6.98086 106.199 7.07848C106.059 7.23821 106.031 7.24309 105.913 7.12662C105.806 7.01999 105.783 6.73688 105.783 5.51835V4.0396H105.359C104.992 4.0396 104.935 4.06207 104.935 4.20792ZM36.6172 4.4604C36.6172 4.50668 36.4646 4.54455 36.2781 4.54455H35.9391V8.33168C35.9391 12.0627 35.9416 12.1188 36.1086 12.1188C36.2019 12.1188 36.2781 12.1567 36.2781 12.203C36.2781 12.2553 36.7585 12.2871 37.5496 12.2871C38.3407 12.2871 38.821 12.2553 38.821 12.203C38.821 12.1567 39.0117 12.1188 39.2448 12.1188C39.4779 12.1188 39.6686 12.0809 39.6686 12.0347C39.6686 11.9884 39.7831 11.9505 39.9229 11.9505C40.0628 11.9505 40.1772 11.9126 40.1772 11.8663C40.1772 11.8201 40.2535 11.7822 40.3467 11.7822C40.44 11.7822 40.5162 11.7443 40.5162 11.698C40.5162 11.6517 40.5741 11.6139 40.645 11.6139C40.8126 11.6139 41.8724 10.5615 41.8724 10.3952C41.8724 10.3248 41.9106 10.2673 41.9572 10.2673C42.0038 10.2673 42.042 10.1537 42.042 10.0149C42.042 9.87599 42.0801 9.76238 42.1267 9.76238C42.1733 9.76238 42.2115 9.64876 42.2115 9.5099C42.2115 9.37104 42.2496 9.25743 42.2962 9.25743C42.3484 9.25743 42.381 8.83663 42.381 8.16337C42.381 7.4901 42.3484 7.06931 42.2962 7.06931C42.2496 7.06931 42.2115 6.95569 42.2115 6.81683C42.2115 6.67797 42.1733 6.56436 42.1267 6.56436C42.0801 6.56436 42.042 6.48861 42.042 6.39604C42.042 6.30347 42.0038 6.22772 41.9572 6.22772C41.9106 6.22772 41.8724 6.17024 41.8724 6.09989C41.8724 5.93351 40.8126 4.88119 40.645 4.88119C40.5741 4.88119 40.5162 4.84332 40.5162 4.79703C40.5162 4.75074 40.4018 4.71287 40.262 4.71287C40.1221 4.71287 40.0077 4.675 40.0077 4.62871C40.0077 4.58243 39.8551 4.54455 39.6686 4.54455C39.4822 4.54455 39.3296 4.50668 39.3296 4.4604C39.3296 4.4078 38.821 4.37624 37.9734 4.37624C37.1258 4.37624 36.6172 4.4078 36.6172 4.4604ZM102.223 5.13366C102.223 5.17995 102.125 5.21782 102.005 5.21782C101.65 5.21782 101.545 5.39826 101.545 6.01135V6.56436H101.242C100.859 6.56436 100.697 6.72451 100.697 7.10541V7.40594H101.121H101.545V9.17327C101.545 10.2954 101.576 10.9406 101.63 10.9406C101.676 10.9406 101.714 11.0921 101.714 11.2772C101.714 11.4624 101.753 11.6139 101.799 11.6139C101.846 11.6139 101.884 11.6896 101.884 11.7822C101.884 11.8875 101.94 11.9505 102.035 11.9505C102.118 11.9505 102.241 12.0262 102.308 12.1188C102.413 12.264 102.527 12.2871 103.138 12.2871C103.896 12.2871 104.088 12.2021 104.088 11.8663C104.088 11.5826 103.883 11.4455 103.458 11.4455C103.245 11.4455 103.071 11.4077 103.071 11.3614C103.071 11.3151 102.994 11.2772 102.901 11.2772C102.76 11.2772 102.732 11.2211 102.732 10.9406C102.732 10.7554 102.693 10.604 102.647 10.604C102.593 10.604 102.562 10.0549 102.562 9.12521C102.562 7.95575 102.587 7.62122 102.683 7.5262C102.767 7.44314 103.003 7.40594 103.446 7.40594H104.088V7.10541C104.088 6.65213 103.944 6.56436 103.204 6.56436H102.562V5.80693C102.562 5.10564 102.549 5.04951 102.393 5.04951C102.299 5.04951 102.223 5.08738 102.223 5.13366ZM39.1601 5.30198C39.1601 5.34827 39.2745 5.38614 39.4143 5.38614C39.5542 5.38614 39.6686 5.42401 39.6686 5.4703C39.6686 5.51658 39.7449 5.55446 39.8381 5.55446C39.9314 5.55446 40.0077 5.59233 40.0077 5.63861C40.0077 5.6849 40.0662 5.72277 40.1376 5.72277C40.3064 5.72277 40.8553 6.26778 40.8553 6.43534C40.8553 6.50629 40.8934 6.56436 40.9401 6.56436C40.9867 6.56436 41.0248 6.6401 41.0248 6.73267C41.0248 6.82525 41.063 6.90099 41.1096 6.90099C41.1562 6.90099 41.1943 7.05248 41.1943 7.23762C41.1943 7.42277 41.2325 7.57426 41.2791 7.57426C41.3275 7.57426 41.3639 7.82673 41.3639 8.16337C41.3639 8.5 41.3275 8.75248 41.2791 8.75248C41.2325 8.75248 41.1943 8.90396 41.1943 9.08911C41.1943 9.27426 41.1562 9.42574 41.1096 9.42574C41.063 9.42574 41.0248 9.53936 41.0248 9.67822C41.0248 9.81708 40.9867 9.93069 40.9401 9.93069C40.8934 9.93069 40.8553 9.98851 40.8553 10.0591C40.8553 10.2262 40.1357 10.9406 39.9675 10.9406C39.8964 10.9406 39.8381 10.9785 39.8381 11.0248C39.8381 11.071 39.7619 11.1089 39.6686 11.1089C39.5754 11.1089 39.4991 11.1468 39.4991 11.1931C39.4991 11.2394 39.3465 11.2772 39.1601 11.2772C38.9736 11.2772 38.821 11.3151 38.821 11.3614C38.821 11.4119 38.482 11.4455 37.9734 11.4455H37.1258V8.33168V5.21782H38.1429C38.7645 5.21782 39.1601 5.25056 39.1601 5.30198ZM44.9239 6.64852C44.9239 6.6948 44.8248 6.73267 44.7036 6.73267C44.5681 6.73267 44.3918 6.82988 44.2458 6.98515C44.1152 7.12401 43.9472 7.23762 43.8727 7.23762C43.7981 7.23762 43.7372 7.30503 43.7372 7.38734C43.7372 7.46973 43.6609 7.59168 43.5677 7.65842C43.4744 7.72515 43.3982 7.8471 43.3982 7.92949C43.3982 8.0118 43.36 8.07921 43.3134 8.07921C43.2668 8.07921 43.2286 8.19282 43.2286 8.33168C43.2286 8.47055 43.1905 8.58416 43.1439 8.58416C43.0925 8.58416 43.0591 8.94882 43.0591 9.5099C43.0591 10.071 43.0925 10.4356 43.1439 10.4356C43.1905 10.4356 43.2286 10.5114 43.2286 10.604C43.2286 10.6965 43.2668 10.7723 43.3134 10.7723C43.36 10.7723 43.3982 10.848 43.3982 10.9406C43.3982 11.0332 43.4363 11.1089 43.4829 11.1089C43.5295 11.1089 43.5677 11.1674 43.5677 11.2389C43.5677 11.398 43.9414 11.7822 44.0961 11.7822C44.1578 11.7822 44.2633 11.8579 44.3305 11.9505C44.4023 12.0493 44.55 12.1188 44.6883 12.1188C44.8178 12.1188 44.9239 12.1567 44.9239 12.203C44.9239 12.2535 45.2629 12.2871 45.7715 12.2871C46.2801 12.2871 46.6191 12.2535 46.6191 12.203C46.6191 12.1567 46.7251 12.1188 46.8547 12.1188C46.993 12.1188 47.1406 12.0493 47.2124 11.9505C47.2797 11.8579 47.3852 11.7822 47.4469 11.7822C47.6016 11.7822 47.9753 11.398 47.9753 11.2389C47.9753 11.1674 48.0134 11.1089 48.0601 11.1089C48.1067 11.1089 48.1448 11.0332 48.1448 10.9406C48.1448 10.848 48.183 10.7723 48.2296 10.7723C48.2762 10.7723 48.3143 10.6965 48.3143 10.604C48.3143 10.5114 48.3525 10.4356 48.3991 10.4356C48.4509 10.4356 48.4839 10.0429 48.4839 9.42574C48.4839 8.80861 48.4509 8.41584 48.3991 8.41584C48.3525 8.41584 48.3143 8.30223 48.3143 8.16337C48.3143 8.02451 48.2762 7.91089 48.2296 7.91089C48.183 7.91089 48.1448 7.85307 48.1448 7.78247C48.1448 7.61541 47.4253 6.90099 47.257 6.90099C47.1859 6.90099 47.1277 6.86312 47.1277 6.81683C47.1277 6.77055 47.0514 6.73267 46.9582 6.73267C46.8649 6.73267 46.7886 6.6948 46.7886 6.64852C46.7886 6.59752 46.4214 6.56436 45.8563 6.56436C45.2911 6.56436 44.9239 6.59752 44.9239 6.64852ZM52.3829 6.73267C52.3829 6.82525 52.3448 6.90099 52.2982 6.90099C52.2515 6.90099 52.2134 7.0146 52.2134 7.15347C52.2134 7.29233 52.1753 7.40594 52.1286 7.40594C52.082 7.40594 52.0439 7.51956 52.0439 7.65842C52.0439 7.79728 52.0057 7.91089 51.9591 7.91089C51.9125 7.91089 51.8744 8.02451 51.8744 8.16337C51.8744 8.30223 51.8362 8.41584 51.7896 8.41584C51.743 8.41584 51.7048 8.56733 51.7048 8.75248C51.7048 8.93762 51.6667 9.08911 51.6201 9.08911C51.5735 9.08911 51.5353 9.20272 51.5353 9.34158C51.5353 9.48045 51.4972 9.59406 51.4505 9.59406C51.4039 9.59406 51.3658 9.70767 51.3658 9.84654C51.3658 9.9854 51.3276 10.099 51.281 10.099C51.2344 10.099 51.1963 10.2126 51.1963 10.3515C51.1963 10.4903 51.1581 10.604 51.1115 10.604C51.0649 10.604 51.0267 10.6797 51.0267 10.7723C51.0267 10.8649 50.9886 10.9406 50.942 10.9406C50.8954 10.9406 50.8572 10.7891 50.8572 10.604C50.8572 10.4188 50.8191 10.2673 50.7725 10.2673C50.7258 10.2673 50.6877 10.1158 50.6877 9.93069C50.6877 9.74555 50.6495 9.59406 50.6029 9.59406C50.5563 9.59406 50.5182 9.44258 50.5182 9.25743C50.5182 9.07228 50.48 8.92079 50.4334 8.92079C50.3868 8.92079 50.3486 8.76931 50.3486 8.58416C50.3486 8.39901 50.3105 8.24752 50.2639 8.24752C50.2173 8.24752 50.1791 8.09604 50.1791 7.91089C50.1791 7.72574 50.141 7.57426 50.0944 7.57426C50.0477 7.57426 50.0096 7.46064 50.0096 7.32178C50.0096 7.18292 49.9715 7.06931 49.9248 7.06931C49.8782 7.06931 49.8401 6.99356 49.8401 6.90099C49.8401 6.75136 49.7835 6.73267 49.3315 6.73267H48.8229V6.98515C48.8229 7.12401 48.8611 7.23762 48.9077 7.23762C48.9543 7.23762 48.9924 7.35124 48.9924 7.4901C48.9924 7.62896 49.0306 7.74258 49.0772 7.74258C49.1238 7.74258 49.162 7.85619 49.162 7.99505C49.162 8.13391 49.2001 8.24752 49.2467 8.24752C49.2934 8.24752 49.3315 8.39901 49.3315 8.58416C49.3315 8.76931 49.3696 8.92079 49.4163 8.92079C49.4629 8.92079 49.501 9.03441 49.501 9.17327C49.501 9.31213 49.5392 9.42574 49.5858 9.42574C49.6324 9.42574 49.6705 9.53936 49.6705 9.67822C49.6705 9.81708 49.7087 9.93069 49.7553 9.93069C49.8019 9.93069 49.8401 10.0822 49.8401 10.2673C49.8401 10.4525 49.8782 10.604 49.9248 10.604C49.9715 10.604 50.0096 10.7176 50.0096 10.8564C50.0096 10.9953 50.0477 11.1089 50.0944 11.1089C50.141 11.1089 50.1791 11.2225 50.1791 11.3614C50.1791 11.5002 50.2173 11.6139 50.2639 11.6139C50.3105 11.6139 50.3486 11.7275 50.3486 11.8663V12.1188H50.942H51.5353V11.8663C51.5353 11.7275 51.5735 11.6139 51.6201 11.6139C51.6667 11.6139 51.7048 11.5002 51.7048 11.3614C51.7048 11.2225 51.743 11.1089 51.7896 11.1089C51.8362 11.1089 51.8744 10.9953 51.8744 10.8564C51.8744 10.7176 51.9125 10.604 51.9591 10.604C52.0057 10.604 52.0439 10.4903 52.0439 10.3515C52.0439 10.2126 52.082 10.099 52.1286 10.099C52.1753 10.099 52.2134 9.9854 52.2134 9.84654C52.2134 9.70767 52.2515 9.59406 52.2982 9.59406C52.3448 9.59406 52.3829 9.48045 52.3829 9.34158C52.3829 9.20272 52.4211 9.08911 52.4677 9.08911C52.5143 9.08911 52.5525 8.93762 52.5525 8.75248C52.5525 8.56733 52.5906 8.41584 52.6372 8.41584C52.6838 8.41584 52.722 8.3401 52.722 8.24752C52.722 8.15495 52.7601 8.07921 52.8067 8.07921C52.8534 8.07921 52.8915 8.19282 52.8915 8.33168C52.8915 8.47055 52.9296 8.58416 52.9763 8.58416C53.0229 8.58416 53.061 8.69777 53.061 8.83663C53.061 8.9755 53.0992 9.08911 53.1458 9.08911C53.1924 9.08911 53.2305 9.2406 53.2305 9.42574C53.2305 9.61089 53.2687 9.76238 53.3153 9.76238C53.3619 9.76238 53.4001 9.87599 53.4001 10.0149C53.4001 10.1537 53.4382 10.2673 53.4848 10.2673C53.5315 10.2673 53.5696 10.3809 53.5696 10.5198C53.5696 10.6587 53.6077 10.7723 53.6544 10.7723C53.701 10.7723 53.7391 10.8859 53.7391 11.0248C53.7391 11.1636 53.7773 11.2772 53.8239 11.2772C53.8705 11.2772 53.9086 11.3908 53.9086 11.5297C53.9086 11.6686 53.9468 11.7822 53.9934 11.7822C54.04 11.7822 54.0782 11.8579 54.0782 11.9505C54.0782 12.0987 54.1347 12.1188 54.5504 12.1188C55.0789 12.1188 55.2648 11.9999 55.2648 11.6619C55.2648 11.5429 55.303 11.4455 55.3496 11.4455C55.3962 11.4455 55.4344 11.3319 55.4344 11.1931C55.4344 11.0542 55.4725 10.9406 55.5191 10.9406C55.5657 10.9406 55.6039 10.827 55.6039 10.6881C55.6039 10.5493 55.642 10.4356 55.6886 10.4356C55.7353 10.4356 55.7734 10.2842 55.7734 10.099C55.7734 9.91386 55.8116 9.76238 55.8582 9.76238C55.9048 9.76238 55.9429 9.64876 55.9429 9.5099C55.9429 9.37104 55.9811 9.25743 56.0277 9.25743C56.0743 9.25743 56.1125 9.14381 56.1125 9.00495C56.1125 8.86609 56.1506 8.75248 56.1972 8.75248C56.2438 8.75248 56.282 8.63886 56.282 8.5C56.282 8.36114 56.3201 8.24752 56.3667 8.24752C56.4134 8.24752 56.4515 8.13391 56.4515 7.99505C56.4515 7.85619 56.4897 7.74258 56.5363 7.74258C56.5829 7.74258 56.621 7.62896 56.621 7.4901C56.621 7.35124 56.6592 7.23762 56.7058 7.23762C56.7524 7.23762 56.7906 7.12401 56.7906 6.98515V6.73267H56.282H55.7734V6.98515C55.7734 7.12401 55.7353 7.23762 55.6886 7.23762C55.642 7.23762 55.6039 7.35124 55.6039 7.4901C55.6039 7.62896 55.5657 7.74258 55.5191 7.74258C55.4725 7.74258 55.4344 7.89406 55.4344 8.07921C55.4344 8.26436 55.3962 8.41584 55.3496 8.41584C55.303 8.41584 55.2648 8.52946 55.2648 8.66832C55.2648 8.80718 55.2267 8.92079 55.1801 8.92079C55.1335 8.92079 55.0953 9.07228 55.0953 9.25743C55.0953 9.44258 55.0572 9.59406 55.0106 9.59406C54.9639 9.59406 54.9258 9.74555 54.9258 9.93069C54.9258 10.1158 54.8876 10.2673 54.841 10.2673C54.7944 10.2673 54.7563 10.3809 54.7563 10.5198C54.7563 10.6587 54.7345 10.7723 54.7079 10.7723C54.5838 10.7723 54.4172 10.5104 54.4172 10.3154C54.4172 10.1964 54.3791 10.099 54.3325 10.099C54.2858 10.099 54.2477 9.9854 54.2477 9.84654C54.2477 9.70767 54.2095 9.59406 54.1629 9.59406C54.1163 9.59406 54.0782 9.44258 54.0782 9.25743C54.0782 9.07228 54.04 8.92079 53.9934 8.92079C53.9468 8.92079 53.9086 8.80718 53.9086 8.66832C53.9086 8.52946 53.8705 8.41584 53.8239 8.41584C53.7773 8.41584 53.7391 8.30223 53.7391 8.16337C53.7391 8.02451 53.701 7.91089 53.6544 7.91089C53.6077 7.91089 53.5696 7.75941 53.5696 7.57426C53.5696 7.38911 53.5315 7.23762 53.4848 7.23762C53.4382 7.23762 53.4001 7.14025 53.4001 7.02125C53.4001 6.70196 53.2105 6.56436 52.7704 6.56436C52.4395 6.56436 52.3829 6.58893 52.3829 6.73267ZM59.6725 6.64852C59.6725 6.6948 59.5962 6.73267 59.5029 6.73267C59.4097 6.73267 59.3334 6.77055 59.3334 6.81683C59.3334 6.86312 59.2655 6.90099 59.1826 6.90099C59.0996 6.90099 58.9768 6.97673 58.9096 7.06931C58.718 7.33323 58.4858 7.28711 58.4858 6.98515C58.4858 6.73831 58.4764 6.73267 58.062 6.73267H57.6382V9.42574V12.1188H58.1467H58.6553V10.2673C58.6553 9.08911 58.6862 8.41584 58.7401 8.41584C58.7867 8.41584 58.8248 8.3401 58.8248 8.24752C58.8248 8.15495 58.863 8.07921 58.9096 8.07921C58.9562 8.07921 58.9944 8.00347 58.9944 7.91089C58.9944 7.80561 59.0509 7.74258 59.1452 7.74258C59.2281 7.74258 59.351 7.66683 59.4182 7.57426C59.5161 7.43935 59.6376 7.40594 60.0302 7.40594C60.3003 7.40594 60.5201 7.44373 60.5201 7.4901C60.5201 7.53639 60.579 7.57426 60.651 7.57426C60.857 7.57426 61.1982 7.96543 61.1982 8.20166C61.1982 8.31948 61.2363 8.41584 61.2829 8.41584C61.3369 8.41584 61.3677 9.07708 61.3677 10.2312C61.3677 12.2299 61.3819 12.2871 61.8763 12.2871C62.3753 12.2871 62.3849 12.2452 62.3849 10.0629C62.3849 8.79657 62.3542 8.07921 62.3001 8.07921C62.2535 8.07921 62.2153 7.96559 62.2153 7.82673C62.2153 7.68787 62.1772 7.57426 62.1306 7.57426C62.0839 7.57426 62.0458 7.51619 62.0458 7.44524C62.0458 7.27768 61.4969 6.73267 61.3281 6.73267C61.2567 6.73267 61.1982 6.6948 61.1982 6.64852C61.1982 6.59861 60.8874 6.56436 60.4353 6.56436C59.9833 6.56436 59.6725 6.59861 59.6725 6.64852ZM67.6401 6.64852C67.6401 6.6948 67.5341 6.73267 67.4045 6.73267C67.2662 6.73267 67.1185 6.80219 67.0468 6.90099C66.9795 6.99356 66.8731 7.06931 66.8101 7.06931C66.6625 7.06931 66.4534 7.27693 66.4534 7.42345C66.4534 7.48598 66.3771 7.59168 66.2839 7.65842C66.1907 7.72515 66.1144 7.8471 66.1144 7.92949C66.1144 8.0118 66.0762 8.07921 66.0296 8.07921C65.983 8.07921 65.9449 8.19282 65.9449 8.33168C65.9449 8.47055 65.9067 8.58416 65.8601 8.58416C65.8087 8.58416 65.7753 8.94882 65.7753 9.5099C65.7753 10.071 65.8087 10.4356 65.8601 10.4356C65.9067 10.4356 65.9449 10.5114 65.9449 10.604C65.9449 10.6965 65.983 10.7723 66.0296 10.7723C66.0762 10.7723 66.1144 10.848 66.1144 10.9406C66.1144 11.0332 66.1525 11.1089 66.1991 11.1089C66.2458 11.1089 66.2839 11.1674 66.2839 11.2389C66.2839 11.398 66.6576 11.7822 66.8123 11.7822C66.874 11.7822 66.9795 11.8579 67.0468 11.9505C67.1185 12.0493 67.2662 12.1188 67.4045 12.1188C67.5341 12.1188 67.6401 12.1567 67.6401 12.203C67.6401 12.2535 67.9791 12.2871 68.4877 12.2871C68.9963 12.2871 69.3353 12.2535 69.3353 12.203C69.3353 12.1567 69.4116 12.1188 69.5049 12.1188C69.5981 12.1188 69.6744 12.0809 69.6744 12.0347C69.6744 11.9884 69.7507 11.9505 69.8439 11.9505C69.9371 11.9505 70.0134 11.9126 70.0134 11.8663C70.0134 11.8201 70.0723 11.7822 70.1444 11.7822C70.314 11.7822 70.6915 11.4073 70.6915 11.2389C70.6915 11.1674 70.7297 11.1089 70.7763 11.1089C70.8229 11.1089 70.8611 11.0332 70.8611 10.9406C70.8611 10.848 70.8992 10.7723 70.9458 10.7723C70.9924 10.7723 71.0306 10.6965 71.0306 10.604C71.0306 10.5114 71.0687 10.4356 71.1153 10.4356C71.1671 10.4356 71.2001 10.0429 71.2001 9.42574C71.2001 8.80861 71.1671 8.41584 71.1153 8.41584C71.0687 8.41584 71.0306 8.30223 71.0306 8.16337C71.0306 8.02451 70.9924 7.91089 70.9458 7.91089C70.8992 7.91089 70.8611 7.85307 70.8611 7.78247C70.8611 7.61541 70.1415 6.90099 69.9732 6.90099C69.9021 6.90099 69.8439 6.86312 69.8439 6.81683C69.8439 6.77055 69.7676 6.73267 69.6744 6.73267C69.5811 6.73267 69.5049 6.6948 69.5049 6.64852C69.5049 6.59752 69.1376 6.56436 68.5725 6.56436C68.0074 6.56436 67.6401 6.59752 67.6401 6.64852ZM73.0649 6.64852C73.0649 6.6948 72.9504 6.73267 72.8106 6.73267C72.6707 6.73267 72.5563 6.77055 72.5563 6.81683C72.5563 6.86312 72.48 6.90099 72.3868 6.90099C72.1814 6.90099 72.1493 7.26641 72.3384 7.454C72.4759 7.59067 72.8953 7.61785 72.8953 7.4901C72.8953 7.44381 73.0479 7.40594 73.2344 7.40594C73.4209 7.40594 73.5734 7.36807 73.5734 7.32178C73.5734 7.27549 73.6879 7.23762 73.8277 7.23762C73.9676 7.23762 74.082 7.27549 74.082 7.32178C74.082 7.36807 74.1964 7.40594 74.3363 7.40594C74.4762 7.40594 74.5906 7.44381 74.5906 7.4901C74.5906 7.53639 74.6669 7.57426 74.7601 7.57426C74.8731 7.57426 74.9296 7.63039 74.9296 7.74258C74.9296 7.83515 74.9678 7.91089 75.0144 7.91089C75.061 7.91089 75.0992 8.06238 75.0992 8.24752C75.0992 8.56548 75.085 8.58416 74.8449 8.58416C74.705 8.58416 74.5906 8.62203 74.5906 8.66832C74.5906 8.71637 74.3363 8.75248 73.9972 8.75248C73.6582 8.75248 73.4039 8.78858 73.4039 8.83663C73.4039 8.88292 73.2895 8.92079 73.1496 8.92079C73.0098 8.92079 72.8953 8.95866 72.8953 9.00495C72.8953 9.05124 72.8369 9.08911 72.7654 9.08911C72.5966 9.08911 72.0477 9.63412 72.0477 9.80168C72.0477 9.87262 72.0096 9.93069 71.963 9.93069C71.9163 9.93069 71.8782 10.079 71.8782 10.2603C71.8782 10.4417 71.8306 10.612 71.7722 10.6391C71.6875 10.6783 71.6875 10.698 71.7722 10.7372C71.8306 10.7642 71.8782 10.9345 71.8782 11.1159C71.8782 11.2973 71.9163 11.4455 71.963 11.4455C72.0096 11.4455 72.0477 11.504 72.0477 11.5756C72.0477 11.744 72.4253 12.1188 72.5949 12.1188C72.6669 12.1188 72.7258 12.1567 72.7258 12.203C72.7258 12.2529 73.0366 12.2871 73.4887 12.2871C73.9407 12.2871 74.2515 12.2529 74.2515 12.203C74.2515 12.1567 74.3278 12.1188 74.4211 12.1188C74.5143 12.1188 74.5906 12.0809 74.5906 12.0347C74.5906 11.9884 74.6585 11.9505 74.7414 11.9505C74.8244 11.9505 74.9472 11.8748 75.0144 11.7822C75.1863 11.5454 75.2687 11.5727 75.2687 11.8663V12.1188H75.7772H76.2858V11.3614C76.2858 10.9126 76.2513 10.604 76.2011 10.604C76.1479 10.604 76.1163 10.071 76.1163 9.17327C76.1163 8.27555 76.0847 7.74258 76.0315 7.74258C75.9849 7.74258 75.9468 7.66683 75.9468 7.57426C75.9468 7.48168 75.9086 7.40594 75.862 7.40594C75.8154 7.40594 75.7772 7.34644 75.7772 7.27373C75.7772 7.10364 75.5731 6.90099 75.4018 6.90099C75.3286 6.90099 75.2687 6.86312 75.2687 6.81683C75.2687 6.77055 75.1924 6.73267 75.0992 6.73267C75.0059 6.73267 74.9296 6.6948 74.9296 6.64852C74.9296 6.59752 74.5624 6.56436 73.9972 6.56436C73.4321 6.56436 73.0649 6.59752 73.0649 6.64852ZM87.983 6.64852C87.983 6.6948 87.8769 6.73267 87.7474 6.73267C87.6091 6.73267 87.4614 6.80219 87.3896 6.90099C87.3224 6.99356 87.2169 7.06931 87.1552 7.06931C87.0096 7.06931 86.6268 7.44945 86.6268 7.59395C86.6268 7.65522 86.5505 7.76 86.4573 7.82673C86.3577 7.89802 86.2877 8.04462 86.2877 8.18196C86.2877 8.31056 86.2496 8.41584 86.203 8.41584C86.1512 8.41584 86.1182 8.80861 86.1182 9.42574C86.1182 10.0429 86.1512 10.4356 86.203 10.4356C86.2496 10.4356 86.2877 10.5493 86.2877 10.6881C86.2877 10.827 86.3259 10.9406 86.3725 10.9406C86.4191 10.9406 86.4573 10.9984 86.4573 11.069C86.4573 11.2361 87.1768 11.9505 87.3451 11.9505C87.4162 11.9505 87.4744 11.9884 87.4744 12.0347C87.4744 12.0809 87.5888 12.1188 87.7287 12.1188C87.8686 12.1188 87.983 12.1567 87.983 12.203C87.983 12.2535 88.322 12.2871 88.8306 12.2871C89.3392 12.2871 89.6782 12.2535 89.6782 12.203C89.6782 12.1567 89.7545 12.1188 89.8477 12.1188C89.941 12.1188 90.0173 12.0809 90.0173 12.0347C90.0173 11.9884 90.0753 11.9505 90.1463 11.9505C90.3141 11.9505 91.2039 11.067 91.2039 10.9004C91.2039 10.8299 91.2421 10.7723 91.2887 10.7723C91.3353 10.7723 91.3735 10.6587 91.3735 10.5198C91.3735 10.3809 91.4116 10.2673 91.4582 10.2673C91.5096 10.2673 91.543 9.90267 91.543 9.34158C91.543 8.7805 91.5096 8.41584 91.4582 8.41584C91.4116 8.41584 91.3735 8.3401 91.3735 8.24752C91.3735 8.15495 91.3353 8.07921 91.2887 8.07921C91.2421 8.07921 91.2039 8.00347 91.2039 7.91089C91.2039 7.81832 91.1658 7.74258 91.1192 7.74258C91.0726 7.74258 91.0344 7.68409 91.0344 7.61255C91.0344 7.45349 90.6607 7.06931 90.506 7.06931C90.4443 7.06931 90.3388 6.99356 90.2716 6.90099C90.1998 6.80219 90.0521 6.73267 89.9138 6.73267C89.7843 6.73267 89.6782 6.6948 89.6782 6.64852C89.6782 6.59802 89.3392 6.56436 88.8306 6.56436C88.322 6.56436 87.983 6.59802 87.983 6.64852ZM94.5944 6.64852C94.5944 6.6948 94.5181 6.73267 94.4249 6.73267C94.3316 6.73267 94.2554 6.77055 94.2554 6.81683C94.2554 6.86312 94.1875 6.90099 94.1046 6.90099C94.0216 6.90099 93.8988 6.97673 93.8316 7.06931C93.64 7.33323 93.4077 7.28711 93.4077 6.98515C93.4077 6.73831 93.3983 6.73267 92.9839 6.73267H92.5601V9.42574V12.1188H93.0687H93.5773V10.2673C93.5773 9.08911 93.6081 8.41584 93.662 8.41584C93.7087 8.41584 93.7468 8.35777 93.7468 8.28683C93.7468 8.11927 94.2957 7.57426 94.4645 7.57426C94.5359 7.57426 94.5944 7.53639 94.5944 7.4901C94.5944 7.44381 94.8055 7.40594 95.0634 7.40594C95.4856 7.40594 95.5618 7.43506 95.8263 7.69772C96.0069 7.87706 96.1201 8.07155 96.1201 8.20267C96.1201 8.3199 96.1583 8.41584 96.2049 8.41584C96.2588 8.41584 96.2897 9.08911 96.2897 10.2673V12.1188H96.7982H97.3068V10.0149C97.3068 8.66832 97.2763 7.91089 97.222 7.91089C97.1754 7.91089 97.1373 7.83515 97.1373 7.74258C97.1373 7.65 97.0991 7.57426 97.0525 7.57426C97.0059 7.57426 96.9678 7.51619 96.9678 7.44524C96.9678 7.27768 96.4188 6.73267 96.2501 6.73267C96.1786 6.73267 96.1201 6.6948 96.1201 6.64852C96.1201 6.59861 95.8093 6.56436 95.3573 6.56436C94.9052 6.56436 94.5944 6.59861 94.5944 6.64852ZM112.394 6.64852C112.394 6.6948 112.318 6.73267 112.225 6.73267C112.132 6.73267 112.055 6.77055 112.055 6.81683C112.055 6.86312 111.997 6.90099 111.926 6.90099C111.758 6.90099 111.038 7.61541 111.038 7.78247C111.038 7.85307 111 7.91089 110.953 7.91089C110.907 7.91089 110.869 7.98663 110.869 8.07921C110.869 8.17178 110.831 8.24752 110.784 8.24752C110.737 8.24752 110.699 8.39901 110.699 8.58416C110.699 8.76931 110.661 8.92079 110.614 8.92079C110.567 8.92079 110.53 9.14524 110.53 9.42574C110.53 9.70624 110.567 9.93069 110.614 9.93069C110.661 9.93069 110.699 10.0822 110.699 10.2673C110.699 10.4525 110.737 10.604 110.784 10.604C110.831 10.604 110.869 10.7092 110.869 10.8378C110.869 10.9752 110.939 11.1218 111.038 11.1931C111.131 11.2598 111.208 11.3818 111.208 11.4641C111.208 11.5516 111.27 11.6139 111.359 11.6139C111.442 11.6139 111.564 11.6896 111.632 11.7822C111.699 11.8748 111.822 11.9505 111.905 11.9505C111.987 11.9505 112.055 11.9884 112.055 12.0347C112.055 12.0809 112.132 12.1188 112.225 12.1188C112.318 12.1188 112.394 12.1567 112.394 12.203C112.394 12.2547 112.818 12.2871 113.496 12.2871C114.174 12.2871 114.598 12.2547 114.598 12.203C114.598 12.1567 114.713 12.1188 114.853 12.1188C115.101 12.1188 115.107 12.1095 115.107 11.698C115.107 11.2866 115.101 11.2772 114.853 11.2772C114.713 11.2772 114.598 11.3151 114.598 11.3614C114.598 11.4124 114.231 11.4455 113.666 11.4455C113.101 11.4455 112.733 11.4124 112.733 11.3614C112.733 11.3151 112.675 11.2772 112.604 11.2772C112.533 11.2772 112.304 11.1078 112.096 10.9007C111.793 10.6007 111.716 10.4654 111.716 10.2345C111.716 10.0751 111.669 9.92909 111.611 9.9099C111.535 9.88457 111.545 9.83677 111.648 9.7346C111.771 9.61199 112.023 9.59406 113.617 9.59406C115.389 9.59406 115.446 9.58884 115.446 9.42574C115.446 9.33317 115.484 9.25743 115.531 9.25743C115.577 9.25743 115.615 9.18168 115.615 9.08911C115.615 8.99653 115.577 8.92079 115.531 8.92079C115.484 8.92079 115.446 8.73144 115.446 8.5C115.446 8.26856 115.408 8.07921 115.361 8.07921C115.315 8.07921 115.276 7.98369 115.276 7.86696C115.276 7.62896 114.441 6.73267 114.219 6.73267C114.148 6.73267 114.09 6.6948 114.09 6.64852C114.09 6.59802 113.751 6.56436 113.242 6.56436C112.733 6.56436 112.394 6.59802 112.394 6.64852ZM45.941 7.32178C45.941 7.36807 46.0554 7.40594 46.1953 7.40594C46.3352 7.40594 46.4496 7.44381 46.4496 7.4901C46.4496 7.53639 46.5085 7.57426 46.5805 7.57426C46.7502 7.57426 47.1277 7.9491 47.1277 8.1175C47.1277 8.18904 47.1658 8.24752 47.2124 8.24752C47.2591 8.24752 47.2972 8.36114 47.2972 8.5C47.2972 8.63886 47.3353 8.75248 47.382 8.75248C47.4314 8.75248 47.4667 9.03298 47.4667 9.42574C47.4667 9.81851 47.4314 10.099 47.382 10.099C47.3353 10.099 47.2972 10.2043 47.2972 10.3329C47.2972 10.4702 47.2272 10.6168 47.1277 10.6881C47.0344 10.7549 46.9582 10.8606 46.9582 10.9231C46.9582 11.0772 46.7462 11.2772 46.5827 11.2772C46.5095 11.2772 46.4496 11.3151 46.4496 11.3614C46.4496 11.4105 46.1671 11.4455 45.7715 11.4455C45.3759 11.4455 45.0934 11.4105 45.0934 11.3614C45.0934 11.3151 45.0335 11.2772 44.9602 11.2772C44.7889 11.2772 44.5848 11.0746 44.5848 10.9045C44.5848 10.8318 44.5467 10.7723 44.5001 10.7723C44.4534 10.7723 44.4153 10.6965 44.4153 10.604C44.4153 10.5114 44.3772 10.4356 44.3305 10.4356C44.2839 10.4356 44.2458 10.3599 44.2458 10.2673C44.2458 10.1748 44.2076 10.099 44.161 10.099C44.1116 10.099 44.0762 9.81851 44.0762 9.42574C44.0762 9.03298 44.1116 8.75248 44.161 8.75248C44.2076 8.75248 44.2458 8.64719 44.2458 8.5186C44.2458 8.38125 44.3158 8.23465 44.4153 8.16337C44.5085 8.09663 44.5848 7.99093 44.5848 7.9284C44.5848 7.7743 44.7968 7.57426 44.9602 7.57426C45.0335 7.57426 45.0934 7.53639 45.0934 7.4901C45.0934 7.44381 45.2078 7.40594 45.3477 7.40594C45.4875 7.40594 45.602 7.36807 45.602 7.32178C45.602 7.27549 45.6783 7.23762 45.7715 7.23762C45.8647 7.23762 45.941 7.27549 45.941 7.32178ZM89.0001 7.32178C89.0001 7.36807 89.1145 7.40594 89.2544 7.40594C89.3943 7.40594 89.5087 7.44381 89.5087 7.4901C89.5087 7.53639 89.5686 7.57426 89.6419 7.57426C89.8132 7.57426 90.0173 7.77691 90.0173 7.947C90.0173 8.01971 90.0554 8.07921 90.102 8.07921C90.1487 8.07921 90.1868 8.15495 90.1868 8.24752C90.1868 8.3401 90.2249 8.41584 90.2716 8.41584C90.3182 8.41584 90.3563 8.52946 90.3563 8.66832C90.3563 8.80718 90.3945 8.92079 90.4411 8.92079C90.4882 8.92079 90.5258 9.14524 90.5258 9.42574C90.5258 9.70624 90.4882 9.93069 90.4411 9.93069C90.3945 9.93069 90.3563 10.0443 90.3563 10.1832C90.3563 10.322 90.3182 10.4356 90.2716 10.4356C90.2249 10.4356 90.1868 10.4935 90.1868 10.5641C90.1868 10.6348 90.0162 10.862 89.8076 11.069L89.4284 11.4455H88.7904C88.4216 11.4455 88.1525 11.41 88.1525 11.3614C88.1525 11.3151 88.0936 11.2772 88.0215 11.2772C87.8519 11.2772 87.4744 10.9024 87.4744 10.734C87.4744 10.6625 87.4363 10.604 87.3896 10.604C87.343 10.604 87.3049 10.4903 87.3049 10.3515C87.3049 10.2126 87.2667 10.099 87.2201 10.099C87.1707 10.099 87.1354 9.81851 87.1354 9.42574C87.1354 9.03298 87.1707 8.75248 87.2201 8.75248C87.2667 8.75248 87.3049 8.63886 87.3049 8.5C87.3049 8.36114 87.343 8.24752 87.3896 8.24752C87.4363 8.24752 87.4744 8.18904 87.4744 8.1175C87.4744 7.9491 87.8519 7.57426 88.0215 7.57426C88.0936 7.57426 88.1525 7.53639 88.1525 7.4901C88.1525 7.44381 88.2669 7.40594 88.4068 7.40594C88.5466 7.40594 88.6611 7.36807 88.6611 7.32178C88.6611 7.27549 88.7374 7.23762 88.8306 7.23762C88.9238 7.23762 89.0001 7.27549 89.0001 7.32178ZM113.581 7.32178C113.581 7.36807 113.64 7.40594 113.712 7.40594C113.882 7.40594 114.259 7.78078 114.259 7.94918C114.259 8.02072 114.297 8.07921 114.344 8.07921C114.391 8.07921 114.429 8.23069 114.429 8.41584V8.75248H113.073H111.716V8.45573C111.716 8.21647 111.79 8.08594 112.096 7.78247C112.345 7.53529 112.548 7.40594 112.689 7.40594C112.807 7.40594 112.903 7.36807 112.903 7.32178C112.903 7.27549 113.056 7.23762 113.242 7.23762C113.429 7.23762 113.581 7.27549 113.581 7.32178ZM69.1658 7.4901C69.1658 7.53639 69.2247 7.57426 69.2968 7.57426C69.4664 7.57426 69.8439 7.9491 69.8439 8.1175C69.8439 8.18904 69.882 8.24752 69.9287 8.24752C69.9753 8.24752 70.0134 8.36114 70.0134 8.5C70.0134 8.63886 70.0516 8.75248 70.0982 8.75248C70.1476 8.75248 70.183 9.03298 70.183 9.42574C70.183 9.81851 70.1476 10.099 70.0982 10.099C70.0516 10.099 70.0134 10.1748 70.0134 10.2673C70.0134 10.3599 69.9753 10.4356 69.9287 10.4356C69.882 10.4356 69.8439 10.5114 69.8439 10.604C69.8439 10.6965 69.8058 10.7723 69.7591 10.7723C69.7125 10.7723 69.6744 10.8318 69.6744 10.9045C69.6744 11.0746 69.4703 11.2772 69.299 11.2772C69.2257 11.2772 69.1658 11.3151 69.1658 11.3614C69.1658 11.4105 68.8833 11.4455 68.4877 11.4455C68.0921 11.4455 67.8096 11.4105 67.8096 11.3614C67.8096 11.3151 67.7497 11.2772 67.6765 11.2772C67.513 11.2772 67.301 11.0772 67.301 10.9231C67.301 10.8606 67.2248 10.7549 67.1315 10.6881C67.032 10.6168 66.962 10.4702 66.962 10.3329C66.962 10.2043 66.9239 10.099 66.8772 10.099C66.8278 10.099 66.7925 9.81851 66.7925 9.42574C66.7925 9.03298 66.8278 8.75248 66.8772 8.75248C66.9239 8.75248 66.962 8.64719 66.962 8.5186C66.962 8.38125 67.032 8.23465 67.1315 8.16337C67.2248 8.09663 67.301 7.99093 67.301 7.9284C67.301 7.7743 67.513 7.57426 67.6765 7.57426C67.7497 7.57426 67.8096 7.53639 67.8096 7.4901C67.8096 7.44103 68.0921 7.40594 68.4877 7.40594C68.8833 7.40594 69.1658 7.44103 69.1658 7.4901ZM80.8228 7.78247C81.0717 8.02964 81.202 8.23196 81.202 8.37157C81.202 8.48847 81.2402 8.58416 81.2868 8.58416C81.3376 8.58416 81.3715 8.92079 81.3715 9.42574C81.3715 9.93069 81.3376 10.2673 81.2868 10.2673C81.2402 10.2673 81.202 10.3633 81.202 10.4805C81.202 10.7176 80.6979 11.2772 80.4843 11.2772C80.4129 11.2772 80.3544 11.3151 80.3544 11.3614C80.3544 11.4094 80.1001 11.4455 79.7611 11.4455C79.422 11.4455 79.1677 11.4094 79.1677 11.3614C79.1677 11.3151 79.1078 11.2772 79.0346 11.2772C78.8711 11.2772 78.6592 11.0772 78.6592 10.9231C78.6592 10.8606 78.5829 10.7549 78.4896 10.6881C78.3716 10.6036 78.3201 10.4702 78.3201 10.2487C78.3201 10.0738 78.282 9.93069 78.2354 9.93069C78.1882 9.93069 78.1506 9.70624 78.1506 9.42574C78.1506 9.14524 78.1882 8.92079 78.2354 8.92079C78.282 8.92079 78.3201 8.80718 78.3201 8.66832C78.3201 8.52946 78.3582 8.41584 78.4049 8.41584C78.4515 8.41584 78.4896 8.3401 78.4896 8.24752C78.4896 8.15495 78.5278 8.07921 78.5744 8.07921C78.621 8.07921 78.6592 8.01971 78.6592 7.947C78.6592 7.77691 78.8633 7.57426 79.0346 7.57426C79.1078 7.57426 79.1677 7.53639 79.1677 7.4901C79.1677 7.44146 79.4368 7.40594 79.8056 7.40594H80.4436L80.8228 7.78247ZM19.8343 8.16337C19.8343 8.21016 19.6083 8.24752 19.3257 8.24752C19.0432 8.24752 18.8172 8.28489 18.8172 8.33168C18.8172 8.37797 18.6646 8.41584 18.4781 8.41584C18.2916 8.41584 18.1391 8.45371 18.1391 8.5C18.1391 8.54629 18.0246 8.58416 17.8848 8.58416C17.7449 8.58416 17.6305 8.62203 17.6305 8.66832C17.6305 8.7146 17.5161 8.75248 17.3762 8.75248C17.2364 8.75248 17.1219 8.79035 17.1219 8.83663C17.1219 8.88292 17.0075 8.92079 16.8676 8.92079C16.7278 8.92079 16.6134 8.95866 16.6134 9.00495C16.6134 9.05124 16.4989 9.08911 16.3591 9.08911C16.2192 9.08911 16.1048 9.12698 16.1048 9.17327C16.1048 9.21956 16.0285 9.25743 15.9353 9.25743C15.842 9.25743 15.7657 9.2953 15.7657 9.34158C15.7657 9.38787 15.6513 9.42574 15.5115 9.42574C15.3716 9.42574 15.2572 9.46361 15.2572 9.5099C15.2572 9.55619 15.1427 9.59406 15.0029 9.59406C14.863 9.59406 14.7486 9.63193 14.7486 9.67822C14.7486 9.72451 14.5579 9.76238 14.3248 9.76238C14.0917 9.76238 13.901 9.72451 13.901 9.67822C13.901 9.63193 13.7865 9.59406 13.6467 9.59406C13.5068 9.59406 13.3924 9.55619 13.3924 9.5099C13.3924 9.46361 13.278 9.42574 13.1381 9.42574C12.9983 9.42574 12.8838 9.38787 12.8838 9.34158C12.8838 9.2953 12.7694 9.25743 12.6295 9.25743C12.4897 9.25743 12.3753 9.21956 12.3753 9.17327C12.3753 9.12698 12.2608 9.08911 12.121 9.08911C11.9811 9.08911 11.8667 9.05124 11.8667 9.00495C11.8667 8.95866 11.7523 8.92079 11.6124 8.92079C11.4725 8.92079 11.3581 8.88292 11.3581 8.83663C11.3581 8.79035 11.2437 8.75248 11.1038 8.75248C10.964 8.75248 10.8495 8.7146 10.8495 8.66832C10.8495 8.62203 10.7351 8.58416 10.5953 8.58416C10.4554 8.58416 10.341 8.54629 10.341 8.5C10.341 8.45371 10.1884 8.41584 10.0019 8.41584C9.81544 8.41584 9.66287 8.37797 9.66287 8.33168C9.66287 8.28026 9.26729 8.24752 8.64573 8.24752C8.02417 8.24752 7.62858 8.28026 7.62858 8.33168C7.62858 8.37848 7.40252 8.41584 7.12001 8.41584C6.8375 8.41584 6.61144 8.45321 6.61144 8.5C6.61144 8.54629 6.49701 8.58416 6.35715 8.58416C6.21729 8.58416 6.10287 8.62203 6.10287 8.66832C6.10287 8.7146 6.02658 8.75248 5.93334 8.75248C5.8401 8.75248 5.76382 8.79035 5.76382 8.83663C5.76382 8.88292 5.64939 8.92079 5.50953 8.92079C5.36968 8.92079 5.25525 8.95866 5.25525 9.00495C5.25525 9.05124 5.18735 9.08911 5.10445 9.08911C5.02147 9.08911 4.89865 9.16485 4.83144 9.25743C4.76422 9.35 4.6414 9.42574 4.55842 9.42574C4.47552 9.42574 4.40763 9.46361 4.40763 9.5099C4.40763 9.55619 4.34668 9.59406 4.27209 9.59406C4.19759 9.59406 4.02967 9.70767 3.89905 9.84654C3.76844 9.9854 3.61892 10.099 3.56679 10.099C3.44337 10.099 2.37334 11.1614 2.37334 11.284C2.37334 11.3357 2.25891 11.4842 2.11905 11.6139C1.97919 11.7436 1.86476 11.9019 1.86476 11.9656C1.86476 12.0294 1.78848 12.1362 1.69524 12.203C1.602 12.2697 1.52572 12.3917 1.52572 12.474C1.52572 12.5564 1.48757 12.6238 1.44095 12.6238C1.39434 12.6238 1.35619 12.6995 1.35619 12.7921C1.35619 12.8847 1.31805 12.9604 1.27143 12.9604C1.22481 12.9604 1.18667 13.0361 1.18667 13.1287C1.18667 13.2213 1.14853 13.297 1.10191 13.297C1.05529 13.297 1.01714 13.3728 1.01714 13.4653C1.01714 13.5579 0.979002 13.6337 0.932383 13.6337C0.885764 13.6337 0.84762 13.7473 0.84762 13.8861C0.84762 14.025 0.809477 14.1386 0.762858 14.1386C0.716239 14.1386 0.678097 14.2522 0.678097 14.3911C0.678097 14.5299 0.639954 14.6436 0.593334 14.6436C0.546715 14.6436 0.508572 14.795 0.508572 14.9802C0.508572 15.1653 0.47043 15.3168 0.423811 15.3168C0.377192 15.3168 0.339048 15.4683 0.339048 15.6535C0.339048 15.8386 0.300905 15.9901 0.254286 15.9901C0.203429 15.9901 0.169525 16.3267 0.169525 16.8317C0.169525 17.3366 0.13562 17.6733 0.0847623 17.6733C0.0339051 17.6733 0 18.0099 0 18.5149C0 19.0198 0.0339051 19.3564 0.0847623 19.3564C0.13562 19.3564 0.169525 19.6931 0.169525 20.198C0.169525 20.703 0.203429 21.0396 0.254286 21.0396C0.301414 21.0396 0.339048 21.2641 0.339048 21.5446C0.339048 21.8251 0.376683 22.0495 0.423811 22.0495C0.47043 22.0495 0.508572 22.201 0.508572 22.3861C0.508572 22.5713 0.546715 22.7228 0.593334 22.7228C0.639954 22.7228 0.678097 22.8743 0.678097 23.0594C0.678097 23.2446 0.716239 23.396 0.762858 23.396C0.809477 23.396 0.84762 23.5475 0.84762 23.7327C0.84762 23.9178 0.885764 24.0693 0.932383 24.0693C0.979002 24.0693 1.01714 24.1829 1.01714 24.3218C1.01714 24.4606 1.05529 24.5743 1.10191 24.5743C1.14853 24.5743 1.18667 24.6879 1.18667 24.8267C1.18667 24.9656 1.22481 25.0792 1.27143 25.0792C1.31805 25.0792 1.35619 25.1928 1.35619 25.3317C1.35619 25.4705 1.39434 25.5842 1.44095 25.5842C1.48757 25.5842 1.52572 25.6599 1.52572 25.7525C1.52572 25.8451 1.56386 25.9208 1.61048 25.9208C1.6571 25.9208 1.69524 26.0344 1.69524 26.1733C1.69524 26.3121 1.73338 26.4257 1.78 26.4257C1.82662 26.4257 1.86476 26.5015 1.86476 26.5941C1.86476 26.6866 1.90291 26.7624 1.94953 26.7624C1.99615 26.7624 2.03429 26.8381 2.03429 26.9307C2.03429 27.0233 2.07243 27.099 2.11905 27.099C2.16567 27.099 2.20381 27.1748 2.20381 27.2673C2.20381 27.3599 2.24196 27.4356 2.28858 27.4356C2.33519 27.4356 2.37334 27.5114 2.37334 27.604C2.37334 27.6965 2.41148 27.7723 2.4581 27.7723C2.50472 27.7723 2.54286 27.848 2.54286 27.9406C2.54286 28.0332 2.581 28.1089 2.62762 28.1089C2.67424 28.1089 2.71239 28.1763 2.71239 28.2586C2.71239 28.341 2.78867 28.463 2.88191 28.5297C2.97515 28.5964 3.05143 28.7184 3.05143 28.8008C3.05143 28.8831 3.08958 28.9505 3.13619 28.9505C3.18281 28.9505 3.22096 29.0179 3.22096 29.1002C3.22096 29.1826 3.29724 29.3045 3.39048 29.3713C3.48372 29.438 3.56001 29.5516 3.56001 29.6238C3.56001 29.6959 3.63629 29.8095 3.72953 29.8762C3.82277 29.943 3.89905 30.0498 3.89905 30.1136C3.89905 30.1773 4.01348 30.3357 4.15334 30.4653C4.2932 30.595 4.40763 30.7465 4.40763 30.802C4.40763 30.8574 4.52205 31.0089 4.66191 31.1386C4.80177 31.2683 4.9162 31.4165 4.9162 31.4679C4.9162 31.6105 6.6762 33.3267 6.82233 33.3267C6.89285 33.3267 6.95049 33.3646 6.95049 33.4109C6.95049 33.4572 7.01838 33.495 7.10128 33.495C7.18426 33.495 7.30708 33.5708 7.3743 33.6634C7.44609 33.7622 7.59374 33.8317 7.73208 33.8317C7.86159 33.8317 7.96763 33.8696 7.96763 33.9158C7.96763 33.9676 8.39144 34 9.06954 34C9.74763 34 10.1714 33.9676 10.1714 33.9158C10.1714 33.8696 10.324 33.8317 10.5105 33.8317C10.697 33.8317 10.8495 33.7938 10.8495 33.7475C10.8495 33.7012 10.9258 33.6634 11.0191 33.6634C11.1123 33.6634 11.1886 33.6255 11.1886 33.5792C11.1886 33.5329 11.303 33.495 11.4429 33.495C11.5827 33.495 11.6972 33.4572 11.6972 33.4109C11.6972 33.3646 11.8116 33.3267 11.9514 33.3267C12.0913 33.3267 12.2057 33.2889 12.2057 33.2426C12.2057 33.1963 12.282 33.1584 12.3753 33.1584C12.4685 33.1584 12.5448 33.1205 12.5448 33.0743C12.5448 33.028 12.6974 32.9901 12.8838 32.9901C13.0703 32.9901 13.2229 32.9522 13.2229 32.9059C13.2229 32.8579 13.4772 32.8218 13.8162 32.8218C14.1553 32.8218 14.4095 32.7857 14.4095 32.7376C14.4095 32.6913 14.5621 32.6535 14.7486 32.6535C14.9351 32.6535 15.0876 32.6913 15.0876 32.7376C15.0876 32.7857 15.3419 32.8218 15.681 32.8218C16.02 32.8218 16.2743 32.8579 16.2743 32.9059C16.2743 32.9522 16.3887 32.9901 16.5286 32.9901C16.6685 32.9901 16.7829 33.028 16.7829 33.0743C16.7829 33.1205 16.8973 33.1584 17.0372 33.1584C17.177 33.1584 17.2915 33.1963 17.2915 33.2426C17.2915 33.2889 17.4059 33.3267 17.5457 33.3267C17.6856 33.3267 17.8 33.3646 17.8 33.4109C17.8 33.4572 17.8763 33.495 17.9695 33.495C18.0628 33.495 18.1391 33.5329 18.1391 33.5792C18.1391 33.6255 18.2535 33.6634 18.3934 33.6634C18.5332 33.6634 18.6476 33.7012 18.6476 33.7475C18.6476 33.7938 18.8002 33.8317 18.9867 33.8317C19.1732 33.8317 19.3257 33.8696 19.3257 33.9158C19.3257 33.9673 19.7213 34 20.3429 34C20.9644 34 21.36 33.9673 21.36 33.9158C21.36 33.8696 21.4745 33.8317 21.6143 33.8317C21.7542 33.8317 21.8686 33.7938 21.8686 33.7475C21.8686 33.7012 21.9449 33.6634 22.0381 33.6634C22.1314 33.6634 22.2076 33.6255 22.2076 33.5792C22.2076 33.5329 22.2755 33.495 22.3584 33.495C22.4414 33.495 22.5642 33.4193 22.6315 33.3267C22.6987 33.2342 22.803 33.1584 22.8633 33.1584C22.9959 33.1584 24.4115 31.7684 24.4115 31.6382C24.4115 31.5876 24.564 31.4007 24.7505 31.2228C24.937 31.0449 25.0896 30.8479 25.0896 30.7851C25.0896 30.7222 25.1658 30.6162 25.2591 30.5495C25.3523 30.4828 25.4286 30.3692 25.4286 30.297C25.4286 30.2249 25.5049 30.1113 25.5981 30.0446C25.6914 29.9778 25.7677 29.8642 25.7677 29.7921C25.7677 29.72 25.8439 29.6063 25.9372 29.5396C26.0304 29.4729 26.1067 29.3593 26.1067 29.2871C26.1067 29.215 26.183 29.1014 26.2762 29.0347C26.3695 28.9679 26.4457 28.846 26.4457 28.7636C26.4457 28.6813 26.4839 28.6139 26.5305 28.6139C26.5771 28.6139 26.6153 28.5381 26.6153 28.4455C26.6153 28.353 26.6534 28.2772 26.7 28.2772C26.7467 28.2772 26.7848 28.2015 26.7848 28.1089C26.7848 28.0163 26.8229 27.9406 26.8696 27.9406C26.9162 27.9406 26.9543 27.8649 26.9543 27.7723C26.9543 27.6797 26.9925 27.604 27.0391 27.604C27.0857 27.604 27.1238 27.5282 27.1238 27.4356C27.1238 27.3431 27.162 27.2673 27.2086 27.2673C27.2552 27.2673 27.2934 27.1916 27.2934 27.099C27.2934 27.0064 27.3315 26.9307 27.3781 26.9307C27.4248 26.9307 27.4629 26.855 27.4629 26.7624C27.4629 26.6698 27.501 26.5941 27.5477 26.5941C27.5943 26.5941 27.6324 26.4804 27.6324 26.3416C27.6324 26.2027 27.6706 26.0891 27.7172 26.0891C27.7638 26.0891 27.8019 25.9755 27.8019 25.8366C27.8019 25.6978 27.8401 25.5842 27.8867 25.5842C28.0167 25.5842 27.9873 24.9988 27.8503 24.8628C27.7838 24.7967 27.6694 24.7426 27.5961 24.7426C27.5228 24.7426 27.4629 24.7047 27.4629 24.6584C27.4629 24.6121 27.395 24.5743 27.3121 24.5743C27.2291 24.5743 27.1063 24.4985 27.0391 24.4059C26.9719 24.3134 26.8643 24.2376 26.8001 24.2376C26.7359 24.2376 26.5764 24.124 26.4457 23.9851C26.3151 23.8463 26.1653 23.7327 26.1128 23.7327C25.9887 23.7327 25.2591 23.0082 25.2591 22.885C25.2591 22.8329 25.1447 22.6841 25.0048 22.5545C24.8649 22.4248 24.7505 22.2664 24.7505 22.2027C24.7505 22.1389 24.6742 22.0321 24.581 21.9653C24.4877 21.8986 24.4115 21.7767 24.4115 21.6943C24.4115 21.612 24.3733 21.5446 24.3267 21.5446C24.2801 21.5446 24.2419 21.4688 24.2419 21.3762C24.2419 21.2837 24.2038 21.2079 24.1572 21.2079C24.1106 21.2079 24.0724 21.1322 24.0724 21.0396C24.0724 20.947 24.0343 20.8713 23.9877 20.8713C23.941 20.8713 23.9029 20.7577 23.9029 20.6188C23.9029 20.48 23.8647 20.3663 23.8181 20.3663C23.7715 20.3663 23.7334 20.2149 23.7334 20.0297C23.7334 19.8446 23.6952 19.6931 23.6486 19.6931C23.595 19.6931 23.5638 19.104 23.5638 18.0941C23.5638 17.0842 23.595 16.495 23.6486 16.495C23.6952 16.495 23.7334 16.3436 23.7334 16.1584C23.7334 15.9733 23.7715 15.8218 23.8181 15.8218C23.8647 15.8218 23.9029 15.7082 23.9029 15.5693C23.9029 15.4304 23.941 15.3168 23.9877 15.3168C24.0343 15.3168 24.0724 15.2032 24.0724 15.0644C24.0724 14.9255 24.1106 14.8119 24.1572 14.8119C24.2038 14.8119 24.2419 14.7445 24.2419 14.6622C24.2419 14.5798 24.3182 14.4578 24.4115 14.3911C24.5047 14.3243 24.581 14.2107 24.581 14.1386C24.581 14.0665 24.6573 13.9529 24.7505 13.8861C24.8437 13.8194 24.92 13.7158 24.92 13.6558C24.92 13.5228 26.1508 12.2871 26.2833 12.2871C26.3352 12.2871 26.4847 12.1735 26.6153 12.0347C26.7459 11.8958 26.9138 11.7822 26.9883 11.7822C27.0765 11.7822 27.1238 11.7084 27.1238 11.5708C27.1238 11.4147 26.8918 11.1289 26.2349 10.4767C25.7459 9.99129 25.2965 9.59406 25.2364 9.59406C25.1762 9.59406 25.072 9.51832 25.0048 9.42574C24.9376 9.33317 24.8148 9.25743 24.7318 9.25743C24.6489 9.25743 24.581 9.21956 24.581 9.17327C24.581 9.12698 24.5047 9.08911 24.4115 9.08911C24.3182 9.08911 24.2419 9.05124 24.2419 9.00495C24.2419 8.95866 24.1657 8.92079 24.0724 8.92079C23.9792 8.92079 23.9029 8.88292 23.9029 8.83663C23.9029 8.79035 23.7885 8.75248 23.6486 8.75248C23.5087 8.75248 23.3943 8.7146 23.3943 8.66832C23.3943 8.62203 23.2799 8.58416 23.14 8.58416C23.0002 8.58416 22.8857 8.54629 22.8857 8.5C22.8857 8.45371 22.7332 8.41584 22.5467 8.41584C22.3602 8.41584 22.2076 8.37797 22.2076 8.33168C22.2076 8.28262 21.9251 8.24752 21.5296 8.24752C21.134 8.24752 20.8515 8.21243 20.8515 8.16337C20.8515 8.11658 20.6254 8.07921 20.3429 8.07921C20.0604 8.07921 19.8343 8.11658 19.8343 8.16337ZM75.0992 10.099C75.0992 10.4918 75.0638 10.7723 75.0144 10.7723C74.9678 10.7723 74.9296 10.8318 74.9296 10.9045C74.9296 11.0746 74.7255 11.2772 74.5542 11.2772C74.481 11.2772 74.4211 11.3151 74.4211 11.3614C74.4211 11.4077 74.3066 11.4455 74.1668 11.4455C74.0269 11.4455 73.9125 11.4834 73.9125 11.5297C73.9125 11.576 73.8362 11.6139 73.743 11.6139C73.6497 11.6139 73.5734 11.576 73.5734 11.5297C73.5734 11.4834 73.5145 11.4455 73.4425 11.4455C73.3704 11.4455 73.2179 11.3526 73.1034 11.2389C72.9371 11.0739 72.8953 10.9466 72.8953 10.605C72.8953 10.2295 72.931 10.1421 73.1892 9.88584C73.3698 9.7065 73.5657 9.59406 73.6978 9.59406C73.8158 9.59406 73.9125 9.55619 73.9125 9.5099C73.9125 9.46185 74.1668 9.42574 74.5058 9.42574H75.0992V10.099ZM77.4725 16.2426C77.4725 16.2889 77.2818 16.3267 77.0487 16.3267C76.8156 16.3267 76.6249 16.3646 76.6249 16.4109C76.6249 16.4572 76.5104 16.495 76.3706 16.495C76.2307 16.495 76.1163 16.5329 76.1163 16.5792C76.1163 16.6255 76.04 16.6634 75.9468 16.6634C75.8535 16.6634 75.7772 16.7012 75.7772 16.7475C75.7772 16.7938 75.7192 16.8317 75.6482 16.8317C75.4912 16.8317 74.5906 17.71 74.5906 17.8633C74.5906 17.9235 74.5143 18.0273 74.4211 18.0941C74.3215 18.1653 74.2515 18.3119 74.2515 18.4493C74.2515 18.5779 74.2134 18.6832 74.1668 18.6832C74.1159 18.6832 74.082 19.0198 74.082 19.5248C74.082 20.0297 74.1159 20.3663 74.1668 20.3663C74.2134 20.3663 74.2515 20.48 74.2515 20.6188C74.2515 20.7577 74.2897 20.8713 74.3363 20.8713C74.3829 20.8713 74.4211 20.9387 74.4211 21.021C74.4211 21.1034 74.4973 21.2253 74.5906 21.2921C74.6838 21.3588 74.7601 21.4645 74.7601 21.5271C74.7601 21.6668 74.9668 21.8812 75.1014 21.8812C75.156 21.8812 75.3076 21.9948 75.4382 22.1337C75.5688 22.2725 75.7367 22.3861 75.8112 22.3861C75.8858 22.3861 75.9468 22.424 75.9468 22.4703C75.9468 22.5166 76.0231 22.5545 76.1163 22.5545C76.2095 22.5545 76.2858 22.5923 76.2858 22.6386C76.2858 22.6849 76.3621 22.7228 76.4553 22.7228C76.5486 22.7228 76.6249 22.7606 76.6249 22.8069C76.6249 22.8532 76.7012 22.8911 76.7944 22.8911C76.8876 22.8911 76.9639 22.929 76.9639 22.9752C76.9639 23.0215 77.0783 23.0594 77.2182 23.0594C77.3581 23.0594 77.4725 23.0973 77.4725 23.1436C77.4725 23.1899 77.5488 23.2277 77.642 23.2277C77.7352 23.2277 77.8115 23.2656 77.8115 23.3119C77.8115 23.3582 77.8878 23.396 77.9811 23.396C78.0743 23.396 78.1506 23.4339 78.1506 23.4802C78.1506 23.5265 78.2269 23.5644 78.3201 23.5644C78.4133 23.5644 78.4896 23.6022 78.4896 23.6485C78.4896 23.6948 78.5479 23.7327 78.619 23.7327C78.8376 23.7327 79.5068 24.4606 79.5068 24.6983C79.5068 24.8152 79.5449 24.9109 79.5915 24.9109C79.6399 24.9109 79.6763 25.1634 79.6763 25.5C79.6763 25.8366 79.6399 26.0891 79.5915 26.0891C79.5449 26.0891 79.5068 26.1649 79.5068 26.2574C79.5068 26.35 79.4686 26.4257 79.422 26.4257C79.3754 26.4257 79.3373 26.4838 79.3373 26.5548C79.3373 26.7223 78.7883 27.2673 78.6196 27.2673C78.5481 27.2673 78.4896 27.3052 78.4896 27.3515C78.4896 27.3978 78.3371 27.4356 78.1506 27.4356C77.9641 27.4356 77.8115 27.4735 77.8115 27.5198C77.8115 27.5697 77.5007 27.604 77.0487 27.604C76.5966 27.604 76.2858 27.5697 76.2858 27.5198C76.2858 27.4735 76.0951 27.4356 75.862 27.4356C75.6289 27.4356 75.4382 27.3978 75.4382 27.3515C75.4382 27.3052 75.3619 27.2673 75.2687 27.2673C75.1754 27.2673 75.0992 27.2295 75.0992 27.1832C75.0992 27.1369 74.9847 27.099 74.8449 27.099C74.705 27.099 74.5906 27.0611 74.5906 27.0149C74.5906 26.9686 74.4762 26.9307 74.3363 26.9307C74.1102 26.9307 74.082 26.9587 74.082 27.1832C74.082 27.322 74.0439 27.4356 73.9972 27.4356C73.8653 27.4356 73.896 28.1888 74.0336 28.3253C74.1001 28.3914 74.2527 28.4455 74.3727 28.4455C74.4925 28.4455 74.5906 28.4834 74.5906 28.5297C74.5906 28.576 74.705 28.6139 74.8449 28.6139C74.9847 28.6139 75.0992 28.6517 75.0992 28.698C75.0992 28.7443 75.2899 28.7822 75.523 28.7822C75.7561 28.7822 75.9468 28.82 75.9468 28.8663C75.9468 28.9181 76.3706 28.9505 77.0487 28.9505C77.7268 28.9505 78.1506 28.9181 78.1506 28.8663C78.1506 28.82 78.3032 28.7822 78.4896 28.7822C78.6761 28.7822 78.8287 28.7443 78.8287 28.698C78.8287 28.6517 78.9431 28.6139 79.083 28.6139C79.2228 28.6139 79.3373 28.576 79.3373 28.5297C79.3373 28.4834 79.4052 28.4455 79.4881 28.4455C79.571 28.4455 79.6938 28.3698 79.7611 28.2772C79.8283 28.1847 79.9333 28.1089 79.9945 28.1089C80.1391 28.1089 80.6934 27.5585 80.6934 27.4149C80.6934 27.3542 80.7697 27.2499 80.863 27.1832C80.9562 27.1164 81.0325 26.9945 81.0325 26.9121C81.0325 26.8298 81.0706 26.7624 81.1173 26.7624C81.1639 26.7624 81.202 26.6109 81.202 26.4257C81.202 26.2406 81.2402 26.0891 81.2868 26.0891C81.337 26.0891 81.3715 25.7805 81.3715 25.3317C81.3715 24.8829 81.337 24.5743 81.2868 24.5743C81.2402 24.5743 81.202 24.4606 81.202 24.3218C81.202 24.1829 81.1639 24.0693 81.1173 24.0693C81.0706 24.0693 81.0325 23.9936 81.0325 23.901C81.0325 23.8084 80.9944 23.7327 80.9477 23.7327C80.9011 23.7327 80.863 23.675 80.863 23.6046C80.863 23.4379 79.9731 22.5545 79.8053 22.5545C79.7344 22.5545 79.6763 22.5166 79.6763 22.4703C79.6763 22.424 79.6 22.3861 79.5068 22.3861C79.4135 22.3861 79.3373 22.3483 79.3373 22.302C79.3373 22.2557 79.261 22.2178 79.1677 22.2178C79.0745 22.2178 78.9982 22.18 78.9982 22.1337C78.9982 22.0874 78.9219 22.0495 78.8287 22.0495C78.7354 22.0495 78.6592 22.0116 78.6592 21.9653C78.6592 21.9191 78.5829 21.8812 78.4896 21.8812C78.3964 21.8812 78.3201 21.8433 78.3201 21.797C78.3201 21.7507 78.2057 21.7129 78.0658 21.7129C77.926 21.7129 77.8115 21.675 77.8115 21.6287C77.8115 21.5824 77.7352 21.5446 77.642 21.5446C77.5488 21.5446 77.4725 21.5067 77.4725 21.4604C77.4725 21.4141 77.3962 21.3762 77.303 21.3762C77.2097 21.3762 77.1334 21.3384 77.1334 21.2921C77.1334 21.2458 77.0725 21.2079 76.9979 21.2079C76.9234 21.2079 76.7555 21.0943 76.6249 20.9554C76.4942 20.8166 76.3263 20.703 76.2518 20.703C76.1772 20.703 76.1163 20.6356 76.1163 20.5533C76.1163 20.4709 76.04 20.3489 75.9468 20.2822C75.7994 20.1767 75.7772 20.0643 75.7772 19.422C75.7772 18.9855 75.8119 18.6832 75.862 18.6832C75.9086 18.6832 75.9468 18.6247 75.9468 18.5531C75.9468 18.3847 76.3243 18.0099 76.4939 18.0099C76.5659 18.0099 76.6249 17.972 76.6249 17.9257C76.6249 17.8795 76.7012 17.8416 76.7944 17.8416C76.8876 17.8416 76.9639 17.8037 76.9639 17.7574C76.9639 17.7111 77.1165 17.6733 77.303 17.6733C77.4895 17.6733 77.642 17.6354 77.642 17.5891C77.642 17.5428 77.8327 17.505 78.0658 17.505C78.2989 17.505 78.4896 17.5428 78.4896 17.5891C78.4896 17.6354 78.6803 17.6733 78.9134 17.6733C79.1465 17.6733 79.3373 17.7111 79.3373 17.7574C79.3373 17.8037 79.4517 17.8416 79.5915 17.8416C79.7314 17.8416 79.8458 17.8795 79.8458 17.9257C79.8458 17.972 79.9984 18.0099 80.1849 18.0099C80.4674 18.0099 80.5239 17.9819 80.5239 17.8416C80.5239 17.749 80.5621 17.6733 80.6087 17.6733C80.6553 17.6733 80.6934 17.5597 80.6934 17.4208C80.6934 17.2819 80.7316 17.1683 80.7782 17.1683C80.9041 17.1683 80.8808 16.9215 80.7418 16.7836C80.6753 16.7175 80.5609 16.6634 80.4876 16.6634C80.4143 16.6634 80.3544 16.6255 80.3544 16.5792C80.3544 16.5329 80.2018 16.495 80.0153 16.495C79.8289 16.495 79.6763 16.4572 79.6763 16.4109C79.6763 16.3646 79.4856 16.3267 79.2525 16.3267C79.0194 16.3267 78.8287 16.2889 78.8287 16.2426C78.8287 16.1935 78.5462 16.1584 78.1506 16.1584C77.755 16.1584 77.4725 16.1935 77.4725 16.2426ZM41.6393 16.4526C41.5811 16.5184 41.5334 16.6305 41.5334 16.7019C41.5334 16.7733 41.4952 16.8317 41.4486 16.8317C41.402 16.8317 41.3639 16.9453 41.3639 17.0842C41.3639 17.223 41.3257 17.3366 41.2791 17.3366C41.2325 17.3366 41.1943 17.4502 41.1943 17.5891C41.1943 17.728 41.1562 17.8416 41.1096 17.8416C41.063 17.8416 41.0248 17.9173 41.0248 18.0099C41.0248 18.1025 40.9867 18.1782 40.9401 18.1782C40.8934 18.1782 40.8553 18.2918 40.8553 18.4307C40.8553 18.5696 40.8172 18.6832 40.7705 18.6832C40.7239 18.6832 40.6858 18.7968 40.6858 18.9356C40.6858 19.0745 40.6476 19.1881 40.601 19.1881C40.5544 19.1881 40.5162 19.3017 40.5162 19.4406C40.5162 19.5795 40.4781 19.6931 40.4315 19.6931C40.3849 19.6931 40.3467 19.8067 40.3467 19.9455C40.3467 20.0844 40.3086 20.198 40.262 20.198C40.2153 20.198 40.1772 20.3116 40.1772 20.4505C40.1772 20.5894 40.1391 20.703 40.0924 20.703C40.0458 20.703 40.0077 20.8166 40.0077 20.9554C40.0077 21.0943 39.9695 21.2079 39.9229 21.2079C39.8763 21.2079 39.8381 21.3215 39.8381 21.4604C39.8381 21.5993 39.8 21.7129 39.7534 21.7129C39.7068 21.7129 39.6686 21.8265 39.6686 21.9653C39.6686 22.1042 39.6305 22.2178 39.5839 22.2178C39.5372 22.2178 39.4991 22.3314 39.4991 22.4703C39.4991 22.6092 39.461 22.7228 39.4143 22.7228C39.3677 22.7228 39.3296 22.8364 39.3296 22.9752C39.3296 23.1141 39.2914 23.2277 39.2448 23.2277C39.1982 23.2277 39.1601 23.3413 39.1601 23.4802C39.1601 23.6191 39.1219 23.7327 39.0753 23.7327C39.0287 23.7327 38.9905 23.8463 38.9905 23.9851C38.9905 24.124 38.9524 24.2376 38.9058 24.2376C38.8591 24.2376 38.821 24.3512 38.821 24.4901C38.821 24.629 38.7829 24.7426 38.7362 24.7426C38.6896 24.7426 38.6515 24.8562 38.6515 24.9951C38.6515 25.1339 38.6133 25.2475 38.5667 25.2475C38.5201 25.2475 38.482 25.3611 38.482 25.5C38.482 25.6389 38.4438 25.7525 38.3972 25.7525C38.3506 25.7525 38.3124 25.8661 38.3124 26.0049C38.3124 26.1438 38.2743 26.2574 38.2277 26.2574C38.1811 26.2574 38.1429 26.3332 38.1429 26.4257C38.1429 26.5183 38.1048 26.5941 38.0581 26.5941C38.0115 26.5941 37.9734 26.7077 37.9734 26.8465C37.9734 26.9854 37.9352 27.099 37.8886 27.099C37.842 27.099 37.8039 27.2126 37.8039 27.3515C37.8039 27.4903 37.7657 27.604 37.7191 27.604C37.6725 27.604 37.6343 27.7176 37.6343 27.8564C37.6343 27.9953 37.5962 28.1089 37.5496 28.1089C37.503 28.1089 37.4648 28.2604 37.4648 28.4455V28.7822H38.1913C38.9881 28.7822 39.1601 28.7011 39.1601 28.3253C39.1601 28.2063 39.1982 28.1089 39.2448 28.1089C39.2914 28.1089 39.3296 27.9953 39.3296 27.8564C39.3296 27.7176 39.3677 27.604 39.4143 27.604C39.461 27.604 39.4991 27.4903 39.4991 27.3515C39.4991 27.2126 39.5372 27.099 39.5839 27.099C39.6305 27.099 39.6686 26.9854 39.6686 26.8465C39.6686 26.7077 39.7068 26.5941 39.7534 26.5941C39.8 26.5941 39.8381 26.4804 39.8381 26.3416C39.8381 26.2027 39.8763 26.0891 39.9229 26.0891C39.9695 26.0891 40.0077 25.9755 40.0077 25.8366C40.0077 25.6978 40.0458 25.5842 40.0924 25.5842C40.1391 25.5842 40.1772 25.4868 40.1772 25.3678C40.1772 24.9226 40.2391 24.9109 42.5869 24.9109C44.6978 24.9109 44.7543 24.9153 44.7543 25.0792C44.7543 25.1718 44.7925 25.2475 44.8391 25.2475C44.8857 25.2475 44.9239 25.3611 44.9239 25.5C44.9239 25.6389 44.962 25.7525 45.0086 25.7525C45.0553 25.7525 45.0934 25.8661 45.0934 26.0049C45.0934 26.1438 45.1315 26.2574 45.1782 26.2574C45.2248 26.2574 45.2629 26.371 45.2629 26.5099C45.2629 26.6488 45.3011 26.7624 45.3477 26.7624C45.3943 26.7624 45.4324 26.876 45.4324 27.0149C45.4324 27.1537 45.4706 27.2673 45.5172 27.2673C45.5638 27.2673 45.602 27.3809 45.602 27.5198C45.602 27.6587 45.6401 27.7723 45.6867 27.7723C45.7333 27.7723 45.7715 27.8859 45.7715 28.0248C45.7715 28.1636 45.8096 28.2772 45.8563 28.2772C45.9029 28.2772 45.941 28.3367 45.941 28.4094C45.941 28.6933 46.1634 28.7822 46.8734 28.7822C47.405 28.7822 47.5961 28.7499 47.7052 28.6416C47.8081 28.5395 47.818 28.4917 47.7414 28.4663C47.6836 28.4471 47.6363 28.3211 47.6363 28.1861C47.6363 28.0511 47.5981 27.9406 47.5515 27.9406C47.5049 27.9406 47.4667 27.8649 47.4667 27.7723C47.4667 27.6797 47.4286 27.604 47.382 27.604C47.3353 27.604 47.2972 27.4903 47.2972 27.3515C47.2972 27.2126 47.2591 27.099 47.2124 27.099C47.1658 27.099 47.1277 26.9854 47.1277 26.8465C47.1277 26.7077 47.0895 26.5941 47.0429 26.5941C46.9963 26.5941 46.9582 26.4804 46.9582 26.3416C46.9582 26.2027 46.92 26.0891 46.8734 26.0891C46.8268 26.0891 46.7886 25.9755 46.7886 25.8366C46.7886 25.6978 46.7505 25.5842 46.7039 25.5842C46.6573 25.5842 46.6191 25.4705 46.6191 25.3317C46.6191 25.1928 46.581 25.0792 46.5343 25.0792C46.4877 25.0792 46.4496 24.9656 46.4496 24.8267C46.4496 24.6879 46.4114 24.5743 46.3648 24.5743C46.3182 24.5743 46.2801 24.4606 46.2801 24.3218C46.2801 24.1829 46.2419 24.0693 46.1953 24.0693C46.1487 24.0693 46.1105 23.9557 46.1105 23.8168C46.1105 23.678 46.0724 23.5644 46.0258 23.5644C45.9792 23.5644 45.941 23.4507 45.941 23.3119C45.941 23.173 45.9029 23.0594 45.8563 23.0594C45.8096 23.0594 45.7715 22.9458 45.7715 22.8069C45.7715 22.6681 45.7333 22.5545 45.6867 22.5545C45.6401 22.5545 45.602 22.4408 45.602 22.302C45.602 22.1631 45.5638 22.0495 45.5172 22.0495C45.4706 22.0495 45.4324 21.9359 45.4324 21.797C45.4324 21.6582 45.3943 21.5446 45.3477 21.5446C45.3011 21.5446 45.2629 21.4688 45.2629 21.3762C45.2629 21.2837 45.2248 21.2079 45.1782 21.2079C45.1315 21.2079 45.0934 21.0943 45.0934 20.9554C45.0934 20.8166 45.0553 20.703 45.0086 20.703C44.962 20.703 44.9239 20.5894 44.9239 20.4505C44.9239 20.3116 44.8857 20.198 44.8391 20.198C44.7925 20.198 44.7543 20.0844 44.7543 19.9455C44.7543 19.8067 44.7162 19.6931 44.6696 19.6931C44.623 19.6931 44.5848 19.5795 44.5848 19.4406C44.5848 19.3017 44.5467 19.1881 44.5001 19.1881C44.4534 19.1881 44.4153 19.0745 44.4153 18.9356C44.4153 18.7968 44.3772 18.6832 44.3305 18.6832C44.2839 18.6832 44.2458 18.5696 44.2458 18.4307C44.2458 18.2918 44.2076 18.1782 44.161 18.1782C44.1144 18.1782 44.0762 18.0646 44.0762 17.9257C44.0762 17.7869 44.0381 17.6733 43.9915 17.6733C43.9449 17.6733 43.9067 17.5597 43.9067 17.4208C43.9067 17.2819 43.8686 17.1683 43.822 17.1683C43.7753 17.1683 43.7372 17.072 43.7372 16.9541C43.7372 16.8363 43.6435 16.647 43.5291 16.5333C43.3375 16.3431 43.2589 16.327 42.5332 16.3299C41.9621 16.3323 41.7161 16.366 41.6393 16.4526ZM85.1011 17.4208C85.1011 17.4671 84.9485 17.505 84.762 17.505C84.5755 17.505 84.423 17.5428 84.423 17.5891C84.423 17.6354 84.3249 17.6733 84.205 17.6733C83.8032 17.6733 83.7449 17.8273 83.7449 18.8876V19.8614H83.0668H82.3887V20.4144C82.3887 21.1289 82.4683 21.2079 83.1879 21.2079H83.7449V23.9851C83.7449 25.7805 83.7749 26.7624 83.8296 26.7624C83.8762 26.7624 83.9144 26.9517 83.9144 27.1832C83.9144 27.4146 83.9525 27.604 83.9992 27.604C84.0458 27.604 84.0839 27.6797 84.0839 27.7723C84.0839 27.8649 84.1221 27.9406 84.1687 27.9406C84.2153 27.9406 84.2535 28.0001 84.2535 28.0728C84.2535 28.2351 84.4549 28.4455 84.6101 28.4455C84.6731 28.4455 84.7796 28.5213 84.8468 28.6139C84.9186 28.7127 85.0662 28.7822 85.2046 28.7822C85.3341 28.7822 85.4401 28.82 85.4401 28.8663C85.4401 28.9168 85.7792 28.9505 86.2877 28.9505C86.7963 28.9505 87.1354 28.9168 87.1354 28.8663C87.1354 28.82 87.2498 28.7822 87.3896 28.7822H87.6439V28.1931V27.604H86.8811C86.429 27.604 86.1182 27.5697 86.1182 27.5198C86.1182 27.4735 86.0419 27.4356 85.9487 27.4356C85.8357 27.4356 85.7792 27.3795 85.7792 27.2673C85.7792 27.1748 85.741 27.099 85.6944 27.099C85.6478 27.099 85.6097 27.0233 85.6097 26.9307C85.6097 26.8381 85.5715 26.7624 85.5249 26.7624C85.4701 26.7624 85.4401 25.7805 85.4401 23.9851V21.2079H86.542H87.6439V20.5347V19.8614H86.542H85.4401V18.599C85.4401 17.3928 85.4326 17.3366 85.2706 17.3366C85.1774 17.3366 85.1011 17.3745 85.1011 17.4208ZM42.5989 18.2985C42.6656 18.3645 42.7201 18.5539 42.7201 18.7193C42.7201 18.8846 42.7582 19.0198 42.8048 19.0198C42.8514 19.0198 42.8896 19.1334 42.8896 19.2723C42.8896 19.4111 42.9277 19.5248 42.9743 19.5248C43.021 19.5248 43.0591 19.6384 43.0591 19.7772C43.0591 19.9161 43.0973 20.0297 43.1439 20.0297C43.1905 20.0297 43.2286 20.1433 43.2286 20.2822C43.2286 20.421 43.2668 20.5347 43.3134 20.5347C43.36 20.5347 43.3982 20.6483 43.3982 20.7871C43.3982 20.926 43.4363 21.0396 43.4829 21.0396C43.5295 21.0396 43.5677 21.1532 43.5677 21.2921C43.5677 21.4309 43.6058 21.5446 43.6524 21.5446C43.6991 21.5446 43.7372 21.6582 43.7372 21.797C43.7372 21.9359 43.7753 22.0495 43.822 22.0495C43.8686 22.0495 43.9067 22.1631 43.9067 22.302C43.9067 22.4408 43.9449 22.5545 43.9915 22.5545C44.0381 22.5545 44.0762 22.6681 44.0762 22.8069C44.0762 22.9458 44.1144 23.0594 44.161 23.0594C44.2076 23.0594 44.2458 23.173 44.2458 23.3119V23.5644H42.4658C41.3356 23.5644 40.6858 23.5336 40.6858 23.4802C40.6858 23.4339 40.7239 23.396 40.7705 23.396C40.8172 23.396 40.8553 23.2824 40.8553 23.1436C40.8553 23.0047 40.8934 22.8911 40.9401 22.8911C40.9867 22.8911 41.0248 22.7775 41.0248 22.6386C41.0248 22.4998 41.063 22.3861 41.1096 22.3861C41.1562 22.3861 41.1943 22.2725 41.1943 22.1337C41.1943 21.9948 41.2325 21.8812 41.2791 21.8812C41.3257 21.8812 41.3639 21.7676 41.3639 21.6287C41.3639 21.4899 41.402 21.3762 41.4486 21.3762C41.4952 21.3762 41.5334 21.2626 41.5334 21.1238C41.5334 20.9849 41.5715 20.8713 41.6182 20.8713C41.6648 20.8713 41.7029 20.7577 41.7029 20.6188C41.7029 20.48 41.7411 20.3663 41.7877 20.3663C41.8343 20.3663 41.8724 20.2527 41.8724 20.1139C41.8724 19.975 41.9106 19.8614 41.9572 19.8614C42.0038 19.8614 42.042 19.7478 42.042 19.6089C42.042 19.4701 42.0801 19.3564 42.1267 19.3564C42.1733 19.3564 42.2115 19.2049 42.2115 19.0198C42.2115 18.8347 42.2496 18.6832 42.2962 18.6832C42.3429 18.6832 42.381 18.5696 42.381 18.4307C42.381 18.1483 42.4225 18.1232 42.5989 18.2985ZM53.2305 19.7772C53.2305 19.8235 53.1161 19.8614 52.9763 19.8614C52.8364 19.8614 52.722 19.8993 52.722 19.9455C52.722 19.9918 52.6457 20.0297 52.5525 20.0297C52.4592 20.0297 52.3829 20.0676 52.3829 20.1139C52.3829 20.1602 52.3236 20.198 52.2511 20.198C52.1786 20.198 51.8946 20.4252 51.6201 20.703C51.3455 20.9807 51.0997 21.2079 51.0738 21.2079C51.0479 21.2079 51.0267 21.0564 51.0267 20.8713C51.0267 20.6861 50.9886 20.5347 50.942 20.5347C50.8954 20.5347 50.8572 20.3832 50.8572 20.198V19.8614H50.2155C49.7723 19.8614 49.5362 19.8986 49.4526 19.9816C49.3137 20.1195 49.2904 20.3663 49.4163 20.3663C49.4719 20.3663 49.501 22.4142 49.501 26.3416V32.3168H49.7553C49.8952 32.3168 50.0096 32.3547 50.0096 32.401C50.0096 32.4473 50.124 32.4852 50.2639 32.4852C50.4037 32.4852 50.5182 32.4473 50.5182 32.401C50.5182 32.3547 50.6707 32.3168 50.8572 32.3168H51.1963V30.0446C51.1963 28.7948 51.2183 27.7723 51.2453 27.7723C51.2723 27.7723 51.4409 27.9238 51.6201 28.1089C51.7993 28.2941 52.006 28.4455 52.0796 28.4455C52.1532 28.4455 52.2134 28.4834 52.2134 28.5297C52.2134 28.576 52.2897 28.6139 52.3829 28.6139C52.4762 28.6139 52.5525 28.6517 52.5525 28.698C52.5525 28.7443 52.6669 28.7822 52.8067 28.7822C52.9466 28.7822 53.061 28.82 53.061 28.8663C53.061 28.9168 53.4001 28.9505 53.9086 28.9505C54.4172 28.9505 54.7563 28.9168 54.7563 28.8663C54.7563 28.82 54.8707 28.7822 55.0106 28.7822C55.1504 28.7822 55.2648 28.7443 55.2648 28.698C55.2648 28.6517 55.3709 28.6139 55.5004 28.6139C55.6387 28.6139 55.7864 28.5443 55.8582 28.4455C55.9254 28.353 56.03 28.2772 56.0906 28.2772C56.2343 28.2772 57.1296 27.3883 57.1296 27.2456C57.1296 27.1854 57.2059 27.0816 57.2991 27.0149C57.3986 26.9436 57.4686 26.797 57.4686 26.6596C57.4686 26.531 57.5068 26.4257 57.5534 26.4257C57.6 26.4257 57.6382 26.35 57.6382 26.2574C57.6382 26.1649 57.6763 26.0891 57.7229 26.0891C57.7696 26.0891 57.8077 25.8998 57.8077 25.6683C57.8077 25.4369 57.8458 25.2475 57.8925 25.2475C57.9443 25.2475 57.9772 24.8548 57.9772 24.2376C57.9772 23.6205 57.9443 23.2277 57.8925 23.2277C57.8458 23.2277 57.8077 23.0762 57.8077 22.8911C57.8077 22.7059 57.7696 22.5545 57.7229 22.5545C57.6763 22.5545 57.6382 22.4408 57.6382 22.302C57.6382 22.1631 57.6 22.0495 57.5534 22.0495C57.5068 22.0495 57.4686 21.9738 57.4686 21.8812C57.4686 21.7886 57.4305 21.7129 57.3839 21.7129C57.3373 21.7129 57.2991 21.6455 57.2991 21.5632C57.2991 21.4808 57.2228 21.3588 57.1296 21.2921C57.0364 21.2253 56.9601 21.1211 56.9601 21.0603C56.9601 20.9167 56.4057 20.3663 56.2611 20.3663C56.1999 20.3663 56.0949 20.2906 56.0277 20.198C55.9559 20.0992 55.8082 20.0297 55.6699 20.0297C55.5404 20.0297 55.4344 19.9918 55.4344 19.9455C55.4344 19.8993 55.3199 19.8614 55.1801 19.8614C55.0402 19.8614 54.9258 19.8235 54.9258 19.7772C54.9258 19.7267 54.5867 19.6931 54.0782 19.6931C53.5696 19.6931 53.2305 19.7267 53.2305 19.7772ZM63.741 19.7772C63.741 19.8235 63.6266 19.8614 63.4868 19.8614C63.3469 19.8614 63.2325 19.8993 63.2325 19.9455C63.2325 19.9918 63.1562 20.0297 63.0629 20.0297C62.9697 20.0297 62.8934 20.0676 62.8934 20.1139C62.8934 20.1602 62.8171 20.198 62.7239 20.198C62.6307 20.198 62.5544 20.2359 62.5544 20.2822C62.5544 20.3285 62.4959 20.3663 62.4244 20.3663C62.2557 20.3663 61.7068 20.9113 61.7068 21.0789C61.7068 21.1518 61.633 21.2079 61.5372 21.2079C61.3819 21.2079 61.3677 21.1518 61.3677 20.5347V19.8614H60.6896H60.0115V26.0891V32.3168H60.7744H61.5372V30.0446C61.5372 27.4802 61.5336 27.492 62.1306 28.1089C62.3097 28.2941 62.5165 28.4455 62.5901 28.4455C62.6637 28.4455 62.7239 28.4834 62.7239 28.5297C62.7239 28.576 62.8002 28.6139 62.8934 28.6139C62.9866 28.6139 63.0629 28.6517 63.0629 28.698C63.0629 28.7443 63.1774 28.7822 63.3172 28.7822C63.4571 28.7822 63.5715 28.82 63.5715 28.8663C63.5715 28.9168 63.9106 28.9505 64.4191 28.9505C64.9277 28.9505 65.2668 28.9168 65.2668 28.8663C65.2668 28.82 65.3812 28.7822 65.521 28.7822C65.6609 28.7822 65.7753 28.7443 65.7753 28.698C65.7753 28.6517 65.8814 28.6139 66.0109 28.6139C66.1492 28.6139 66.2969 28.5443 66.3687 28.4455C66.4359 28.353 66.5405 28.2772 66.6011 28.2772C66.7554 28.2772 67.6401 27.383 67.6401 27.2271C67.6401 27.1567 67.6782 27.099 67.7249 27.099C67.7715 27.099 67.8096 27.0233 67.8096 26.9307C67.8096 26.8381 67.8478 26.7624 67.8944 26.7624C67.941 26.7624 67.9791 26.6866 67.9791 26.5941C67.9791 26.5015 68.0173 26.4257 68.0639 26.4257C68.1105 26.4257 68.1487 26.3121 68.1487 26.1733C68.1487 26.0344 68.1868 25.9208 68.2334 25.9208C68.28 25.9208 68.3182 25.7314 68.3182 25.5C68.3182 25.2686 68.3563 25.0792 68.403 25.0792C68.4538 25.0792 68.4877 24.7426 68.4877 24.2376C68.4877 23.7327 68.4538 23.396 68.403 23.396C68.3563 23.396 68.3182 23.2067 68.3182 22.9752C68.3182 22.7438 68.28 22.5545 68.2334 22.5545C68.1868 22.5545 68.1487 22.4408 68.1487 22.302C68.1487 22.1631 68.1105 22.0495 68.0639 22.0495C68.0173 22.0495 67.9791 21.9738 67.9791 21.8812C67.9791 21.7886 67.941 21.7129 67.8944 21.7129C67.8478 21.7129 67.8096 21.6455 67.8096 21.5632C67.8096 21.4808 67.7333 21.3588 67.6401 21.2921C67.5469 21.2253 67.4706 21.1206 67.4706 21.0593C67.4706 20.9148 67.0877 20.5347 66.9422 20.5347C66.8805 20.5347 66.7749 20.4589 66.7077 20.3663C66.6405 20.2738 66.5177 20.198 66.4347 20.198C66.3518 20.198 66.2839 20.1602 66.2839 20.1139C66.2839 20.0676 66.2076 20.0297 66.1144 20.0297C66.0211 20.0297 65.9449 19.9918 65.9449 19.9455C65.9449 19.8993 65.8304 19.8614 65.6906 19.8614C65.5507 19.8614 65.4363 19.8235 65.4363 19.7772C65.4363 19.7267 65.0972 19.6931 64.5887 19.6931C64.0801 19.6931 63.741 19.7267 63.741 19.7772ZM92.3906 19.7772C92.3906 19.8235 92.238 19.8614 92.0516 19.8614C91.8651 19.8614 91.7125 19.8993 91.7125 19.9455C91.7125 19.9918 91.5981 20.0297 91.4582 20.0297C91.3184 20.0297 91.2039 20.0676 91.2039 20.1139C91.2039 20.1602 91.1276 20.198 91.0344 20.198C90.9412 20.198 90.8649 20.2359 90.8649 20.2822C90.8649 20.3285 90.8068 20.3663 90.7359 20.3663C90.5788 20.3663 89.6782 21.2447 89.6782 21.398C89.6782 21.4581 89.6019 21.562 89.5087 21.6287C89.4155 21.6955 89.3392 21.8174 89.3392 21.8998C89.3392 21.9821 89.301 22.0495 89.2544 22.0495C89.2078 22.0495 89.1697 22.1252 89.1697 22.2178C89.1697 22.3104 89.1315 22.3861 89.0849 22.3861C89.0383 22.3861 89.0001 22.4998 89.0001 22.6386C89.0001 22.7775 88.962 22.8911 88.9154 22.8911C88.8682 22.8911 88.8306 23.1155 88.8306 23.396C88.8306 23.6765 88.793 23.901 88.7458 23.901C88.6992 23.901 88.6611 24.0903 88.6611 24.3218C88.6611 24.5532 88.6992 24.7426 88.7458 24.7426C88.793 24.7426 88.8306 24.967 88.8306 25.2475C88.8306 25.528 88.8682 25.7525 88.9154 25.7525C88.962 25.7525 89.0001 25.8661 89.0001 26.0049C89.0001 26.1438 89.0383 26.2574 89.0849 26.2574C89.1315 26.2574 89.1697 26.3627 89.1697 26.4913C89.1697 26.6287 89.2397 26.7753 89.3392 26.8465C89.4324 26.9133 89.5087 27.017 89.5087 27.077C89.5087 27.2302 90.5796 28.2772 90.7361 28.2772C90.807 28.2772 90.8649 28.3151 90.8649 28.3614C90.8649 28.4077 90.9412 28.4455 91.0344 28.4455C91.1276 28.4455 91.2039 28.4834 91.2039 28.5297C91.2039 28.576 91.2802 28.6139 91.3735 28.6139C91.4667 28.6139 91.543 28.6517 91.543 28.698C91.543 28.7443 91.6956 28.7822 91.882 28.7822C92.0685 28.7822 92.2211 28.82 92.2211 28.8663C92.2211 28.9168 92.5601 28.9505 93.0687 28.9505C93.5773 28.9505 93.9163 28.9168 93.9163 28.8663C93.9163 28.82 94.0689 28.7822 94.2554 28.7822C94.4418 28.7822 94.5944 28.7443 94.5944 28.698C94.5944 28.6517 94.7088 28.6139 94.8487 28.6139C94.9886 28.6139 95.103 28.576 95.103 28.5297C95.103 28.4834 95.1709 28.4455 95.2538 28.4455C95.3368 28.4455 95.4596 28.3698 95.5268 28.2772C95.594 28.1847 95.6988 28.1089 95.7596 28.1089C95.9036 28.1089 96.6287 27.389 96.6287 27.246C96.6287 27.1856 96.705 27.0816 96.7982 27.0149C96.8915 26.9481 96.9678 26.8262 96.9678 26.7438C96.9678 26.6615 97.0059 26.5941 97.0525 26.5941C97.0991 26.5941 97.1373 26.4804 97.1373 26.3416C97.1373 26.2027 97.1754 26.0891 97.222 26.0891C97.2687 26.0891 97.3068 25.9755 97.3068 25.8366C97.3068 25.6978 97.3449 25.5842 97.3916 25.5842C97.4443 25.5842 97.4763 25.1072 97.4763 24.3218C97.4763 23.5363 97.4443 23.0594 97.3916 23.0594C97.3449 23.0594 97.3068 22.9079 97.3068 22.7228C97.3068 22.5376 97.2687 22.3861 97.222 22.3861C97.1754 22.3861 97.1373 22.3104 97.1373 22.2178C97.1373 22.1252 97.0991 22.0495 97.0525 22.0495C97.0059 22.0495 96.9678 21.9738 96.9678 21.8812C96.9678 21.7886 96.9296 21.7129 96.883 21.7129C96.8364 21.7129 96.7982 21.6554 96.7982 21.585C96.7982 21.4187 95.7384 20.3663 95.5708 20.3663C95.4999 20.3663 95.442 20.3285 95.442 20.2822C95.442 20.2359 95.3657 20.198 95.2725 20.198C95.1793 20.198 95.103 20.1602 95.103 20.1139C95.103 20.0676 95.0267 20.0297 94.9335 20.0297C94.8402 20.0297 94.7639 19.9918 94.7639 19.9455C94.7639 19.8993 94.6114 19.8614 94.4249 19.8614C94.2384 19.8614 94.0859 19.8235 94.0859 19.7772C94.0859 19.7267 93.7468 19.6931 93.2382 19.6931C92.7296 19.6931 92.3906 19.7267 92.3906 19.7772ZM102.901 19.7772C102.901 19.8235 102.787 19.8614 102.647 19.8614C102.507 19.8614 102.393 19.8993 102.393 19.9455C102.393 19.9918 102.334 20.0297 102.263 20.0297C102.095 20.0297 101.375 20.7441 101.375 20.9112C101.375 20.9818 101.337 21.0396 101.291 21.0396C101.244 21.0396 101.206 21.1153 101.206 21.2079C101.206 21.4073 101.152 21.4191 100.988 21.256C100.904 21.173 100.867 20.9386 100.867 20.4986V19.8614H100.189H99.5106V24.3218V28.7822H100.237C100.754 28.7822 100.999 28.7474 101.085 28.6619C101.185 28.5627 101.206 28.0641 101.206 25.8005C101.206 24.0293 101.236 23.0594 101.291 23.0594C101.337 23.0594 101.375 22.9458 101.375 22.8069C101.375 22.6681 101.414 22.5545 101.46 22.5545C101.507 22.5545 101.545 22.4966 101.545 22.426C101.545 22.259 102.264 21.5446 102.433 21.5446C102.504 21.5446 102.562 21.5067 102.562 21.4604C102.562 21.4141 102.676 21.3762 102.816 21.3762C102.956 21.3762 103.071 21.3384 103.071 21.2921C103.071 21.2458 103.261 21.2079 103.494 21.2079H103.918V20.4505V19.6931H103.41C103.127 19.6931 102.901 19.7304 102.901 19.7772ZM107.987 19.7772C107.987 19.8235 107.872 19.8614 107.733 19.8614C107.593 19.8614 107.478 19.8993 107.478 19.9455C107.478 19.9918 107.372 20.0297 107.243 20.0297C107.104 20.0297 106.957 20.0992 106.885 20.198C106.818 20.2906 106.713 20.3663 106.653 20.3663C106.509 20.3663 105.613 21.2553 105.613 21.398C105.613 21.4581 105.537 21.562 105.444 21.6287C105.351 21.6955 105.274 21.8174 105.274 21.8998C105.274 21.9821 105.236 22.0495 105.19 22.0495C105.143 22.0495 105.105 22.1631 105.105 22.302C105.105 22.4408 105.067 22.5545 105.02 22.5545C104.974 22.5545 104.935 22.6681 104.935 22.8069C104.935 22.9458 104.897 23.0594 104.851 23.0594C104.798 23.0594 104.766 23.5644 104.766 24.4059C104.766 25.2475 104.798 25.7525 104.851 25.7525C104.897 25.7525 104.935 25.904 104.935 26.0891C104.935 26.2743 104.974 26.4257 105.02 26.4257C105.067 26.4257 105.105 26.5015 105.105 26.5941C105.105 26.6866 105.143 26.7624 105.19 26.7624C105.236 26.7624 105.274 26.8298 105.274 26.9121C105.274 26.9945 105.351 27.1164 105.444 27.1832C105.537 27.2499 105.613 27.3542 105.613 27.4149C105.613 27.5585 106.168 28.1089 106.312 28.1089C106.374 28.1089 106.479 28.1847 106.546 28.2772C106.613 28.3698 106.736 28.4455 106.819 28.4455C106.902 28.4455 106.97 28.4834 106.97 28.5297C106.97 28.576 107.084 28.6139 107.224 28.6139C107.364 28.6139 107.478 28.6517 107.478 28.698C107.478 28.7443 107.631 28.7822 107.817 28.7822C108.004 28.7822 108.156 28.82 108.156 28.8663C108.156 28.9181 108.58 28.9505 109.258 28.9505C109.936 28.9505 110.36 28.9181 110.36 28.8663C110.36 28.82 110.551 28.7822 110.784 28.7822C111.017 28.7822 111.208 28.7443 111.208 28.698C111.208 28.6517 111.322 28.6139 111.462 28.6139C111.602 28.6139 111.716 28.576 111.716 28.5297C111.716 28.4834 111.793 28.4455 111.886 28.4455C112.027 28.4455 112.055 28.3894 112.055 28.1089C112.055 27.9238 112.017 27.7723 111.971 27.7723C111.924 27.7723 111.886 27.6587 111.886 27.5198C111.886 27.2954 111.858 27.2673 111.632 27.2673C111.492 27.2673 111.377 27.3052 111.377 27.3515C111.377 27.3978 111.263 27.4356 111.123 27.4356C110.983 27.4356 110.869 27.4735 110.869 27.5198C110.869 27.5722 110.388 27.604 109.597 27.604C108.806 27.604 108.326 27.5722 108.326 27.5198C108.326 27.4735 108.211 27.4356 108.072 27.4356C107.932 27.4356 107.817 27.3978 107.817 27.3515C107.817 27.3052 107.759 27.2673 107.688 27.2673C107.52 27.2673 106.8 26.5529 106.8 26.3859C106.8 26.3152 106.762 26.2574 106.715 26.2574C106.669 26.2574 106.631 26.1817 106.631 26.0891C106.631 25.9965 106.592 25.9208 106.546 25.9208C106.499 25.9208 106.461 25.8072 106.461 25.6683C106.461 25.5295 106.423 25.4158 106.376 25.4158C106.33 25.4158 106.292 25.2265 106.292 24.9951V24.5743H109.428H112.564V23.5644C112.564 22.9472 112.531 22.5545 112.479 22.5545C112.433 22.5545 112.394 22.4408 112.394 22.302C112.394 22.1631 112.356 22.0495 112.31 22.0495C112.263 22.0495 112.225 21.9738 112.225 21.8812C112.225 21.7886 112.187 21.7129 112.14 21.7129C112.094 21.7129 112.055 21.6371 112.055 21.5446C112.055 21.452 112.017 21.3762 111.971 21.3762C111.924 21.3762 111.886 21.3186 111.886 21.2481C111.886 21.0815 110.996 20.198 110.828 20.198C110.757 20.198 110.699 20.1602 110.699 20.1139C110.699 20.0676 110.623 20.0297 110.53 20.0297C110.436 20.0297 110.36 19.9918 110.36 19.9455C110.36 19.8993 110.208 19.8614 110.021 19.8614C109.835 19.8614 109.682 19.8235 109.682 19.7772C109.682 19.7267 109.343 19.6931 108.834 19.6931C108.326 19.6931 107.987 19.7267 107.987 19.7772ZM93.4077 20.9554C93.4077 21.0017 93.5603 21.0396 93.7468 21.0396C93.9333 21.0396 94.0859 21.0775 94.0859 21.1238C94.0859 21.1701 94.1439 21.2079 94.2148 21.2079C94.3827 21.2079 95.2725 22.0914 95.2725 22.2581C95.2725 22.3285 95.3107 22.3861 95.3573 22.3861C95.4039 22.3861 95.442 22.4619 95.442 22.5545C95.442 22.647 95.4802 22.7228 95.5268 22.7228C95.5734 22.7228 95.6116 22.8364 95.6116 22.9752C95.6116 23.1141 95.6497 23.2277 95.6963 23.2277C95.7485 23.2277 95.7811 23.6485 95.7811 24.3218C95.7811 24.9951 95.7485 25.4158 95.6963 25.4158C95.6497 25.4158 95.6116 25.5295 95.6116 25.6683C95.6116 25.8072 95.5734 25.9208 95.5268 25.9208C95.4802 25.9208 95.442 25.9965 95.442 26.0891C95.442 26.1817 95.4039 26.2574 95.3573 26.2574C95.3107 26.2574 95.2725 26.3151 95.2725 26.3855C95.2725 26.5522 94.3827 27.4356 94.2148 27.4356C94.1439 27.4356 94.0859 27.4735 94.0859 27.5198C94.0859 27.5661 93.9333 27.604 93.7468 27.604C93.5603 27.604 93.4077 27.6418 93.4077 27.6881C93.4077 27.7344 93.2933 27.7723 93.1535 27.7723C93.0136 27.7723 92.8992 27.7344 92.8992 27.6881C92.8992 27.6418 92.7466 27.604 92.5601 27.604C92.3736 27.604 92.2211 27.5661 92.2211 27.5198C92.2211 27.4735 92.1601 27.4356 92.0855 27.4356C92.011 27.4356 91.8431 27.322 91.7125 27.1832C91.5819 27.0443 91.414 26.9307 91.3395 26.9307C91.2649 26.9307 91.2039 26.8633 91.2039 26.781C91.2039 26.6986 91.1276 26.5766 91.0344 26.5099C90.9412 26.4432 90.8649 26.3212 90.8649 26.2388C90.8649 26.1565 90.8267 26.0891 90.7801 26.0891C90.7335 26.0891 90.6954 25.9755 90.6954 25.8366C90.6954 25.6978 90.6572 25.5842 90.6106 25.5842C90.5635 25.5842 90.5258 25.3597 90.5258 25.0792C90.5258 24.7987 90.4882 24.5743 90.4411 24.5743C90.3945 24.5743 90.3563 24.4228 90.3563 24.2376C90.3563 24.0525 90.3945 23.901 90.4411 23.901C90.4877 23.901 90.5258 23.7116 90.5258 23.4802C90.5258 23.2488 90.564 23.0594 90.6106 23.0594C90.6572 23.0594 90.6954 22.9458 90.6954 22.8069C90.6954 22.6681 90.7335 22.5545 90.7801 22.5545C90.8267 22.5545 90.8649 22.487 90.8649 22.4047C90.8649 22.3223 90.9412 22.2004 91.0344 22.1337C91.1276 22.0669 91.2039 21.9621 91.2039 21.9009C91.2039 21.7473 91.5909 21.3762 91.7511 21.3762C91.8231 21.3762 91.882 21.3384 91.882 21.2921C91.882 21.2458 91.9583 21.2079 92.0516 21.2079C92.1448 21.2079 92.2211 21.1701 92.2211 21.1238C92.2211 21.0775 92.3736 21.0396 92.5601 21.0396C92.7466 21.0396 92.8992 21.0017 92.8992 20.9554C92.8992 20.9092 93.0136 20.8713 93.1535 20.8713C93.2933 20.8713 93.4077 20.9092 93.4077 20.9554ZM109.343 20.9554C109.343 21.0017 109.439 21.0396 109.557 21.0396C109.796 21.0396 110.699 21.8694 110.699 22.0897C110.699 22.1602 110.737 22.2178 110.784 22.2178C110.831 22.2178 110.869 22.3693 110.869 22.5545C110.869 22.7396 110.907 22.8911 110.953 22.8911C111 22.8911 111.038 23.0047 111.038 23.1436V23.396H108.665C106.348 23.396 106.292 23.392 106.292 23.2277C106.292 23.1351 106.33 23.0594 106.376 23.0594C106.423 23.0594 106.461 22.9458 106.461 22.8069C106.461 22.6681 106.499 22.5545 106.546 22.5545C106.592 22.5545 106.631 22.4787 106.631 22.3861C106.631 22.2936 106.669 22.2178 106.715 22.2178C106.762 22.2178 106.8 22.16 106.8 22.0894C106.8 21.9223 107.52 21.2079 107.688 21.2079C107.759 21.2079 107.817 21.1701 107.817 21.1238C107.817 21.0775 107.894 21.0396 107.987 21.0396C108.08 21.0396 108.156 21.0017 108.156 20.9554C108.156 20.9074 108.411 20.8713 108.75 20.8713C109.089 20.8713 109.343 20.9074 109.343 20.9554ZM54.4172 21.1238C54.4172 21.1701 54.4935 21.2079 54.5867 21.2079C54.68 21.2079 54.7563 21.2458 54.7563 21.2921C54.7563 21.3384 54.8145 21.3762 54.8856 21.3762C55.0539 21.3762 55.7734 22.0907 55.7734 22.2577C55.7734 22.3283 55.8116 22.3861 55.8582 22.3861C55.9048 22.3861 55.9429 22.4619 55.9429 22.5545C55.9429 22.647 55.9811 22.7228 56.0277 22.7228C56.0743 22.7228 56.1125 22.8364 56.1125 22.9752C56.1125 23.1141 56.1506 23.2277 56.1972 23.2277C56.2493 23.2277 56.282 23.6485 56.282 24.3218C56.282 24.9951 56.2493 25.4158 56.1972 25.4158C56.1506 25.4158 56.1125 25.5295 56.1125 25.6683C56.1125 25.8072 56.0743 25.9208 56.0277 25.9208C55.9811 25.9208 55.9429 25.9965 55.9429 26.0891C55.9429 26.1817 55.9048 26.2574 55.8582 26.2574C55.8116 26.2574 55.7734 26.3151 55.7734 26.3855C55.7734 26.6058 54.8707 27.4356 54.631 27.4356C54.5134 27.4356 54.4172 27.4735 54.4172 27.5198C54.4172 27.5697 54.1064 27.604 53.6544 27.604C53.2023 27.604 52.8915 27.5697 52.8915 27.5198C52.8915 27.4735 52.7855 27.4356 52.6559 27.4356C52.5176 27.4356 52.37 27.3661 52.2982 27.2673C52.2309 27.1748 52.1245 27.099 52.0615 27.099C51.9139 27.099 51.7048 26.8914 51.7048 26.7449C51.7048 26.6823 51.6286 26.5766 51.5353 26.5099C51.4421 26.4432 51.3658 26.3212 51.3658 26.2388C51.3658 26.1565 51.3276 26.0891 51.281 26.0891C51.2275 26.0891 51.1963 25.5 51.1963 24.4901C51.1963 23.4802 51.2275 22.8911 51.281 22.8911C51.3276 22.8911 51.3658 22.7858 51.3658 22.6572C51.3658 22.5199 51.4358 22.3733 51.5353 22.302C51.6286 22.2352 51.7048 22.1305 51.7048 22.0692C51.7048 21.9247 52.0877 21.5446 52.2332 21.5446C52.2949 21.5446 52.4005 21.4688 52.4677 21.3762C52.5395 21.2774 52.6871 21.2079 52.8255 21.2079C52.955 21.2079 53.061 21.1701 53.061 21.1238C53.061 21.0747 53.3435 21.0396 53.7391 21.0396C54.1347 21.0396 54.4172 21.0747 54.4172 21.1238ZM64.9277 21.1238C64.9277 21.1701 65.004 21.2079 65.0972 21.2079C65.1905 21.2079 65.2668 21.2458 65.2668 21.2921C65.2668 21.3384 65.325 21.3762 65.3961 21.3762C65.5644 21.3762 66.2839 22.0907 66.2839 22.2577C66.2839 22.3283 66.322 22.3861 66.3687 22.3861C66.4153 22.3861 66.4534 22.4619 66.4534 22.5545C66.4534 22.647 66.4916 22.7228 66.5382 22.7228C66.5848 22.7228 66.623 22.8743 66.623 23.0594C66.623 23.2446 66.6611 23.396 66.7077 23.396C66.7591 23.396 66.7925 23.7607 66.7925 24.3218C66.7925 24.8829 66.7591 25.2475 66.7077 25.2475C66.6611 25.2475 66.623 25.399 66.623 25.5842C66.623 25.7693 66.5848 25.9208 66.5382 25.9208C66.4916 25.9208 66.4534 25.9965 66.4534 26.0891C66.4534 26.1817 66.4153 26.2574 66.3687 26.2574C66.322 26.2574 66.2839 26.3152 66.2839 26.3859C66.2839 26.5529 65.5644 27.2673 65.3961 27.2673C65.325 27.2673 65.2668 27.3052 65.2668 27.3515C65.2668 27.3978 65.1905 27.4356 65.0972 27.4356C65.004 27.4356 64.9277 27.4735 64.9277 27.5198C64.9277 27.5697 64.6169 27.604 64.1648 27.604C63.7128 27.604 63.402 27.5697 63.402 27.5198C63.402 27.4735 63.2876 27.4356 63.1477 27.4356C63.0078 27.4356 62.8934 27.3978 62.8934 27.3515C62.8934 27.3052 62.8349 27.2673 62.7635 27.2673C62.5947 27.2673 62.0458 26.7223 62.0458 26.5548C62.0458 26.4838 62.0077 26.4257 61.961 26.4257C61.9144 26.4257 61.8763 26.35 61.8763 26.2574C61.8763 26.1649 61.8381 26.0891 61.7915 26.0891C61.7449 26.0891 61.7068 25.8998 61.7068 25.6683C61.7068 25.4369 61.6686 25.2475 61.622 25.2475C61.5711 25.2475 61.5372 24.9109 61.5372 24.4059C61.5372 23.901 61.5711 23.5644 61.622 23.5644C61.6686 23.5644 61.7068 23.375 61.7068 23.1436C61.7068 22.9121 61.7449 22.7228 61.7915 22.7228C61.8381 22.7228 61.8763 22.647 61.8763 22.5545C61.8763 22.4619 61.9144 22.3861 61.961 22.3861C62.0077 22.3861 62.0458 22.3283 62.0458 22.2577C62.0458 22.0907 62.7653 21.3762 62.9336 21.3762C63.0047 21.3762 63.0629 21.3384 63.0629 21.2921C63.0629 21.2458 63.1392 21.2079 63.2325 21.2079C63.3257 21.2079 63.402 21.1701 63.402 21.1238C63.402 21.0739 63.7128 21.0396 64.1648 21.0396C64.6169 21.0396 64.9277 21.0739 64.9277 21.1238Z" fill="black"/>
</svg>
