<svg width="669" height="290" viewBox="0 0 669 290" fill="none" xmlns="http://www.w3.org/2000/svg">
<circle cx="481.872" cy="23.4343" r="23.4343" fill="url(#paint0_linear_74_893)"/>
<path fill-rule="evenodd" clip-rule="evenodd" d="M150.856 46.8687C163.799 46.8687 174.291 36.3768 174.291 23.4343C174.291 10.4919 163.799 0 150.856 0C137.914 0 127.422 10.4919 127.422 23.4343C127.422 36.3768 137.914 46.8687 150.856 46.8687ZM0 227.458L0.0740655 227.547C0.100621 270.797 19.5324 289.998 61.1971 289.998C73.7456 289.998 86.9012 287.772 93.7826 284.938V246.484C89.1275 248.103 81.8413 249.924 72.3288 249.924C56.9468 249.924 47.8391 243.852 47.8391 223.411V118.166H47.7651V78.6987H47.8391V22.0283H47.7651V0.37207H0V227.458ZM127.521 290H175.286V70.6751H127.521V290ZM337.809 284.938C330.927 287.772 317.772 289.998 305.223 289.998C263.53 289.998 244.1 270.771 244.1 227.458V109.378H211.717V69.9108H244.1V0.37207H291.865V69.9108H333.356V109.378H291.865V223.411C291.865 243.852 300.973 249.924 316.355 249.924C325.868 249.924 333.154 248.103 337.809 246.484V284.938ZM418.577 270.959C418.577 281.475 410.052 290 399.536 290C389.021 290 380.496 281.475 380.496 270.959C380.496 260.444 389.021 251.919 399.536 251.919C410.052 251.919 418.577 260.444 418.577 270.959Z" fill="url(#paint1_linear_74_893)"/>
<path d="M458.254 289.998H506.019V70.6751H458.254V289.998Z" fill="url(#paint2_linear_74_893)"/>
<path d="M635.956 289.998C648.505 289.998 661.66 287.772 668.542 284.938V246.484C663.887 248.103 656.6 249.924 647.088 249.924C631.706 249.924 622.598 243.852 622.598 223.411V109.378H664.089V69.9108H622.598V0.37207H574.833V69.9108H542.45V109.378H574.833V227.458C574.833 270.771 594.263 289.998 635.956 289.998Z" fill="url(#paint3_linear_74_893)"/>
<defs>
<linearGradient id="paint0_linear_74_893" x1="481.872" y1="0" x2="481.872" y2="46.8687" gradientUnits="userSpaceOnUse">
<stop offset="0.698041" stop-color="white"/>
<stop offset="1" stop-color="white" stop-opacity="0"/>
</linearGradient>
<linearGradient id="paint1_linear_74_893" x1="209.288" y1="0" x2="209.288" y2="290" gradientUnits="userSpaceOnUse">
<stop offset="0.698041" stop-color="white"/>
<stop offset="1" stop-color="white" stop-opacity="0"/>
</linearGradient>
<linearGradient id="paint2_linear_74_893" x1="563.398" y1="0.37207" x2="563.398" y2="289.998" gradientUnits="userSpaceOnUse">
<stop offset="0.698041" stop-color="white"/>
<stop offset="1" stop-color="white" stop-opacity="0"/>
</linearGradient>
<linearGradient id="paint3_linear_74_893" x1="563.398" y1="0.37207" x2="563.398" y2="289.998" gradientUnits="userSpaceOnUse">
<stop offset="0.698041" stop-color="white"/>
<stop offset="1" stop-color="white" stop-opacity="0"/>
</linearGradient>
</defs>
</svg>
