<svg width="64" height="64" viewBox="0 0 64 64" fill="none" xmlns="http://www.w3.org/2000/svg">
<path d="M0 15.506V1.66667C0 0.745905 0.745905 0 1.66667 0H15.506C16.4263 0 17.1721 0.745905 17.1721 1.66667C17.1721 2.58743 16.4262 3.33333 15.506 3.33333H3.33333V15.506C3.33333 16.4267 2.58743 17.1726 1.66667 17.1726C0.745905 17.1726 0 16.4267 0 15.506ZM62.3333 0H48.4941C47.5733 0 46.8274 0.745905 46.8274 1.66667C46.8274 2.58743 47.5733 3.33333 48.4941 3.33333H60.6667V15.506C60.6667 16.4267 61.4126 17.1726 62.3333 17.1726C63.2541 17.1726 64 16.4267 64 15.506V1.66667C64 0.746369 63.2541 0 62.3333 0ZM62.3333 46.8274C61.4126 46.8274 60.6667 47.5733 60.6667 48.494V60.6667H48.4941C47.5733 60.6667 46.8274 61.4126 46.8274 62.3333C46.8274 63.2541 47.5733 64 48.4941 64H62.3333C63.2541 64 64 63.2541 64 62.3333V48.494C64 47.5733 63.2541 46.8274 62.3333 46.8274ZM15.506 60.6667H3.33333V48.494C3.33333 47.5733 2.58743 46.8274 1.66667 46.8274C0.745905 46.8274 0 47.5733 0 48.494V62.3333C0 63.2541 0.745905 64 1.66667 64H15.506C16.4263 64 17.1721 63.2541 17.1721 62.3333C17.1721 61.4126 16.4262 60.6667 15.506 60.6667ZM15.22 51.3702C15.22 52.0831 15.798 52.6612 16.5109 52.6612H47.4895C48.2024 52.6612 48.7804 52.0832 48.7804 51.3702L48.78 42.8076C48.78 37.4612 44.4459 33.1267 39.099 33.1267H24.9002C19.5538 33.1267 15.2193 37.4607 15.2193 42.8076L15.22 51.3702ZM31.9997 30.056C37.1593 30.056 41.3579 25.8581 41.3579 20.6977C41.3579 15.5374 37.1591 11.3395 31.9997 11.3395C26.8403 11.3395 22.642 15.5374 22.642 20.6977C22.642 25.8581 26.8403 30.056 31.9997 30.056Z" fill="#B9B9B9"/>
</svg>
