<svg width="58" height="67" viewBox="0 0 58 67" fill="none" xmlns="http://www.w3.org/2000/svg">
<path d="M5.67892 1.202L5.67902 1.20198C5.73426 1.18708 5.92934 1.15314 6.4873 1.12378C7.02099 1.0957 7.82067 1.07404 9.03438 1.05767C11.4588 1.02499 15.4849 1.01398 22.229 1.00987L37.234 1.00062V7.59577C37.234 11.7464 37.2366 13.938 37.3592 15.2951C37.4223 15.9932 37.5202 16.5173 37.6819 17.0007C37.8409 17.4761 38.0503 17.8747 38.2754 18.2979L38.2754 18.2979C38.6128 18.9322 39.1678 19.6027 39.7517 20.1716C40.3365 20.7414 41.0238 21.2808 41.6717 21.6098L42.1245 20.7182L41.6717 21.6099C42.0648 21.8095 42.4394 21.9899 42.8844 22.1292C43.3328 22.2696 43.8161 22.3573 44.4393 22.415C45.6513 22.5273 47.5324 22.5355 50.9505 22.5355H56.3363V41.0955C56.3363 41.9555 56.3364 42.779 56.3364 43.5677C56.3371 52.5591 56.3374 57.021 56.2463 59.4195C56.1966 60.7312 56.121 61.3475 56.028 61.7242C55.9579 62.0083 55.8838 62.1523 55.7238 62.4633C55.6891 62.5306 55.6505 62.6057 55.607 62.6917L55.607 62.6918C55.4014 63.0983 55.0165 63.6106 54.5396 64.0978C54.0628 64.5849 53.5578 64.9818 53.1535 65.1977L53.1535 65.1977C53.0227 65.2676 52.9178 65.3257 52.8288 65.375C52.5526 65.5281 52.4299 65.5961 52.1608 65.6665C51.7733 65.7678 51.1141 65.8511 49.6463 65.9052C47.0356 66.0015 42.1451 66.0009 32.3019 65.9998C31.1632 65.9996 29.9583 65.9995 28.6829 65.9995C18.8994 65.9995 13.2973 65.9924 10.0449 65.9603C8.41679 65.9442 7.39001 65.922 6.72633 65.892C6.03942 65.8609 5.81348 65.8233 5.73552 65.8029C3.52781 65.2266 1.82334 63.5259 1.2301 61.2987C1.22873 61.2849 1.22447 61.2458 1.21914 61.1705C1.21035 61.0464 1.20131 60.8713 1.19228 60.6441C1.17429 60.1913 1.15737 59.5581 1.14165 58.7665C1.11025 57.1849 1.08401 54.991 1.06301 52.3863C1.02101 47.1781 1 40.3396 1 33.4997C1 26.6599 1.02101 19.8214 1.06301 14.6132C1.08401 12.0085 1.11025 9.81455 1.14165 8.23296C1.15737 7.44143 1.17429 6.80819 1.19228 6.35534C1.20131 6.12815 1.21035 5.95308 1.21914 5.82901C1.22447 5.75368 1.22873 5.71459 1.2301 5.70076C1.81623 3.50119 3.52138 1.78336 5.67892 1.202ZM1.22 5.73914L1.22002 5.73907L1.22 5.73914Z" stroke="#646465" stroke-width="2"/>
<path fill-rule="evenodd" clip-rule="evenodd" d="M29.4784 25.0449C25.036 26.0608 21.3299 26.9223 21.2425 26.9594C21.0333 27.0483 20.8075 27.3176 20.7434 27.5546C20.7085 27.6833 20.6918 30.1045 20.6916 35.0389C20.6915 39.0508 20.6748 42.3256 20.6545 42.3163C20.6343 42.3071 20.4741 42.2279 20.2986 42.1403C19.113 41.5487 17.5479 41.4499 16.2973 41.8878C14.212 42.618 13.0921 44.4932 13.6892 46.2547C13.8612 46.7618 14.0839 47.1237 14.4808 47.5408C16.5559 49.7214 20.6321 49.329 22.1031 46.807C22.1596 46.71 22.2683 46.4494 22.3446 46.2278L22.4027 46.0592C22.4561 45.904 22.4836 45.7412 22.4843 45.5772L22.5078 39.9366L22.5274 35.2397C22.5303 34.5421 23.0138 33.9386 23.6939 33.7835L29.553 32.4472C33.4143 31.5667 36.6344 30.8321 36.7086 30.8149C36.7777 30.799 36.8436 30.8514 36.8436 30.9223V34.7167V38.3321C36.8436 38.4771 36.6902 38.5706 36.5613 38.5042C35.7271 38.0741 35.0071 37.9219 33.9715 37.9567C32.5692 38.0038 31.5728 38.4187 30.6781 39.3282C30.315 39.6973 30.1941 39.8608 30.0268 40.2095C29.5844 41.131 29.5715 42.0105 29.9875 42.9024C30.3763 43.7363 31.0008 44.3381 31.9502 44.7938C33.3287 45.4555 35.0447 45.445 36.4416 44.7663C37.322 44.3384 37.9714 43.7183 38.3396 42.9537C38.6807 42.2458 38.6623 42.8487 38.6482 32.8416L38.6359 24.0642C38.6357 23.8977 38.5876 23.7348 38.4973 23.5948C38.3358 23.3445 38.0434 23.1871 37.7519 23.1936C37.6439 23.196 33.9208 24.0291 29.4784 25.0449Z" fill="#646465"/>
<path fill-rule="evenodd" clip-rule="evenodd" d="M41.875 7.88054C41.875 14.1333 42.0128 15.3223 42.1971 15.7837C42.4953 16.5295 42.8413 17.7163 44.774 18.0264C45.0758 18.083 47.2549 18.0547 50.6035 18.0264L56.6923 17.9751L49.6946 9.42869C45.8457 4.72814 42.5118 0.683716 42.2858 0.44121L41.875 0V7.88054Z" fill="#646465"/>
</svg>
