<svg width="22" height="22" viewBox="0 0 22 22" fill="none" xmlns="http://www.w3.org/2000/svg">
<path d="M8.7619 2.56947V9.04566C8.7619 9.25604 8.59133 9.42662 8.38095 9.42662H1.90476C0.852865 9.42662 0 10.2795 0 11.3314C0 12.3833 0.852865 13.2361 1.90476 13.2361H8.38095C8.59133 13.2361 8.7619 13.4067 8.7619 13.6171V20.0933C8.7619 21.1452 9.61477 21.998 10.6667 21.998C11.7186 21.998 12.5714 21.1452 12.5714 20.0933V13.6171C12.5714 13.4067 12.742 13.2361 12.9524 13.2361H19.4286C20.4805 13.2361 21.3333 12.3833 21.3333 11.3314C21.3333 10.2795 20.4805 9.42662 19.4286 9.42662H12.9524C12.742 9.42662 12.5714 9.25604 12.5714 9.04566V2.56947C12.5714 1.51758 11.7186 0.664711 10.6667 0.664711C9.61477 0.664711 8.7619 1.51758 8.7619 2.56947Z" fill="#0B0B0B"/>
</svg>
