<svg width="500" height="88" viewBox="0 0 500 88" fill="none" xmlns="http://www.w3.org/2000/svg">
<path opacity="0.3" fill-rule="evenodd" clip-rule="evenodd" d="M2.9491 40.2178C7.52972 40.1729 12.1189 40.2078 16.6995 40.2161C21.8829 40.1962 27.0713 40.1779 32.253 40.158C35.7368 40.0583 39.2207 39.957 42.7029 39.8656C42.7725 39.8639 42.8455 39.9703 42.9185 40.0267C43.2309 40.0201 43.545 40.0151 43.8591 40.0085C43.9661 39.8689 44.0713 39.6082 44.1817 39.6049C49.3565 39.4686 54.5314 39.3673 59.7046 39.2344C62.6214 39.1596 65.5382 39.07 68.4516 38.9138C69.1867 38.874 70.2564 38.1581 70.5789 38.4288C72.6808 40.1945 74.3192 38.9238 75.9117 37.9055C76.6588 38.4603 77.3328 38.9603 77.9423 39.4121C79.3481 38.7245 80.6197 38.1032 81.8455 37.5036C82.4279 38.2378 82.9643 38.9105 83.691 39.8241C85.7487 36.4571 87.8455 38.3707 89.9898 39.5617C90.4075 38.8208 90.7453 38.2228 91.1392 37.5252C92.7487 38.0202 94.292 38.4969 95.5874 38.8956C96.1935 38.3125 96.6537 37.8674 97.1138 37.4239C97.9372 39.2593 99.871 36.4438 100.774 38.2162C100.788 38.2428 101.82 37.5684 102.357 37.5966C102.946 37.6265 103.511 38.0916 104.19 38.4155C104.385 37.7029 104.564 37.0452 104.716 36.4904C106.153 36.1797 107.149 36.3309 107.304 37.8458C108.491 36.9305 108.533 38.9603 109.696 38.5733C109.862 38.1647 110.039 37.6149 110.263 37.0634C110.367 37.0966 110.526 37.1298 110.526 37.1631C110.526 38.3358 110.526 39.5085 110.526 40.6812C110.696 40.6962 110.888 40.6928 111.044 40.6712C111.132 39.0002 111.244 37.3275 111.333 35.6565C112.968 37.1847 114.419 38.1032 116.497 36.9787C116.749 36.2661 117.048 35.4355 117.302 34.7097C118.406 35.8375 119.45 36.899 120.345 37.8142C121.216 36.8259 122.085 35.8226 122.936 34.8575C123.891 35.8757 124.618 36.6083 125.637 37.7527C125.637 38.2976 125.637 39.4719 125.637 40.648C125.806 40.6629 125.913 40.6662 126.044 40.6579C126.25 38.6796 126.464 36.7013 126.73 34.1399C127.35 35.5169 127.684 36.2544 128.09 37.1614C128.555 35.8508 128.918 34.8293 129.28 33.806C129.465 33.8476 129.652 33.8874 129.839 33.929C129.959 34.7412 130.082 35.5552 130.268 36.8059C130.548 35.9056 130.672 35.5087 130.806 35.0735C131.187 35.3808 131.48 35.615 132.087 36.1033C132.202 34.1333 132.292 32.5818 132.382 31.0321C132.504 31.0287 132.625 31.0271 132.747 31.0254C133.049 32.831 133.351 34.6349 133.767 37.1182C134.385 35.3807 134.823 34.2612 135.222 33.1416C135.351 33.1549 135.484 33.1699 135.654 33.1831C135.654 34.5768 135.654 35.9704 135.654 37.3641C135.654 37.3691 135.84 37.3757 135.954 37.3807C136.156 36.2511 136.34 35.1216 136.545 33.9921C136.689 34.022 136.823 34.0519 136.968 34.0818C137.246 35.5518 137.521 37.0202 137.801 38.4886C138.034 35.286 137.302 32.0021 138.679 28.6501C138.925 31.3576 139.149 33.8343 139.375 36.3093C139.562 36.2993 139.749 36.2894 139.935 36.2794C140.238 35.2495 140.574 34.2197 140.876 33.1898C141.048 33.2097 141.256 33.2297 141.426 33.2479C141.426 34.6648 141.426 36.08 141.426 37.4953C141.596 37.4903 141.869 37.487 142.109 37.482C142.2 35.8292 142.275 34.1748 142.374 32.4091C142.745 32.7313 142.951 32.919 143.211 33.1449C143.52 30.5653 143.81 28.1053 144.17 25.0938C144.462 28.1617 144.698 30.6567 144.937 33.1516C145.158 34.4024 145.377 35.6532 145.598 36.9056C145.744 36.8873 145.89 36.8707 146.034 36.8541C146.109 35.6332 146.163 34.4123 146.256 32.8825C146.834 34.5984 147.199 35.9239 147.708 37.2494C147.708 35.7163 147.708 34.1815 147.708 32.4041C149.576 33.0021 149.445 31.8377 149.457 30.856C149.486 28.6036 149.475 26.3528 149.475 24.1004C150.316 27.8412 150.735 31.5736 151.124 35.3093C151.211 36.1465 151.214 36.9936 151.255 37.8358C151.324 37.8291 151.394 37.8225 151.464 37.8159C151.694 36.2362 151.925 34.6565 152.156 33.0785C152.343 33.1018 152.531 33.1267 152.718 33.1499C152.779 34.1964 152.84 35.2429 152.902 36.2877C153.022 36.291 153.143 36.2943 153.263 36.296C153.34 34.5967 153.416 32.8958 153.492 31.1949C153.745 31.2048 153.998 31.2131 154.253 31.2214C154.385 32.7031 154.484 34.1831 154.616 35.6648C154.871 35.6531 155.178 35.6415 155.348 35.6299C155.348 31.238 155.348 26.8462 155.348 22.4543C155.688 22.4577 155.781 22.4626 155.981 22.4659C156.377 27.9757 156.754 33.4855 157.149 38.9969C157.348 38.9869 157.555 38.977 157.725 38.967C157.725 38.2577 157.725 37.5501 157.725 36.8408C157.725 36.1216 157.725 35.4023 157.725 34.708C160.102 34.2745 161.059 33.2047 161.093 31.1832C161.136 28.7846 161.122 26.3844 161.122 23.9858C162.469 27.509 161.879 31.4938 164.538 34.5569C164.779 33.5253 165.024 32.4938 165.267 31.4507C165.608 32.0237 165.932 32.6018 166.277 33.1815C166.433 33.1566 166.553 33.1317 166.723 33.1084C166.723 29.8976 166.723 26.6867 166.723 23.2931C167.572 26.391 168.285 29.2232 169.18 32.6732C169.396 31.4324 169.509 30.8361 169.676 29.8776C170.531 31.3444 171.221 32.5187 172.151 34.115C172.419 30.6251 172.034 27.6219 172.433 24.6935C172.689 24.7018 172.947 24.71 173.204 24.7167C173.294 26.3611 173.411 28.0056 173.501 29.6501C173.667 29.6368 173.854 29.6235 174.024 29.6102C174.024 27.9126 174.024 26.2133 174.024 24.5157C174.024 24.5107 174.173 24.5074 174.26 24.5041C174.45 25.5323 174.626 26.5605 174.883 27.9591C175.465 27.195 175.686 26.8977 175.8 26.7465C176.397 29.0155 176.995 31.3045 177.666 33.8575C180.829 28.7398 178.689 23.1902 179.837 18.1273C180.1 18.1422 180.306 18.1555 180.645 18.1704C180.645 21.6271 180.645 25.0855 180.645 28.5438C180.815 28.5355 180.891 28.5272 181.024 28.5189C181.143 27.2017 181.25 25.8828 181.368 24.5639C181.657 24.5788 181.939 24.5921 182.228 24.6071C182.608 29.4242 182.985 34.2429 183.367 39.0617C183.548 37.9305 183.869 36.8026 183.885 35.6714C183.946 31.2264 183.934 26.7814 183.934 22.3347C184.131 22.3364 184.38 22.3364 184.55 22.338C184.55 27.3428 184.55 32.3476 184.55 37.3524C184.72 37.3541 184.844 37.3558 185.003 37.3558C185.277 31.2862 185.538 25.2167 185.812 19.1455C185.913 19.1488 186.008 19.1521 186.11 19.1538C186.277 22.735 186.44 26.318 186.606 29.8992C186.749 30.0769 186.888 30.2563 187.031 30.4341C187.078 30.3643 187.168 30.2962 187.168 30.2248C187.175 28.2946 187.173 26.3645 187.173 24.4327C187.411 24.4277 187.649 24.421 187.886 24.4144C188.048 26.2631 188.19 28.1119 188.375 29.959C188.698 33.1582 189.049 36.3558 189.387 39.555C189.436 33.7944 189.484 28.0338 189.533 22.2716C189.845 22.2633 190.158 22.2533 190.47 22.2434C190.739 26.3279 190.516 30.4557 190.689 34.5485C190.891 34.5402 191.002 34.5319 191.341 34.5253C191.341 27.4176 191.341 20.3115 191.341 13.2038C191.851 18.2418 192.153 23.2782 192.358 28.3129C192.402 29.361 192.699 30.3975 192.869 31.439C192.869 30.1949 192.869 28.9524 192.869 27.7099C193.039 27.6983 193.323 27.685 193.567 27.6734C193.886 29.4624 194.187 31.2513 194.506 33.0403C194.686 32.1799 194.93 31.3261 195.022 30.4573C195.311 27.7382 195.55 25.0107 195.801 22.2866C195.896 22.2916 195.925 22.2965 196.095 22.3015C196.095 28.4425 196.095 34.5834 196.095 40.7227C196.265 40.7244 196.548 40.7261 196.783 40.7261C196.761 33.0619 196.708 25.3977 196.737 17.7352C196.74 16.7436 197.122 15.7519 197.331 14.7603C197.81 19.1737 197.772 23.4975 197.832 27.8212C197.847 28.8627 198.177 29.8992 198.363 30.9374C198.572 29.4939 198.781 28.0505 198.99 26.607C199.126 26.6269 199.26 26.6469 199.396 26.6668C199.609 28.6119 199.822 30.5587 200.036 32.5055C200.216 31.4673 200.504 30.4324 200.552 29.3893C200.637 27.5488 200.576 25.7034 200.576 23.8596C200.822 23.853 201.068 23.8463 201.314 23.8396C202.141 28.861 201.391 33.9921 202.031 39.0351C202.301 31.1301 202.57 23.225 202.84 15.3217C203.357 20.1155 203.326 24.8978 203.38 29.6783C203.394 30.8294 203.696 31.9772 203.866 33.1267C204.065 32.2065 204.397 31.2929 204.438 30.3676C204.526 28.3594 204.465 26.3462 204.465 24.3363C204.66 24.3363 204.856 24.3363 205.051 24.3363C205.051 25.6502 205.008 26.9674 205.098 28.2747C205.112 28.4624 205.772 28.6052 206.132 28.7697C206.317 27.7282 206.633 26.6901 206.659 25.6469C206.732 22.7085 206.684 19.7667 206.684 16.8266C206.82 16.8266 206.954 16.8266 207.09 16.8266C207.385 22.5756 207.655 28.3262 207.951 34.0752C208.081 34.0718 208.319 34.0668 208.319 34.0635C208.319 33.1732 208.319 32.2828 208.319 31.3942C208.319 24.4277 208.333 17.4628 208.363 10.4963C208.367 9.64586 208.63 8.79538 208.756 7.94491C208.995 7.97647 209.168 8.00971 209.508 8.04293C209.508 8.92828 209.508 9.81362 209.508 10.699C209.508 16.1273 209.464 21.5557 209.514 26.9824C209.525 27.9309 209.849 28.8743 210.032 29.8211C210.175 25.808 210.312 21.7949 210.455 17.7817C210.637 17.7834 210.817 17.7851 211 17.7867C211.231 22.5258 211.462 27.2631 211.693 32.0005C211.881 30.9656 212.207 29.9308 212.216 28.8943C212.265 22.1952 212.224 15.4961 212.224 8.79702C212.224 7.67414 212.224 6.55294 212.224 5.43005C212.903 10.3767 213.221 15.3184 213.324 20.2634C213.428 25.215 213.355 30.1683 213.355 35.12C213.482 35.1183 213.613 35.115 213.739 35.1117C214.02 25.9309 214.321 16.7486 214.601 7.56618C214.764 7.56618 214.941 7.56618 215.11 7.56618C215.11 15.3018 215.11 23.0373 215.11 30.7729C215.28 30.7713 215.336 30.7679 215.458 30.7663C215.75 26.1103 216.032 21.456 216.324 16.8001C216.374 16.7967 216.418 16.7951 216.465 16.7918C216.722 20.2119 216.975 23.6304 217.229 27.0505C218.307 22.0175 217.007 16.8648 218.66 11.9198C218.847 12.2753 218.896 12.6275 218.908 12.9813C219.102 18.6638 219.278 24.3463 219.506 30.0288C219.533 30.7098 219.864 31.3809 220.034 32.0569C220.034 25.3695 220.034 18.6837 220.034 11.9962C220.204 11.9979 220.397 11.9979 220.582 11.9996C220.582 14.7935 220.492 17.5924 220.621 20.3813C220.75 23.1918 220.034 26.102 221.732 28.7963C221.732 24.0539 221.732 19.3099 221.732 14.5676C221.732 14.5676 221.925 14.5659 222.029 14.5643C222.299 17.6622 222.577 20.76 222.847 23.8579C223.818 20.2567 222.581 16.4911 224.618 12.9995C224.618 19.2551 224.618 25.5107 224.618 31.7646C224.958 31.7696 225.229 31.7729 225.54 31.7779C225.698 24.6519 225.511 17.511 225.925 10.3867C226.379 14.8865 226.484 19.383 226.684 23.8762C226.73 24.9243 226.995 25.9625 227.165 27.004C227.165 24.1553 227.165 21.3082 227.165 18.4595C227.504 18.4645 227.674 18.4694 228.014 18.4744C228.014 22.2184 228.014 25.9625 228.014 29.7016C230.391 25.2167 229.082 20.3464 229.976 15.6954C231.015 23.1204 230.319 30.6002 230.956 38.0401C231.185 31.4855 231.396 24.9326 231.626 18.3781C231.844 18.3797 232.088 18.3814 232.258 18.3831C232.258 21.3198 232.258 24.2566 232.258 27.1933C232.767 26.3013 232.786 25.4176 232.786 24.534C232.788 19.378 232.759 14.2204 232.82 9.06281C232.835 7.82033 233.171 6.58283 233.358 5.34368C233.479 5.36195 233.601 5.38187 233.722 5.40015C233.947 11.9398 234.173 18.4777 234.399 25.0174C234.535 25.0157 234.672 25.014 234.808 25.0124C235.071 20.2767 235.35 15.541 235.613 10.8053C235.791 10.8069 235.993 10.8086 236.163 10.8103C236.163 11.6607 236.163 12.5095 236.163 13.3583C236.163 21.1388 236.124 28.9208 236.168 36.7013C236.175 38.0401 236.462 39.3756 236.623 40.7128C236.688 40.8839 236.686 41.0566 236.626 41.2293C236.711 41.4968 236.81 41.7659 237.049 42.5183C237.204 41.5483 237.182 41.1247 237.351 40.6995C237.351 32.5802 237.351 24.4592 237.351 16.3399C237.521 16.3383 237.691 16.3383 237.861 16.3366C237.861 20.2783 237.861 24.2184 237.861 28.1601C238.71 22.7284 237.649 17.212 239.268 11.8534C239.457 17.1672 239.436 22.4776 239.489 27.7863C239.499 28.8212 239.827 29.8511 240.005 30.8843C240.008 28.4375 239.895 25.9857 240.042 23.549C240.36 18.3465 240.817 13.1507 241.216 7.95322C241.598 8.37514 241.677 8.79703 241.684 9.2206C241.851 19.8863 242.008 30.552 242.168 41.2177C242.238 41.9918 242.306 42.7675 242.374 43.5416C242.477 43.5399 242.536 43.5399 242.64 43.5382C242.703 42.5914 242.784 41.6446 242.784 40.6978C242.784 34.5718 242.784 28.4441 242.784 22.3181C243.124 22.3198 243.294 22.3215 243.464 22.3231C243.464 23.5506 243.464 24.7782 243.464 26.0057C243.633 26.0024 243.866 25.999 244.066 25.9957C244.258 18.0226 244.428 10.0495 244.621 2.07637C244.752 2.07637 244.992 2.07801 244.992 2.07968C244.992 10.8152 244.992 19.5508 244.992 28.2847C245.161 28.2863 245.331 28.2863 245.501 28.288C245.501 21.7301 245.501 15.1722 245.501 8.61433C245.671 8.611 245.84 8.60767 246.18 8.60435C246.18 10.2787 246.18 11.9514 246.18 14.0825C246.689 13.3135 246.891 12.9896 247.105 12.6656C247.309 12.6607 247.368 12.6574 247.708 12.6541C247.708 15.9961 247.708 19.3382 247.708 22.6802C247.878 22.6669 248 22.652 248.156 22.6387C248.423 20.9992 248.718 19.3598 248.983 17.722C249.17 17.7369 249.236 17.7518 249.576 17.7668C249.576 21.8082 249.576 25.8479 249.576 29.8893C249.745 29.8909 249.915 29.8909 250.085 29.8909C250.085 22.2915 250.085 14.6921 250.085 7.09443C250.255 7.09775 250.594 7.10108 250.764 7.10606C250.764 8.51299 250.764 9.91994 250.764 11.3269C250.764 11.3219 250.902 11.3152 250.986 11.3102C251.287 8.22563 251.572 5.14268 251.874 2.05974C252.002 2.0614 252.121 2.06473 252.25 2.06639C252.25 2.95673 252.244 3.84705 252.244 4.73904C252.246 12.071 252.222 19.4046 252.27 26.7382C252.277 27.7697 252.616 28.8013 252.801 29.8328C252.81 27.1269 252.815 24.4227 252.823 21.7168C253.08 21.7102 253.338 21.7035 253.594 21.6952C253.922 24.2616 254.246 26.8263 254.572 29.391C254.718 29.3827 254.839 29.3727 255.008 29.3644C255.008 26.7681 255.008 24.1735 255.008 21.5773C255.178 21.5574 255.231 21.5374 255.341 21.5175C255.496 21.966 255.652 22.4128 255.806 22.8596C255.944 22.863 256.08 22.8646 256.217 22.8679C256.611 15.4114 257.005 7.95487 257.399 0.5C257.555 8.7555 257.548 16.9878 259.907 24.8845C259.971 24.4227 260.066 23.7799 260.229 22.6171C260.576 25.1951 260.781 27.205 261.121 29.2149C261.121 21.3032 261.121 13.3899 261.121 5.47823C261.46 5.47989 261.8 5.48154 262.139 5.4832C262.139 12.7088 262.139 19.9328 262.139 27.1568C262.309 27.1568 262.479 27.1568 262.818 27.1568C262.818 22.7583 262.818 18.3615 262.818 13.9646C263.497 19.4428 262.691 25.0157 264.827 30.15C265.09 22.6686 265.358 15.0028 265.628 7.36188C265.815 7.36188 266.044 7.36188 266.214 7.36188C266.214 13.5078 266.214 19.4611 266.214 25.4725C266.384 25.4708 266.553 25.4692 266.723 25.4675C266.723 23.3048 266.723 21.1421 266.723 18.9777C266.893 18.9827 266.924 18.9877 267.008 18.991C267.302 22.0773 267.611 25.1635 267.905 28.2514C268.34 27.3478 268.284 26.4575 268.365 25.5788C268.443 24.715 268.672 23.8646 268.832 23.0091C269.041 23.0257 269.251 23.0423 269.46 23.059C269.74 23.9327 270.022 24.8064 270.302 25.6801C270.482 25.6768 270.662 25.6718 270.842 25.6685C270.988 23.3862 271.132 21.1055 271.278 18.8232C271.694 22.142 271.655 25.4559 271.718 28.7664C271.739 29.8112 272.032 30.851 272.202 31.8925C272.402 22.5988 272.601 13.3035 272.812 4.00983C272.822 3.55802 272.888 3.10789 272.951 2.65774C273.095 2.66771 273.345 2.67767 273.345 2.68763C273.345 10.8302 273.345 18.9727 273.345 27.1169C273.514 27.1169 273.586 27.1153 273.686 27.1153C273.886 20.3929 274.066 13.6689 274.265 6.94495C274.474 6.94827 274.703 6.9516 274.873 6.95492C274.873 18.2103 274.873 29.464 274.873 40.7194C275.042 40.8889 274.971 41.0583 274.908 41.2277C274.993 41.5084 275.097 41.7891 275.334 42.5781C275.491 41.5732 275.569 41.1363 275.638 40.6978C275.615 38.4371 275.584 36.1764 275.579 33.9157C275.57 30.5687 275.689 27.2166 275.56 23.8745C275.428 20.461 278.219 17.81 278.002 14.4031C277.992 14.2453 278.268 14.0659 278.947 13.5742C278.947 19.079 278.947 24.22 278.947 29.361C279.117 29.3594 279.243 29.3577 279.397 29.356C279.677 22.7932 279.951 16.2303 280.231 9.66579C280.284 9.66912 280.331 9.67074 280.382 9.67407C280.674 15.2951 280.995 20.9178 281.287 26.5405C281.46 26.5339 281.664 26.5289 281.834 26.524C281.834 18.5492 281.834 10.5744 281.834 2.60125C281.834 2.59959 282.029 2.59959 282.141 2.59959C282.436 7.87846 282.715 13.1574 283.036 18.9229C283.368 16.3898 283.594 14.3732 283.859 12.3551C284.066 10.2006 283.362 7.91666 285.059 5.33869C285.059 11.8816 285.059 17.8283 285.059 23.7749C285.229 23.7716 285.569 23.7682 285.569 23.7649C285.569 18.001 285.569 12.2371 285.569 6.47153C285.739 6.46986 285.796 6.46657 285.896 6.46325C286.187 9.9299 286.489 13.3949 286.779 16.8615C286.868 16.8681 286.963 16.8731 287.051 16.8798C287.18 16.1223 287.314 15.3632 287.443 14.6058C287.885 16.3632 287.28 18.4096 288.029 19.7069C289.149 21.6504 288.859 23.5041 288.903 25.4093C288.988 29.1202 288.893 32.836 288.939 36.5485C288.951 37.5169 289.207 38.4836 289.351 39.4503C289.392 36.8325 289.37 34.213 289.491 31.6001C289.608 29.0454 289.883 26.499 290.08 23.9476C290.27 23.9576 290.492 23.9692 290.662 23.9792C290.662 26.6651 290.662 29.3494 290.662 32.0354C290.662 32.0387 290.861 32.0437 290.968 32.0487C291.277 29.4707 291.538 26.8944 291.847 24.3181C291.978 24.3247 292.19 24.3313 292.19 24.338C292.19 27.4691 292.19 30.6002 292.19 33.7313C292.36 33.7313 292.435 33.733 292.535 33.733C292.815 28.5953 293.146 23.4559 293.426 18.3183C293.618 18.3199 293.718 18.3199 294.058 18.3216C294.058 20.9062 294.058 23.4908 294.058 26.0771C294.058 26.0705 294.256 26.0638 294.372 26.0572C294.464 25.7084 294.536 25.3612 294.628 25.014C294.764 23.946 294.871 22.8746 295.036 21.8098C295.211 20.6637 295.436 19.5242 295.638 18.3814C295.846 18.4013 296.095 18.4229 296.265 18.4428C296.265 21.4876 296.265 24.5306 296.265 27.5737C296.265 27.5671 296.404 27.5605 296.479 27.5538C296.757 23.2633 297.032 18.9711 297.312 14.6805C297.801 21.0242 297.803 27.3478 297.856 33.6715C297.862 34.5734 298.302 35.4704 298.472 36.3707C298.472 30.9424 298.472 25.5124 298.472 20.0823C298.472 20.0823 298.699 20.0807 298.827 20.0807C298.896 21.3763 298.952 22.6719 299.053 24.5656C299.407 23.5124 299.55 23.0639 299.701 22.6171C299.856 22.6221 300.005 22.6271 300.16 22.6337C300.52 27.0505 300.878 31.4656 301.239 35.8824C301.419 35.9023 301.599 35.9206 301.781 35.9389C302.199 33.8692 302.618 31.7978 303.075 29.5388C303.268 30.0969 303.424 30.5454 303.71 31.3659C304.024 25.7167 304.268 20.4444 304.562 15.1722C304.698 15.1772 304.924 15.1822 304.924 15.1872C304.924 18.7917 304.924 22.3962 304.924 26.0007C307.47 25.9359 306.063 23.5706 307.027 22.5091C307.244 22.7516 307.596 22.9443 307.598 23.1403C307.652 28.9939 307.688 34.8475 307.715 40.7011C307.786 41.6014 307.864 42.5001 307.935 43.4004C308.039 43.3921 308.146 43.3838 308.251 43.3755C308.306 42.4835 308.363 41.5915 308.419 40.6995C308.413 32.821 308.404 24.9426 308.413 17.0625C308.413 16.8166 308.586 16.5658 308.699 16.3266C308.733 16.2569 308.835 16.2071 308.917 16.1722C308.998 16.139 309.093 16.1356 309.464 16.0658C309.464 19.9893 309.428 23.8646 309.487 27.7398C309.504 28.7797 309.818 29.8162 309.997 30.8527C310.008 28.778 309.91 26.6934 310.08 24.6303C310.165 23.5988 310.767 22.6088 311.121 21.5989C311.367 21.6537 311.545 21.7085 311.885 21.7633C311.885 24.8379 311.885 27.9126 311.885 30.9872C312.054 30.7165 312.212 30.4507 312.285 30.1999C312.343 30.0022 312.445 29.8212 312.533 29.6335C312.667 29.6451 312.795 29.6567 312.929 29.6683C313.138 31.7098 313.343 33.7512 313.552 35.7927C313.606 35.786 313.657 35.7777 313.71 35.7694C313.995 31.959 314.278 28.1468 314.564 24.3346C315.017 28.2099 314.98 32.0736 315.042 35.9339C315.058 36.9654 315.38 37.992 315.562 39.0218C315.73 34.135 315.898 29.2481 316.066 24.3596C316.334 24.3513 316.604 24.3413 316.874 24.333C316.998 26.1535 317.124 27.9741 317.248 29.7962C318.832 29.5571 318.319 28.3063 318.343 27.4309C318.416 24.8014 318.37 22.1686 318.37 19.5375C318.635 19.5275 318.9 19.5176 319.165 19.5076C319.317 21.7002 319.492 23.8911 319.645 26.0837C319.767 26.0837 319.864 26.0837 320.034 26.0837C320.034 22.7932 320.034 19.5043 320.034 16.2137C320.204 16.2137 320.334 16.212 320.494 16.2104C320.783 22.1852 321.058 28.1617 321.345 34.1366C321.387 34.1316 321.424 34.1267 321.465 34.1217C321.74 28.6734 322.012 23.2267 322.285 17.7801C322.553 17.7685 322.825 17.7568 323.092 17.7452C323.71 21.2085 323.09 24.7931 323.939 28.2747C323.939 26.6302 323.939 24.9841 323.939 23.3397C324.109 23.343 324.165 23.3447 324.278 23.348C324.472 26.6236 324.677 29.9009 324.869 33.1765C325.121 33.1682 325.297 33.1582 325.637 33.1499C325.637 29.1368 325.637 25.122 325.637 21.1072C326.316 24.7981 326.314 28.6036 327.878 32.0686C328.088 32.0453 328.183 32.0221 328.523 31.9972C328.523 30.1949 328.523 28.3943 328.523 26.592C328.693 25.6087 329.301 24.6469 329.46 23.637C329.759 21.7301 329.862 19.7966 330.058 17.8731C330.545 18.6704 330.521 20.0657 330.815 20.1321C333.002 20.6205 332.081 22.162 332.153 23.3663C332.423 23.4443 332.92 23.6088 332.929 23.5888C333.28 22.6935 333.803 21.7932 333.857 20.868C333.99 18.6256 333.9 16.3715 333.9 14.1224C334.392 14.4762 334.45 14.8267 334.455 15.1772C334.494 17.5276 333.823 20.1737 334.705 22.1653C336.34 25.8595 336.036 29.5604 336.158 33.316C336.18 34.0452 336.345 34.7695 336.46 35.497C336.711 35.4787 337.012 35.4605 337.182 35.4405C337.182 31.9606 337.182 28.4807 337.182 24.9991C337.351 25.0024 337.521 25.0057 337.691 25.009C337.691 30.2397 337.691 35.4704 337.691 40.7011C338.031 40.7011 338.2 40.7028 338.37 40.7045C338.37 38.8706 338.37 37.0385 338.37 34.5917C338.879 35.4605 338.934 35.7013 339.216 36.2761C339.582 34.11 339.942 32.2347 340.261 30.3593C340.407 30.371 340.577 30.3809 340.747 30.3925C340.747 32.1882 340.747 33.9855 340.747 35.7811C341.087 33.6034 341.085 31.4407 341.192 29.2846C341.294 27.2548 340.698 25.1154 341.604 23.1819C341.829 23.1968 342.105 23.2118 342.275 23.2251C342.275 25.2665 342.275 27.308 342.275 29.3494C342.275 29.3494 342.475 29.3494 342.584 29.3494C343.134 25.7499 343.66 22.1504 344.212 18.5508C344.311 18.5558 344.312 18.5608 344.482 18.5658C344.482 21.9759 344.482 25.3861 344.482 28.7979C344.992 27.2033 344.912 25.6004 345.027 24.0124C345.136 22.4958 345.469 20.9943 345.759 19.0923C346.937 22.9693 344.744 26.8561 347.543 30.2829C347.732 29.5288 347.866 29.0072 347.978 28.5588C349.976 30.9125 349.411 33.6781 349.465 36.3425C349.496 37.7909 349.489 39.2394 349.499 40.6878C349.662 40.7061 349.822 40.6945 349.981 40.6513C350.486 37.6647 350.968 34.6781 351.472 31.6898C351.696 31.6948 351.952 31.6982 352.122 31.7015C352.122 34.1399 352.122 36.5784 352.122 39.0152C352.462 39.0102 352.632 39.0052 352.801 38.9985C352.801 34.5054 352.801 30.0138 352.801 25.5207C352.971 25.5223 353.048 25.524 353.149 25.5257C353.572 27.3196 354.015 29.1119 354.436 30.9042C354.462 30.3627 354.272 29.6201 354.559 29.3145C355.917 27.8677 355.38 26.1286 355.606 24.4924C355.796 23.1104 356.391 21.7866 356.655 20.4096C356.813 19.5807 356.686 18.7003 356.686 17.8432C356.896 17.8266 357.109 17.8117 357.319 17.795C357.475 18.8183 357.747 19.8398 357.767 20.8647C357.837 24.4825 357.82 28.1003 357.851 31.7181C357.852 31.8211 358.032 31.9224 358.039 31.9307C358.457 31.4274 358.879 30.9191 359.609 30.0371C360.098 32.2347 360.446 33.7944 360.837 35.5502C361.154 33.2895 361.445 31.243 361.732 29.1966C361.923 29.2099 362.139 29.2232 362.309 29.2364C362.309 31.0852 362.309 32.934 362.309 34.7828C362.479 34.7828 362.649 34.7828 362.818 34.7828C362.818 32.949 362.818 31.1168 362.818 29.283C362.988 29.2863 363.002 29.2913 363.094 29.2946C363.334 30.763 363.552 32.2314 363.791 33.6998C364.04 33.6732 364.346 33.6449 364.516 33.6184C364.516 32.0038 364.516 30.3909 364.516 28.778C364.686 28.783 364.764 28.788 364.877 28.793C364.965 29.8677 365.007 30.9424 365.096 32.0171C365.258 32.0104 365.535 32.0021 365.535 31.9938C365.535 30.1816 365.535 28.3694 365.535 26.5588C365.874 26.5605 365.836 26.5638 365.959 26.5671C366.04 27.8511 366.15 29.1335 366.231 30.4175C366.684 28.2664 366.91 26.1286 367.285 24.0157C367.357 23.6121 368.076 23.3147 368.492 22.9676C368.747 23.3546 369.005 23.7417 369.27 24.1453C369.626 23.4643 369.939 22.8115 370.278 22.1587C370.404 22.1852 370.628 22.2118 370.628 22.2367C370.628 24.9476 370.628 27.6584 370.628 30.3676C370.798 30.3643 370.872 30.3627 370.98 30.3593C371.063 29.6052 371.159 28.8511 371.242 28.097C372.791 32.253 372.068 36.507 372.165 40.7144C372.226 40.8872 372.228 41.0583 372.165 41.231C372.219 42.4851 372.258 43.7376 372.313 44.9917C372.492 43.5615 372.666 42.1296 372.835 40.6995C372.835 36.0684 372.835 31.4374 372.835 26.8063C373.175 26.7897 373.412 26.7748 373.691 26.7598C373.796 28.7165 373.91 30.6749 374.015 32.6317C374.095 32.6267 374.18 32.6217 374.26 32.6167C374.398 32.1666 374.539 31.7181 374.728 31.1051C374.956 31.753 375.149 32.1981 375.306 32.6433C375.433 32.6267 375.552 32.6101 375.722 32.5935C375.722 28.768 375.722 24.9409 375.722 21.1155C375.891 21.0923 375.996 21.0706 376.151 21.0474C376.907 23.2682 377.645 25.4874 378.401 27.7066C380.231 24.0838 378.965 20.0408 379.688 16.0509C380.048 17.2004 380.336 18.1638 380.637 19.1289C380.814 19.1023 380.985 19.0741 381.155 19.0475C381.155 16.2901 381.155 13.5311 381.155 10.772C381.494 10.7588 381.604 10.7455 381.824 10.7305C381.961 11.8368 382.178 12.9431 382.185 14.051C382.225 19.9378 382.173 25.8263 382.173 31.7131C382.173 32.527 382.173 33.341 382.173 34.1532C382.343 34.1482 382.683 34.1416 382.852 34.1366C382.852 28.8826 382.852 23.6287 382.852 18.3731C383.022 18.3764 383.038 18.3781 383.127 18.3797C383.39 23.6968 383.657 29.0122 383.93 34.5403C386.568 33.1832 384.967 30.8859 385.867 29.273C386.217 30.263 386.522 31.16 386.839 32.0553C386.986 32.0403 387.097 32.0254 387.267 32.0088C387.267 28.9175 387.267 25.8263 387.267 22.7351C387.436 22.7267 387.575 22.7168 387.698 22.7085C388.25 23.8014 388.795 24.8928 389.643 26.4326C389.643 24.5456 389.643 23.1071 389.643 21.667C392.02 21.9278 390.539 19.579 391.298 19.0126C391.832 19.079 392.433 19.177 392.438 19.1538C392.602 18.3698 392.771 17.5758 392.79 16.7785C392.837 14.8034 392.799 12.8251 392.799 10.8485C392.92 10.8534 393.038 10.8601 393.158 10.8651C393.456 13.7736 393.753 16.6821 394.076 19.8332C394.41 19.3133 394.573 19.0591 394.933 18.4993C395.226 24.4941 395.501 30.1235 395.777 35.7545C395.873 35.7511 395.97 35.7462 396.066 35.7412C396.115 34.6831 396.163 33.625 396.212 32.5669C396.326 32.5636 396.441 32.5602 396.555 32.5569C396.632 34.027 396.71 35.497 396.787 36.9687C396.898 36.9704 397.008 36.972 397.119 36.9737C397.2 35.6731 397.274 34.3708 397.355 33.0685C397.504 33.0685 397.623 33.0685 397.793 33.0669C397.793 34.8808 397.793 36.693 397.793 38.5069C397.963 38.5035 398.302 38.5019 398.472 38.5002C398.472 34.3874 398.472 30.2746 398.472 26.1618C398.472 26.1668 398.662 26.1718 398.768 26.1784C399.067 29.381 399.355 32.5835 399.654 35.7877C399.723 35.7777 399.788 35.7678 399.857 35.7595C400.921 27.9973 401.98 20.2385 403.044 12.4763C403.162 12.478 403.226 12.478 403.396 12.478C403.396 19.893 403.396 27.308 403.396 34.7213C403.905 34.3741 403.894 34.0253 403.901 33.6765C404.092 24.2765 404.275 14.8749 404.468 5.47491C404.48 4.91679 404.575 4.36032 404.631 3.8022C405.013 6.07122 404.991 8.32198 405.028 10.5711C405.038 11.1757 405.172 12.2853 405.347 12.3052C407.31 12.5195 406.65 13.958 406.658 14.9546C406.705 21.0225 406.679 27.092 406.69 33.1599C406.692 33.8443 406.771 34.5303 406.815 35.2146C407.24 34.2878 407.203 33.3891 407.25 32.4938C407.296 31.6251 407.456 30.7596 407.55 29.8909C407.797 29.9158 407.98 29.9408 408.319 29.9657C408.319 31.9257 408.319 33.8858 408.319 36.3591C411.375 32.5835 409.338 28.5289 410.526 24.9875C410.526 30.2232 410.526 35.4605 410.526 40.6978C410.526 41.8091 410.635 42.9203 410.7 44.0316C410.812 44.0316 410.912 44.0316 411.023 44.0316C411.085 42.9203 411.141 41.8091 411.203 40.6978C411.188 37.7162 410.893 34.713 411.388 31.7712C411.62 31.7762 411.85 31.7829 412.082 31.7879C412.178 32.4357 412.306 33.0818 412.402 33.7296C412.558 33.718 412.733 33.7064 412.903 33.6948C412.903 28.577 412.903 23.4593 412.903 18.3415C413.073 18.3399 413.073 18.3399 413.243 18.3382C413.243 19.8365 413.243 21.3364 413.243 22.8347C413.413 22.838 413.495 22.8413 413.596 22.843C413.873 21.1902 414.202 19.5375 414.479 17.8847C414.673 17.9063 414.771 17.9263 415.11 17.9462C415.11 20.0939 415.11 22.2434 415.11 24.3911C415.11 24.3928 415.293 24.3945 415.397 24.3945C415.693 18.6272 416.011 12.8584 416.308 7.08948C416.468 7.09612 416.638 7.10275 416.808 7.10939C416.808 13.2404 416.808 19.3697 416.808 25.5007C417.827 22.4992 416.456 19.2169 418.217 16.335C418.384 21.3215 418.34 26.2964 418.39 31.2696C418.4 32.2197 418.707 33.1649 418.882 34.1134C418.976 33.4107 419.066 32.7081 419.161 32.0071C420.997 35.0386 420.48 38.1813 420.524 41.2659C420.754 41.0766 421.053 40.8872 421.222 40.6978C421.222 34.5701 421.222 28.4408 421.222 22.3131C421.392 22.3098 421.525 22.3081 421.681 22.3065C421.945 24.8213 422.204 27.3362 422.468 29.8527C422.533 29.851 422.596 29.851 422.662 29.851C422.761 28.7597 422.859 27.6701 422.958 26.5804C423.054 26.587 423.149 26.5937 423.245 26.6004C423.312 27.9043 423.379 29.2066 423.446 30.5089C423.587 30.577 423.727 30.6451 423.868 30.7132C424.053 30.2182 424.27 29.7231 424.456 29.2281C424.669 29.3677 424.958 29.5055 425.127 29.6451C425.127 30.9739 425.127 32.3011 425.127 33.63C425.297 33.6349 425.402 33.6399 425.554 33.6433C426.002 27.1585 426.455 20.6737 426.902 14.1905C427.044 14.1955 427.165 14.2021 427.334 14.2088C427.334 18.707 427.334 23.2051 427.334 27.7033C427.334 27.7049 427.504 27.7066 427.674 27.7066C427.674 25.8529 427.674 23.9991 427.674 22.4826C428.693 21.8879 429.202 21.4859 430.051 21.0075C430.051 25.4276 430.051 29.7663 430.051 34.105C430.56 31.4075 430.908 28.7099 431.391 25.8313C432.18 28.0936 430.9 30.5387 432.767 32.4589C432.767 27.4259 432.767 22.3912 432.767 17.3582C433.277 18.6555 432.848 20.4577 433.557 21.1687C434.92 22.5374 434.805 23.9842 434.975 25.5356C434.975 27.7813 434.975 30.0288 434.975 32.3393C437.861 31.7181 435.995 29.366 437.118 27.9541C437.224 29.4341 437.305 30.7397 437.398 32.0453C437.594 32.037 437.782 32.0304 437.978 32.0221C438.163 26.195 438.345 20.3664 438.504 15.3749C439.478 21.7052 440.573 28.8262 441.669 35.9488C441.802 35.9356 441.934 35.9223 442.067 35.9106C442.195 34.924 442.324 33.9389 442.452 32.9539C442.705 32.949 442.958 32.9456 443.211 32.9423C443.277 35.7196 443.343 38.4969 443.409 41.2759C443.539 41.2609 443.669 41.246 443.799 41.231C443.86 41.0616 443.92 40.8905 443.98 40.7211C444.027 38.1082 443.527 35.4488 444.284 32.8991C444.523 32.9058 444.822 32.9124 444.992 32.9191C444.992 34.9921 444.992 37.0651 444.992 39.1364C445.161 39.1331 445.331 39.1281 445.501 39.1248C445.501 37.6165 445.501 36.1066 445.501 34.4007C446.35 34.6964 446.849 34.8974 447.47 35.1299C447.71 33.9987 447.925 33.0337 448.13 32.0669C448.329 32.0852 448.533 32.1018 448.733 32.1201C448.831 33.7031 448.97 35.2861 449.101 37.389C450.035 34.7662 448.727 32.331 450.764 30.4374C450.764 31.6799 450.764 32.9224 450.764 34.1649C450.764 34.1582 450.96 34.1532 451.076 34.1482C451.138 33.2031 451.18 32.2579 451.242 31.3144C451.406 31.2962 451.562 31.2779 451.726 31.2597C452.178 33.4955 452.626 35.7312 453.089 38.0219C453.636 37.8059 454.089 37.6248 454.678 37.389C454.877 38.1697 455.037 38.8026 455.199 39.4338C455.323 39.2444 455.447 39.0533 455.572 38.8623C456.067 39.0234 456.562 39.1829 456.798 39.2593C457.341 38.6065 457.741 37.6597 458.315 37.5434C459.278 37.3508 459.536 35.3375 460.954 36.5767C461.705 34.2877 462.909 35.8841 463.533 36.482C465.336 38.2112 466.905 39.4105 468.335 39.6497C468.872 39.1015 469.427 38.5334 470.109 37.8358C470.413 38.359 470.623 38.7195 470.832 39.0799C472.801 38.0866 473.353 38.1713 475.594 38.9088C477.016 39.3789 478.594 39.8225 480.046 39.6896C483.328 39.3873 486.55 39.5517 489.794 39.967C490.698 40.0832 491.649 40.0533 492.552 39.9171C494.444 39.6331 496.284 39.0617 498.199 39.9902C498.631 40.2011 499.41 39.756 500 39.6131C500 39.9752 500 40.339 500 40.7011C500 40.8822 500 41.0632 500 41.2443C500 41.4254 500 41.6064 500 41.7875C497.288 42.6413 494.621 42.6612 491.852 41.9469C490.648 41.6363 489.293 41.7991 488.016 41.8921C487.437 41.9336 486.624 42.1795 486.372 42.5964C485.708 43.6961 484.816 43.329 483.969 43.1761C481.806 42.7841 479.658 42.3157 477.499 41.9004C476.306 41.6695 475.401 41.8788 474.8 43.1412C474.561 43.6429 473.267 44.2525 473.063 44.0897C471.502 42.8323 469.546 44.4934 467.988 43.3323C467.784 43.1811 467.005 43.7641 466.81 43.8572C465.932 43.0781 465.187 42.417 464.045 41.4038C463.37 43.3356 462.873 44.7542 462.351 46.2491C462.272 45.6046 462.192 44.9568 462.053 43.8273C461.763 44.7342 461.632 45.1445 461.455 45.701C460.72 45.6412 459.702 43.9834 459.177 46.5664C458.953 45.3289 458.851 44.7658 458.749 44.2027C458.605 44.1146 458.461 44.0249 458.316 43.9352C458.288 44.3023 458.225 44.6694 458.196 45.0365C458.051 44.9369 457.895 44.8339 457.725 44.7325C457.725 44.289 457.725 43.8439 457.725 43.3987C457.555 44.5482 457.167 45.6976 456.712 47.4583C456.312 46.0863 456.087 45.2525 455.682 43.8638C455.563 45.5365 455.494 46.6278 455.428 47.5564C454.323 46.3006 453.266 45.093 452.037 43.6944C451.631 45.3172 451.301 46.8238 450.925 48.3304C450.799 48.3105 450.594 48.2906 450.594 48.2706C450.594 45.9401 450.594 43.6097 450.594 41.2792L450.317 41.2742L450.097 41.2958C449.783 43.6412 450.594 46.1511 448.896 48.3337C448.896 46.8437 448.896 45.3554 448.896 43.8671C448.727 43.8671 448.714 43.8671 448.64 43.8688C448.359 46.083 448.061 48.2955 447.756 50.7007C447.159 48.8138 446.651 47.2341 446.152 45.6544C445.885 47.8271 445.609 49.9981 445.342 52.1708C445.228 52.1691 445.161 52.1691 444.992 52.1691C444.992 50.3254 444.992 48.4799 444.992 46.6361C444.822 46.6328 444.763 46.6295 444.645 46.6261C444.334 48.6194 444.025 50.6111 443.714 52.6044C443.37 50.9184 443.444 49.2407 443.348 47.573C443.268 46.1893 442.989 44.8139 442.799 43.4352C442.493 45.5398 443.688 47.9617 441.358 49.6958C441.011 48.5115 440.675 47.3421 440.332 46.171C440.185 46.1943 440.068 46.2176 439.898 46.2408C439.898 48.9766 439.898 51.714 439.898 54.4498C438.2 52.3635 439.42 49.92 438.589 47.46C438.258 50.9864 437.975 54.2388 437.669 57.4929C437.499 57.4829 437.351 57.4729 437.182 57.463C437.182 55.674 437.182 53.885 437.182 52.0961C437.012 52.0994 436.842 52.1027 436.672 52.1077C436.672 54.4846 436.672 56.8617 436.672 59.2403C436.503 59.2387 436.333 59.237 436.163 59.2353C436.163 56.4962 436.163 53.7555 436.163 51.0164C435.993 51.0147 435.842 51.013 435.698 51.0114C435.633 51.9565 435.552 52.9017 435.487 53.8468C435.025 52.802 435.067 51.7572 434.989 50.7224C434.875 49.2241 434.635 47.7341 434.465 46.2408C434.465 50.1925 434.465 54.1441 434.465 58.0958C434.295 58.0991 433.984 58.1008 433.736 58.1041C433.623 52.3103 433.517 46.5149 433.405 40.7211C433.334 40.1414 433.267 39.5617 433.197 38.982C433.094 38.9786 432.993 38.977 432.891 38.9736C432.836 39.5384 432.783 40.1032 432.729 40.6696C432.602 46.3155 433.32 51.9997 431.851 57.5942C431.684 56.7138 431.684 55.8335 431.684 54.9548C431.683 50.7938 431.694 46.6328 431.669 42.4735C431.665 41.6878 431.515 40.9038 431.433 40.1181C431.329 40.2277 431.213 40.3291 431.125 40.4486C431.074 40.5184 431.068 40.6197 431.042 40.7061C430.898 43.618 430.755 46.5298 430.612 49.4433C430.475 49.4417 430.34 49.4417 430.203 49.44C429.889 47.2557 429.537 45.073 429.222 42.8887C429.058 42.902 429.032 42.917 428.693 42.9303C428.693 46.6909 428.693 50.4499 428.693 54.4797C428.183 52.1708 427.507 50.1974 426.998 48.4151C426.121 51.2605 425.226 54.2289 424.312 57.1972C423.627 56.1972 423.389 55.2471 423.362 54.292C423.299 52.0296 423.358 49.7639 423.277 47.5032C423.229 46.1826 422.92 44.8704 422.75 43.5548C422.75 49.837 422.75 56.1192 422.75 62.403C422.75 62.4047 422.499 62.4063 422.351 62.4096C422.054 58.0559 421.761 53.704 421.464 49.3503C421.326 49.352 421.222 49.352 421.053 49.3536C421.053 52.2489 421.053 55.1441 421.053 58.0377C420.883 58.0377 420.672 58.0377 420.472 58.0377C420.305 54.0993 420.147 50.1609 419.98 46.2242C419.524 48.3719 419.073 50.5214 418.582 52.8352C418.327 48.656 418.086 44.6678 417.842 40.6796C417.776 39.7909 417.711 38.9022 417.644 38.0135C417.538 38.0235 417.423 38.0335 417.317 38.0418C417.263 38.9288 417.148 39.8141 417.148 40.7011C417.148 47.2391 417.148 53.7771 417.148 60.315C416.469 56.8417 416.869 53.3236 415.714 49.8154C414.786 46.9966 415.116 43.7824 414.886 40.7443L414.729 40.7526L414.57 40.7493C414.53 43.6412 414.534 46.5365 414.422 49.4267C414.393 50.1742 414.159 51.43 413.745 51.5496C412.505 51.91 412.822 52.7306 412.809 53.4581C412.772 55.3601 412.797 57.2637 412.797 59.1656C412.661 59.1573 412.526 59.1489 412.39 59.1406C412.278 58.7619 412.192 58.3832 412.08 58.0044C411.893 58.0211 411.715 58.036 411.545 58.0526C411.545 62.795 411.545 67.539 411.545 72.2813C411.205 72.278 410.866 72.278 410.696 72.2747C410.696 65.5789 410.696 58.8832 410.696 52.1874C410.357 52.1924 410.187 52.1974 410.017 52.2024C410.017 57.6041 410.017 63.0059 410.017 68.4077C409.847 68.4177 409.739 68.426 409.61 68.436C409.079 64.961 408.538 61.4844 408.017 58.0759C407.89 58.2819 407.714 58.5576 407.245 59.3134C406.946 56.5926 406.696 54.3352 406.448 52.0794C406.38 52.0794 406.312 52.0778 406.244 52.0778C406.17 53.5528 406.095 55.0295 406.021 56.5062C404.487 51.2772 405.161 45.97 405.075 40.6978C405.016 39.5832 404.956 38.467 404.896 37.3524C404.784 37.3541 404.671 37.3558 404.559 37.3574C404.501 38.477 404.443 39.5965 404.385 40.7144C404.302 45.8089 404.17 50.9051 404.088 55.9996C403.816 55.9979 403.565 55.9979 403.226 55.9962C403.226 51.9715 403.226 47.8919 403.226 43.9053C403.056 43.9053 402.886 43.9053 402.716 43.9053C402.716 48.5563 402.716 53.3435 402.716 58.0543C402.547 58.0609 402.319 58.0659 402.107 58.0726C401.885 55.3484 401.724 52.626 401.502 49.9035C401.377 49.9051 401.188 49.9067 401.188 49.9084C401.188 54.0694 401.188 58.2304 401.188 62.3897C401.019 62.393 400.892 62.3947 400.768 62.398C400.654 61.506 400.482 60.6157 400.368 59.7253C400.208 59.7353 400 59.7469 399.83 59.7585C399.83 62.2518 399.83 64.7451 399.83 67.24C399.83 67.23 399.722 67.2184 399.652 67.2084C399.39 65.5956 399.166 63.9826 398.904 62.3697C398.69 62.3847 398.472 62.4013 398.302 62.4179C398.302 64.0358 398.302 65.6553 398.302 67.2732C398.132 67.2699 397.793 67.2666 397.623 67.2616C397.623 64.8979 397.623 62.5359 397.623 59.6124C397.284 60.4961 397.092 60.7967 396.918 61.1605C396.703 60.7037 396.551 60.3366 396.35 59.9097C396.159 60.3798 396.016 60.7585 395.863 61.1372C395.656 61.1223 395.453 61.109 395.246 61.094C394.682 55.4863 395.216 49.832 394.956 44.211C394.792 45.1644 394.498 46.1146 394.486 47.068C394.433 51.1194 394.464 55.1723 394.464 59.2237C392.53 54.2122 393.824 48.9749 393.058 43.3206C392.182 47.8321 393.548 51.9914 391.681 55.8401C391.681 50.7938 391.681 45.7491 391.681 40.7028C391.681 38.5417 391.681 36.3807 391.681 34.2196C391.511 34.223 391.341 34.2263 391.002 34.2296C391.002 36.3873 391.002 38.5434 391.002 40.7011C391.002 46.47 391.002 52.2406 391.002 58.0111C390.832 58.0144 390.609 58.0178 390.4 58.0211C390.169 55.0212 389.963 52.0196 389.732 49.0181C388.35 51.3154 389.813 53.9315 387.776 56.6424C387.776 53.4664 387.776 50.8951 387.776 48.3255C387.267 50.4865 387.307 52.6459 387.174 54.7903C387.047 56.8467 387.776 59.036 386.078 60.9429C386.078 58.8882 386.078 56.8351 386.078 54.782C384.55 59.0227 384.376 63.4312 384.408 67.8546C384.208 67.8463 384.041 67.8396 383.871 67.8313C383.871 65.1205 383.871 62.4096 383.871 59.2486C383.362 60.1539 383.135 60.5592 382.702 61.3499C382.47 60.5741 382.289 60.2535 382.279 59.928C382.087 53.5246 381.909 47.1178 381.732 40.7128C381.507 40.8888 381.263 41.0649 381.038 41.2426C380.931 46.8786 381.664 52.5528 379.966 58.139C379.966 54.1342 379.966 50.131 379.966 46.1278C379.796 46.1278 379.626 46.1278 379.457 46.1278C379.457 51.7688 379.457 57.4098 379.457 63.0508C379.287 63.0574 378.953 63.0657 378.699 63.0724C378.444 57.0493 378.214 51.0263 377.96 45.0033C377.715 45.01 377.419 45.0149 377.25 45.0216C377.25 49.5712 377.25 54.1192 377.25 58.6689C377.08 58.6689 377.051 58.6673 376.962 58.6673C376.74 57.9065 376.543 57.1441 376.32 56.3816C376.112 56.4065 375.891 56.4314 375.722 56.4547C375.722 59.1872 375.722 61.9212 375.722 64.6537C375.382 64.652 375.212 64.652 375.042 64.652C375.042 60.82 375.042 56.9879 375.042 53.1541C374.873 53.1525 374.725 53.1492 374.572 53.1458C374.503 54.086 374.41 55.0245 374.341 55.963C374.186 55.963 374.024 55.9614 373.854 55.9614C373.854 54.2986 373.854 52.6376 373.854 50.9765C373.684 50.9798 373.514 50.9831 373.345 50.9881C373.345 56.9563 373.345 62.9262 373.345 68.8944C373.175 68.8961 372.873 68.8961 372.643 68.8961C372.515 63.5092 372.425 58.1207 372.257 52.7339C372.224 51.6791 371.986 50.6326 371.817 49.5812C371.817 53.1508 371.817 56.7204 371.817 60.2901C371.647 60.2917 371.493 60.2951 371.343 60.2967C370.784 57.1988 370.213 54.101 369.611 50.7606C369.513 52.606 369.386 54.2571 369.298 55.9065C369.132 55.8982 368.93 55.8899 368.761 55.8833C368.761 52.2605 368.761 48.6394 368.761 45.0182C368.761 45.0199 368.591 45.0216 368.251 45.0232C368.251 51.018 368.251 57.0145 368.251 63.0093C368.251 63.0176 368.004 63.0259 367.858 63.0342C367.422 60.2718 367.007 57.5111 366.57 54.7488C366.441 54.7687 366.323 54.7903 366.194 54.8102C366.135 55.3467 366.081 55.8833 366.022 56.4182C365.838 57.8899 365.693 59.3599 365.509 60.8316C365.335 60.82 365.195 60.8083 365.025 60.7967C365.025 57.9114 365.025 55.0262 365.025 52.1409C364.007 58.0826 365.195 64.1288 363.328 70.0057C363.328 67.8081 363.328 65.6088 363.328 63.0325C362.818 63.6753 362.697 63.9245 362.255 64.5657C362.255 60.3499 362.283 56.5776 362.222 52.8053C362.207 51.8619 361.876 50.9234 361.693 49.9832C361.41 54.7455 362.673 59.7237 359.445 64.5408C358.48 57.9696 357.555 51.8087 356.706 45.9086C356.706 49.9566 356.706 54.3202 356.706 58.6838C356.536 58.6822 356.518 58.6788 356.423 58.6772C356.139 56.85 355.856 55.0228 355.572 53.1957C354.132 53.8584 354.57 55.1624 354.464 56.2853C354.336 57.6291 354.228 58.9712 354.095 60.315C353.823 60.2967 353.48 60.2768 353.311 60.2585C353.311 56.1374 353.311 52.0147 353.311 47.8936C353.141 47.8985 352.801 47.9035 352.632 47.9085C352.632 54.1741 352.632 60.4396 352.632 66.7068C352.122 65.1504 351.829 63.5707 351.642 61.9927C351.569 61.388 351.499 60.7884 351.416 60.1855C351.311 60.2951 351.207 60.3981 351.115 60.5193C351.065 60.5891 351.059 60.6888 351.031 60.7735C350.669 63.3498 350.311 65.9278 349.951 68.5041C349.815 68.4925 349.683 68.4808 349.547 68.4675C349.486 67.6935 349.426 66.9178 349.365 66.1421C349.285 66.1421 349.207 66.1421 349.127 66.1421C348.956 66.8679 348.75 67.5938 348.579 68.3197C348.357 68.3114 348.217 68.3031 347.878 68.2948C347.878 63.1023 347.878 57.9081 347.878 52.714C347.708 52.7156 347.574 52.7156 347.404 52.7173C347.112 58.3184 346.886 63.9195 346.596 69.5206C346.435 69.5173 346.18 69.5156 346.18 69.5123C346.18 62.0824 346.18 54.6524 346.18 47.2208C345.331 50.4549 345.968 53.7887 345.08 56.9846C343.686 52.4997 345.84 47.6261 342.784 42.8722C342.784 48.2955 342.784 53.2223 342.784 58.149C342.615 58.1506 342.445 58.1523 342.275 58.1556C342.275 56.8384 342.275 55.5228 342.275 54.2056C342.105 54.1973 342.068 54.1907 341.963 54.1824C341.633 55.3435 341.304 56.5029 340.975 57.664C340.868 57.649 340.762 57.6341 340.655 57.6208C340.584 56.1823 340.513 54.7438 340.441 53.3053C340.195 53.307 339.947 53.3087 339.699 53.3103C339.379 57.272 339.059 61.2352 338.739 65.1969C338.616 65.1952 338.54 65.1952 338.37 65.1936C338.37 63.1521 338.37 61.1107 338.37 59.0692C338.031 59.0476 337.834 59.026 337.567 59.0028C337.391 61.0525 337.214 63.1039 337.039 65.1537C336.939 65.1454 336.84 65.1354 336.74 65.1255C336.46 61.3183 336.178 57.5111 335.898 53.7056C335.862 53.7056 335.825 53.7073 335.788 53.709C335.574 56.4298 335.341 59.1506 335.127 61.8714C334.856 61.8548 334.635 61.8399 334.295 61.8249C334.295 58.6008 334.295 55.3766 334.295 52.1525C334.126 52.1575 333.956 52.1608 333.786 52.1658C333.786 54.5627 333.786 56.958 333.786 59.3549C333.616 59.3748 333.351 59.3948 333.122 59.4147C332.793 56.0544 332.474 52.694 332.143 49.3337C332.029 49.3387 331.919 49.342 331.805 49.347C331.509 53.3269 331.25 57.3085 330.956 61.2884C330.869 61.2851 330.73 61.2801 330.73 61.2768C330.73 54.4182 330.73 47.5597 330.73 40.7011C330.73 39.4271 330.698 38.1514 330.698 36.8757C330.465 38.1531 330.216 39.4304 329.981 40.7061C329.988 43.0565 330.036 45.4086 329.981 47.759C329.927 50.0994 330.236 52.4814 329.669 54.9863C328.934 54.4232 328.523 54.1159 327.674 53.4764C327.674 58.7952 327.674 63.5823 327.674 68.3695C327.504 68.3679 327.334 68.3662 327.165 68.3645C327.165 65.6703 327.165 62.9744 327.165 60.2801C326.995 60.2735 326.84 60.2685 326.683 60.2619C326.212 62.6471 325.737 65.0308 325.267 67.4161C323.992 63.8996 324.603 60.2934 324.492 56.7404C324.384 53.2057 324.467 49.6659 324.467 46.1278C324.28 46.1311 324.092 46.1328 323.905 46.1345C323.905 50.6409 323.932 55.1458 323.883 59.6506C323.871 60.614 323.584 61.5741 323.421 62.5342C323.195 62.5093 322.92 62.4827 322.75 62.4578C322.75 59.0011 322.75 55.5461 322.75 52.0894C321.732 57.5194 321.732 57.5194 320.543 58.7752C320.543 52.8319 320.543 47.0514 320.543 41.2709L320.289 41.241L320.034 41.2626C320.034 48.5082 320.034 55.7537 320.034 62.9993C319.694 63.0093 319.424 63.0209 319.121 63.0308C318.621 57.9945 319.092 52.8867 318.781 47.8371C318.587 47.8421 318.506 47.8487 318.166 47.8537C318.166 50.0114 318.166 52.1691 318.166 54.3285C318.166 54.3202 317.997 54.3119 317.827 54.3036C317.827 53.596 317.827 52.8901 317.827 52.1841C316.299 51.9815 316.798 53.1292 316.73 53.802C316.445 56.7005 316.2 59.6041 315.929 62.7535C315.596 61.408 315.321 60.3233 315.053 59.237C314.564 61.9013 314.07 64.564 313.632 66.9476C313.197 64.5059 312.718 61.8282 312.241 59.1506C312.056 58.345 311.754 57.546 311.71 56.7337C311.625 55.179 311.652 53.6159 311.652 52.0562C311.457 52.0579 311.375 52.0612 311.036 52.0629C311.036 53.9249 311.036 55.7853 311.036 57.6473C311.036 57.6424 310.898 57.639 310.817 57.634C310.542 55.8135 310.357 53.993 310.017 52.1741C310.017 57.7437 310.017 63.3116 310.017 68.8811C309.847 68.8811 309.603 68.8811 309.391 68.8795C309.16 63.4993 308.968 58.1174 308.735 52.7355C308.584 52.7372 308.489 52.7405 308.319 52.7422C308.319 57.2105 308.319 61.6787 308.319 66.147C308.149 66.142 308.109 66.1354 308.02 66.1304C307.827 63.5807 307.615 61.0309 307.421 58.4812C307.251 58.4812 307.073 58.4812 306.905 58.4812C306.756 59.0626 306.604 59.6439 306.545 59.8798C306.1 58.4779 305.603 56.9181 305.107 55.3584C305.024 54.4381 304.941 53.5196 304.857 52.601C304.231 57.0593 303.766 61.4811 303.29 65.9045C303.278 66.0174 303.134 66.1171 302.959 66.3447C302.842 65.4378 302.761 64.6969 302.664 63.9577C302.508 63.9677 302.377 63.9776 302.207 63.9893C302.207 68.72 302.207 73.4507 302.207 78.1815C301.698 77.1134 301.75 76.042 301.713 74.9739C301.54 70.2 301.431 65.4228 301.119 60.6589C300.93 57.8018 300.399 54.9647 300.022 52.1176C299.74 54.8468 299.48 57.5742 299.199 60.3017C299.119 60.3084 298.981 60.315 298.981 60.3217C298.981 58.6606 298.981 56.9995 298.981 55.3385C298.642 55.3368 298.472 55.3335 298.302 55.3302C298.302 58.2287 298.302 61.1273 298.302 64.0258C298.132 64.0175 297.963 64.0109 297.793 64.0026C297.793 59.8715 297.793 55.7388 297.793 51.6061C296.774 54.4265 297.963 57.5344 296.265 60.7353C296.265 53.7206 296.265 47.2192 296.265 40.7178C296.265 39.0966 296.265 37.4754 296.265 35.8542C295.925 35.8608 295.756 35.8674 295.586 35.8741C295.586 37.4853 295.586 39.0949 295.586 40.7061C295.586 47.0497 295.586 53.3934 295.586 59.737C295.416 59.742 295.328 59.7452 295.222 59.7502C295.1 59.1439 294.954 58.5377 294.769 57.6174C294.511 58.4214 294.35 58.83 294.219 59.237C294.063 59.2021 293.888 59.1689 293.718 59.1356C293.718 56.1059 293.718 53.0777 293.718 50.0496C293.718 50.0563 293.601 50.0629 293.533 50.0696C293.243 54.3883 292.963 58.7071 292.672 63.0276C292.576 63.0176 292.482 63.0076 292.385 62.9993C292.267 62.604 292.18 62.2086 292.061 61.8116C291.924 61.8183 291.681 61.8232 291.681 61.8282C291.681 64.4411 291.681 67.0556 291.681 69.6685C291.511 69.6818 291.346 69.6951 291.192 69.7084C290.891 69.0855 290.621 68.4609 290.319 67.8363C290.197 67.8579 289.983 67.8812 289.983 67.9028C289.983 71.1385 289.983 74.3759 289.983 77.6117C288.115 67.8961 289.419 58.1025 288.36 48.3719C288.115 54.3368 287.847 60.3017 287.603 66.2666C285.516 57.8135 286.287 49.2374 286.221 40.7028C286.153 39.9221 286.08 39.1414 286.012 38.3607C285.913 38.3607 285.844 38.3607 285.745 38.3607C285.676 39.1414 285.569 39.9204 285.569 40.7011C285.569 49.5746 285.569 58.448 285.569 67.3214C285.229 67.3247 285.192 67.328 285.019 67.3297C284.825 62.4943 284.613 57.659 284.419 52.8236C283.209 51.4466 284.261 49.1676 282.316 47.9716C281.898 47.7125 282.16 46.3903 282.11 45.5581C281.703 50.0994 281.711 54.6142 281.694 59.129C281.689 60.3017 281.662 61.4811 281.536 62.6455C280.866 68.8031 280.092 74.9507 279.501 81.1165C279.284 83.3922 279.489 85.7044 279.489 88C279.301 88 279.117 87.9983 278.947 87.9983C278.947 84.1613 278.947 80.3259 278.947 76.4888C278.778 76.4855 278.718 76.4805 278.615 76.4772C278.455 76.9107 278.284 77.3459 278.122 77.7794C278.002 77.7628 277.873 77.7462 277.752 77.7296C277.518 70.6585 277.273 63.589 277.039 56.5178C276.886 56.5211 276.74 56.5245 276.57 56.5261C276.57 60.3167 276.57 64.1056 276.57 67.8944C276.57 67.8861 276.457 67.8779 276.397 67.8695C275.679 63.3664 274.976 58.8616 274.258 54.3584C274.117 54.37 274.024 54.38 273.854 54.3916C273.854 57.7968 273.854 61.202 273.854 64.6088C273.684 64.6072 273.514 64.6072 273.345 64.6056C273.345 57.5361 273.345 50.4665 273.345 43.397C273.175 43.397 273.119 43.3987 273.01 43.3987C272.727 50.4748 272.45 57.551 272.165 64.6271C271.99 64.6238 271.817 64.6205 271.647 64.6155C271.647 61.501 271.647 58.3865 271.647 54.9631C269.27 57.345 270.187 60.0061 270.059 62.4312C269.925 64.9693 270.025 67.5191 270.025 70.0638C269.832 70.0638 269.61 70.0638 269.44 70.0621C269.44 66.4061 269.44 62.7501 269.44 59.0941C269.27 59.0908 269.163 59.0875 269.025 59.0825C268.689 62.1655 268.362 65.2467 268.027 68.328C267.761 68.3064 267.572 68.2848 267.233 68.2632C267.233 64.3298 267.233 60.3948 267.233 56.4614C267.063 56.4663 266.723 56.4713 266.553 56.4763C266.553 62.4578 266.553 68.4376 266.553 74.4191C266.553 74.4175 266.409 74.4158 266.324 74.4141C266.11 71.6551 265.91 68.8944 265.698 66.1337C265.501 66.147 265.309 66.1603 265.112 66.1736C265.044 67.1204 264.98 68.0672 264.912 69.014C264.788 69.0123 264.666 69.0091 264.542 69.0074C264.486 67.8729 264.392 66.7367 264.336 65.6022C264.183 65.6022 264.007 65.6022 263.837 65.6022C263.837 67.2732 263.837 68.9443 263.837 70.6153C263.837 70.612 263.723 70.607 263.647 70.6037C263.007 65.4859 262.406 60.3682 261.767 55.2504C261.538 55.2704 261.29 55.2919 261.121 55.3119C261.121 56.8168 261.121 58.3201 261.121 59.825C260.951 59.8233 260.781 59.8217 260.611 59.8217C260.611 55.4979 260.611 51.1775 260.611 46.8537C260.441 48.7141 260.127 50.5729 260.092 52.4349C260.017 56.3335 260.048 60.2336 260.048 64.1338C259.912 64.1321 259.766 64.1321 259.63 64.1305C259.329 59.9413 259.024 55.7504 258.725 51.5612C258.635 51.5645 258.543 51.5678 258.455 51.5728C258.382 52.7073 258.309 53.8435 258.234 54.978C258.065 54.9747 257.895 54.9714 257.725 54.9681C257.725 52.2007 257.725 49.435 257.725 46.6677C257.555 46.6727 257.319 46.676 257.117 46.6793C256.913 50.3087 256.708 53.9398 256.504 57.5693C256.413 57.5709 256.319 57.5709 256.226 57.5726C256.161 56.6291 256.097 55.684 256.032 54.7405C255.942 54.7421 255.851 54.7438 255.759 54.7455C255.465 59.8997 255.171 65.054 254.878 70.2083C252.89 63.9378 253.506 57.458 253.256 51.0579C253.059 51.0662 252.801 51.0728 252.632 51.0811C252.632 59.923 252.632 68.7648 252.632 77.6067C252.122 74.9872 252.557 72.2979 252.08 69.7698C251.058 64.3597 252.131 58.8749 250.761 53.4116C249.796 49.5729 250.62 45.3056 250.642 41.231C250.576 41.0599 250.576 40.8888 250.637 40.7161C250.57 39.4321 250.457 38.1481 250.392 36.8641C250.25 36.8691 250.085 36.874 249.915 36.879C249.915 37.678 249.915 38.4786 249.915 39.2793C249.915 47.4118 249.968 55.5444 249.956 63.677C249.956 64.3896 250.005 65.6902 249.818 65.7268C247.331 66.2019 248.443 68.0955 248.391 69.3296C248.241 72.8295 248.38 76.3393 248.38 79.8442C248.199 79.8475 248.048 79.8508 247.878 79.8541C247.878 78.9073 247.878 77.9622 247.878 77.0154C247.878 68.1586 247.842 59.3034 247.84 50.4483C247.84 47.5563 247.83 44.6644 247.788 41.7725C247.783 41.344 247.509 40.9187 247.363 40.4918C247.306 40.5599 247.214 40.6297 247.156 40.6995C247.579 45.877 246.689 50.8851 244.822 55.8118C244.822 54.4215 244.822 53.0329 244.822 51.6426C244.822 51.6492 244.708 51.6575 244.637 51.6642C244.358 59.5625 244.09 67.4609 243.81 75.3593C243.635 75.3543 243.464 75.351 243.294 75.346C243.294 66.1354 243.294 56.9264 243.294 47.7158C243.124 47.7142 242.954 47.7141 242.784 47.7141C242.784 58.2353 242.784 68.7565 242.784 79.2777C242.105 76.0652 241.795 72.8461 241.72 69.622C241.608 64.7335 241.725 59.8399 241.669 54.9481C241.659 54.0046 241.329 53.0645 241.141 52.1226C240.784 55.081 242.105 58.3284 239.389 61.212C239.389 59.1323 239.389 57.3417 239.389 55.5528C239.219 56.5145 238.958 57.4762 238.942 58.4413C238.886 61.79 238.997 65.1404 238.891 68.4875C238.801 71.3578 238.491 74.2231 238.284 77.0901C238.088 77.0818 237.861 77.0735 237.691 77.0652C237.691 66.7765 237.691 56.4879 237.691 46.1993C237.521 46.2009 237.351 46.2026 237.182 46.2043C237.182 47.1876 237.182 48.171 237.182 49.1543C237.182 58.1141 237.231 67.0755 237.185 76.0353C237.18 77.3077 236.873 78.5784 236.696 79.8508C236.506 79.8325 236.326 79.8159 236.136 79.7993C236.136 78.9057 236.141 78.012 236.139 77.1184C236.139 70.2399 236.202 63.3597 236.087 56.4829C236.063 55.0312 235.399 53.5877 235.029 52.1409C234.842 56.4829 234.655 60.8266 234.467 65.1686C234.363 65.157 234.26 65.1454 234.156 65.1338C233.905 63.2103 233.655 61.2867 233.404 59.3649C233.143 61.8515 232.879 64.3398 232.618 66.8281C232.545 66.843 232.472 66.858 232.399 66.8729C232.304 66.0789 232.209 65.2849 232.112 64.4893C231.939 64.4926 231.766 64.4942 231.593 64.4959C231.367 66.5307 231.141 68.5639 230.915 70.597C230.582 67.7034 230.679 64.8281 230.557 61.9628C230.435 59.1406 231.148 56.2354 229.847 53.2389C228.09 55.7736 229.499 58.5111 228.518 60.9014C228.345 59.9247 228.409 58.9496 228.329 57.9862C228.214 56.5892 227.995 55.2022 227.82 53.8103C227.626 61.0326 227.431 68.2549 227.238 75.4756C227.234 75.5669 227.256 75.6649 227.228 75.7463C227.08 76.1533 226.919 76.5569 226.762 76.9606C226.553 76.9307 226.346 76.9007 226.138 76.8709C226.138 73.7314 226.234 70.5871 226.107 67.4526C226.003 64.8896 226.805 62.2352 225.032 59.7934C224.421 58.9513 224.511 57.541 224.489 56.3849C224.423 53.0379 224.479 49.6858 224.443 46.3371C224.436 45.7242 224.17 45.1146 224.049 44.5033C223.801 44.5283 223.599 44.5515 223.26 44.5764C223.26 50.6709 223.26 56.7653 223.26 62.8598C223.09 62.8565 222.92 62.8531 222.75 62.8498C222.75 59.815 222.75 56.7819 222.75 53.7472C222.581 53.7422 222.479 53.7355 222.345 53.7289C221.864 57.3284 221.404 60.9279 220.924 64.5275C220.789 64.5158 220.543 64.5059 220.543 64.4942C220.543 58.1922 220.543 51.8901 220.543 45.588C219.694 51.3403 220.713 57.2072 218.845 62.898C218.845 58.0344 218.845 53.1708 218.845 48.3072C218.676 48.2906 218.572 48.2723 218.419 48.2557C217.567 53.4498 216.733 58.6423 215.883 63.8348C215.66 63.8282 215.445 63.8199 215.221 63.8099C214.893 60.6373 214.564 57.4646 214.236 54.2903C214.132 54.2887 214.092 54.287 213.922 54.2853C213.922 57.3749 213.922 60.4662 213.922 63.5558C213.752 63.5574 213.501 63.5574 213.289 63.5591C213.054 58.4646 212.823 53.3717 212.569 47.8304C212.241 50.3004 211.975 52.3153 211.706 54.3302C211.649 54.6973 211.591 55.066 211.533 55.4331C211.435 55.4165 211.34 55.4016 211.243 55.3866C211.16 54.3103 211.076 53.2339 210.993 52.1575C210.896 52.1675 210.8 52.1775 210.703 52.1858C210.28 57.2188 209.856 62.2535 209.433 67.2865C209.29 67.2782 209.168 67.2682 208.998 67.2583C208.998 58.5809 208.998 49.9018 208.998 41.2244C208.998 41.0566 208.898 40.8822 208.905 40.7011L208.611 40.6928L208.319 40.7094C208.319 49.528 208.319 58.3467 208.319 67.1669C208.149 67.1669 207.791 67.1669 207.509 67.1669C207.368 60.016 207.244 52.8634 207.104 45.7126C207.02 45.7175 206.946 45.7225 206.862 45.7292C206.672 47.9384 206.487 50.1493 206.297 52.3601C206.114 52.3751 205.935 52.39 205.752 52.405C205.409 51.7206 205.066 51.038 204.722 50.3536C204.562 50.3569 204.402 50.3602 204.243 50.3635C204.071 54.0162 203.929 57.6673 203.756 61.32C203.626 61.3167 203.396 61.315 203.396 61.3133C203.396 57.36 203.396 53.4066 203.396 49.4516C203.226 50.3901 202.935 51.3237 202.847 52.2705C202.555 55.4332 202.307 58.6025 202.053 61.7701C201.969 61.7635 201.881 61.7568 201.801 61.7518C201.577 58.1955 201.35 54.6391 201.126 51.0845C200.839 51.626 200.548 52.1675 200.003 53.1923C200.003 51.5047 200.097 50.3486 199.954 49.2207C199.898 48.7772 199.311 48.3985 198.964 47.9899C198.666 51.3137 198.348 54.6358 198.049 57.9596C197.857 57.958 197.623 57.9546 197.453 57.953C197.453 53.3186 197.453 48.6826 197.453 44.0482C197.284 44.0499 196.944 44.0515 196.774 44.0532C196.774 49.9765 196.774 55.9015 196.774 61.8249C196.604 61.8349 196.426 61.8432 196.267 61.8532C195.968 59.6772 195.652 57.5012 195.35 55.3152C195.129 55.5494 194.918 55.7637 194.667 56.0278C194.401 52.7007 194.139 49.4799 193.881 46.2591C192.637 46.0149 192.842 46.9318 192.823 47.5829C192.762 49.7971 192.744 52.013 192.71 54.2288C192.691 54.3185 192.686 54.4132 192.647 54.493C192.608 54.5694 192.531 54.6292 192.472 54.6973C192.219 54.0279 191.769 53.3635 191.744 52.6874C191.657 50.1825 191.689 47.6743 191.689 45.1678C190.694 50.1726 191.851 55.2654 189.983 60.1971C189.983 56.7985 189.983 53.4 189.983 50.0014C189.813 49.9981 189.643 49.9948 189.474 49.9931C189.474 52.6409 189.474 55.2903 189.474 57.9397C189.304 57.9231 189.338 57.9065 189.285 57.8915C188.786 53.8186 188.273 49.7473 187.774 45.6744C187.616 45.6876 187.453 45.6993 187.297 45.7109C187.019 48.0082 186.759 50.3054 186.48 52.6027C186.397 52.5994 186.248 52.5977 186.248 52.596C186.248 48.6361 186.248 44.6744 186.248 40.7144C186.248 40.0085 186.165 39.3025 186.134 38.5966C185.937 39.3042 185.728 40.0118 185.531 40.7178C185.579 40.8872 185.574 41.0566 185.523 41.2261C185.545 45.578 185.981 49.9549 184.737 54.4332C184.52 53.7671 184.385 53.3087 184.236 52.8519C184.11 52.8735 183.871 52.8934 183.871 52.915C183.871 54.9697 183.871 57.0261 183.871 59.0809C183.701 59.0941 183.472 59.1058 183.28 59.1191C183.127 57.7321 182.929 56.3484 182.822 54.9597C182.609 52.1974 182.438 49.4333 182.251 46.6693C181.681 47.8238 181.109 48.9766 180.236 50.7406C180.104 48.3188 180.002 46.4734 179.902 44.6263C178.976 48.2142 180.56 52.101 178.014 55.3617C177.382 52.4715 176.747 49.5662 175.98 46.0514C175.552 48.1344 175.265 49.533 174.978 50.9317C174.773 50.9101 174.533 50.8884 174.363 50.8652C174.363 48.4367 174.363 46.0083 174.363 43.5798C174.363 43.5897 174.292 43.5997 174.255 43.6097C173.825 47.5215 173.396 51.4333 172.964 55.3467C172.703 55.3434 172.441 55.3418 172.18 55.3385C171.825 52.1177 171.47 48.8968 171.119 45.6877C170.497 45.7392 170.177 45.7076 170.153 45.7757C169.757 46.9152 169.397 48.0646 168.859 49.744C168.518 48.4301 168.317 47.6212 167.993 46.3704C167.598 51.0778 167.572 51.0778 165.365 50.9914C165.365 49.0978 165.365 47.1926 165.365 45.2874C165.195 45.2824 165.02 45.2774 164.854 45.2724C164.564 46.5315 164.27 47.7922 163.981 49.0513C163.691 49.8453 163.401 50.641 163.041 51.6293C162.75 49.95 162.514 48.5846 162.258 47.0962C161.601 47.8321 161.109 48.3802 160.618 48.9301C160.572 49.4317 160.548 49.9334 160.501 50.435C160.36 50.4317 160.102 50.4283 160.102 50.425C160.102 47.9334 160.102 45.4435 160.102 42.9519C159.932 42.9386 159.73 42.9253 159.555 42.912C159.267 44.8904 158.964 46.8687 158.659 48.9599C158.479 48.661 158.355 48.4467 158.212 48.2473C158.185 48.2108 158.054 48.2424 157.983 48.2424C157.82 48.847 157.655 49.46 157.492 50.0712C157.355 50.0563 157.217 50.0397 157.081 50.0247C156.761 48.2042 156.441 46.382 156.121 44.5598C155.654 46.4899 155.19 48.4185 154.723 50.3486C154.591 50.347 154.499 50.3436 154.329 50.342C154.329 48.5281 154.329 46.7142 154.329 44.9003C154.16 44.882 153.944 44.8638 153.754 44.8455C153.119 46.5381 152.484 48.2324 151.846 49.9334C149.334 48.4467 151.626 45.2624 149.594 43.4369C149.475 44.8422 149.362 46.176 149.248 47.5115C149.027 47.5015 148.806 47.4916 148.586 47.4833C148.45 46.1727 148.314 44.8621 148.214 43.8937C147.533 45.5016 146.779 47.2856 145.888 49.3952C145.156 47.8886 144.625 46.7923 143.874 45.2475C143.523 46.382 143.323 47.0265 142.966 48.1693C142.835 46.5497 142.752 45.5315 142.621 43.9153C142.297 44.9535 142.168 45.3688 142.037 45.7907C141.642 45.5714 141.272 45.3687 140.869 45.1461C140.613 46.0215 140.397 46.754 140.093 47.7922C139.205 47.1311 138.564 46.6528 137.964 46.2059C137.864 46.475 137.703 46.9152 137.45 47.5995C136.435 46.5531 135.593 45.6843 134.82 44.8853C134.267 45.7126 133.764 46.5082 133.231 47.3055C133.066 47.2773 132.937 47.2491 132.767 47.2208C132.767 45.8388 132.767 44.4568 132.767 43.0748C132.598 43.0864 132.511 43.0981 132.397 43.1097C132.292 44.2375 132.17 45.3637 132.044 46.681C130.256 45.0747 129.149 43.4818 129.414 41.2825L129.197 41.2676L128.981 41.2792C128.599 43.3522 128.216 45.4235 127.857 47.3753C126.185 47.4068 125.594 46.7923 125.2 45.5382C124.918 44.6429 123.935 43.9568 123.158 43.0532C122.744 44.6063 122.407 45.8654 122.019 47.3205C119.416 46.0315 118.037 44.309 117.818 41.7559C117.154 43.5532 116.492 45.3521 115.796 47.2358C115.637 46.5697 115.501 46.0099 115.357 45.4086C114.893 45.6843 114.596 45.8604 114.472 45.9335C113.54 44.7807 112.686 43.7243 111.576 42.3506C111.068 44.0698 110.669 45.4252 110.18 47.0829C109.497 46.1478 108.947 45.3554 108.357 44.593C107.324 43.2641 105.784 43.3655 105.056 44.8173C104.754 45.4202 104.545 46.0664 104.374 46.4933C103.676 45.4369 102.998 44.4103 102.319 43.3838C101.301 43.515 100.282 43.6462 99.1053 43.7974C99.0136 44.1014 98.8608 44.603 98.6757 45.2126C98.1494 44.4269 97.6791 43.721 97.0221 42.7343C95.7521 45.0349 94.0713 43.9037 92.5093 43.6512C91.7928 43.5349 90.9949 42.6462 90.4839 43.9884C90.4142 44.1678 89.7114 44.2741 89.3752 44.1744C88.1256 43.8007 86.9066 43.3273 85.5365 42.8423C85.2835 43.3173 85.0391 43.7774 84.8031 44.2209C82.5993 44.0233 80.618 41.8523 78.1851 43.5266C77.9915 43.6595 77.6027 43.7127 77.4007 43.613C74.8319 42.3473 71.9711 42.9436 69.382 42.9353C63.4958 42.9153 57.6112 41.7194 51.7198 42.7127C51.4567 42.7575 51.1732 42.6911 50.8998 42.6712C48.2496 42.4802 45.5993 42.2925 42.9491 42.0948C41.4193 41.9802 39.8913 41.8489 38.3616 41.726C36.1953 41.7742 34.0272 41.8705 31.8608 41.8639C23.0883 41.839 14.3158 41.7941 5.5416 41.7227C4.74023 41.7161 3.92188 41.4586 3.12051 41.3174C2.08658 41.4752 1.01868 41.6313 0 41.7875C0 41.4254 0 41.0632 0 40.7011C1.01868 40.5317 1.97116 40.2277 2.9491 40.2178Z" fill="#FFFFFE"/>
</svg>
