<svg width="17" height="18" viewBox="0 0 17 18" fill="none" xmlns="http://www.w3.org/2000/svg">
<path d="M16.5215 3.08789L15.4199 3.94922C13.918 2.0293 11.582 0.796875 8.959 0.796875C4.4297 0.796875 0.763679 4.45898 0.757819 8.99023C0.75196 13.5254 4.42579 17.2031 8.959 17.2031C12.5 17.2031 15.5176 14.957 16.666 11.8105C16.6953 11.7285 16.6524 11.6367 16.5703 11.6094L15.4629 11.2285C15.4243 11.2153 15.382 11.2177 15.3452 11.2352C15.3083 11.2527 15.2798 11.284 15.2656 11.3223C15.2305 11.4199 15.1914 11.5176 15.1504 11.6133C14.8125 12.4141 14.3281 13.1328 13.711 13.75C13.0987 14.3634 12.3739 14.8528 11.5762 15.1914C10.75 15.541 9.86915 15.7188 8.9629 15.7188C8.0547 15.7188 7.17579 15.541 6.34962 15.1914C5.55113 14.8542 4.82603 14.3646 4.21485 13.75C3.60099 13.1379 3.11208 12.4121 2.7754 11.6133C2.42579 10.7852 2.24805 9.90625 2.24805 8.99805C2.24805 8.08984 2.42579 7.21094 2.7754 6.38281C3.11329 5.58203 3.59766 4.86328 4.21485 4.24609C4.83204 3.62891 5.55079 3.14453 6.34962 2.80469C7.17579 2.45508 8.05665 2.27734 8.9629 2.27734C9.87111 2.27734 10.75 2.45508 11.5762 2.80469C12.3747 3.14188 13.0998 3.63148 13.711 4.24609C13.9043 4.43945 14.086 4.64453 14.2539 4.85938L13.0781 5.77734C13.0549 5.79534 13.0372 5.81954 13.027 5.84715C13.0169 5.87477 13.0148 5.90468 13.0209 5.93345C13.027 5.96222 13.0412 5.98867 13.0616 6.00977C13.0821 6.03088 13.1082 6.04577 13.1367 6.05273L16.5664 6.89258C16.6641 6.91602 16.7598 6.8418 16.7598 6.74219L16.7754 3.20898C16.7735 3.08008 16.6231 3.00781 16.5215 3.08789Z" fill="white"/>
</svg>
