<svg width="64" height="64" viewBox="0 0 64 64" fill="none" xmlns="http://www.w3.org/2000/svg">
<path d="M30.291 45.7847H32.3425V49.1819H30.291V45.7847Z" fill="#B9B9B9"/>
<path d="M30.2911 53.6031H29.2656V55.6551H32.3431V52.5776H30.2911V53.6031Z" fill="#B9B9B9"/>
<path d="M21.7842 53.6045H25.5254V55.656H21.7842V53.6045Z" fill="#B9B9B9"/>
<path d="M14.3008 53.6045H18.042V55.656H14.3008V53.6045Z" fill="#B9B9B9"/>
<path d="M6.81836 53.6045H10.5595V55.656H6.81836V53.6045Z" fill="#B9B9B9"/>
<path d="M2.0515 52.5781H0V55.6556H3.07701V53.6036H2.0515V52.5781Z" fill="#B9B9B9"/>
<path d="M0 37.6104H2.0515V41.3525H0V37.6104Z" fill="#B9B9B9"/>
<path d="M0 30.127H2.0515V33.8686H0V30.127Z" fill="#B9B9B9"/>
<path d="M0 45.0942H2.0515V48.8364H0V45.0942Z" fill="#B9B9B9"/>
<path d="M0 26.3846H2.0515V25.3586H3.07701V23.3066H0V26.3846Z" fill="#B9B9B9"/>
<path d="M6.50098 23.3066H9.92386V25.3581H6.50098V23.3066Z" fill="#B9B9B9"/>
<path d="M63.9696 33.9316C63.8836 33.5766 63.6165 33.2935 63.2668 33.1877L55.6245 30.9V9.02599C55.6245 8.75404 55.5168 8.49271 55.3246 8.30046C55.1318 8.10821 54.871 8.00001 54.599 8.00001H15.3991C15.1267 7.99904 14.8654 8.10724 14.6726 8.2995C14.4804 8.49223 14.3727 8.75356 14.3732 9.02599V23.3098H13.3477V25.3613H14.3736L14.3732 41.364H30.293V42.39H32.3445L32.345 41.364H46.6189L48.5729 47.375C48.6849 47.7097 48.9593 47.9648 49.3008 48.0522C49.6438 48.1382 50.0061 48.0411 50.2601 47.7957L54.5737 43.6565L58.4356 47.5237C58.8365 47.9236 59.4857 47.9236 59.8871 47.5237L63.1694 44.2414C63.3641 44.0496 63.4732 43.7883 63.4732 43.5154C63.4732 43.2425 63.3641 42.9811 63.1694 42.7898L59.4046 39.0202L63.682 34.9119H63.6825C63.9481 34.6607 64.0578 34.2864 63.9699 33.9323L63.9696 33.9316ZM16.4252 39.3117V30.3001L24.9751 19.5601C25.3104 19.1311 25.8117 18.8645 26.3547 18.8268C26.8986 18.7824 27.4367 18.9683 27.8366 19.3398L44.4131 34.5882L45.9467 39.3118L16.4252 39.3117ZM53.5736 30.2846L43.7465 27.3458C43.3799 27.2385 42.9843 27.3409 42.7157 27.6124C42.4491 27.8863 42.3564 28.2853 42.4747 28.6485L43.4389 31.6029L38.1819 26.7662L46.537 21.0784H46.5365C47.0089 20.7586 47.5722 20.6006 48.1421 20.6282C48.7116 20.6562 49.257 20.8683 49.696 21.2325L53.5733 24.4742V30.2852L53.5736 30.2846ZM53.5736 22.468L50.6859 20.0524C49.9899 19.4727 49.1242 19.1351 48.219 19.0906C47.3143 19.0467 46.4197 19.2974 45.6701 19.8065L37.0178 25.6943L28.878 18.2061C28.1627 17.5487 27.2067 17.2183 26.2377 17.2932C25.2692 17.368 24.3755 17.8419 23.7693 18.6012L16.4251 27.8278V10.0518H53.5735L53.5736 22.468Z" fill="#B9B9B9"/>
<path d="M36.9466 12.5958C35.8347 12.5953 34.7676 13.0363 33.9813 13.8223C33.1944 14.6077 32.7519 15.6743 32.751 16.7862C32.7505 17.8982 33.1915 18.9647 33.9774 19.7516C34.7633 20.5384 35.8295 20.9809 36.9414 20.9814C38.0534 20.9824 39.1204 20.5414 39.9072 19.7554C40.6936 18.9695 41.1361 17.9034 41.1371 16.7915C41.1366 15.6795 40.6956 14.6135 39.9097 13.8265C39.1242 13.0401 38.0581 12.5971 36.9467 12.5957L36.9466 12.5958ZM36.9466 19.4429C36.2424 19.4434 35.5666 19.1642 35.0685 18.6667C34.57 18.1692 34.2898 17.4939 34.2898 16.7895C34.2893 16.0853 34.569 15.41 35.067 14.9119C35.5651 14.4139 36.2404 14.1342 36.9447 14.1342C37.649 14.1347 38.3242 14.4148 38.8218 14.9129C39.3198 15.4114 39.599 16.0871 39.5981 16.7914C39.5971 17.4942 39.3174 18.1681 38.8204 18.6651C38.3233 19.1621 37.6495 19.4418 36.9467 19.4428L36.9466 19.4429Z" fill="#B9B9B9"/>
</svg>
