<svg width="26" height="26" viewBox="0 0 26 26" fill="none" xmlns="http://www.w3.org/2000/svg">
<path fill-rule="evenodd" clip-rule="evenodd" d="M9.00026 1.05956C8.72291 1.16173 8.47129 1.38783 8.33834 1.65447L8.21727 1.89722V6.43614V10.975L5.45927 10.9888L2.70127 11.0027L2.47223 11.1196C2.34627 11.1839 2.1715 11.3201 2.0839 11.4224C1.7774 11.7802 1.78585 11.6463 1.78585 16.1478V20.2204H1.50418C1.05914 20.2204 0.93596 20.4055 1.0291 20.934C1.1013 21.3433 1.29039 21.7015 1.59506 22.006C1.90443 22.3151 2.25849 22.4975 2.6778 22.5638C3.08049 22.6275 15.7341 22.6305 16.1221 22.567C17.0517 22.4149 17.794 21.5817 17.794 20.6903C17.794 20.3314 17.6909 20.2313 17.3009 20.2113L17.0194 20.1969L17.0072 18.0039L16.995 15.8109H19.2034C21.6467 15.8109 21.6804 15.8073 21.7761 15.5327C21.8343 15.3658 21.7947 15.2196 21.6579 15.0964C21.5784 15.025 21.4322 15.0137 20.4436 15.0026L19.3197 14.99L19.0324 13.9946L18.7451 12.9992L21.45 12.9861C24.121 12.9731 24.1573 12.9716 24.3428 12.8715C24.5641 12.7519 24.7906 12.5219 24.9126 12.2927C24.9963 12.1355 25 11.9115 25 6.99192C25 2.07234 24.9963 1.84839 24.9126 1.69115C24.7906 1.46195 24.5641 1.23195 24.3428 1.11238L24.155 1.01096L16.6673 1.00224C10.3293 0.994873 9.15208 1.00365 9.00026 1.05956ZM24.0882 1.92209L24.2254 2.0592V6.99192V11.9246L24.0882 12.0618L23.951 12.1989H20.4735H16.9959V12.0988C16.9959 11.7435 16.6455 11.2496 16.2804 11.09C16.0922 11.0078 15.8733 11.0019 12.5479 10.9893L9.01533 10.9759L9.01683 6.50941C9.01838 1.8081 9.01134 1.96496 9.22658 1.84164C9.29606 1.80181 11.2221 1.78746 16.6357 1.78638L23.951 1.78497L24.0882 1.92209ZM16.0846 11.9318L16.1979 12.0634V16.1419V20.2204H13.3189H10.4401L10.3449 20.3259C10.2926 20.384 10.2368 20.4685 10.2209 20.5136C10.1948 20.5874 10.1115 20.5957 9.39234 20.5957C8.70249 20.5957 8.59283 20.5857 8.59283 20.5232C8.59283 20.4833 8.54095 20.3989 8.47758 20.3356L8.36238 20.2204H5.47312H2.58391V16.1884C2.58391 13.1052 2.59743 12.1267 2.64146 12.0302C2.76108 11.7679 2.44889 11.7788 9.47713 11.7899L15.9713 11.8001L16.0846 11.9318ZM18.1853 13.9463C18.3331 14.4687 18.4534 14.9231 18.4526 14.956C18.4515 15.0025 18.2908 15.013 17.7353 15.0029L17.0194 14.99L17.0067 13.9932L16.9941 12.9963H17.4554H17.9167L18.1853 13.9463ZM19.5286 16.2488C19.4111 16.2811 19.2383 16.355 19.1445 16.4129C18.9425 16.5377 18.7022 16.8821 18.6516 17.1194C18.6318 17.2124 18.6155 18.8084 18.6155 20.666V24.0435L18.7278 24.2919C18.7904 24.4302 18.9231 24.6112 19.0278 24.7007C19.3811 25.0029 19.448 25.0109 21.5092 24.9955C23.2047 24.9828 23.3705 24.9745 23.5212 24.8945C23.7938 24.7497 24.0319 24.4866 24.1318 24.2196C24.2221 23.9785 24.2254 23.8512 24.2254 20.6259C24.2254 16.9176 24.2304 16.9831 23.9212 16.6222C23.8302 16.5159 23.6554 16.3796 23.5328 16.3193C23.3123 16.2108 23.2914 16.2095 21.5261 16.1998C20.2137 16.1925 19.6858 16.2055 19.5286 16.2488ZM23.1626 17.0482C23.2539 17.0864 23.3402 17.1681 23.3733 17.2479C23.4152 17.3491 23.426 18.2085 23.4166 20.6767L23.4039 23.9706L23.297 24.0774C23.1903 24.1841 23.187 24.1843 21.5131 24.1979C20.5907 24.2055 19.788 24.1996 19.7293 24.185C19.6705 24.1704 19.5808 24.1168 19.5298 24.0658C19.4392 23.9753 19.4371 23.8961 19.4371 20.6038V17.2346L19.5427 17.1385C19.6008 17.0857 19.68 17.0309 19.7187 17.0168C19.7575 17.0026 20.5134 16.9894 21.3985 16.9874C22.6656 16.9844 23.0408 16.9974 23.1626 17.0482ZM7.81876 21.1133C7.83542 21.1657 7.89363 21.2502 7.94814 21.3009C8.04188 21.3882 8.11986 21.3931 9.40187 21.3931H10.7566L10.8718 21.278C10.9351 21.2146 10.987 21.1302 10.987 21.0903C10.987 21.0257 11.3086 21.0179 13.9477 21.0179H16.9084L16.8751 21.1234C16.8294 21.2686 16.6737 21.4537 16.4894 21.5819C16.1457 21.8209 16.3125 21.8154 9.39239 21.8142C5.15741 21.8134 2.86332 21.7965 2.72474 21.7649C2.60855 21.7385 2.43411 21.6647 2.33707 21.601C2.17136 21.4922 1.87974 21.1457 1.87974 21.0577C1.87974 21.0358 3.20921 21.0179 4.83411 21.0179C7.7636 21.0179 7.78871 21.0187 7.81876 21.1133Z" fill="#801AFE" stroke="#801AFE" stroke-width="0.7"/>
</svg>
