<svg width="29" height="26" viewBox="0 0 29 26" fill="none" xmlns="http://www.w3.org/2000/svg">
<path fill-rule="evenodd" clip-rule="evenodd" d="M6.9801 1.0446C6.232 1.22469 5.47005 1.87267 5.17674 2.57836C5.021 2.95295 4.97146 3.22371 4.81463 4.55782C4.73841 5.20617 4.66268 5.80293 4.64633 5.884L4.61661 6.03135L3.95778 6.03264C3.21386 6.03414 2.95563 6.07979 2.52017 6.28678C2.09001 6.49125 1.52662 7.0573 1.32156 7.49106C0.988464 8.19562 1.00005 7.90284 1.00005 15.6227C1.00005 23.2531 0.993336 23.0692 1.29216 23.6529C1.47417 24.0084 1.9832 24.5203 2.32506 24.6916C2.98199 25.0209 2.26005 24.9997 12.8152 24.9997C21.3961 24.9997 22.483 24.9906 22.7755 24.9155C23.5801 24.7091 24.2729 24.1688 24.633 23.4667C24.8324 23.0779 24.8446 23.0255 24.8636 22.4761L24.8836 21.8961L25.189 21.8088C25.3569 21.7608 25.6579 21.6368 25.8578 21.5332C26.4924 21.2043 26.9638 20.5041 27.1174 19.6624C27.1598 19.4298 27.5416 16.195 27.9658 12.4739C28.7006 6.02915 28.734 5.69008 28.6708 5.32555C28.4963 4.31803 27.7358 3.47201 26.7124 3.14698C26.4386 3.05996 7.96157 0.993478 7.51614 1.00002C7.31065 1.00307 7.06942 1.02311 6.9801 1.0446ZM16.9826 3.3492C23.2836 4.07021 26.3903 4.44588 26.531 4.50397C26.9333 4.67007 27.2691 5.09751 27.3375 5.53078C27.3725 5.75202 25.773 19.5969 25.6864 19.8223C25.5822 20.0936 25.1283 20.4988 24.9286 20.4988C24.8893 20.4988 24.8718 18.6352 24.8718 14.4422C24.8718 8.44719 24.8707 8.38225 24.759 8.05239C24.4306 7.08206 23.6801 6.37814 22.7129 6.13332C22.3257 6.03532 21.9943 6.03135 14.1411 6.03135H5.97194L6.00377 5.80362C6.02125 5.6784 6.09574 5.06289 6.16931 4.43586C6.31699 3.17661 6.39717 2.92761 6.75544 2.61629C6.94951 2.44761 7.27373 2.31837 7.58208 2.28676C7.61543 2.28333 11.8457 2.76145 16.9826 3.3492ZM22.5572 7.47755C22.9057 7.60664 23.2481 7.93601 23.4211 8.30863C23.5453 8.57617 23.5455 8.58056 23.5612 11.4763L23.5769 14.3761L19.834 16.5347C17.7754 17.7219 16.0022 18.7247 15.8935 18.7631C15.7848 18.8015 15.5214 18.834 15.3081 18.8353C14.6973 18.839 14.5257 18.7225 12.39 16.8551C11.3621 15.9563 10.3885 15.1323 10.2265 15.024C9.22379 14.3541 7.9351 14.3572 6.89889 15.0322C6.73513 15.1389 5.65736 15.9061 4.50379 16.7372C3.35022 17.5683 2.39409 18.2483 2.37898 18.2483C2.36388 18.2483 2.35153 16.0689 2.35153 13.4052C2.35153 8.0084 2.33632 8.23859 2.72209 7.79251C2.8276 7.67051 3.01269 7.52626 3.13346 7.47198C3.34405 7.3773 3.74005 7.37323 12.8111 7.3721C22.1231 7.37092 22.2737 7.37259 22.5572 7.47755ZM14.3857 9.53734C13.9273 9.64734 13.4119 9.94125 13.0494 10.2994C11.946 11.39 11.937 13.1234 13.0292 14.1962C13.6255 14.782 14.2234 15.0337 15.0155 15.0326C15.8297 15.0315 16.46 14.7774 17.0179 14.2253C17.5757 13.6731 17.8324 13.0492 17.8336 12.2433C17.8343 11.6879 17.7345 11.322 17.4528 10.8474C16.8369 9.80981 15.5468 9.25876 14.3857 9.53734ZM15.5208 10.8846C16.5233 11.2227 16.8266 12.5441 16.073 13.2901C15.3209 14.0345 13.9837 13.7337 13.6428 12.7435C13.246 11.5909 14.3563 10.4919 15.5208 10.8846ZM9.22768 15.9847C9.36454 16.0506 10.3368 16.8561 11.4356 17.814C12.5154 18.7553 13.5195 19.6021 13.6669 19.6958C14.3165 20.1083 15.3289 20.2835 16.0324 20.105C16.5083 19.9843 16.7294 19.8659 20.2918 17.8247C22.0455 16.8199 23.501 15.9978 23.5264 15.9978C23.596 15.9978 23.5848 22.3125 23.5146 22.6361C23.4458 22.9539 23.1327 23.336 22.7945 23.515L22.571 23.6334L12.962 23.6492C6.01692 23.6606 3.29533 23.6485 3.14489 23.6053C2.87123 23.5268 2.50284 23.1576 2.41812 22.877C2.3727 22.7265 2.35235 22.2242 2.35413 21.2963L2.35673 19.9361L4.6074 18.3019C7.81963 15.9694 7.76814 16.0052 8.03573 15.9182C8.37711 15.8072 8.92252 15.8376 9.22768 15.9847Z" fill="#801AFE" stroke="#801AFE" stroke-width="0.4"/>
</svg>
