<svg width="32" height="26" viewBox="0 0 32 26" fill="none" xmlns="http://www.w3.org/2000/svg">
<path fill-rule="evenodd" clip-rule="evenodd" d="M8.76856 1.05237C7.8944 1.19265 7.28608 1.3916 6.56101 1.77439C4.29496 2.97075 2.9642 5.40563 3.238 7.85432C3.38989 9.21264 3.90019 10.3228 4.86663 11.3975L5.21057 11.7801L4.76451 12.0713C3.64536 12.8019 2.57195 13.9956 1.94717 15.2043C1.55422 15.9645 1.36889 16.467 1.18117 17.2814C1.06242 17.7965 1.04965 18.0311 1.02588 20.1302L1 22.4178H4.13774H7.27543V23.7089V25H16H24.7246V23.7089V22.4178H27.8623H31L30.9741 20.1302C30.9503 18.0311 30.9376 17.7965 30.8188 17.2814C30.6311 16.467 30.4458 15.9645 30.0528 15.2043C29.4279 13.9953 28.4149 12.8654 27.2644 12.0941L26.7887 11.7752L27.0733 11.4689C28.3521 10.0923 28.9568 8.35337 28.762 6.61182C28.4534 3.85281 26.4052 1.68766 23.5535 1.10609C22.9678 0.986635 21.7425 0.972825 21.1528 1.07903C19.6281 1.35371 18.155 2.18867 17.231 3.30189L16.9502 3.64039L16.4751 3.61232C16.2138 3.59689 15.7862 3.59689 15.525 3.61232L15.0498 3.64039L14.769 3.30189C13.8514 2.19625 12.35 1.34209 10.8765 1.08729C10.2964 0.986971 9.28073 0.970131 8.76856 1.05237ZM10.7179 2.63466C11.587 2.80588 12.3801 3.20074 13.0428 3.79207L13.3914 4.10317L13.0123 4.28595C12.4353 4.56405 11.7268 5.07859 11.2544 5.56247C10.372 6.46626 9.8305 7.50651 9.58106 8.7768C9.41072 9.64438 9.52625 11.0757 9.82739 11.8281C9.85931 11.9078 9.81369 11.9203 9.49211 11.9194C7.5586 11.9143 5.68644 10.5378 5.04047 8.64617C4.85234 8.09526 4.84555 8.04434 4.84947 7.205C4.85316 6.40928 4.86745 6.29409 5.01723 5.85775C5.21016 5.29566 5.33436 5.05007 5.65582 4.59537C6.37404 3.57937 7.43493 2.89323 8.69226 2.63152C9.20081 2.52565 10.1723 2.52716 10.7179 2.63466ZM23.2823 2.62939C24.5601 2.8889 25.6182 3.56826 26.3442 4.59537C26.6656 5.05007 26.7898 5.29566 26.9828 5.85775C27.1326 6.29409 27.1468 6.40928 27.1505 7.205C27.1545 8.04434 27.1477 8.09526 26.9595 8.64617C26.3136 10.5378 24.4414 11.9143 22.5079 11.9194C22.1863 11.9203 22.1407 11.9078 22.1726 11.8281C22.4738 11.0757 22.5893 9.64438 22.4189 8.7768C22.1695 7.50651 21.628 6.46626 20.7456 5.56247C20.2732 5.07859 19.5647 4.56405 18.9877 4.28595L18.6086 4.10317L18.9572 3.79207C19.6051 3.21404 20.4043 2.81037 21.2406 2.63893C21.771 2.5302 22.771 2.52554 23.2823 2.62939ZM16.9663 5.23374C18.6301 5.56298 19.9469 6.63371 20.5956 8.18485C20.7979 8.66868 20.8879 9.19243 20.8853 9.87145C20.8821 10.6993 20.7777 11.1264 20.3913 11.8923C19.9029 12.8604 19.185 13.5591 18.1958 14.0289C17.4169 14.3988 16.8858 14.5169 16 14.5169C15.1142 14.5169 14.5831 14.3988 13.8042 14.0289C12.815 13.5591 12.0971 12.8604 11.6087 11.8923C11.2223 11.1264 11.1179 10.6993 11.1147 9.87145C11.1117 9.0645 11.2223 8.56337 11.5527 7.88744C12.5377 5.87229 14.7392 4.79308 16.9663 5.23374ZM7.28679 13.0144C8.09888 13.3346 8.74233 13.4491 9.7795 13.4582L10.6733 13.466L11.08 13.9239L11.4868 14.3818L10.9388 14.7542C9.8822 15.4722 8.80516 16.6842 8.20246 17.8334C7.86741 18.4723 7.5323 19.4827 7.4128 20.2144L7.30968 20.846H4.97964H2.64965V19.4935C2.64965 18.3555 2.6685 18.0524 2.76851 17.582C3.18231 15.6352 4.38836 14.0376 6.22139 13.0078C6.46287 12.8721 6.68684 12.773 6.7191 12.7874C6.75131 12.8018 7.00678 12.904 7.28679 13.0144ZM25.7798 13.0084C27.6116 14.0375 28.8178 15.6357 29.2315 17.582C29.3315 18.0524 29.3504 18.3555 29.3504 19.4935V20.846H27.0204H24.6903L24.5872 20.2144C24.4677 19.4827 24.1326 18.4723 23.7975 17.8334C23.195 16.6844 22.1178 15.4722 21.0617 14.7545L20.5141 14.3824L20.9357 13.9054L21.3572 13.4283L21.8259 13.4647C22.7495 13.5366 23.9714 13.3338 24.8333 12.9658C25.0794 12.8607 25.2945 12.7719 25.3113 12.7685C25.3281 12.7652 25.5389 12.8731 25.7798 13.0084ZM13.4363 15.57C13.6437 15.6631 14.0749 15.8066 14.3944 15.8889C14.9192 16.0241 15.0743 16.0385 16 16.0385C16.924 16.0385 17.0814 16.0239 17.6015 15.8899C17.9188 15.8081 18.3586 15.6616 18.579 15.5642C18.8365 15.4504 19.028 15.3989 19.1147 15.4202C19.189 15.4384 19.4869 15.601 19.7767 15.7816C21.3998 16.7931 22.4197 18.1478 22.8921 19.9197C23.0287 20.4322 23.0441 20.6092 23.0697 21.9546L23.0976 23.4282H16H8.90236L8.93035 21.9546C8.95587 20.6092 8.97133 20.4322 9.10794 19.9197C9.58902 18.1152 10.6467 16.7337 12.3207 15.7236C12.6149 15.546 12.9014 15.4008 12.9574 15.4008C13.0134 15.4008 13.2289 15.4769 13.4363 15.57Z" fill="#801AFE" stroke="#801AFE" stroke-width="0.4"/>
</svg>
