<svg width="26" height="26" viewBox="0 0 26 26" fill="none" xmlns="http://www.w3.org/2000/svg">
<path fill-rule="evenodd" clip-rule="evenodd" d="M7.79202 1.02895C5.13157 1.35479 2.84364 3.00633 1.71652 5.41466C0.71902 7.54595 0.765544 10.0767 1.84028 12.142C2.94617 14.2672 4.87991 15.7176 7.2418 16.1935C7.68696 16.2832 7.91775 16.2996 8.7315 16.2995L9.69439 16.2995L9.69373 17.2387C9.69326 17.9484 9.71404 18.2927 9.7788 18.6472C10.4001 22.0484 13.16 24.6083 16.5856 24.9607C19.7954 25.2909 22.9059 23.516 24.2783 20.5711C25.2573 18.4703 25.2396 16.1018 24.2292 14.0018C23.3321 12.1374 21.6791 10.6858 19.7198 10.0416C18.8784 9.76495 18.3338 9.68616 17.2641 9.68625L16.3013 9.6863L16.3019 8.74707C16.3027 7.67532 16.2361 7.19942 15.967 6.35314C15.0961 3.61381 12.8022 1.6025 9.97283 1.09723C9.46477 1.00648 8.27859 0.969359 7.79202 1.02895ZM9.84277 2.50387C11.0854 2.74567 12.1441 3.31575 13.0688 4.24095C13.9889 5.16151 14.5282 6.15874 14.8087 7.45835C14.8726 7.75448 14.8943 8.05644 14.8943 8.65242C14.8943 9.74594 14.7367 10.4536 14.2883 11.374C13.4239 13.1485 11.8368 14.3761 9.85309 14.8047C9.29748 14.9248 8.02182 14.9248 7.46621 14.8047C6.16757 14.5241 5.16764 13.9832 4.24968 13.0647C3.33172 12.1463 2.79107 11.1458 2.51061 9.8465C2.3906 9.29059 2.3906 8.01425 2.51061 7.45835C2.76804 6.26582 3.28417 5.25737 4.07048 4.41053C5.11051 3.29041 6.46093 2.60987 8.02651 2.41683C8.35054 2.37685 9.46449 2.43025 9.84277 2.50387ZM12.0694 9.10266C11.8531 10.6917 10.5805 11.9198 8.97997 12.0839L8.6831 12.1143V12.8184V13.5226L9.05576 13.4915C9.9369 13.4179 10.8726 13.0594 11.5847 12.5226C12.6687 11.7053 13.3829 10.4074 13.4961 9.04874L13.5272 8.67588H12.8273H12.1275L12.0694 9.10266ZM18.6492 11.2097C19.8822 11.4787 20.9875 12.1038 21.8686 13.0305C24.2747 15.5611 24.1437 19.538 21.5756 21.925C19.0487 24.2739 15.1075 24.1177 12.7468 21.5753C11.9595 20.7274 11.4399 19.7113 11.1882 18.5274C11.0824 18.0295 11.0695 16.8504 11.1638 16.2829L11.2291 15.8893L11.4217 15.8146C13.2933 15.0882 14.9138 13.5241 15.6938 11.6911C15.79 11.4651 15.8823 11.2655 15.8989 11.2477C15.9155 11.2298 16.1295 11.1829 16.3746 11.1435C16.9936 11.0438 18.0266 11.0739 18.6492 11.2097ZM20.7831 17.4761C20.7831 17.7286 20.6476 18.3313 20.5205 18.6442C20.194 19.4481 19.4487 20.1933 18.6439 20.5205C18.3331 20.6469 17.7303 20.7823 17.4787 20.7823H17.3125V21.4926V22.2029L17.7165 22.1701C19.7765 22.0029 21.5262 20.529 22.0317 18.5351C22.0933 18.2922 22.1572 17.9172 22.1738 17.7017L22.2039 17.3099H21.4935H20.7831V17.4761Z" fill="#801AFE" stroke="#801AFE" stroke-width="0.4"/>
</svg>
