<svg width="26" height="26" viewBox="0 0 26 26" fill="none" xmlns="http://www.w3.org/2000/svg">
<path fill-rule="evenodd" clip-rule="evenodd" d="M11.9174 1.0284C9.59957 1.25545 7.45738 2.10982 5.57914 3.55625C4.66449 4.26061 3.47667 5.58435 2.79025 6.66418C2.4938 7.13054 1.91672 8.3123 1.70999 8.87628C1.47885 9.50693 1.2325 10.4706 1.11127 11.2184C0.962909 12.1337 0.962909 13.8715 1.11127 14.7867C1.32105 16.0806 1.6529 17.1266 2.22092 18.2846C2.84152 19.5497 3.48681 20.4464 4.52016 21.4798C5.55355 22.5132 6.45032 23.1585 7.71542 23.7791C8.87342 24.3471 9.9194 24.6789 11.2133 24.8887C12.1285 25.0371 13.8663 25.0371 14.7816 24.8887C16.0754 24.6789 17.1214 24.3471 18.2794 23.7791C19.5445 23.1585 20.4413 22.5132 21.4747 21.4798C22.508 20.4464 23.1533 19.5497 23.7739 18.2846C24.1861 17.4443 24.3934 16.8935 24.6155 16.049C24.9113 14.9243 24.9863 14.3078 24.9863 13.0026C24.9863 11.6973 24.9113 11.0808 24.6155 9.95616C24.3934 9.11165 24.1861 8.56091 23.7739 7.72058C23.1533 6.45548 22.508 5.55871 21.4747 4.52532C20.4413 3.49197 19.5445 2.84668 18.2794 2.22608C17.1225 1.65858 16.0559 1.32001 14.805 1.12324C14.1149 1.01469 12.5739 0.964076 11.9174 1.0284ZM14.3033 3.26107C17.6215 3.72386 20.449 5.79582 21.8803 8.81346C22.522 10.1662 22.8102 11.4646 22.8102 13.0026C22.8102 13.8986 22.7338 14.5492 22.531 15.3782C21.6796 18.8597 18.8546 21.6848 15.3731 22.5362C14.5441 22.7389 13.8935 22.8154 12.9974 22.8154C12.1014 22.8154 11.4508 22.7389 10.6218 22.5362C7.14027 21.6848 4.31522 18.8597 3.46381 15.3782C3.26107 14.5492 3.18464 13.8986 3.18464 13.0026C3.18464 12.1065 3.26107 11.4559 3.46381 10.6269C4.31625 7.14115 7.14346 4.31704 10.6317 3.46685C10.9445 3.3906 11.3988 3.29933 11.6411 3.26407C12.2564 3.17449 13.6711 3.17289 14.3033 3.26107ZM12.4528 6.19776C11.984 6.3781 11.6017 6.89414 11.5549 7.40986C11.4787 8.25066 12.148 8.97859 12.9974 8.97859C14.127 8.97859 14.8242 7.73739 14.2289 6.78634C13.8553 6.18955 13.1133 5.94367 12.4528 6.19776ZM12.6792 11.2405C12.3833 11.3329 12.1569 11.5281 12.0303 11.7998L11.9185 12.0401L11.919 15.5614C11.9196 18.8922 11.9243 19.0929 12.0068 19.2706C12.3211 19.9481 13.2036 20.1199 13.7426 19.6086C13.8297 19.526 13.9402 19.3738 13.9881 19.2706C14.0705 19.0929 14.0753 18.8922 14.0758 15.5614L14.0764 12.0401L13.9645 11.7998C13.8348 11.5213 13.6102 11.3322 13.2972 11.238C13.032 11.1581 12.9418 11.1585 12.6792 11.2405Z" fill="#801AFE" stroke="#801AFE" stroke-width="0.4"/>
</svg>
