<svg width="20" height="26" viewBox="0 0 20 26" fill="none" xmlns="http://www.w3.org/2000/svg">
<path fill-rule="evenodd" clip-rule="evenodd" d="M2.62083 1.06368C2.22612 1.16244 1.93065 1.3311 1.63303 1.62757C1.3265 1.93296 1.14119 2.26924 1.05583 2.67512C0.980823 3.03169 0.981667 22.968 1.05672 23.3186C1.22909 24.1239 1.87637 24.7711 2.68172 24.9435C3.03133 25.0183 17.2525 25.0191 17.6076 24.9443C18.4031 24.7768 19.0674 24.1126 19.2337 23.3186C19.2706 23.1423 19.2857 20.7646 19.2857 15.125C19.2857 7.94406 19.2785 7.16538 19.2109 7.02977C19.1077 6.82287 13.4914 1.20008 13.2756 1.08768C13.1066 0.999649 12.9554 0.997164 7.97844 1.00105C4.04496 1.0041 2.80079 1.01868 2.62083 1.06368ZM12.2541 4.25253C12.2541 5.45382 12.2727 6.18876 12.3073 6.35015C12.4796 7.15544 13.1269 7.80268 13.9323 7.97504C14.0937 8.00959 14.8287 8.02819 16.03 8.02819H17.8794V15.5299C17.8794 22.9559 17.8785 23.0336 17.785 23.2166C17.7243 23.3357 17.6247 23.4353 17.5056 23.4961C17.3226 23.5894 17.2441 23.5904 10.1412 23.5904H2.96172L2.77472 23.4853C2.66498 23.4236 2.55098 23.3082 2.4988 23.206C2.41227 23.0364 2.40993 22.7591 2.41185 12.987C2.41372 3.40457 2.41771 2.93504 2.49824 2.78391C2.54465 2.69677 2.66508 2.5756 2.76582 2.51462L2.94897 2.40376L7.60154 2.40353L12.2541 2.4033V4.25253ZM15.5318 6.611C14.2402 6.62319 14.2113 6.62141 14.0266 6.51763C13.6751 6.3201 13.6604 6.24876 13.6604 4.73739V3.41161L15.2545 5.00509L16.8487 6.59853L15.5318 6.611ZM5.58633 11.031C5.38842 11.1355 5.22252 11.4121 5.22252 11.6375C5.22252 11.8701 5.38832 12.1401 5.59632 12.2463C5.77778 12.3388 5.86408 12.3406 10.1446 12.3406C14.4252 12.3406 14.5115 12.3388 14.693 12.2463C14.901 12.1401 15.0668 11.8701 15.0668 11.6375C15.0668 11.4049 14.901 11.1349 14.693 11.0288C14.5114 10.9361 14.4273 10.9344 10.1348 10.9365C5.87331 10.9385 5.75711 10.9409 5.58633 11.031ZM5.58633 13.8435C5.38842 13.948 5.22252 14.2245 5.22252 14.45C5.22252 14.6825 5.38832 14.9526 5.59632 15.0587C5.77778 15.1513 5.86408 15.1531 10.1446 15.1531C14.4252 15.1531 14.5115 15.1513 14.693 15.0587C14.901 14.9526 15.0668 14.6825 15.0668 14.45C15.0668 14.2174 14.901 13.9473 14.693 13.8412C14.5114 13.7486 14.4273 13.7469 10.1348 13.7489C5.87331 13.7509 5.75711 13.7534 5.58633 13.8435ZM5.58633 16.6559C5.38842 16.7604 5.22252 17.037 5.22252 17.2624C5.22252 17.495 5.38832 17.765 5.59632 17.8712C5.77778 17.9637 5.86408 17.9655 10.1446 17.9655C14.4252 17.9655 14.5115 17.9637 14.693 17.8712C14.901 17.765 15.0668 17.495 15.0668 17.2624C15.0668 17.0298 14.901 16.7598 14.693 16.6536C14.5114 16.561 14.4273 16.5593 10.1348 16.5614C5.87331 16.5634 5.75711 16.5658 5.58633 16.6559ZM5.58633 19.4684C5.38842 19.5729 5.22252 19.8494 5.22252 20.0749C5.22252 20.3074 5.38832 20.5775 5.59632 20.6836C5.77595 20.7752 5.86722 20.778 8.73832 20.778C11.6094 20.778 11.7007 20.7752 11.8803 20.6836C12.0883 20.5775 12.2541 20.3074 12.2541 20.0749C12.2541 19.8423 12.0883 19.5722 11.8803 19.4661C11.7005 19.3744 11.6116 19.3718 8.72847 19.3738C5.86722 19.3758 5.75537 19.3792 5.58633 19.4684Z" fill="#801AFE" stroke="#801AFE" stroke-width="0.4"/>
</svg>
