<svg width="20" height="26" viewBox="0 0 20 26" fill="none" xmlns="http://www.w3.org/2000/svg">
<path fill-rule="evenodd" clip-rule="evenodd" d="M9.58065 1.03477C8.75586 1.18087 8.05385 1.66667 7.65366 2.36822L7.50546 2.62811L5.29457 2.64382L3.08363 2.65953L2.74539 2.79473C1.88762 3.13748 1.26272 3.86295 1.07909 4.72917C0.971462 5.23704 0.974714 22.4107 1.08254 22.9233C1.28494 23.8854 2.03743 24.6763 2.98566 24.9232C3.24269 24.9902 4.12843 24.9998 10.0136 24.9998C17.4381 24.9998 17.0147 25.0173 17.6387 24.6856C18.016 24.4849 18.4506 24.0624 18.6611 23.6916C18.7492 23.5361 18.8661 23.2342 18.9208 23.0206C19.018 22.6403 19.0201 22.4483 19.0192 13.8463C19.0185 6.49799 19.0069 5.00632 18.9481 4.72917C18.7645 3.86295 18.1396 3.13748 17.2818 2.79473L16.9436 2.65953L14.7327 2.64382L12.5218 2.62811L12.361 2.34321C11.8407 1.42124 10.6259 0.849583 9.58065 1.03477ZM10.5312 2.29717C10.7999 2.39104 11.1556 2.66339 11.2789 2.86964C11.3398 2.97156 11.4346 3.17891 11.4897 3.33042C11.6519 3.77704 11.7792 3.83463 12.6038 3.83463H13.2779L13.2561 4.29746C13.2236 4.99136 12.9847 5.38639 12.4425 5.64293L12.1401 5.78593L10.0091 5.78598L7.87803 5.78603L7.57186 5.63302C7.02616 5.36033 6.8035 4.98906 6.77108 4.29746L6.74931 3.83463H7.4234C8.25224 3.83463 8.37628 3.77769 8.53815 3.32316C8.85418 2.43582 9.69253 2.00426 10.5312 2.29717ZM5.56041 4.23246C5.56041 4.75414 5.63191 5.07997 5.84496 5.52875C6.05812 5.97782 6.50069 6.43985 6.94105 6.67292C7.49985 6.96868 7.66202 6.98534 9.9943 6.98614C11.1877 6.98659 12.2183 6.96523 12.371 6.93691C12.8061 6.85625 13.3409 6.56364 13.686 6.21754C14.2171 5.68476 14.4646 5.05971 14.4661 4.24743L14.4668 3.83463H15.5407C16.4999 3.83463 16.6438 3.84554 16.888 3.9369C17.2119 4.05809 17.5399 4.36441 17.6893 4.68524L17.7942 4.9104V13.8204V22.7303L17.6432 23.0255C17.4757 23.353 17.1379 23.6473 16.8204 23.7424C16.6843 23.7832 14.7774 23.799 9.97463 23.799H3.31755L3.00272 23.636C2.80228 23.5322 2.62815 23.3947 2.52343 23.2574C2.18553 22.8144 2.20555 23.4428 2.21996 13.7145L2.23302 4.9104L2.3469 4.67924C2.50341 4.36161 2.82935 4.05324 3.13131 3.937C3.35252 3.85189 3.51874 3.83953 4.47213 3.83723L5.56041 3.83463V4.23246ZM13.1409 11.9911C13.0858 12.0155 12.1404 12.9147 11.0399 13.9894L9.03916 15.9433L8.36302 15.2787C6.93074 13.8708 6.89647 13.8418 6.66445 13.8418C6.38685 13.8418 6.19206 13.9501 6.09254 14.1599C5.98842 14.3793 5.98957 14.4807 6.0983 14.6769C6.14648 14.7637 6.76337 15.398 7.46928 16.0864C8.84757 17.4305 8.91602 17.4785 9.25011 17.3357C9.49479 17.2312 13.9037 12.9061 13.9698 12.7059C14.0472 12.4712 13.9865 12.2687 13.7861 12.0927C13.6056 11.9343 13.3575 11.8952 13.1409 11.9911Z" fill="#801AFE" stroke="#801AFE" stroke-width="0.5"/>
</svg>
