<svg width="26" height="26" viewBox="0 0 26 26" fill="none" xmlns="http://www.w3.org/2000/svg">
<path fill-rule="evenodd" clip-rule="evenodd" d="M11.8686 1.03009C9.26445 1.29995 6.81631 2.38968 4.92738 4.11981C0.545985 8.13291 -0.27017 14.6572 2.98778 19.625C3.83381 20.9151 5.10749 22.1887 6.39757 23.0348C7.93713 24.0444 9.61856 24.6677 11.5399 24.9411C12.0922 25.0196 13.9463 25.0196 14.4987 24.9411C17.2707 24.5468 19.6158 23.3956 21.5137 21.4977C23.4117 19.5998 24.5628 17.2547 24.9571 14.4827C25.0357 13.9303 25.0357 12.0762 24.9571 11.5239C24.5628 8.75182 23.4117 6.40672 21.5137 4.50882C19.6618 2.65686 17.3656 1.50584 14.71 1.09824C14.1195 1.00759 12.468 0.967956 11.8686 1.03009ZM13.8881 2.81447C18.3993 3.20325 22.1456 6.54611 23.0433 10.9838C23.9618 15.5242 21.6735 20.1532 17.5044 22.1884C13.6164 24.0864 8.99041 23.3407 5.88486 20.3154C1.83714 16.3722 1.75782 9.92289 5.70719 5.86883C7.84639 3.67294 10.8476 2.55241 13.8881 2.81447ZM18.1385 8.42489C18.0361 8.47045 16.6538 9.81764 14.475 11.9954L10.9759 15.4926L9.5437 14.0569C8.75596 13.2672 8.03303 12.5803 7.93722 12.5304C7.64374 12.3776 7.19616 12.4381 6.94579 12.6646C6.6517 12.9305 6.59074 13.4592 6.81434 13.8042C6.88878 13.919 7.75002 14.8088 8.72815 15.7815C10.2256 17.2704 10.5363 17.558 10.6945 17.6011C10.9512 17.671 11.1124 17.6657 11.3183 17.5807C11.5356 17.491 19.1313 9.92265 19.2688 9.6589C19.4625 9.28703 19.3321 8.75947 18.9873 8.52052C18.7579 8.36159 18.3769 8.31866 18.1385 8.42489Z" fill="#801AFE" stroke="#801AFE" stroke-width="0.4"/>
</svg>
