<svg width="28" height="26" viewBox="0 0 28 26" fill="none" xmlns="http://www.w3.org/2000/svg">
<path fill-rule="evenodd" clip-rule="evenodd" d="M13.4422 1.04068C12.1635 1.24002 11.0055 1.97293 10.2881 3.03699C10.0489 3.39166 1.6745 17.8953 1.46216 18.3226C0.737314 19.781 0.873377 21.5907 1.81205 22.976C2.44455 23.9094 3.41096 24.5878 4.53059 24.8843L4.96718 25H14.0586C23.8067 25 23.4078 25.0102 24.164 24.7407C24.8546 24.4945 25.3356 24.1887 25.866 23.6582C26.2879 23.2363 26.5536 22.8568 26.8255 22.2882C27.1533 21.6023 27.2478 21.1633 27.2478 20.3258C27.2478 19.4902 27.1533 19.0492 26.8284 18.3696C26.6379 17.971 18.5859 3.9825 18.0972 3.2012C17.6068 2.41703 16.6911 1.62612 15.9511 1.34763C15.1667 1.05239 14.1585 0.929013 13.4422 1.04068ZM14.5466 3.14727C15.1625 3.24548 15.7773 3.60769 16.1299 4.08004C16.358 4.38565 24.7022 18.8188 24.9282 19.2986C25.2794 20.0442 25.1983 20.9877 24.7188 21.7349C24.3287 22.3428 23.6387 22.7719 22.8932 22.87C22.6153 22.9067 19.6885 22.9193 13.8531 22.9091L5.224 22.894L4.87781 22.7766C3.46351 22.2966 2.72931 20.6886 3.31743 19.3589C3.42082 19.125 11.6531 4.83231 12.0189 4.25149C12.4269 3.60374 13.2667 3.1354 14.0843 3.0996C14.1549 3.09652 14.3629 3.11799 14.5466 3.14727ZM13.8086 8.41012C13.3758 8.52004 13.0463 8.82832 12.8486 9.30827C12.7516 9.54367 12.7571 9.87183 12.8966 12.159C12.9604 13.2042 13.042 14.5471 13.078 15.1432C13.1568 16.4471 13.2054 16.5851 13.6697 16.8202C13.9859 16.9804 14.2076 16.9971 14.484 16.8818C14.9277 16.6968 15.1653 16.2751 15.1607 15.6809C15.1594 15.5236 15.2339 14.0961 15.3262 12.5086C15.5111 9.32789 15.512 9.35573 15.2114 8.91883C14.9213 8.49713 14.3219 8.27981 13.8086 8.41012ZM13.7758 17.9309C13.1559 18.1343 12.7636 18.6943 12.8099 19.3096C12.8656 20.0482 13.4016 20.5533 14.1323 20.5558C14.6539 20.5576 15.0854 20.2905 15.3293 19.8149C15.4604 19.5593 15.4746 18.9816 15.3565 18.7041C15.2466 18.4456 14.9779 18.1554 14.7327 18.0303C14.5064 17.9149 13.9886 17.8611 13.7758 17.9309Z" fill="#801AFE" stroke="#801AFE" stroke-width="0.4"/>
</svg>
