<svg width="24" height="24" viewBox="0 0 24 24" fill="none" xmlns="http://www.w3.org/2000/svg">
<path fill-rule="evenodd" clip-rule="evenodd" d="M10.8955 0.0275992C8.08525 0.300847 5.51469 1.51169 3.51922 3.50214C1.6219 5.39469 0.464852 7.7518 0.0760564 10.5164C-0.0163195 11.1734 -0.00223782 12.9316 0.100887 13.614C0.303945 14.9578 0.642 16.062 1.20996 17.2365L1.57726 17.996L0.809619 20.3793C0.38745 21.6902 0.0281786 22.8446 0.0112337 22.9448C-0.0869157 23.5256 0.474474 24.0869 1.05534 23.9888C1.15551 23.9718 2.31007 23.6126 3.62108 23.1905L6.00464 22.4229L6.76425 22.7902C7.9389 23.3581 9.04328 23.6961 10.3872 23.8991C11.0697 24.0022 12.8281 24.0163 13.4852 23.924C16.2483 23.5354 18.5886 22.388 20.4939 20.4874C22.3585 18.6276 23.496 16.3484 23.9128 13.6375C24.0291 12.8814 24.0291 11.1082 23.9128 10.3521C23.4963 7.64291 22.3682 5.38071 20.5002 3.50838C18.6528 1.65671 16.3463 0.500784 13.6964 0.098469C13.1099 0.0094359 11.5011 -0.0312556 10.8955 0.0275992ZM12.9521 1.90532C14.4969 2.05851 16.2071 2.63814 17.3767 3.40499C19.4635 4.77311 20.895 6.6023 21.6247 8.83319C22.1834 10.5414 22.2875 12.1706 21.9509 13.9425C21.7418 15.0437 21.1681 16.494 20.5974 17.3643C19.2452 19.4263 17.4259 20.8606 15.2337 21.593C12.3885 22.5436 9.48207 22.227 6.74942 20.6687C6.22328 20.3687 6.21211 20.3703 4.14492 21.0439C3.19004 21.355 2.4047 21.6055 2.39972 21.6005C2.39475 21.5956 2.64526 20.8103 2.95642 19.8556C3.65483 17.7126 3.64539 17.8043 3.24242 17.0871C2.37954 15.5513 1.95826 14.0816 1.88358 12.3468C1.69264 7.91189 4.58403 3.77107 8.84463 2.37775C10.2193 1.92822 11.5915 1.77039 12.9521 1.90532ZM6.90164 10.8995C6.79176 10.9384 6.60912 11.063 6.49571 11.1764C6.02595 11.6461 6.02567 12.3432 6.49496 12.8124C6.96393 13.2813 7.66144 13.2813 8.13041 12.8124C9.01047 11.9325 8.07925 10.4828 6.90164 10.8995ZM11.5955 10.8995C11.4857 10.9384 11.303 11.063 11.1896 11.1764C10.7198 11.6461 10.7196 12.3432 11.1889 12.8124C11.6578 13.2813 12.3553 13.2813 12.8243 12.8124C13.7044 11.9325 12.7731 10.4828 11.5955 10.8995ZM16.2894 10.8995C16.1796 10.9384 15.9969 11.063 15.8835 11.1764C15.4137 11.6461 15.4135 12.3432 15.8828 12.8124C16.3517 13.2813 17.0492 13.2813 17.5182 12.8124C18.3983 11.9325 17.467 10.4828 16.2894 10.8995Z" fill="#801AFE"/>
</svg>
