<svg width="27" height="26" viewBox="0 0 27 26" fill="none" xmlns="http://www.w3.org/2000/svg">
<path fill-rule="evenodd" clip-rule="evenodd" d="M13.0409 1.05957C12.6894 1.15864 12.3343 1.37795 12.0895 1.64718C11.9419 1.80954 11.4569 2.72896 10.4507 4.75418C9.66466 6.33621 8.98793 7.65731 8.94686 7.68998C8.90573 7.72266 7.46082 7.95097 5.73587 8.19728C3.84762 8.46688 2.48795 8.68593 2.31897 8.74771C1.72739 8.9641 1.29377 9.42061 1.09992 10.0312C0.91289 10.6203 0.989251 11.2019 1.32202 11.7228C1.40902 11.859 2.50911 12.9647 3.76662 14.1799C5.02413 15.3951 6.0634 16.4298 6.07611 16.4793C6.08888 16.5287 5.85865 17.9592 5.56455 19.6582C5.27045 21.3571 5.02909 22.8585 5.02827 22.9947C5.02511 23.5257 5.36126 24.2272 5.76598 24.5339C6.08228 24.7736 6.54083 24.9533 6.91161 24.9829C7.53434 25.0326 7.31033 25.1338 12.0264 22.6712C12.8313 22.251 13.5368 21.9071 13.5942 21.9071C13.6516 21.9071 14.9812 22.5768 16.5488 23.3953C18.497 24.4124 19.493 24.9034 19.6956 24.9464C20.8565 25.193 22.0317 24.3239 22.1311 23.1453C22.1547 22.866 22.0576 22.2107 21.6149 19.6617C21.2755 17.7072 21.087 16.49 21.1156 16.4373C21.1408 16.3906 22.1829 15.366 23.4315 14.1604C24.68 12.9548 25.7724 11.8574 25.859 11.7217C26.1911 11.2019 26.2673 10.6199 26.0804 10.0312C25.8867 9.42083 25.4536 8.96469 24.8614 8.74738C24.6917 8.68511 23.3406 8.46678 21.4445 8.19527C19.7195 7.94826 18.2734 7.71947 18.2309 7.68684C18.1883 7.65422 17.5101 6.3315 16.7237 4.74746C15.1521 1.58199 15.1007 1.50032 14.4887 1.20096C14.0844 1.00321 13.4578 0.942029 13.0409 1.05957ZM13.7378 2.7663C13.7949 2.80239 15.2458 5.65729 16.3331 7.87277C16.9523 9.13448 17.2687 9.35027 18.8264 9.573C19.3514 9.64806 20.7259 9.84445 21.8808 10.0095C23.0358 10.1745 24.0726 10.3349 24.1848 10.3659C24.4192 10.4309 24.5064 10.6207 24.3823 10.7958C24.3415 10.8535 23.277 11.8978 22.0169 13.1165C19.5363 15.5158 19.4944 15.5654 19.3736 16.2505C19.3108 16.6064 19.2867 16.4461 20.1675 21.5401C20.4201 23.0014 20.4246 23.0457 20.3275 23.1523C20.2725 23.2126 20.1868 23.2619 20.137 23.2619C20.0871 23.2619 18.7846 22.6039 17.2425 21.7997C15.7004 20.9955 14.3292 20.3005 14.1956 20.2553C13.8295 20.1313 13.242 20.1506 12.8811 20.2984C12.7161 20.366 11.3577 21.0605 9.86254 21.8416C8.36733 22.6228 7.10094 23.2619 7.04836 23.2619C6.99578 23.2619 6.90758 23.2124 6.85243 23.1518C6.75464 23.0444 6.76544 22.9651 7.29118 19.9409C7.60705 18.1242 7.828 16.7055 7.82473 16.515C7.81819 16.1317 7.69159 15.7349 7.4768 15.4247C7.39176 15.3019 6.32096 14.2336 5.09727 13.0507C3.87353 11.8678 2.83889 10.8529 2.79803 10.7954C2.67367 10.6206 2.76116 10.4307 2.99559 10.3668C3.10779 10.3361 4.57409 10.1143 6.25403 9.87382C8.96099 9.48635 9.34574 9.41931 9.63575 9.28464C9.97987 9.12478 10.3047 8.83951 10.5043 8.52167C10.5698 8.41735 11.2324 7.10048 11.9767 5.59529C12.721 4.09011 13.3686 2.82813 13.4159 2.79085C13.513 2.71438 13.6402 2.70468 13.7378 2.7663Z" fill="#801AFE" stroke="#801AFE" stroke-width="0.4"/>
</svg>
