<svg width="29" height="26" viewBox="0 0 29 26" fill="none" xmlns="http://www.w3.org/2000/svg">
<path fill-rule="evenodd" clip-rule="evenodd" d="M1 6.93232V12.8646H2.25949H3.51898L3.53257 15.4937L3.54617 18.1227L5.84696 15.4929L8.14771 12.863L9.57435 12.8769L11.0009 12.8909L11.0144 16.3164L11.0279 19.7419H15.8805H20.7329L23.0329 22.371L25.333 25L25.3466 22.371L25.3602 19.7419H26.6197H27.8792V13.8099V7.87781L22.8787 7.86443L17.8782 7.85104L17.8647 4.42552L17.8512 1H9.42562H1V6.93232ZM16.0145 5.38361V7.87729H13.5209H11.0272V9.42599V10.9747H9.16948H7.31183L6.38324 12.0378C5.87253 12.6225 5.43275 13.1088 5.40603 13.1184C5.37716 13.1288 5.35737 12.6962 5.35737 12.0553V10.9747H4.12365H2.88994V6.93232V2.88994H9.45224H16.0145V5.38361ZM8.5247 4.13898C8.3755 4.19227 8.16718 4.30162 8.06177 4.382C7.88695 4.51534 7.5614 4.90866 7.56293 4.98463C7.56329 5.00195 7.6401 5.06705 7.73355 5.12926C7.82705 5.19147 8.02622 5.3297 8.17616 5.43648L8.44878 5.63057L8.65363 5.41522C8.82761 5.23237 8.89051 5.19987 9.07078 5.19987C9.34887 5.19987 9.52222 5.33826 9.52222 5.56027C9.52222 5.76034 9.32472 5.98729 8.97975 6.18369C8.37523 6.52787 8.24898 6.62798 8.14272 6.84748C8.08334 6.97012 8.03478 7.16929 8.03478 7.29014V7.5098H8.61226C9.05682 7.5098 9.18975 7.49379 9.18975 7.44019C9.18975 7.33556 9.38483 7.18116 9.79348 6.96245C10.5419 6.56194 10.7997 6.15366 10.7532 5.44246C10.7139 4.84083 10.4358 4.43523 9.89847 4.19584C9.53372 4.0333 8.89476 4.0069 8.5247 4.13898ZM8.04623 8.80913L8.06103 9.42599L8.62539 9.4409L9.18975 9.45581V8.82404V8.19228H8.61058H8.03147L8.04623 8.80913ZM25.9892 13.8096V17.852H24.7555H23.5218V18.9326C23.5218 19.5269 23.5016 20.0053 23.4769 19.9956C23.4522 19.986 23.0134 19.4997 22.5018 18.9151L21.5715 17.852H17.2181H12.8646V13.8096V9.76723H19.4269H25.9892V13.8096ZM18.8494 12.4971V14.0721H19.5582H20.2669V12.4971V10.9222H19.5582H18.8494V12.4971ZM18.8494 15.6223V16.3326L19.5451 16.3179L20.2407 16.3033L20.2553 15.6077L20.2699 14.9121H19.5597H18.8494V15.6223Z" fill="#801AFE" stroke="#F6F8F9" stroke-width="0.4"/>
</svg>
