<svg width="26" height="26" viewBox="0 0 26 26" fill="none" xmlns="http://www.w3.org/2000/svg">
<path fill-rule="evenodd" clip-rule="evenodd" d="M11.9174 24.9716C9.59957 24.7445 7.45738 23.8902 5.57914 22.4438C4.66449 21.7394 3.47667 20.4157 2.79025 19.3358C2.4938 18.8695 1.91672 17.6877 1.70999 17.1237C1.47885 16.4931 1.2325 15.5294 1.11127 14.7816C0.962909 13.8663 0.962909 12.1285 1.11127 11.2133C1.32105 9.9194 1.6529 8.87342 2.22092 7.71542C2.84152 6.45032 3.48681 5.55355 4.52016 4.52016C5.55355 3.48681 6.45032 2.84152 7.71542 2.22092C8.87342 1.6529 9.9194 1.32105 11.2133 1.11127C12.1285 0.962908 13.8663 0.962908 14.7816 1.11127C16.0754 1.32105 17.1214 1.6529 18.2794 2.22092C19.5445 2.84152 20.4413 3.48681 21.4747 4.52016C22.508 5.55355 23.1533 6.45032 23.7739 7.71542C24.1861 8.55575 24.3934 9.10649 24.6155 9.951C24.9113 11.0757 24.9863 11.6922 24.9863 12.9974C24.9863 14.3027 24.9113 14.9192 24.6155 16.0438C24.3934 16.8884 24.1861 17.4391 23.7739 18.2794C23.1533 19.5445 22.508 20.4413 21.4747 21.4747C20.4413 22.508 19.5445 23.1533 18.2794 23.7739C17.1225 24.3414 16.0559 24.68 14.805 24.8768C14.1149 24.9853 12.5739 25.0359 11.9174 24.9716ZM14.3033 22.7389C17.6215 22.2761 20.449 20.2042 21.8803 17.1865C22.522 15.8338 22.8102 14.5354 22.8102 12.9974C22.8102 12.1014 22.7338 11.4508 22.531 10.6218C21.6796 7.14027 18.8546 4.31522 15.3731 3.46381C14.5441 3.26107 13.8935 3.18464 12.9974 3.18464C12.1014 3.18464 11.4508 3.26107 10.6218 3.46381C7.14027 4.31522 4.31522 7.14027 3.46381 10.6218C3.26107 11.4508 3.18464 12.1014 3.18464 12.9974C3.18464 13.8935 3.26107 14.5441 3.46381 15.3731C4.31625 18.8588 7.14346 21.683 10.6317 22.5331C10.9445 22.6094 11.3988 22.7007 11.6411 22.7359C12.2564 22.8255 13.6711 22.8271 14.3033 22.7389Z" fill="#801AFE"/>
<path d="M11.956 8.08825C12.1537 7.60831 12.4832 7.30002 12.916 7.1901C13.4294 7.05979 14.0287 7.27711 14.3188 7.69881C14.6194 8.13571 14.6185 8.10787 14.4336 11.2886C14.3413 12.876 14.2668 14.3036 14.2681 14.4609C14.2727 15.055 14.0351 15.4767 13.5914 15.6618C13.315 15.7771 13.0933 15.7604 12.7771 15.6002C12.3129 15.3651 12.2642 15.2271 12.1854 13.9231C12.1494 13.3271 12.0678 11.9842 12.004 10.939C11.8645 8.65182 11.859 8.32365 11.956 8.08825Z" fill="#801AFE"/>
<path d="M11.9174 18.0896C11.871 17.4743 12.2633 16.9143 12.8832 16.7109C13.0961 16.6411 13.6139 16.6948 13.8401 16.8103C14.0853 16.9354 14.354 17.2256 14.4639 17.4841C14.582 17.7616 14.5678 18.3393 14.4367 18.5949C14.1928 19.0705 13.7613 19.3376 13.2397 19.3358C12.509 19.3333 11.973 18.8282 11.9174 18.0896Z" fill="#801AFE"/>
<path fill-rule="evenodd" clip-rule="evenodd" d="M11.9174 24.9716C9.59957 24.7445 7.45738 23.8902 5.57914 22.4438C4.66449 21.7394 3.47667 20.4157 2.79025 19.3358C2.4938 18.8695 1.91672 17.6877 1.70999 17.1237C1.47885 16.4931 1.2325 15.5294 1.11127 14.7816C0.962909 13.8663 0.962909 12.1285 1.11127 11.2133C1.32105 9.9194 1.6529 8.87342 2.22092 7.71542C2.84152 6.45032 3.48681 5.55355 4.52016 4.52016C5.55355 3.48681 6.45032 2.84152 7.71542 2.22092C8.87342 1.6529 9.9194 1.32105 11.2133 1.11127C12.1285 0.962908 13.8663 0.962908 14.7816 1.11127C16.0754 1.32105 17.1214 1.6529 18.2794 2.22092C19.5445 2.84152 20.4413 3.48681 21.4747 4.52016C22.508 5.55355 23.1533 6.45032 23.7739 7.71542C24.1861 8.55575 24.3934 9.10649 24.6155 9.951C24.9113 11.0757 24.9863 11.6922 24.9863 12.9974C24.9863 14.3027 24.9113 14.9192 24.6155 16.0438C24.3934 16.8884 24.1861 17.4391 23.7739 18.2794C23.1533 19.5445 22.508 20.4413 21.4747 21.4747C20.4413 22.508 19.5445 23.1533 18.2794 23.7739C17.1225 24.3414 16.0559 24.68 14.805 24.8768C14.1149 24.9853 12.5739 25.0359 11.9174 24.9716ZM14.3033 22.7389C17.6215 22.2761 20.449 20.2042 21.8803 17.1865C22.522 15.8338 22.8102 14.5354 22.8102 12.9974C22.8102 12.1014 22.7338 11.4508 22.531 10.6218C21.6796 7.14027 18.8546 4.31522 15.3731 3.46381C14.5441 3.26107 13.8935 3.18464 12.9974 3.18464C12.1014 3.18464 11.4508 3.26107 10.6218 3.46381C7.14027 4.31522 4.31522 7.14027 3.46381 10.6218C3.26107 11.4508 3.18464 12.1014 3.18464 12.9974C3.18464 13.8935 3.26107 14.5441 3.46381 15.3731C4.31625 18.8588 7.14346 21.683 10.6317 22.5331C10.9445 22.6094 11.3988 22.7007 11.6411 22.7359C12.2564 22.8255 13.6711 22.8271 14.3033 22.7389Z" stroke="#801AFE" stroke-width="0.4"/>
<path d="M11.956 8.08825C12.1537 7.60831 12.4832 7.30002 12.916 7.1901C13.4294 7.05979 14.0287 7.27711 14.3188 7.69881C14.6194 8.13571 14.6185 8.10787 14.4336 11.2886C14.3413 12.876 14.2668 14.3036 14.2681 14.4609C14.2727 15.055 14.0351 15.4767 13.5914 15.6618C13.315 15.7771 13.0933 15.7604 12.7771 15.6002C12.3129 15.3651 12.2642 15.2271 12.1854 13.9231C12.1494 13.3271 12.0678 11.9842 12.004 10.939C11.8645 8.65182 11.859 8.32365 11.956 8.08825Z" stroke="#801AFE" stroke-width="0.4"/>
<path d="M11.9174 18.0896C11.871 17.4743 12.2633 16.9143 12.8832 16.7109C13.0961 16.6411 13.6139 16.6948 13.8401 16.8103C14.0853 16.9354 14.354 17.2256 14.4639 17.4841C14.582 17.7616 14.5678 18.3393 14.4367 18.5949C14.1928 19.0705 13.7613 19.3376 13.2397 19.3358C12.509 19.3333 11.973 18.8282 11.9174 18.0896Z" stroke="#801AFE" stroke-width="0.4"/>
</svg>
