<svg width="29" height="26" viewBox="0 0 29 26" fill="none" xmlns="http://www.w3.org/2000/svg">
<path fill-rule="evenodd" clip-rule="evenodd" d="M2.8342 1.05262C2.24837 1.18972 1.5616 1.72127 1.29474 2.24406C0.987328 2.84626 0.999417 2.54757 1.00026 9.53661C1.00111 16.5373 0.993293 16.3455 1.29885 16.8754C1.57833 17.3602 2.05383 17.7617 2.60963 17.9822L2.92638 18.1078L5.99782 18.1233L9.06925 18.1387L9.04555 18.3067C9.00717 18.579 8.75989 20.5772 8.75989 20.6151C8.75989 20.6341 8.37039 20.6497 7.89437 20.6497C7.17582 20.6497 6.9704 20.6676 6.68437 20.7554C6.10467 20.9331 5.61835 21.3671 5.33443 21.96C5.21158 22.2166 5.19643 22.3115 5.19643 22.8247C5.19643 23.338 5.21158 23.4329 5.33443 23.6895C5.61835 24.2824 6.10467 24.7164 6.68437 24.8941C7.0243 24.9984 7.1538 24.9998 16.4356 24.9998C26.7923 24.9998 26.1465 25.0199 26.7479 24.6783C27.1199 24.467 27.4996 24.0777 27.7029 23.699C28.0468 23.0583 28.029 23.5044 28.029 15.5575C28.029 10.3739 28.0121 8.2601 27.9691 8.06068C27.8023 7.28699 27.1684 6.52442 26.4727 6.26064L26.234 6.17018V4.58346C26.234 3.17341 26.2229 2.96125 26.134 2.67771C25.8894 1.89732 25.2446 1.27798 24.4676 1.07715C24.188 1.00487 22.9778 0.996382 13.5925 1.00105C7.69038 1.00403 2.94475 1.02673 2.8342 1.05262ZM24.2122 2.77566C24.5323 2.96942 24.5447 3.03855 24.5447 4.63571V6.07962L21.5488 6.08025C18.3562 6.08093 18.3243 6.08313 17.7609 6.3446C17.42 6.50283 16.8391 7.07636 16.6556 7.43574C16.3679 7.99957 16.3638 8.06791 16.3628 12.4344L16.3619 16.4569L9.82893 16.4568C2.53804 16.4567 3.07024 16.4841 2.80865 16.0954L2.68881 15.9173V9.56947C2.68881 3.52173 2.69335 3.21319 2.78526 3.04306C2.83832 2.94484 2.9627 2.82137 3.06163 2.76869C3.23405 2.67687 3.66985 2.67294 13.6423 2.67315C23.8649 2.67331 24.0461 2.67509 24.2122 2.77566ZM25.9178 7.87467C26.0138 7.93956 26.142 8.05916 26.2028 8.14055L26.3132 8.28856V15.5397V22.7908L26.2028 22.9388C26.142 23.0202 26.0131 23.1404 25.9162 23.2058L25.7401 23.3247L22.1635 23.3106C18.6479 23.2967 18.5843 23.2946 18.4379 23.1885C18.3559 23.1292 18.2354 22.9768 18.1701 22.8499L18.0513 22.6191V15.5397V8.46031L18.1701 8.22687C18.2354 8.09846 18.3696 7.94019 18.4682 7.87509L18.6476 7.75675H22.1955H25.7433L25.9178 7.87467ZM16.3619 19.3919V20.6497H13.4032H10.4444L10.474 20.4794C10.4986 20.3375 10.766 18.2058 10.766 18.1514C10.766 18.1419 12.0251 18.134 13.564 18.134H16.3619V19.3919ZM21.6362 19.8282C21.0524 20.1342 20.8205 20.8503 21.1155 21.4366C21.3395 21.8817 21.6797 22.0865 22.1994 22.0891C22.5247 22.0907 22.6061 22.0706 22.8314 21.9324C22.992 21.8339 23.1507 21.6764 23.2499 21.5172C23.5402 21.0511 23.446 20.4008 23.0318 20.0105C22.6872 19.6858 22.0635 19.6043 21.6362 19.8282ZM16.363 22.4972C16.3636 22.5909 16.3953 22.8149 16.4333 22.9951L16.5024 23.3226H11.8352H7.168L7.01369 23.1694C6.80073 22.958 6.80073 22.6915 7.01369 22.48L7.168 22.3268H11.765H16.3619L16.363 22.4972Z" fill="#801AFE" stroke="#801AFE" stroke-width="0.4"/>
</svg>
