<svg width="21" height="24" viewBox="0 0 21 24" fill="none" xmlns="http://www.w3.org/2000/svg">
<path fill-rule="evenodd" clip-rule="evenodd" d="M6.42625 0.0915437C5.42059 0.355021 4.63522 1.17311 4.42448 2.17676C4.3866 2.35726 4.35524 2.54934 4.35477 2.60363C4.35402 2.69819 4.32523 2.70344 3.66246 2.72946C2.88605 2.75993 2.48971 2.84915 1.97138 3.11019C1.06918 3.56452 0.402894 4.36902 0.104115 5.36475C0.0246025 5.62972 0.018883 6.08335 0.00599041 13.1938C-0.00887121 21.3774 -0.0164661 21.1039 0.243682 21.7481C0.69872 22.8747 1.66787 23.6804 2.8635 23.9261C3.18113 23.9914 3.88436 24.0003 8.67688 24C12.2578 23.9998 14.2335 23.9828 14.4336 23.9504C15.4202 23.7911 16.2984 23.215 16.8461 22.3677C17.2575 21.7314 17.4341 21.0537 17.4341 20.1115V19.6517L17.7897 19.5988C18.8426 19.4423 19.6199 18.7906 20.0301 17.7204L20.1298 17.4603L20.1433 10.0061C20.1529 4.70361 20.1418 2.46387 20.1048 2.24709C20.0762 2.07948 19.9704 1.76641 19.8696 1.55136C19.5323 0.831108 18.7775 0.228439 18.0087 0.0655242C17.7439 0.00940632 16.7959 -0.00132968 12.2302 0.000123669C7.00586 0.00181142 6.75354 0.0057964 6.42625 0.0915437ZM17.9757 1.80293C18.1179 1.89088 18.2591 2.03209 18.3471 2.17433L18.4889 2.40381L18.5011 9.7666L18.5133 17.1294L18.3944 17.3722C18.2572 17.6527 18.0307 17.8436 17.7266 17.9351C17.6091 17.9705 17.4958 17.9995 17.4748 17.9995C17.4539 17.9995 17.4305 15.2305 17.4228 11.8462L17.4089 5.69292L17.3013 5.34257C16.9226 4.11079 15.9886 3.18703 14.7752 2.84422C14.4133 2.74197 14.3742 2.74099 10.2025 2.72683C6.72583 2.71506 5.99485 2.7017 5.99485 2.6498C5.99485 2.53274 6.12958 2.20438 6.2376 2.05829C6.35476 1.89983 6.57918 1.74517 6.78078 1.68399C6.85134 1.66261 9.34738 1.64868 12.3276 1.65309L17.7462 1.66106L17.9757 1.80293ZM14.308 4.42687C15.0398 4.61749 15.5319 5.10783 15.7213 5.83521C15.7844 6.07731 15.7932 6.99685 15.7932 13.3422C15.7932 18.5177 15.7782 20.644 15.7405 20.8218C15.6334 21.3265 15.2631 21.8466 14.8302 22.1003C14.3696 22.3702 14.5629 22.3625 8.59197 22.3487L3.1116 22.3361L2.86406 22.2346C2.3176 22.0105 1.89829 21.5568 1.72605 21.0033C1.6373 20.7182 1.63481 20.5103 1.63481 13.3625C1.63481 5.33052 1.61976 5.78912 1.89932 5.31111C2.04405 5.06367 2.40593 4.72438 2.67128 4.5873C3.10766 4.36189 3.02459 4.36498 8.69244 4.36077C13.295 4.35734 14.0763 4.36653 14.308 4.42687ZM3.79139 8.27143V9.09187H8.71401H13.6366V8.27143V7.451H8.71401H3.79139V8.27143ZM3.79139 11.7876V12.608H8.71401H13.6366V11.7876V10.9672H8.71401H3.79139V11.7876ZM3.79139 15.3037V16.1242H8.71401H13.6366V15.3037V14.4833H8.71401H3.79139V15.3037ZM3.79139 18.8199V19.6403H8.71401H13.6366V18.8199V17.9995H8.71401H3.79139V18.8199Z" fill="#801AFE"/>
</svg>
