<svg width="1158" height="628" viewBox="0 0 1158 628" fill="none" xmlns="http://www.w3.org/2000/svg">
<g clip-path="url(#clip0_68_872)">
<rect x="-142" width="1440" height="666" fill="#C01FB3"/>
<g filter="url(#filter0_f_68_872)">
<path d="M1861.1 665.785L-151.981 1041.67L-299.002 587.507C-171.115 603.987 68.7301 554.774 281.463 545.15C547.379 533.12 944.196 361.256 1115.03 275.314C1251.69 206.56 1523.85 57.511 1665.6 61.8449L1861.1 665.785Z" fill="url(#paint0_linear_68_872)"/>
</g>
<g filter="url(#filter1_f_68_872)">
<path d="M2612.06 -199.857L2807.56 404.083L1598.46 942.298L406.961 597.798L647.459 325.805C775.345 342.285 1066.23 104.422 1278.96 94.7982C1544.88 82.7683 1890.66 99.5543 2061.49 13.612C2198.15 -55.1418 2470.32 -204.191 2612.06 -199.857Z" fill="url(#paint1_linear_68_872)"/>
</g>
<g filter="url(#filter2_f_68_872)">
<circle r="184" transform="matrix(-1 0 0 1 -154 179)" fill="url(#paint2_radial_68_872)"/>
</g>
<g filter="url(#filter3_f_68_872)">
<circle r="273" transform="matrix(-1 0 0 1 1387 652)" fill="url(#paint3_radial_68_872)"/>
</g>
</g>
<defs>
<filter id="filter0_f_68_872" x="-379.002" y="-18.2476" width="2320.1" height="1139.92" filterUnits="userSpaceOnUse" color-interpolation-filters="sRGB">
<feFlood flood-opacity="0" result="BackgroundImageFix"/>
<feBlend mode="normal" in="SourceGraphic" in2="BackgroundImageFix" result="shape"/>
<feGaussianBlur stdDeviation="40" result="effect1_foregroundBlur_68_872"/>
</filter>
<filter id="filter1_f_68_872" x="221.961" y="-384.949" width="2770.6" height="1512.25" filterUnits="userSpaceOnUse" color-interpolation-filters="sRGB">
<feFlood flood-opacity="0" result="BackgroundImageFix"/>
<feBlend mode="normal" in="SourceGraphic" in2="BackgroundImageFix" result="shape"/>
<feGaussianBlur stdDeviation="92.5" result="effect1_foregroundBlur_68_872"/>
</filter>
<filter id="filter2_f_68_872" x="-638" y="-305" width="968" height="968" filterUnits="userSpaceOnUse" color-interpolation-filters="sRGB">
<feFlood flood-opacity="0" result="BackgroundImageFix"/>
<feBlend mode="normal" in="SourceGraphic" in2="BackgroundImageFix" result="shape"/>
<feGaussianBlur stdDeviation="150" result="effect1_foregroundBlur_68_872"/>
</filter>
<filter id="filter3_f_68_872" x="814" y="79" width="1146" height="1146" filterUnits="userSpaceOnUse" color-interpolation-filters="sRGB">
<feFlood flood-opacity="0" result="BackgroundImageFix"/>
<feBlend mode="normal" in="SourceGraphic" in2="BackgroundImageFix" result="shape"/>
<feGaussianBlur stdDeviation="150" result="effect1_foregroundBlur_68_872"/>
</filter>
<linearGradient id="paint0_linear_68_872" x1="-166.507" y1="776.983" x2="1892.22" y2="645.929" gradientUnits="userSpaceOnUse">
<stop offset="0.0129279" stop-color="#4B05AC"/>
<stop offset="0.380614" stop-color="#8D01B7"/>
<stop offset="0.61473" stop-color="#A41FCA"/>
<stop offset="1" stop-color="#FF6464"/>
</linearGradient>
<linearGradient id="paint1_linear_68_872" x1="779.954" y1="515.281" x2="2838.68" y2="384.227" gradientUnits="userSpaceOnUse">
<stop offset="0.0129279" stop-color="#4B05AC"/>
<stop offset="0.380614" stop-color="#8D01B7"/>
<stop offset="0.61473" stop-color="#A41FCA"/>
<stop offset="1" stop-color="#FF6464"/>
</linearGradient>
<radialGradient id="paint2_radial_68_872" cx="0" cy="0" r="1" gradientUnits="userSpaceOnUse" gradientTransform="translate(184 184) rotate(90) scale(184)">
<stop offset="0.0334126" stop-color="#F9E283"/>
<stop offset="1" stop-color="#C95C2C"/>
</radialGradient>
<radialGradient id="paint3_radial_68_872" cx="0" cy="0" r="1" gradientUnits="userSpaceOnUse" gradientTransform="translate(273 273) rotate(90) scale(273)">
<stop offset="0.0334126" stop-color="#F9E283"/>
<stop offset="1" stop-color="#C95C2C"/>
</radialGradient>
<clipPath id="clip0_68_872">
<rect width="1158" height="628" fill="white"/>
</clipPath>
</defs>
</svg>
