<svg width="135" height="34" viewBox="0 0 135 34" fill="none" xmlns="http://www.w3.org/2000/svg">
<path d="M68.993 8C67.9726 8 67.1124 7.65715 66.4322 6.98226C65.7576 6.32626 65.3809 5.42191 65.3977 4.49865C65.3977 3.51331 65.7463 2.67914 66.4322 2.01774C67.1096 1.34285 67.9698 1 68.9902 1C69.9993 1 70.8595 1.34285 71.551 2.01774C72.2368 2.70073 72.5854 3.5349 72.5854 4.49865C72.5741 5.4867 72.2256 6.32086 71.551 6.97956C70.8735 7.65985 70.0134 8 68.993 8ZM38.6318 8C37.6339 8 36.7681 7.66255 36.0597 6.99576C35.357 6.33166 35 5.49209 35 4.50135C35 3.51061 35.357 2.67104 36.0597 2.00694C36.754 1.34015 37.6198 1.0027 38.6318 1.0027C39.1265 1.0027 39.6072 1.09719 40.0682 1.28885C40.5207 1.47513 40.889 1.72889 41.1616 2.03934L41.2291 2.11763L40.4673 2.83571L40.3886 2.74663C39.9585 2.2553 39.3823 2.01504 38.6205 2.01504C37.9403 2.01504 37.3472 2.2472 36.858 2.70613C36.3661 3.16776 36.116 3.77247 36.116 4.50405C36.116 5.23564 36.3661 5.84034 36.858 6.30197C37.3472 6.7609 37.9403 6.99306 38.6205 6.99306C39.3457 6.99306 39.9557 6.7609 40.4308 6.30197C40.7119 6.03201 40.8862 5.65407 40.948 5.17624H38.5053V4.1666H41.9965L42.0105 4.25839C42.0358 4.42846 42.0611 4.60393 42.0611 4.76591C42.0611 5.69726 41.7688 6.45044 41.1897 7.00656C40.532 7.66525 39.6718 8 38.6318 8ZM79 7.85692H77.9234L74.6261 2.78982L74.6542 3.70228V7.85422H73.5776V1.14578H74.806L74.8398 1.19707L77.9403 5.96992L77.9122 5.06016V1.14578H79V7.85692ZM60.903 7.85692H59.8124V2.15542H57.9206V1.14578H62.792V2.15542H60.9002V7.85692H60.903ZM57.0323 7.85692H55.9445V1.14578H57.0323V7.85692ZM50.9185 7.85692H49.8306V2.15542H47.9389V1.14578H52.8103V2.15542H50.9185V7.85692ZM47.2502 7.84613H43.0787V1.14578H47.2502V2.15542H44.1694V3.99653H46.9494V4.99537H44.1694V6.83648H47.2502V7.84613ZM67.2305 6.28847C67.7168 6.7555 68.3071 6.99036 68.993 6.99036C69.6985 6.99036 70.2748 6.7609 70.7554 6.28847C71.2333 5.82954 71.4751 5.22754 71.4751 4.50135C71.4751 3.77516 71.2333 3.17046 70.7583 2.71423C70.272 2.2472 69.6788 2.01234 68.9958 2.01234C68.2902 2.01234 67.714 2.2418 67.2361 2.71423C66.7583 3.17316 66.5165 3.77516 66.5165 4.50135C66.5165 5.22754 66.7554 5.83224 67.2305 6.28847Z" fill="black"/>
<path fill-rule="evenodd" clip-rule="evenodd" d="M66.3007 18.5453C63.5755 18.5453 61.3665 20.6446 61.3665 23.5402C61.3665 26.4095 63.5899 28.5351 66.3007 28.5351C69.0259 28.5351 71.2349 26.4212 71.2349 23.5402C71.2349 20.6446 69.0259 18.5453 66.3007 18.5453ZM66.3007 26.5558C64.8098 26.5558 63.5265 25.3027 63.5265 23.5285C63.5265 21.7279 64.8127 20.5011 66.3007 20.5011C67.7916 20.5011 69.0749 21.7279 69.0749 23.5285C69.0778 25.3144 67.7916 26.5558 66.3007 26.5558ZM55.5355 18.5453C52.8103 18.5453 50.6013 20.6446 50.6013 23.5402C50.6013 26.4095 52.8247 28.5351 55.5355 28.5351C58.2607 28.5351 60.4697 26.4212 60.4697 23.5402C60.4697 20.6446 58.2578 18.5453 55.5355 18.5453ZM55.5355 26.5558C54.0446 26.5558 52.7613 25.3027 52.7613 23.5285C52.7613 21.7279 54.0475 20.5011 55.5355 20.5011C57.0264 20.5011 58.3097 21.7279 58.3097 23.5285C58.3097 25.3144 57.0264 26.5558 55.5355 26.5558ZM42.7257 20.0707V22.1846H47.7233C47.5705 23.3704 47.184 24.2458 46.5929 24.846C45.8604 25.5897 44.7299 26.3977 42.7372 26.3977C39.666 26.3977 37.2638 23.8798 37.2638 20.7617C37.2638 17.6435 39.666 15.1256 42.7372 15.1256C44.3954 15.1256 45.6037 15.7902 46.5006 16.6393L47.9771 15.1402C46.7313 13.9281 45.0731 13 42.7488 13C38.5355 13 35 16.4841 35 20.75C35 25.0275 38.5327 28.4999 42.7488 28.4999C45.0241 28.4999 46.7313 27.7445 48.0809 26.3216C49.4565 24.925 49.8919 22.9546 49.8919 21.3648C49.8919 20.87 49.8544 20.425 49.7766 20.0473H42.7228C42.7257 20.0444 42.7257 20.0707 42.7257 20.0707ZM95.1214 21.7161C94.709 20.5948 93.4632 18.5336 90.9081 18.5336C88.3762 18.5336 86.271 20.5567 86.271 23.5285C86.271 26.3333 88.3531 28.5233 91.1532 28.5233C93.4026 28.5233 94.7119 27.1268 95.2511 26.307L93.5814 25.171C93.0277 26.0054 92.2577 26.5529 91.1648 26.5529C90.0603 26.5529 89.2874 26.0435 88.7741 25.0392L95.3521 22.2724C95.3521 22.2754 95.1214 21.7161 95.1214 21.7161ZM88.4136 23.385C88.3617 21.4556 89.8901 20.4747 90.9831 20.4747C91.8454 20.4747 92.5634 20.9051 92.8086 21.5317L88.4136 23.385ZM83.07 28.2247H85.2299V13.5504H83.07V28.2247ZM79.5229 19.655H79.445C78.9577 19.0665 78.032 18.5336 76.8496 18.5336C74.3955 18.5336 72.1346 20.7265 72.1346 23.5431C72.1346 26.348 74.384 28.5146 76.8496 28.5146C78.0176 28.5146 78.9577 27.9788 79.445 27.3786H79.5229V28.0959C79.5229 30.0019 78.5193 31.0296 76.9015 31.0296C75.5779 31.0296 74.756 30.0634 74.4215 29.2553L72.5441 30.0517C73.0834 31.3692 74.5224 33 76.8987 33C79.4306 33 81.5762 31.4863 81.5762 27.7943V18.8322H79.5344V19.655C79.5373 19.655 79.5229 19.655 79.5229 19.655ZM77.0428 26.5558C75.5519 26.5558 74.3061 25.291 74.3061 23.5431C74.3061 21.7806 75.5519 20.504 77.0428 20.504C78.5194 20.504 79.6642 21.7952 79.6642 23.5431C79.6786 25.291 78.5222 26.5558 77.0428 26.5558ZM105.235 13.5504H100.07V28.2247H102.23V22.6677H105.238C107.628 22.6677 109.979 20.9081 109.979 18.1149C109.979 15.3218 107.637 13.5504 105.235 13.5504ZM105.298 20.6182H102.227V15.5823H105.298C106.916 15.5823 107.83 16.9379 107.83 18.1003C107.83 19.2509 106.905 20.6182 105.298 20.6182ZM118.636 18.519C117.067 18.519 115.449 19.2246 114.78 20.7617L116.695 21.5698C117.107 20.7617 117.863 20.4865 118.662 20.4865C119.781 20.4865 120.911 21.1657 120.937 22.3778V22.533C120.551 22.3105 119.703 21.9709 118.688 21.9709C116.62 21.9709 114.524 23.1186 114.524 25.2705C114.524 27.241 116.219 28.5058 118.108 28.5058C119.559 28.5058 120.357 27.8412 120.856 27.0711H120.934V28.2071H123.016V22.5857C123.016 19.9682 121.101 18.519 118.636 18.519ZM118.365 26.5558C117.658 26.5558 116.669 26.2045 116.669 25.3027C116.669 24.1667 117.903 23.7363 118.956 23.7363C119.908 23.7363 120.357 23.9442 120.923 24.2312C120.767 25.5487 119.671 26.5441 118.365 26.5558ZM130.612 18.8322L128.132 25.1973H128.054L125.485 18.8322H123.16L127.016 27.7299L124.819 32.675H127.068L133 18.8322H130.612ZM111.17 28.2247H113.33V13.5504H111.17V28.2247Z" fill="black"/>
<path fill-rule="evenodd" clip-rule="evenodd" d="M0.52201 1.56872C0.191118 1.92757 0 2.47589 0 3.19358V28.6488C0 29.3665 0.191118 29.9148 0.53342 30.2593L0.621848 30.3368L14.7932 16.0748V15.7561L0.610438 1.49121L0.52201 1.56872Z" fill="url(#paint0_linear_490_3413)"/>
<path fill-rule="evenodd" clip-rule="evenodd" d="M19.5091 20.8399L14.7825 16.0831V15.75L19.5091 10.9932L19.6118 11.0563L25.2027 14.2544C26.803 15.1615 26.803 16.6601 25.2027 17.5787L19.6118 20.7768L19.5091 20.8399Z" fill="url(#paint1_linear_490_3413)"/>
<path fill-rule="evenodd" clip-rule="evenodd" d="M19.6049 20.7792L14.7756 15.9189L0.515869 30.27C1.03788 30.8326 1.9136 30.8958 2.89202 30.3475L19.6049 20.7792Z" fill="url(#paint2_linear_490_3413)"/>
<path fill-rule="evenodd" clip-rule="evenodd" d="M19.6049 11.0578L2.89202 1.5039C1.9136 0.941224 1.03503 1.01874 0.515869 1.58141L14.7756 15.9181L19.6049 11.0578Z" fill="url(#paint3_linear_490_3413)"/>
<defs>
<linearGradient id="paint0_linear_490_3413" x1="13.522" y1="2.91895" x2="-9.19707" y2="8.93397" gradientUnits="userSpaceOnUse">
<stop stop-color="#00A0FF"/>
<stop offset="0.00657" stop-color="#00A1FF"/>
<stop offset="0.2601" stop-color="#00BEFF"/>
<stop offset="0.5122" stop-color="#00D2FF"/>
<stop offset="0.7604" stop-color="#00DFFF"/>
<stop offset="1" stop-color="#00E3FF"/>
</linearGradient>
<linearGradient id="paint1_linear_490_3413" x1="27.2896" y1="15.9166" x2="-0.388217" y2="15.9166" gradientUnits="userSpaceOnUse">
<stop stop-color="#FFE000"/>
<stop offset="0.4087" stop-color="#FFBD00"/>
<stop offset="0.7754" stop-color="#FFA500"/>
<stop offset="1" stop-color="#FF9C00"/>
</linearGradient>
<linearGradient id="paint2_linear_490_3413" x1="16.9789" y1="18.5636" x2="-1.41691" y2="49.3284" gradientUnits="userSpaceOnUse">
<stop stop-color="#FF3A44"/>
<stop offset="1" stop-color="#C31162"/>
</linearGradient>
<linearGradient id="paint3_linear_490_3413" x1="-3.07489" y1="-6.89974" x2="5.13228" y2="6.84037" gradientUnits="userSpaceOnUse">
<stop stop-color="#32A071"/>
<stop offset="0.0685" stop-color="#2DA771"/>
<stop offset="0.4762" stop-color="#15CF74"/>
<stop offset="0.8009" stop-color="#06E775"/>
<stop offset="1" stop-color="#00F076"/>
</linearGradient>
</defs>
</svg>
